<?xml version="1.0" encoding="utf-8" standalone="no"?>
<!DOCTYPE svg PUBLIC "-//W3C//DTD SVG 1.1//EN"
  "http://www.w3.org/Graphics/SVG/1.1/DTD/svg11.dtd">
<svg xmlns:xlink="http://www.w3.org/1999/xlink" width="429.979969pt" height="395.194969pt" viewBox="0 0 429.979969 395.194969" xmlns="http://www.w3.org/2000/svg" version="1.1">
 <metadata>
  <rdf:RDF xmlns:dc="http://purl.org/dc/elements/1.1/" xmlns:cc="http://creativecommons.org/ns#" xmlns:rdf="http://www.w3.org/1999/02/22-rdf-syntax-ns#">
   <cc:Work>
    <dc:type rdf:resource="http://purl.org/dc/dcmitype/StillImage"/>
    <dc:date>2026-07-02T23:57:33.358655</dc:date>
    <dc:format>image/svg+xml</dc:format>
    <dc:creator>
     <cc:Agent>
      <dc:title>Matplotlib v3.9.4, https://matplotlib.org/</dc:title>
     </cc:Agent>
    </dc:creator>
   </cc:Work>
  </rdf:RDF>
 </metadata>
 <defs>
  <style type="text/css">*{stroke-linejoin: round; stroke-linecap: butt}</style>
 </defs>
 <g id="figure_1">
  <g id="patch_1">
   <path d="M 0 395.194969 
L 429.979969 395.194969 
L 429.979969 0 
L 0 0 
z
" style="fill: #ffffff"/>
  </g>
  <g id="axes_1">
   <g id="patch_2">
    <path d="M 93.372 357.984 
L 373.908 357.984 
L 373.908 77.448 
L 93.372 77.448 
z
" style="fill: #ffffff"/>
   </g>
   <g id="matplotlib.axis_1">
    <g id="xtick_1">
     <g id="line2d_1">
      <path d="M 106.123636 357.984 
L 106.123636 77.448 
" clip-path="url(#pab0370bf49)" style="fill: none; stroke: #e2e8f0; stroke-width: 0.7; stroke-linecap: round"/>
     </g>
     <g id="text_1">
      <text style="fill: #475569; font: 8.8px 'DejaVu Sans'; text-anchor: middle" x="106.123636" y="372.970625" transform="rotate(-0 106.123636 372.970625)">0.0</text>
     </g>
    </g>
    <g id="xtick_2">
     <g id="line2d_2">
      <path d="M 157.130182 357.984 
L 157.130182 77.448 
" clip-path="url(#pab0370bf49)" style="fill: none; stroke: #e2e8f0; stroke-width: 0.7; stroke-linecap: round"/>
     </g>
     <g id="text_2">
      <text style="fill: #475569; font: 8.8px 'DejaVu Sans'; text-anchor: middle" x="157.130182" y="372.970625" transform="rotate(-0 157.130182 372.970625)">0.2</text>
     </g>
    </g>
    <g id="xtick_3">
     <g id="line2d_3">
      <path d="M 208.136727 357.984 
L 208.136727 77.448 
" clip-path="url(#pab0370bf49)" style="fill: none; stroke: #e2e8f0; stroke-width: 0.7; stroke-linecap: round"/>
     </g>
     <g id="text_3">
      <text style="fill: #475569; font: 8.8px 'DejaVu Sans'; text-anchor: middle" x="208.136727" y="372.970625" transform="rotate(-0 208.136727 372.970625)">0.4</text>
     </g>
    </g>
    <g id="xtick_4">
     <g id="line2d_4">
      <path d="M 259.143273 357.984 
L 259.143273 77.448 
" clip-path="url(#pab0370bf49)" style="fill: none; stroke: #e2e8f0; stroke-width: 0.7; stroke-linecap: round"/>
     </g>
     <g id="text_4">
      <text style="fill: #475569; font: 8.8px 'DejaVu Sans'; text-anchor: middle" x="259.143273" y="372.970625" transform="rotate(-0 259.143273 372.970625)">0.6</text>
     </g>
    </g>
    <g id="xtick_5">
     <g id="line2d_5">
      <path d="M 310.149818 357.984 
L 310.149818 77.448 
" clip-path="url(#pab0370bf49)" style="fill: none; stroke: #e2e8f0; stroke-width: 0.7; stroke-linecap: round"/>
     </g>
     <g id="text_5">
      <text style="fill: #475569; font: 8.8px 'DejaVu Sans'; text-anchor: middle" x="310.149818" y="372.970625" transform="rotate(-0 310.149818 372.970625)">0.8</text>
     </g>
    </g>
    <g id="xtick_6">
     <g id="line2d_6">
      <path d="M 361.156364 357.984 
L 361.156364 77.448 
" clip-path="url(#pab0370bf49)" style="fill: none; stroke: #e2e8f0; stroke-width: 0.7; stroke-linecap: round"/>
     </g>
     <g id="text_6">
      <text style="fill: #475569; font: 8.8px 'DejaVu Sans'; text-anchor: middle" x="361.156364" y="372.970625" transform="rotate(-0 361.156364 372.970625)">1.0</text>
     </g>
    </g>
    <g id="text_7">
     <text style="fill: #262626; font: 9.5px 'DejaVu Sans'; text-anchor: middle" x="233.64" y="386.019266" transform="rotate(-0 233.64 386.019266)">Cumulative share of relation types</text>
    </g>
   </g>
   <g id="matplotlib.axis_2">
    <g id="ytick_1">
     <g id="line2d_7">
      <path d="M 93.372 345.232364 
L 373.908 345.232364 
" clip-path="url(#pab0370bf49)" style="fill: none; stroke: #e2e8f0; stroke-width: 0.7; stroke-linecap: round"/>
     </g>
     <g id="text_8">
      <text style="fill: #475569; font: 8.8px 'DejaVu Sans'; text-anchor: end" x="85.072" y="348.575676" transform="rotate(-0 85.072 348.575676)">0.0</text>
     </g>
    </g>
    <g id="ytick_2">
     <g id="line2d_8">
      <path d="M 93.372 294.225818 
L 373.908 294.225818 
" clip-path="url(#pab0370bf49)" style="fill: none; stroke: #e2e8f0; stroke-width: 0.7; stroke-linecap: round"/>
     </g>
     <g id="text_9">
      <text style="fill: #475569; font: 8.8px 'DejaVu Sans'; text-anchor: end" x="85.072" y="297.569131" transform="rotate(-0 85.072 297.569131)">0.2</text>
     </g>
    </g>
    <g id="ytick_3">
     <g id="line2d_9">
      <path d="M 93.372 243.219273 
L 373.908 243.219273 
" clip-path="url(#pab0370bf49)" style="fill: none; stroke: #e2e8f0; stroke-width: 0.7; stroke-linecap: round"/>
     </g>
     <g id="text_10">
      <text style="fill: #475569; font: 8.8px 'DejaVu Sans'; text-anchor: end" x="85.072" y="246.562585" transform="rotate(-0 85.072 246.562585)">0.4</text>
     </g>
    </g>
    <g id="ytick_4">
     <g id="line2d_10">
      <path d="M 93.372 192.212727 
L 373.908 192.212727 
" clip-path="url(#pab0370bf49)" style="fill: none; stroke: #e2e8f0; stroke-width: 0.7; stroke-linecap: round"/>
     </g>
     <g id="text_11">
      <text style="fill: #475569; font: 8.8px 'DejaVu Sans'; text-anchor: end" x="85.072" y="195.55604" transform="rotate(-0 85.072 195.55604)">0.6</text>
     </g>
    </g>
    <g id="ytick_5">
     <g id="line2d_11">
      <path d="M 93.372 141.206182 
L 373.908 141.206182 
" clip-path="url(#pab0370bf49)" style="fill: none; stroke: #e2e8f0; stroke-width: 0.7; stroke-linecap: round"/>
     </g>
     <g id="text_12">
      <text style="fill: #475569; font: 8.8px 'DejaVu Sans'; text-anchor: end" x="85.072" y="144.549494" transform="rotate(-0 85.072 144.549494)">0.8</text>
     </g>
    </g>
    <g id="ytick_6">
     <g id="line2d_12">
      <path d="M 93.372 90.199636 
L 373.908 90.199636 
" clip-path="url(#pab0370bf49)" style="fill: none; stroke: #e2e8f0; stroke-width: 0.7; stroke-linecap: round"/>
     </g>
     <g id="text_13">
      <text style="fill: #475569; font: 8.8px 'DejaVu Sans'; text-anchor: end" x="85.072" y="93.542949" transform="rotate(-0 85.072 93.542949)">1.0</text>
     </g>
    </g>
    <g id="text_14">
     <text style="fill: #262626; font: 9.5px 'DejaVu Sans'; text-anchor: middle" x="65.101547" y="217.716" transform="rotate(-90 65.101547 217.716)">Cumulative share of triples</text>
    </g>
   </g>
   <g id="line2d_13">
    <path d="M 106.123636 345.232364 
L 361.156364 90.199636 
" clip-path="url(#pab0370bf49)" style="fill: none; stroke-dasharray: 4.44,1.92; stroke-dashoffset: 0; stroke: #64748b; stroke-width: 1.2"/>
   </g>
   <g id="line2d_14">
    <path d="M 106.123636 345.232364 
L 110.304501 345.230919 
L 114.485365 345.225142 
L 118.66623 345.215032 
L 122.847094 345.203477 
L 127.027958 345.190478 
L 131.208823 345.177479 
L 135.389687 345.158702 
L 139.570551 345.138482 
L 143.751416 345.116817 
L 147.93228 345.076375 
L 152.113145 345.030156 
L 156.294009 344.981049 
L 160.474873 344.927608 
L 164.655738 344.86839 
L 168.836602 344.803395 
L 173.017466 344.726845 
L 177.198331 344.644518 
L 181.379195 344.560746 
L 185.56006 344.47553 
L 189.740924 344.38887 
L 193.921788 344.28921 
L 198.102653 344.167886 
L 202.283517 344.042228 
L 206.464382 343.913682 
L 210.645246 343.747583 
L 214.82611 343.551153 
L 219.006975 343.334502 
L 223.187839 343.113518 
L 227.368703 342.873758 
L 231.549568 342.609444 
L 235.730432 342.336464 
L 239.911297 342.018709 
L 244.092161 341.683623 
L 248.273025 341.293651 
L 252.45389 340.896458 
L 256.634754 340.453046 
L 260.815618 339.99519 
L 264.996483 339.408788 
L 269.177347 338.695285 
L 273.358212 337.779574 
L 277.539076 336.723762 
L 281.71994 335.516295 
L 285.900805 333.667541 
L 290.081669 331.80001 
L 294.262534 329.876151 
L 298.443398 327.868519 
L 302.624262 325.596574 
L 306.805127 323.24519 
L 310.985991 319.702226 
L 315.166855 316.153485 
L 319.34772 312.48342 
L 323.528584 308.222619 
L 327.709449 303.59929 
L 331.890313 298.893633 
L 336.071177 293.930884 
L 340.252042 288.644603 
L 344.432906 282.83836 
L 348.61377 270.276943 
L 352.794635 237.75476 
L 356.975499 166.177649 
L 361.156364 90.199636 
" clip-path="url(#pab0370bf49)" style="fill: none; stroke: #2563eb; stroke-width: 2.5; stroke-linecap: round"/>
   </g>
   <g id="line2d_15">
    <path d="M 106.123636 345.232364 
L 114.624727 345.232152 
L 123.125818 345.231727 
L 131.626909 345.231038 
L 140.128 345.230083 
L 148.629091 345.22775 
L 157.130182 345.225364 
L 165.631273 345.2225 
L 174.132364 345.219504 
L 182.633455 345.207969 
L 191.134545 345.173367 
L 199.635636 344.907098 
L 208.136727 344.473464 
L 216.637818 343.098027 
L 225.138909 341.713892 
L 233.64 340.064709 
L 242.141091 336.687485 
L 250.642182 332.111364 
L 259.143273 326.975713 
L 267.644364 321.154611 
L 276.145455 314.218029 
L 284.646545 307.216192 
L 293.147636 298.681098 
L 301.648727 289.585599 
L 310.149818 279.832966 
L 318.650909 265.770959 
L 327.152 247.221127 
L 335.653091 228.623832 
L 344.154182 200.626243 
L 352.655273 159.50654 
L 361.156364 90.199636 
" clip-path="url(#pab0370bf49)" style="fill: none; stroke: #16a34a; stroke-width: 2.5; stroke-linecap: round"/>
   </g>
   <g id="patch_3">
    <path d="M 93.372 357.984 
L 93.372 77.448 
" style="fill: none; stroke: #cbd5e1; stroke-linejoin: miter; stroke-linecap: square"/>
   </g>
   <g id="patch_4">
    <path d="M 93.372 357.984 
L 373.908 357.984 
" style="fill: none; stroke: #cbd5e1; stroke-linejoin: miter; stroke-linecap: square"/>
   </g>
   <g id="legend_1">
    <g id="line2d_16">
     <path d="M 101.292 88.974625 
L 110.092 88.974625 
L 118.892 88.974625 
" style="fill: none; stroke-dasharray: 4.44,1.92; stroke-dashoffset: 0; stroke: #64748b; stroke-width: 1.2"/>
    </g>
    <g id="text_15">
     <text style="fill: #0f172a; font: 8.8px 'DejaVu Sans'; text-anchor: start" x="125.932" y="92.054625" transform="rotate(-0 125.932 92.054625)">Equal relation frequency</text>
    </g>
    <g id="line2d_17">
     <path d="M 101.292 101.891375 
L 110.092 101.891375 
L 118.892 101.891375 
" style="fill: none; stroke: #2563eb; stroke-width: 2.5; stroke-linecap: round"/>
    </g>
    <g id="text_16">
     <text style="fill: #0f172a; font: 8.8px 'DejaVu Sans'; text-anchor: start" x="125.932" y="104.971375" transform="rotate(-0 125.932 104.971375)">YAGO · Gini=0.864</text>
    </g>
    <g id="line2d_18">
     <path d="M 101.292 114.808125 
L 110.092 114.808125 
L 118.892 114.808125 
" style="fill: none; stroke: #16a34a; stroke-width: 2.5; stroke-linecap: round"/>
    </g>
    <g id="text_17">
     <text style="fill: #0f172a; font: 8.8px 'DejaVu Sans'; text-anchor: start" x="125.932" y="117.888125" transform="rotate(-0 125.932 117.888125)">SemOpenAlex · Gini=0.722</text>
    </g>
   </g>
  </g>
  <g id="text_18">
   <text style="fill: #0f172a; font: 700 14px 'DejaVu Sans'; text-anchor: start" x="7.2" y="17.837812" transform="rotate(-0 7.2 17.837812)">Relation-frequency inequality</text>
  </g>
  <g id="text_19">
   <text style="fill: #475569; font: 8.7px 'DejaVu Sans'; text-anchor: start" x="7.2" y="29.376" transform="rotate(-0 7.2 29.376)">Lorenz curves quantify how strongly each graph is dominated by a small number of predicates.</text>
  </g>
 </g>
 <defs>
  <clipPath id="pab0370bf49">
   <rect x="93.372" y="77.448" width="280.536" height="280.536"/>
  </clipPath>
 </defs>
</svg>
