<?xml version="1.0" encoding="utf-8" standalone="no"?>
<!DOCTYPE svg PUBLIC "-//W3C//DTD SVG 1.1//EN"
  "http://www.w3.org/Graphics/SVG/1.1/DTD/svg11.dtd">
<svg xmlns:xlink="http://www.w3.org/1999/xlink" width="584.190219pt" height="367.258969pt" viewBox="0 0 584.190219 367.258969" xmlns="http://www.w3.org/2000/svg" version="1.1">
 <metadata>
  <rdf:RDF xmlns:dc="http://purl.org/dc/elements/1.1/" xmlns:cc="http://creativecommons.org/ns#" xmlns:rdf="http://www.w3.org/1999/02/22-rdf-syntax-ns#">
   <cc:Work>
    <dc:type rdf:resource="http://purl.org/dc/dcmitype/StillImage"/>
    <dc:date>2026-07-02T23:57:34.534735</dc:date>
    <dc:format>image/svg+xml</dc:format>
    <dc:creator>
     <cc:Agent>
      <dc:title>Matplotlib v3.9.4, https://matplotlib.org/</dc:title>
     </cc:Agent>
    </dc:creator>
   </cc:Work>
  </rdf:RDF>
 </metadata>
 <defs>
  <style type="text/css">*{stroke-linejoin: round; stroke-linecap: butt}</style>
 </defs>
 <g id="figure_1">
  <g id="patch_1">
   <path d="M 0 367.258969 
L 584.190219 367.258969 
L 584.190219 0 
L 0 0 
z
" style="fill: #ffffff"/>
  </g>
  <g id="axes_1">
   <g id="patch_2">
    <path d="M 45.491219 330.048 
L 571.391219 330.048 
L 571.391219 74.856 
L 45.491219 74.856 
z
" style="fill: #ffffff"/>
   </g>
   <g id="matplotlib.axis_1">
    <g id="xtick_1">
     <g id="line2d_1">
      <path d="M 142.085096 330.048 
L 142.085096 74.856 
" clip-path="url(#pc8644025ab)" style="fill: none; stroke: #e2e8f0; stroke-width: 0.7; stroke-linecap: round"/>
     </g>
     <g id="text_1">
      <text style="fill: #475569; font: 8.8px 'DejaVu Sans'; text-anchor: middle" x="142.085096" y="345.034625" transform="rotate(-0 142.085096 345.034625)">10</text>
     </g>
    </g>
    <g id="xtick_2">
     <g id="line2d_2">
      <path d="M 249.411627 330.048 
L 249.411627 74.856 
" clip-path="url(#pc8644025ab)" style="fill: none; stroke: #e2e8f0; stroke-width: 0.7; stroke-linecap: round"/>
     </g>
     <g id="text_2">
      <text style="fill: #475569; font: 8.8px 'DejaVu Sans'; text-anchor: middle" x="249.411627" y="345.034625" transform="rotate(-0 249.411627 345.034625)">20</text>
     </g>
    </g>
    <g id="xtick_3">
     <g id="line2d_3">
      <path d="M 356.738158 330.048 
L 356.738158 74.856 
" clip-path="url(#pc8644025ab)" style="fill: none; stroke: #e2e8f0; stroke-width: 0.7; stroke-linecap: round"/>
     </g>
     <g id="text_3">
      <text style="fill: #475569; font: 8.8px 'DejaVu Sans'; text-anchor: middle" x="356.738158" y="345.034625" transform="rotate(-0 356.738158 345.034625)">30</text>
     </g>
    </g>
    <g id="xtick_4">
     <g id="line2d_4">
      <path d="M 464.064688 330.048 
L 464.064688 74.856 
" clip-path="url(#pc8644025ab)" style="fill: none; stroke: #e2e8f0; stroke-width: 0.7; stroke-linecap: round"/>
     </g>
     <g id="text_4">
      <text style="fill: #475569; font: 8.8px 'DejaVu Sans'; text-anchor: middle" x="464.064688" y="345.034625" transform="rotate(-0 464.064688 345.034625)">40</text>
     </g>
    </g>
    <g id="xtick_5">
     <g id="line2d_5">
      <path d="M 571.391219 330.048 
L 571.391219 74.856 
" clip-path="url(#pc8644025ab)" style="fill: none; stroke: #e2e8f0; stroke-width: 0.7; stroke-linecap: round"/>
     </g>
     <g id="text_5">
      <text style="fill: #475569; font: 8.8px 'DejaVu Sans'; text-anchor: middle" x="571.391219" y="345.034625" transform="rotate(-0 571.391219 345.034625)">50</text>
     </g>
    </g>
    <g id="text_6">
     <text style="fill: #262626; font: 9.5px 'DejaVu Sans'; text-anchor: middle" x="308.441219" y="358.083266" transform="rotate(-0 308.441219 358.083266)">Candidate count k</text>
    </g>
   </g>
   <g id="matplotlib.axis_2">
    <g id="ytick_1">
     <g id="line2d_6">
      <path d="M 45.491219 330.048 
L 571.391219 330.048 
" clip-path="url(#pc8644025ab)" style="fill: none; stroke: #e2e8f0; stroke-width: 0.7; stroke-linecap: round"/>
     </g>
     <g id="text_7">
      <text style="fill: #475569; font: 8.8px 'DejaVu Sans'; text-anchor: end" x="37.191219" y="333.391312" transform="rotate(-0 37.191219 333.391312)">0</text>
     </g>
    </g>
    <g id="ytick_2">
     <g id="line2d_7">
      <path d="M 45.491219 281.44 
L 571.391219 281.44 
" clip-path="url(#pc8644025ab)" style="fill: none; stroke: #e2e8f0; stroke-width: 0.7; stroke-linecap: round"/>
     </g>
     <g id="text_8">
      <text style="fill: #475569; font: 8.8px 'DejaVu Sans'; text-anchor: end" x="37.191219" y="284.783312" transform="rotate(-0 37.191219 284.783312)">20</text>
     </g>
    </g>
    <g id="ytick_3">
     <g id="line2d_8">
      <path d="M 45.491219 232.832 
L 571.391219 232.832 
" clip-path="url(#pc8644025ab)" style="fill: none; stroke: #e2e8f0; stroke-width: 0.7; stroke-linecap: round"/>
     </g>
     <g id="text_9">
      <text style="fill: #475569; font: 8.8px 'DejaVu Sans'; text-anchor: end" x="37.191219" y="236.175312" transform="rotate(-0 37.191219 236.175312)">40</text>
     </g>
    </g>
    <g id="ytick_4">
     <g id="line2d_9">
      <path d="M 45.491219 184.224 
L 571.391219 184.224 
" clip-path="url(#pc8644025ab)" style="fill: none; stroke: #e2e8f0; stroke-width: 0.7; stroke-linecap: round"/>
     </g>
     <g id="text_10">
      <text style="fill: #475569; font: 8.8px 'DejaVu Sans'; text-anchor: end" x="37.191219" y="187.567312" transform="rotate(-0 37.191219 187.567312)">60</text>
     </g>
    </g>
    <g id="ytick_5">
     <g id="line2d_10">
      <path d="M 45.491219 135.616 
L 571.391219 135.616 
" clip-path="url(#pc8644025ab)" style="fill: none; stroke: #e2e8f0; stroke-width: 0.7; stroke-linecap: round"/>
     </g>
     <g id="text_11">
      <text style="fill: #475569; font: 8.8px 'DejaVu Sans'; text-anchor: end" x="37.191219" y="138.959312" transform="rotate(-0 37.191219 138.959312)">80</text>
     </g>
    </g>
    <g id="ytick_6">
     <g id="line2d_11">
      <path d="M 45.491219 87.008 
L 571.391219 87.008 
" clip-path="url(#pc8644025ab)" style="fill: none; stroke: #e2e8f0; stroke-width: 0.7; stroke-linecap: round"/>
     </g>
     <g id="text_12">
      <text style="fill: #475569; font: 8.8px 'DejaVu Sans'; text-anchor: end" x="37.191219" y="90.351312" transform="rotate(-0 37.191219 90.351312)">100</text>
     </g>
    </g>
    <g id="text_13">
     <text style="fill: #262626; font: 9.5px 'DejaVu Sans'; text-anchor: middle" x="14.418516" y="202.452" transform="rotate(-90 14.418516 202.452)">YAGO entities with at least k candidates (%)</text>
    </g>
   </g>
   <g id="PolyCollection_1">
    <defs>
     <path id="m359043fcd2" d="M 45.491219 -37.210969 
L 45.491219 -280.250969 
L 56.223872 -280.250969 
L 56.223872 -194.494502 
L 66.956525 -194.494502 
L 66.956525 -143.83191 
L 77.689178 -143.83191 
L 77.689178 -126.128513 
L 88.421831 -126.128513 
L 88.421831 -115.337772 
L 99.154484 -115.337772 
L 99.154484 -108.153291 
L 109.887137 -108.153291 
L 109.887137 -102.35727 
L 120.61979 -102.35727 
L 120.61979 -97.714709 
L 131.352443 -97.714709 
L 131.352443 -94.188228 
L 142.085096 -94.188228 
L 142.085096 -91.099129 
L 152.817749 -91.099129 
L 152.817749 -88.615323 
L 163.550402 -88.615323 
L 163.550402 -85.660219 
L 174.283055 -85.660219 
L 174.283055 -83.515328 
L 185.015709 -83.515328 
L 185.015709 -81.815989 
L 195.748362 -81.815989 
L 195.748362 -80.352393 
L 206.481015 -80.352393 
L 206.481015 -78.943137 
L 217.213668 -78.943137 
L 217.213668 -77.615268 
L 227.946321 -77.615268 
L 227.946321 -76.382339 
L 238.678974 -76.382339 
L 238.678974 -75.315464 
L 249.411627 -75.315464 
L 249.411627 -74.442802 
L 260.14428 -74.442802 
L 260.14428 -73.345291 
L 270.876933 -73.345291 
L 270.876933 -72.569736 
L 281.609586 -72.569736 
L 281.609586 -71.883551 
L 292.342239 -71.883551 
L 292.342239 -71.268789 
L 303.074892 -71.268789 
L 303.074892 -70.600924 
L 313.807545 -70.600924 
L 313.807545 -69.967657 
L 324.540198 -69.967657 
L 324.540198 -69.378455 
L 335.272851 -69.378455 
L 335.272851 -68.760041 
L 346.005504 -68.760041 
L 346.005504 -68.297469 
L 356.738158 -68.297469 
L 356.738158 -67.74763 
L 367.470811 -67.74763 
L 367.470811 -67.24749 
L 378.203464 -67.24749 
L 378.203464 -42.708676 
L 388.936117 -42.708676 
L 388.936117 -42.230816 
L 399.66877 -42.230816 
L 399.66877 -41.851982 
L 410.401423 -41.851982 
L 410.401423 -41.513624 
L 421.134076 -41.513624 
L 421.134076 -41.193339 
L 431.866729 -41.193339 
L 431.866729 -40.861665 
L 442.599382 -40.861665 
L 442.599382 -40.498366 
L 453.332035 -40.498366 
L 453.332035 -40.142803 
L 464.064688 -40.142803 
L 464.064688 -39.844798 
L 474.797341 -39.844798 
L 474.797341 -39.592097 
L 485.529994 -39.592097 
L 485.529994 -39.369352 
L 496.262647 -39.369352 
L 496.262647 -39.113928 
L 506.9953 -39.113928 
L 506.9953 -38.806764 
L 517.727953 -38.806764 
L 517.727953 -38.551773 
L 528.460607 -38.551773 
L 528.460607 -38.347905 
L 539.19326 -38.347905 
L 539.19326 -38.112905 
L 549.925913 -38.112905 
L 549.925913 -37.872397 
L 560.658566 -37.872397 
L 560.658566 -37.670571 
L 571.391219 -37.670571 
L 571.391219 -37.4542 
L 571.391219 -37.210969 
L 571.391219 -37.210969 
L 571.391219 -37.210969 
L 560.658566 -37.210969 
L 560.658566 -37.210969 
L 549.925913 -37.210969 
L 549.925913 -37.210969 
L 539.19326 -37.210969 
L 539.19326 -37.210969 
L 528.460607 -37.210969 
L 528.460607 -37.210969 
L 517.727953 -37.210969 
L 517.727953 -37.210969 
L 506.9953 -37.210969 
L 506.9953 -37.210969 
L 496.262647 -37.210969 
L 496.262647 -37.210969 
L 485.529994 -37.210969 
L 485.529994 -37.210969 
L 474.797341 -37.210969 
L 474.797341 -37.210969 
L 464.064688 -37.210969 
L 464.064688 -37.210969 
L 453.332035 -37.210969 
L 453.332035 -37.210969 
L 442.599382 -37.210969 
L 442.599382 -37.210969 
L 431.866729 -37.210969 
L 431.866729 -37.210969 
L 421.134076 -37.210969 
L 421.134076 -37.210969 
L 410.401423 -37.210969 
L 410.401423 -37.210969 
L 399.66877 -37.210969 
L 399.66877 -37.210969 
L 388.936117 -37.210969 
L 388.936117 -37.210969 
L 378.203464 -37.210969 
L 378.203464 -37.210969 
L 367.470811 -37.210969 
L 367.470811 -37.210969 
L 356.738158 -37.210969 
L 356.738158 -37.210969 
L 346.005504 -37.210969 
L 346.005504 -37.210969 
L 335.272851 -37.210969 
L 335.272851 -37.210969 
L 324.540198 -37.210969 
L 324.540198 -37.210969 
L 313.807545 -37.210969 
L 313.807545 -37.210969 
L 303.074892 -37.210969 
L 303.074892 -37.210969 
L 292.342239 -37.210969 
L 292.342239 -37.210969 
L 281.609586 -37.210969 
L 281.609586 -37.210969 
L 270.876933 -37.210969 
L 270.876933 -37.210969 
L 260.14428 -37.210969 
L 260.14428 -37.210969 
L 249.411627 -37.210969 
L 249.411627 -37.210969 
L 238.678974 -37.210969 
L 238.678974 -37.210969 
L 227.946321 -37.210969 
L 227.946321 -37.210969 
L 217.213668 -37.210969 
L 217.213668 -37.210969 
L 206.481015 -37.210969 
L 206.481015 -37.210969 
L 195.748362 -37.210969 
L 195.748362 -37.210969 
L 185.015709 -37.210969 
L 185.015709 -37.210969 
L 174.283055 -37.210969 
L 174.283055 -37.210969 
L 163.550402 -37.210969 
L 163.550402 -37.210969 
L 152.817749 -37.210969 
L 152.817749 -37.210969 
L 142.085096 -37.210969 
L 142.085096 -37.210969 
L 131.352443 -37.210969 
L 131.352443 -37.210969 
L 120.61979 -37.210969 
L 120.61979 -37.210969 
L 109.887137 -37.210969 
L 109.887137 -37.210969 
L 99.154484 -37.210969 
L 99.154484 -37.210969 
L 88.421831 -37.210969 
L 88.421831 -37.210969 
L 77.689178 -37.210969 
L 77.689178 -37.210969 
L 66.956525 -37.210969 
L 66.956525 -37.210969 
L 56.223872 -37.210969 
L 56.223872 -37.210969 
L 45.491219 -37.210969 
z
" style="stroke: #7c3aed; stroke-opacity: 0.12; stroke-width: 0.8"/>
    </defs>
    <g clip-path="url(#pc8644025ab)">
     <use xlink:href="#m359043fcd2" x="0" y="367.258969" style="fill: #7c3aed; fill-opacity: 0.12; stroke: #7c3aed; stroke-opacity: 0.12; stroke-width: 0.8"/>
    </g>
   </g>
   <g id="PathCollection_1">
    <defs>
     <path id="mc70c641e94" d="M 0 2.4 
C 0.636487 2.4 1.246992 2.147121 1.697056 1.697056 
C 2.147121 1.246992 2.4 0.636487 2.4 0 
C 2.4 -0.636487 2.147121 -1.246992 1.697056 -1.697056 
C 1.246992 -2.147121 0.636487 -2.4 0 -2.4 
C -0.636487 -2.4 -1.246992 -2.147121 -1.697056 -1.697056 
C -2.147121 -1.246992 -2.4 -0.636487 -2.4 0 
C -2.4 0.636487 -2.147121 1.246992 -1.697056 1.697056 
C -1.246992 2.147121 -0.636487 2.4 0 2.4 
z
" style="stroke: #7c3aed; stroke-width: 0.8"/>
    </defs>
    <g clip-path="url(#pc8644025ab)">
     <use xlink:href="#mc70c641e94" x="56.223872" y="172.764466" style="fill: #7c3aed; stroke: #7c3aed; stroke-width: 0.8"/>
    </g>
   </g>
   <g id="PathCollection_2">
    <g clip-path="url(#pc8644025ab)">
     <use xlink:href="#mc70c641e94" x="88.421831" y="251.921196" style="fill: #7c3aed; stroke: #7c3aed; stroke-width: 0.8"/>
    </g>
   </g>
   <g id="PathCollection_3">
    <g clip-path="url(#pc8644025ab)">
     <use xlink:href="#mc70c641e94" x="142.085096" y="276.15984" style="fill: #7c3aed; stroke: #7c3aed; stroke-width: 0.8"/>
    </g>
   </g>
   <g id="PathCollection_4">
    <g clip-path="url(#pc8644025ab)">
     <use xlink:href="#mc70c641e94" x="249.411627" y="292.816167" style="fill: #7c3aed; stroke: #7c3aed; stroke-width: 0.8"/>
    </g>
   </g>
   <g id="line2d_12">
    <path d="M 45.491219 87.008 
L 56.223872 87.008 
L 56.223872 172.764466 
L 66.956525 172.764466 
L 66.956525 223.427059 
L 77.689178 223.427059 
L 77.689178 241.130456 
L 88.421831 241.130456 
L 88.421831 251.921196 
L 99.154484 251.921196 
L 99.154484 259.105678 
L 109.887137 259.105678 
L 109.887137 264.901699 
L 120.61979 264.901699 
L 120.61979 269.544259 
L 131.352443 269.544259 
L 131.352443 273.070741 
L 142.085096 273.070741 
L 142.085096 276.15984 
L 152.817749 276.15984 
L 152.817749 278.643645 
L 163.550402 278.643645 
L 163.550402 281.59875 
L 174.283055 281.59875 
L 174.283055 283.743641 
L 185.015709 283.743641 
L 185.015709 285.44298 
L 195.748362 285.44298 
L 195.748362 286.906576 
L 206.481015 286.906576 
L 206.481015 288.315832 
L 217.213668 288.315832 
L 217.213668 289.643701 
L 227.946321 289.643701 
L 227.946321 290.87663 
L 238.678974 290.87663 
L 238.678974 291.943505 
L 249.411627 291.943505 
L 249.411627 292.816167 
L 260.14428 292.816167 
L 260.14428 293.913678 
L 270.876933 293.913678 
L 270.876933 294.689233 
L 281.609586 294.689233 
L 281.609586 295.375417 
L 292.342239 295.375417 
L 292.342239 295.99018 
L 303.074892 295.99018 
L 303.074892 296.658044 
L 313.807545 296.658044 
L 313.807545 297.291312 
L 324.540198 297.291312 
L 324.540198 297.880513 
L 335.272851 297.880513 
L 335.272851 298.498927 
L 346.005504 298.498927 
L 346.005504 298.9615 
L 356.738158 298.9615 
L 356.738158 299.511339 
L 367.470811 299.511339 
L 367.470811 300.011479 
L 378.203464 300.011479 
L 378.203464 324.550293 
L 388.936117 324.550293 
L 388.936117 325.028153 
L 399.66877 325.028153 
L 399.66877 325.406987 
L 410.401423 325.406987 
L 410.401423 325.745345 
L 421.134076 325.745345 
L 421.134076 326.06563 
L 431.866729 326.06563 
L 431.866729 326.397303 
L 442.599382 326.397303 
L 442.599382 326.760603 
L 453.332035 326.760603 
L 453.332035 327.116166 
L 464.064688 327.116166 
L 464.064688 327.414171 
L 474.797341 327.414171 
L 474.797341 327.666871 
L 485.529994 327.666871 
L 485.529994 327.889617 
L 496.262647 327.889617 
L 496.262647 328.14504 
L 506.9953 328.14504 
L 506.9953 328.452205 
L 517.727953 328.452205 
L 517.727953 328.707196 
L 528.460607 328.707196 
L 528.460607 328.911064 
L 539.19326 328.911064 
L 539.19326 329.146064 
L 549.925913 329.146064 
L 549.925913 329.386572 
L 560.658566 329.386572 
L 560.658566 329.588398 
L 571.391219 329.588398 
L 571.391219 329.804769 
" clip-path="url(#pc8644025ab)" style="fill: none; stroke: #7c3aed; stroke-width: 2.4; stroke-linecap: round"/>
   </g>
   <g id="patch_3">
    <path d="M 45.491219 330.048 
L 45.491219 74.856 
" style="fill: none; stroke: #cbd5e1; stroke-linejoin: miter; stroke-linecap: square"/>
   </g>
   <g id="patch_4">
    <path d="M 45.491219 330.048 
L 571.391219 330.048 
" style="fill: none; stroke: #cbd5e1; stroke-linejoin: miter; stroke-linecap: square"/>
   </g>
   <g id="text_14">
    <text style="fill: #0f172a; font: 8px 'DejaVu Sans'; text-anchor: start" x="61.223872" y="166.764466" transform="rotate(-0 61.223872 166.764466)">≥2: 64.7%</text>
   </g>
   <g id="text_15">
    <text style="fill: #0f172a; font: 8px 'DejaVu Sans'; text-anchor: start" x="93.421831" y="245.921196" transform="rotate(-0 93.421831 245.921196)">≥5: 32.1%</text>
   </g>
   <g id="text_16">
    <text style="fill: #0f172a; font: 8px 'DejaVu Sans'; text-anchor: start" x="147.085096" y="270.15984" transform="rotate(-0 147.085096 270.15984)">≥10: 22.2%</text>
   </g>
   <g id="text_17">
    <text style="fill: #0f172a; font: 8px 'DejaVu Sans'; text-anchor: start" x="254.411627" y="286.816167" transform="rotate(-0 254.411627 286.816167)">≥20: 15.3%</text>
   </g>
  </g>
  <g id="text_18">
   <text style="fill: #0f172a; font: 700 14px 'DejaVu Sans'; text-anchor: start" x="41.171219" y="17.837812" transform="rotate(-0 41.171219 17.837812)">Candidate ambiguity has a long tail</text>
  </g>
  <g id="text_19">
   <text style="fill: #475569; font: 8.7px 'DejaVu Sans'; text-anchor: start" x="41.171219" y="27.792" transform="rotate(-0 41.171219 27.792)">Complementary cumulative distribution over all 3,926,910 filtered YAGO entities.</text>
  </g>
 </g>
 <defs>
  <clipPath id="pc8644025ab">
   <rect x="45.491219" y="74.856" width="525.9" height="255.192"/>
  </clipPath>
 </defs>
</svg>
