<?xml version="1.0" encoding="utf-8" standalone="no"?>
<!DOCTYPE svg PUBLIC "-//W3C//DTD SVG 1.1//EN"
  "http://www.w3.org/Graphics/SVG/1.1/DTD/svg11.dtd">
<svg xmlns:xlink="http://www.w3.org/1999/xlink" width="821.848969pt" height="339.322969pt" viewBox="0 0 821.848969 339.322969" xmlns="http://www.w3.org/2000/svg" version="1.1">
 <metadata>
  <rdf:RDF xmlns:dc="http://purl.org/dc/elements/1.1/" xmlns:cc="http://creativecommons.org/ns#" xmlns:rdf="http://www.w3.org/1999/02/22-rdf-syntax-ns#">
   <cc:Work>
    <dc:type rdf:resource="http://purl.org/dc/dcmitype/StillImage"/>
    <dc:date>2026-07-02T23:57:35.024238</dc:date>
    <dc:format>image/svg+xml</dc:format>
    <dc:creator>
     <cc:Agent>
      <dc:title>Matplotlib v3.9.4, https://matplotlib.org/</dc:title>
     </cc:Agent>
    </dc:creator>
   </cc:Work>
  </rdf:RDF>
 </metadata>
 <defs>
  <style type="text/css">*{stroke-linejoin: round; stroke-linecap: butt}</style>
 </defs>
 <g id="figure_1">
  <g id="patch_1">
   <path d="M 0 339.322969 
L 821.848969 339.322969 
L 821.848969 0 
L 0 0 
z
" style="fill: #ffffff"/>
  </g>
  <g id="axes_1">
   <g id="patch_2">
    <path d="M 42.688969 302.112 
L 407.188969 302.112 
L 407.188969 81.984 
L 42.688969 81.984 
z
" style="fill: #ffffff"/>
   </g>
   <g id="matplotlib.axis_1">
    <g id="xtick_1">
     <g id="line2d_1">
      <path d="M 59.257151 302.112 
L 59.257151 81.984 
" clip-path="url(#p8648040e1d)" style="fill: none; stroke: #e2e8f0; stroke-width: 0.7; stroke-linecap: round"/>
     </g>
     <g id="text_1">
      <text style="fill: #475569; font: 8.8px 'DejaVu Sans'; text-anchor: middle" x="59.257151" y="317.098625" transform="rotate(-0 59.257151 317.098625)">0.20</text>
     </g>
    </g>
    <g id="xtick_2">
     <g id="line2d_2">
      <path d="M 100.677605 302.112 
L 100.677605 81.984 
" clip-path="url(#p8648040e1d)" style="fill: none; stroke: #e2e8f0; stroke-width: 0.7; stroke-linecap: round"/>
     </g>
     <g id="text_2">
      <text style="fill: #475569; font: 8.8px 'DejaVu Sans'; text-anchor: middle" x="100.677605" y="317.098625" transform="rotate(-0 100.677605 317.098625)">0.25</text>
     </g>
    </g>
    <g id="xtick_3">
     <g id="line2d_3">
      <path d="M 142.09806 302.112 
L 142.09806 81.984 
" clip-path="url(#p8648040e1d)" style="fill: none; stroke: #e2e8f0; stroke-width: 0.7; stroke-linecap: round"/>
     </g>
     <g id="text_3">
      <text style="fill: #475569; font: 8.8px 'DejaVu Sans'; text-anchor: middle" x="142.09806" y="317.098625" transform="rotate(-0 142.09806 317.098625)">0.30</text>
     </g>
    </g>
    <g id="xtick_4">
     <g id="line2d_4">
      <path d="M 183.518514 302.112 
L 183.518514 81.984 
" clip-path="url(#p8648040e1d)" style="fill: none; stroke: #e2e8f0; stroke-width: 0.7; stroke-linecap: round"/>
     </g>
     <g id="text_4">
      <text style="fill: #475569; font: 8.8px 'DejaVu Sans'; text-anchor: middle" x="183.518514" y="317.098625" transform="rotate(-0 183.518514 317.098625)">0.35</text>
     </g>
    </g>
    <g id="xtick_5">
     <g id="line2d_5">
      <path d="M 224.938969 302.112 
L 224.938969 81.984 
" clip-path="url(#p8648040e1d)" style="fill: none; stroke: #e2e8f0; stroke-width: 0.7; stroke-linecap: round"/>
     </g>
     <g id="text_5">
      <text style="fill: #475569; font: 8.8px 'DejaVu Sans'; text-anchor: middle" x="224.938969" y="317.098625" transform="rotate(-0 224.938969 317.098625)">0.40</text>
     </g>
    </g>
    <g id="xtick_6">
     <g id="line2d_6">
      <path d="M 266.359423 302.112 
L 266.359423 81.984 
" clip-path="url(#p8648040e1d)" style="fill: none; stroke: #e2e8f0; stroke-width: 0.7; stroke-linecap: round"/>
     </g>
     <g id="text_6">
      <text style="fill: #475569; font: 8.8px 'DejaVu Sans'; text-anchor: middle" x="266.359423" y="317.098625" transform="rotate(-0 266.359423 317.098625)">0.45</text>
     </g>
    </g>
    <g id="xtick_7">
     <g id="line2d_7">
      <path d="M 307.779878 302.112 
L 307.779878 81.984 
" clip-path="url(#p8648040e1d)" style="fill: none; stroke: #e2e8f0; stroke-width: 0.7; stroke-linecap: round"/>
     </g>
     <g id="text_7">
      <text style="fill: #475569; font: 8.8px 'DejaVu Sans'; text-anchor: middle" x="307.779878" y="317.098625" transform="rotate(-0 307.779878 317.098625)">0.50</text>
     </g>
    </g>
    <g id="xtick_8">
     <g id="line2d_8">
      <path d="M 349.200332 302.112 
L 349.200332 81.984 
" clip-path="url(#p8648040e1d)" style="fill: none; stroke: #e2e8f0; stroke-width: 0.7; stroke-linecap: round"/>
     </g>
     <g id="text_8">
      <text style="fill: #475569; font: 8.8px 'DejaVu Sans'; text-anchor: middle" x="349.200332" y="317.098625" transform="rotate(-0 349.200332 317.098625)">0.55</text>
     </g>
    </g>
    <g id="xtick_9">
     <g id="line2d_9">
      <path d="M 390.620787 302.112 
L 390.620787 81.984 
" clip-path="url(#p8648040e1d)" style="fill: none; stroke: #e2e8f0; stroke-width: 0.7; stroke-linecap: round"/>
     </g>
     <g id="text_9">
      <text style="fill: #475569; font: 8.8px 'DejaVu Sans'; text-anchor: middle" x="390.620787" y="317.098625" transform="rotate(-0 390.620787 317.098625)">0.60</text>
     </g>
    </g>
    <g id="text_10">
     <text style="fill: #262626; font: 9.5px 'DejaVu Sans'; text-anchor: middle" x="224.938969" y="330.147266" transform="rotate(-0 224.938969 330.147266)">Embedding threshold</text>
    </g>
   </g>
   <g id="matplotlib.axis_2">
    <g id="ytick_1">
     <g id="line2d_10">
      <path d="M 42.688969 292.150111 
L 407.188969 292.150111 
" clip-path="url(#p8648040e1d)" style="fill: none; stroke: #e2e8f0; stroke-width: 0.7; stroke-linecap: round"/>
     </g>
     <g id="text_11">
      <text style="fill: #475569; font: 8.8px 'DejaVu Sans'; text-anchor: end" x="34.388969" y="295.493423" transform="rotate(-0 34.388969 295.493423)">0.0</text>
     </g>
    </g>
    <g id="ytick_2">
     <g id="line2d_11">
      <path d="M 42.688969 250.232972 
L 407.188969 250.232972 
" clip-path="url(#p8648040e1d)" style="fill: none; stroke: #e2e8f0; stroke-width: 0.7; stroke-linecap: round"/>
     </g>
     <g id="text_12">
      <text style="fill: #475569; font: 8.8px 'DejaVu Sans'; text-anchor: end" x="34.388969" y="253.576284" transform="rotate(-0 34.388969 253.576284)">0.5</text>
     </g>
    </g>
    <g id="ytick_3">
     <g id="line2d_12">
      <path d="M 42.688969 208.315832 
L 407.188969 208.315832 
" clip-path="url(#p8648040e1d)" style="fill: none; stroke: #e2e8f0; stroke-width: 0.7; stroke-linecap: round"/>
     </g>
     <g id="text_13">
      <text style="fill: #475569; font: 8.8px 'DejaVu Sans'; text-anchor: end" x="34.388969" y="211.659145" transform="rotate(-0 34.388969 211.659145)">1.0</text>
     </g>
    </g>
    <g id="ytick_4">
     <g id="line2d_13">
      <path d="M 42.688969 166.398693 
L 407.188969 166.398693 
" clip-path="url(#p8648040e1d)" style="fill: none; stroke: #e2e8f0; stroke-width: 0.7; stroke-linecap: round"/>
     </g>
     <g id="text_14">
      <text style="fill: #475569; font: 8.8px 'DejaVu Sans'; text-anchor: end" x="34.388969" y="169.742005" transform="rotate(-0 34.388969 169.742005)">1.5</text>
     </g>
    </g>
    <g id="ytick_5">
     <g id="line2d_14">
      <path d="M 42.688969 124.481553 
L 407.188969 124.481553 
" clip-path="url(#p8648040e1d)" style="fill: none; stroke: #e2e8f0; stroke-width: 0.7; stroke-linecap: round"/>
     </g>
     <g id="text_15">
      <text style="fill: #475569; font: 8.8px 'DejaVu Sans'; text-anchor: end" x="34.388969" y="127.824866" transform="rotate(-0 34.388969 127.824866)">2.0</text>
     </g>
    </g>
    <g id="ytick_6">
     <g id="line2d_15">
      <path d="M 42.688969 82.564414 
L 407.188969 82.564414 
" clip-path="url(#p8648040e1d)" style="fill: none; stroke: #e2e8f0; stroke-width: 0.7; stroke-linecap: round"/>
     </g>
     <g id="text_16">
      <text style="fill: #475569; font: 8.8px 'DejaVu Sans'; text-anchor: end" x="34.388969" y="85.907727" transform="rotate(-0 34.388969 85.907727)">2.5</text>
     </g>
    </g>
    <g id="text_17">
     <text style="fill: #262626; font: 9.5px 'DejaVu Sans'; text-anchor: middle" x="14.418516" y="192.048" transform="rotate(-90 14.418516 192.048)">Candidate count</text>
    </g>
    <g id="text_18">
     <text style="fill: #475569; font: 8.8px 'DejaVu Sans'; text-anchor: start" x="42.688969" y="78.984" transform="rotate(-0 42.688969 78.984)">1e6</text>
    </g>
   </g>
   <g id="line2d_16">
    <path d="M 59.257151 91.989818 
L 100.677605 104.690963 
L 142.09806 126.080273 
L 183.518514 160.704333 
L 224.938969 209.009393 
L 266.359423 254.800012 
L 307.779878 280.845058 
L 349.200332 290.0089 
L 390.620787 291.913614 
" clip-path="url(#p8648040e1d)" style="fill: none; stroke: #2563eb; stroke-width: 1.2; stroke-linecap: round"/>
    <defs>
     <path id="m0edf3940d3" d="M 0 2.4 
C 0.636487 2.4 1.246992 2.147121 1.697056 1.697056 
C 2.147121 1.246992 2.4 0.636487 2.4 0 
C 2.4 -0.636487 2.147121 -1.246992 1.697056 -1.697056 
C 1.246992 -2.147121 0.636487 -2.4 0 -2.4 
C -0.636487 -2.4 -1.246992 -2.147121 -1.697056 -1.697056 
C -2.147121 -1.246992 -2.4 -0.636487 -2.4 0 
C -2.4 0.636487 -2.147121 1.246992 -1.697056 1.697056 
C -1.246992 2.147121 -0.636487 2.4 0 2.4 
z
" style="stroke: #2563eb"/>
    </defs>
    <g clip-path="url(#p8648040e1d)">
     <use xlink:href="#m0edf3940d3" x="59.257151" y="91.989818" style="fill: #2563eb; stroke: #2563eb"/>
     <use xlink:href="#m0edf3940d3" x="100.677605" y="104.690963" style="fill: #2563eb; stroke: #2563eb"/>
     <use xlink:href="#m0edf3940d3" x="142.09806" y="126.080273" style="fill: #2563eb; stroke: #2563eb"/>
     <use xlink:href="#m0edf3940d3" x="183.518514" y="160.704333" style="fill: #2563eb; stroke: #2563eb"/>
     <use xlink:href="#m0edf3940d3" x="224.938969" y="209.009393" style="fill: #2563eb; stroke: #2563eb"/>
     <use xlink:href="#m0edf3940d3" x="266.359423" y="254.800012" style="fill: #2563eb; stroke: #2563eb"/>
     <use xlink:href="#m0edf3940d3" x="307.779878" y="280.845058" style="fill: #2563eb; stroke: #2563eb"/>
     <use xlink:href="#m0edf3940d3" x="349.200332" y="290.0089" style="fill: #2563eb; stroke: #2563eb"/>
     <use xlink:href="#m0edf3940d3" x="390.620787" y="291.913614" style="fill: #2563eb; stroke: #2563eb"/>
    </g>
   </g>
   <g id="line2d_17">
    <path d="M 59.257151 150.509833 
L 100.677605 159.658417 
L 142.09806 175.951022 
L 183.518514 202.502093 
L 224.938969 236.090464 
L 266.359423 265.858927 
L 307.779878 283.630872 
L 349.200332 290.467473 
L 390.620787 291.957544 
" clip-path="url(#p8648040e1d)" style="fill: none; stroke: #16a34a; stroke-width: 1.2; stroke-linecap: round"/>
    <defs>
     <path id="m92a99c2721" d="M 0 2.4 
C 0.636487 2.4 1.246992 2.147121 1.697056 1.697056 
C 2.147121 1.246992 2.4 0.636487 2.4 0 
C 2.4 -0.636487 2.147121 -1.246992 1.697056 -1.697056 
C 1.246992 -2.147121 0.636487 -2.4 0 -2.4 
C -0.636487 -2.4 -1.246992 -2.147121 -1.697056 -1.697056 
C -2.147121 -1.246992 -2.4 -0.636487 -2.4 0 
C -2.4 0.636487 -2.147121 1.246992 -1.697056 1.697056 
C -1.246992 2.147121 -0.636487 2.4 0 2.4 
z
" style="stroke: #16a34a"/>
    </defs>
    <g clip-path="url(#p8648040e1d)">
     <use xlink:href="#m92a99c2721" x="59.257151" y="150.509833" style="fill: #16a34a; stroke: #16a34a"/>
     <use xlink:href="#m92a99c2721" x="100.677605" y="159.658417" style="fill: #16a34a; stroke: #16a34a"/>
     <use xlink:href="#m92a99c2721" x="142.09806" y="175.951022" style="fill: #16a34a; stroke: #16a34a"/>
     <use xlink:href="#m92a99c2721" x="183.518514" y="202.502093" style="fill: #16a34a; stroke: #16a34a"/>
     <use xlink:href="#m92a99c2721" x="224.938969" y="236.090464" style="fill: #16a34a; stroke: #16a34a"/>
     <use xlink:href="#m92a99c2721" x="266.359423" y="265.858927" style="fill: #16a34a; stroke: #16a34a"/>
     <use xlink:href="#m92a99c2721" x="307.779878" y="283.630872" style="fill: #16a34a; stroke: #16a34a"/>
     <use xlink:href="#m92a99c2721" x="349.200332" y="290.467473" style="fill: #16a34a; stroke: #16a34a"/>
     <use xlink:href="#m92a99c2721" x="390.620787" y="291.957544" style="fill: #16a34a; stroke: #16a34a"/>
    </g>
   </g>
   <g id="line2d_18">
    <path d="M 59.257151 233.630096 
L 100.677605 237.182657 
L 142.09806 242.279362 
L 183.518514 250.352352 
L 224.938969 265.06904 
L 266.359423 281.091196 
L 307.779878 289.364298 
L 349.200332 291.691537 
L 390.620787 292.106182 
" clip-path="url(#p8648040e1d)" style="fill: none; stroke: #dc2626; stroke-width: 1.2; stroke-linecap: round"/>
    <defs>
     <path id="m7ab4a406fc" d="M 0 2.4 
C 0.636487 2.4 1.246992 2.147121 1.697056 1.697056 
C 2.147121 1.246992 2.4 0.636487 2.4 0 
C 2.4 -0.636487 2.147121 -1.246992 1.697056 -1.697056 
C 1.246992 -2.147121 0.636487 -2.4 0 -2.4 
C -0.636487 -2.4 -1.246992 -2.147121 -1.697056 -1.697056 
C -2.147121 -1.246992 -2.4 -0.636487 -2.4 0 
C -2.4 0.636487 -2.147121 1.246992 -1.697056 1.697056 
C -1.246992 2.147121 -0.636487 2.4 0 2.4 
z
" style="stroke: #dc2626"/>
    </defs>
    <g clip-path="url(#p8648040e1d)">
     <use xlink:href="#m7ab4a406fc" x="59.257151" y="233.630096" style="fill: #dc2626; stroke: #dc2626"/>
     <use xlink:href="#m7ab4a406fc" x="100.677605" y="237.182657" style="fill: #dc2626; stroke: #dc2626"/>
     <use xlink:href="#m7ab4a406fc" x="142.09806" y="242.279362" style="fill: #dc2626; stroke: #dc2626"/>
     <use xlink:href="#m7ab4a406fc" x="183.518514" y="250.352352" style="fill: #dc2626; stroke: #dc2626"/>
     <use xlink:href="#m7ab4a406fc" x="224.938969" y="265.06904" style="fill: #dc2626; stroke: #dc2626"/>
     <use xlink:href="#m7ab4a406fc" x="266.359423" y="281.091196" style="fill: #dc2626; stroke: #dc2626"/>
     <use xlink:href="#m7ab4a406fc" x="307.779878" y="289.364298" style="fill: #dc2626; stroke: #dc2626"/>
     <use xlink:href="#m7ab4a406fc" x="349.200332" y="291.691537" style="fill: #dc2626; stroke: #dc2626"/>
     <use xlink:href="#m7ab4a406fc" x="390.620787" y="292.106182" style="fill: #dc2626; stroke: #dc2626"/>
    </g>
   </g>
   <g id="line2d_19">
    <path d="M 142.09806 302.112 
L 142.09806 81.984 
" clip-path="url(#p8648040e1d)" style="fill: none; stroke-dasharray: 3.7,1.6; stroke-dashoffset: 0; stroke: #0f172a"/>
   </g>
   <g id="patch_3">
    <path d="M 42.688969 302.112 
L 42.688969 81.984 
" style="fill: none; stroke: #cbd5e1; stroke-linejoin: miter; stroke-linecap: square"/>
   </g>
   <g id="patch_4">
    <path d="M 42.688969 302.112 
L 407.188969 302.112 
" style="fill: none; stroke: #cbd5e1; stroke-linejoin: miter; stroke-linecap: square"/>
   </g>
   <g id="legend_1">
    <g id="line2d_20">
     <path d="M 315.638719 93.510625 
L 324.438719 93.510625 
L 333.238719 93.510625 
" style="fill: none; stroke: #2563eb; stroke-width: 1.2; stroke-linecap: round"/>
     <g>
      <use xlink:href="#m0edf3940d3" x="324.438719" y="93.510625" style="fill: #2563eb; stroke: #2563eb"/>
     </g>
    </g>
    <g id="text_19">
     <text style="fill: #0f172a; font: 8.8px 'DejaVu Sans'; text-anchor: start" x="340.278719" y="96.590625" transform="rotate(-0 340.278719 96.590625)">Score pass</text>
    </g>
    <g id="line2d_21">
     <path d="M 315.638719 106.427375 
L 324.438719 106.427375 
L 333.238719 106.427375 
" style="fill: none; stroke: #16a34a; stroke-width: 1.2; stroke-linecap: round"/>
     <g>
      <use xlink:href="#m92a99c2721" x="324.438719" y="106.427375" style="fill: #16a34a; stroke: #16a34a"/>
     </g>
    </g>
    <g id="text_20">
     <text style="fill: #0f172a; font: 8.8px 'DejaVu Sans'; text-anchor: start" x="340.278719" y="109.507375" transform="rotate(-0 340.278719 109.507375)">Type pass</text>
    </g>
    <g id="line2d_22">
     <path d="M 315.638719 119.344125 
L 324.438719 119.344125 
L 333.238719 119.344125 
" style="fill: none; stroke: #dc2626; stroke-width: 1.2; stroke-linecap: round"/>
     <g>
      <use xlink:href="#m7ab4a406fc" x="324.438719" y="119.344125" style="fill: #dc2626; stroke: #dc2626"/>
     </g>
    </g>
    <g id="text_21">
     <text style="fill: #0f172a; font: 8.8px 'DejaVu Sans'; text-anchor: start" x="340.278719" y="122.424125" transform="rotate(-0 340.278719 122.424125)">Type rejected</text>
    </g>
   </g>
  </g>
  <g id="axes_2">
   <g id="patch_5">
    <path d="M 450.148969 302.112 
L 814.648969 302.112 
L 814.648969 81.984 
L 450.148969 81.984 
z
" style="fill: #ffffff"/>
   </g>
   <g id="matplotlib.axis_3">
    <g id="xtick_10">
     <g id="line2d_23">
      <path d="M 466.717151 302.112 
L 466.717151 81.984 
" clip-path="url(#p93b0ec7b9b)" style="fill: none; stroke: #e2e8f0; stroke-width: 0.7; stroke-linecap: round"/>
     </g>
     <g id="text_22">
      <text style="fill: #475569; font: 8.8px 'DejaVu Sans'; text-anchor: middle" x="466.717151" y="317.098625" transform="rotate(-0 466.717151 317.098625)">0.20</text>
     </g>
    </g>
    <g id="xtick_11">
     <g id="line2d_24">
      <path d="M 508.137605 302.112 
L 508.137605 81.984 
" clip-path="url(#p93b0ec7b9b)" style="fill: none; stroke: #e2e8f0; stroke-width: 0.7; stroke-linecap: round"/>
     </g>
     <g id="text_23">
      <text style="fill: #475569; font: 8.8px 'DejaVu Sans'; text-anchor: middle" x="508.137605" y="317.098625" transform="rotate(-0 508.137605 317.098625)">0.25</text>
     </g>
    </g>
    <g id="xtick_12">
     <g id="line2d_25">
      <path d="M 549.55806 302.112 
L 549.55806 81.984 
" clip-path="url(#p93b0ec7b9b)" style="fill: none; stroke: #e2e8f0; stroke-width: 0.7; stroke-linecap: round"/>
     </g>
     <g id="text_24">
      <text style="fill: #475569; font: 8.8px 'DejaVu Sans'; text-anchor: middle" x="549.55806" y="317.098625" transform="rotate(-0 549.55806 317.098625)">0.30</text>
     </g>
    </g>
    <g id="xtick_13">
     <g id="line2d_26">
      <path d="M 590.978514 302.112 
L 590.978514 81.984 
" clip-path="url(#p93b0ec7b9b)" style="fill: none; stroke: #e2e8f0; stroke-width: 0.7; stroke-linecap: round"/>
     </g>
     <g id="text_25">
      <text style="fill: #475569; font: 8.8px 'DejaVu Sans'; text-anchor: middle" x="590.978514" y="317.098625" transform="rotate(-0 590.978514 317.098625)">0.35</text>
     </g>
    </g>
    <g id="xtick_14">
     <g id="line2d_27">
      <path d="M 632.398969 302.112 
L 632.398969 81.984 
" clip-path="url(#p93b0ec7b9b)" style="fill: none; stroke: #e2e8f0; stroke-width: 0.7; stroke-linecap: round"/>
     </g>
     <g id="text_26">
      <text style="fill: #475569; font: 8.8px 'DejaVu Sans'; text-anchor: middle" x="632.398969" y="317.098625" transform="rotate(-0 632.398969 317.098625)">0.40</text>
     </g>
    </g>
    <g id="xtick_15">
     <g id="line2d_28">
      <path d="M 673.819423 302.112 
L 673.819423 81.984 
" clip-path="url(#p93b0ec7b9b)" style="fill: none; stroke: #e2e8f0; stroke-width: 0.7; stroke-linecap: round"/>
     </g>
     <g id="text_27">
      <text style="fill: #475569; font: 8.8px 'DejaVu Sans'; text-anchor: middle" x="673.819423" y="317.098625" transform="rotate(-0 673.819423 317.098625)">0.45</text>
     </g>
    </g>
    <g id="xtick_16">
     <g id="line2d_29">
      <path d="M 715.239878 302.112 
L 715.239878 81.984 
" clip-path="url(#p93b0ec7b9b)" style="fill: none; stroke: #e2e8f0; stroke-width: 0.7; stroke-linecap: round"/>
     </g>
     <g id="text_28">
      <text style="fill: #475569; font: 8.8px 'DejaVu Sans'; text-anchor: middle" x="715.239878" y="317.098625" transform="rotate(-0 715.239878 317.098625)">0.50</text>
     </g>
    </g>
    <g id="xtick_17">
     <g id="line2d_30">
      <path d="M 756.660332 302.112 
L 756.660332 81.984 
" clip-path="url(#p93b0ec7b9b)" style="fill: none; stroke: #e2e8f0; stroke-width: 0.7; stroke-linecap: round"/>
     </g>
     <g id="text_29">
      <text style="fill: #475569; font: 8.8px 'DejaVu Sans'; text-anchor: middle" x="756.660332" y="317.098625" transform="rotate(-0 756.660332 317.098625)">0.55</text>
     </g>
    </g>
    <g id="xtick_18">
     <g id="line2d_31">
      <path d="M 798.080787 302.112 
L 798.080787 81.984 
" clip-path="url(#p93b0ec7b9b)" style="fill: none; stroke: #e2e8f0; stroke-width: 0.7; stroke-linecap: round"/>
     </g>
     <g id="text_30">
      <text style="fill: #475569; font: 8.8px 'DejaVu Sans'; text-anchor: middle" x="798.080787" y="317.098625" transform="rotate(-0 798.080787 317.098625)">0.60</text>
     </g>
    </g>
    <g id="text_31">
     <text style="fill: #262626; font: 9.5px 'DejaVu Sans'; text-anchor: middle" x="632.398969" y="330.147266" transform="rotate(-0 632.398969 330.147266)">Embedding threshold</text>
    </g>
   </g>
   <g id="matplotlib.axis_4">
    <g id="ytick_7">
     <g id="line2d_32">
      <path d="M 450.148969 292.298921 
L 814.648969 292.298921 
" clip-path="url(#p93b0ec7b9b)" style="fill: none; stroke: #e2e8f0; stroke-width: 0.7; stroke-linecap: round"/>
     </g>
     <g id="text_32">
      <text style="fill: #475569; font: 8.8px 'DejaVu Sans'; text-anchor: end" x="441.848969" y="295.642233" transform="rotate(-0 441.848969 295.642233)">0</text>
     </g>
    </g>
    <g id="ytick_8">
     <g id="line2d_33">
      <path d="M 450.148969 249.657599 
L 814.648969 249.657599 
" clip-path="url(#p93b0ec7b9b)" style="fill: none; stroke: #e2e8f0; stroke-width: 0.7; stroke-linecap: round"/>
     </g>
     <g id="text_33">
      <text style="fill: #475569; font: 8.8px 'DejaVu Sans'; text-anchor: end" x="441.848969" y="253.000911" transform="rotate(-0 441.848969 253.000911)">20</text>
     </g>
    </g>
    <g id="ytick_9">
     <g id="line2d_34">
      <path d="M 450.148969 207.016277 
L 814.648969 207.016277 
" clip-path="url(#p93b0ec7b9b)" style="fill: none; stroke: #e2e8f0; stroke-width: 0.7; stroke-linecap: round"/>
     </g>
     <g id="text_34">
      <text style="fill: #475569; font: 8.8px 'DejaVu Sans'; text-anchor: end" x="441.848969" y="210.359589" transform="rotate(-0 441.848969 210.359589)">40</text>
     </g>
    </g>
    <g id="ytick_10">
     <g id="line2d_35">
      <path d="M 450.148969 164.374955 
L 814.648969 164.374955 
" clip-path="url(#p93b0ec7b9b)" style="fill: none; stroke: #e2e8f0; stroke-width: 0.7; stroke-linecap: round"/>
     </g>
     <g id="text_35">
      <text style="fill: #475569; font: 8.8px 'DejaVu Sans'; text-anchor: end" x="441.848969" y="167.718267" transform="rotate(-0 441.848969 167.718267)">60</text>
     </g>
    </g>
    <g id="ytick_11">
     <g id="line2d_36">
      <path d="M 450.148969 121.733633 
L 814.648969 121.733633 
" clip-path="url(#p93b0ec7b9b)" style="fill: none; stroke: #e2e8f0; stroke-width: 0.7; stroke-linecap: round"/>
     </g>
     <g id="text_36">
      <text style="fill: #475569; font: 8.8px 'DejaVu Sans'; text-anchor: end" x="441.848969" y="125.076945" transform="rotate(-0 441.848969 125.076945)">80</text>
     </g>
    </g>
    <g id="text_37">
     <text style="fill: #262626; font: 9.5px 'DejaVu Sans'; text-anchor: middle" x="424.675266" y="192.048" transform="rotate(-90 424.675266 192.048)">Rate (%)</text>
    </g>
   </g>
   <g id="line2d_37">
    <path d="M 466.717151 91.989818 
L 508.137605 104.700557 
L 549.55806 126.105647 
L 590.978514 160.755559 
L 632.398969 209.09632 
L 673.819423 254.92103 
L 715.239878 280.985538 
L 756.660332 290.156194 
L 798.080787 292.062261 
" clip-path="url(#p93b0ec7b9b)" style="fill: none; stroke: #2563eb; stroke-width: 1.2; stroke-linecap: round"/>
    <g clip-path="url(#p93b0ec7b9b)">
     <use xlink:href="#m0edf3940d3" x="466.717151" y="91.989818" style="fill: #2563eb; stroke: #2563eb"/>
     <use xlink:href="#m0edf3940d3" x="508.137605" y="104.700557" style="fill: #2563eb; stroke: #2563eb"/>
     <use xlink:href="#m0edf3940d3" x="549.55806" y="126.105647" style="fill: #2563eb; stroke: #2563eb"/>
     <use xlink:href="#m0edf3940d3" x="590.978514" y="160.755559" style="fill: #2563eb; stroke: #2563eb"/>
     <use xlink:href="#m0edf3940d3" x="632.398969" y="209.09632" style="fill: #2563eb; stroke: #2563eb"/>
     <use xlink:href="#m0edf3940d3" x="673.819423" y="254.92103" style="fill: #2563eb; stroke: #2563eb"/>
     <use xlink:href="#m0edf3940d3" x="715.239878" y="280.985538" style="fill: #2563eb; stroke: #2563eb"/>
     <use xlink:href="#m0edf3940d3" x="756.660332" y="290.156194" style="fill: #2563eb; stroke: #2563eb"/>
     <use xlink:href="#m0edf3940d3" x="798.080787" y="292.062261" style="fill: #2563eb; stroke: #2563eb"/>
    </g>
   </g>
   <g id="line2d_38">
    <path d="M 466.717151 150.55341 
L 508.137605 159.708715 
L 549.55806 176.013477 
L 590.978514 202.584351 
L 632.398969 236.197652 
L 673.819423 265.988159 
L 715.239878 283.773428 
L 756.660332 290.615015 
L 798.080787 292.106182 
" clip-path="url(#p93b0ec7b9b)" style="fill: none; stroke: #16a34a; stroke-width: 1.2; stroke-linecap: round"/>
    <g clip-path="url(#p93b0ec7b9b)">
     <use xlink:href="#m92a99c2721" x="466.717151" y="150.55341" style="fill: #16a34a; stroke: #16a34a"/>
     <use xlink:href="#m92a99c2721" x="508.137605" y="159.708715" style="fill: #16a34a; stroke: #16a34a"/>
     <use xlink:href="#m92a99c2721" x="549.55806" y="176.013477" style="fill: #16a34a; stroke: #16a34a"/>
     <use xlink:href="#m92a99c2721" x="590.978514" y="202.584351" style="fill: #16a34a; stroke: #16a34a"/>
     <use xlink:href="#m92a99c2721" x="632.398969" y="236.197652" style="fill: #16a34a; stroke: #16a34a"/>
     <use xlink:href="#m92a99c2721" x="673.819423" y="265.988159" style="fill: #16a34a; stroke: #16a34a"/>
     <use xlink:href="#m92a99c2721" x="715.239878" y="283.773428" style="fill: #16a34a; stroke: #16a34a"/>
     <use xlink:href="#m92a99c2721" x="756.660332" y="290.615015" style="fill: #16a34a; stroke: #16a34a"/>
     <use xlink:href="#m92a99c2721" x="798.080787" y="292.106182" style="fill: #16a34a; stroke: #16a34a"/>
    </g>
   </g>
   <g id="line2d_39">
    <path d="M 466.717151 229.964557 
L 508.137605 229.781626 
L 549.55806 228.272976 
L 590.978514 224.502417 
L 632.398969 222.851984 
L 673.819423 229.171002 
L 715.239878 239.760121 
L 756.660332 246.637527 
L 798.080787 252.695793 
" clip-path="url(#p93b0ec7b9b)" style="fill: none; stroke: #dc2626; stroke-width: 1.2; stroke-linecap: round"/>
    <g clip-path="url(#p93b0ec7b9b)">
     <use xlink:href="#m7ab4a406fc" x="466.717151" y="229.964557" style="fill: #dc2626; stroke: #dc2626"/>
     <use xlink:href="#m7ab4a406fc" x="508.137605" y="229.781626" style="fill: #dc2626; stroke: #dc2626"/>
     <use xlink:href="#m7ab4a406fc" x="549.55806" y="228.272976" style="fill: #dc2626; stroke: #dc2626"/>
     <use xlink:href="#m7ab4a406fc" x="590.978514" y="224.502417" style="fill: #dc2626; stroke: #dc2626"/>
     <use xlink:href="#m7ab4a406fc" x="632.398969" y="222.851984" style="fill: #dc2626; stroke: #dc2626"/>
     <use xlink:href="#m7ab4a406fc" x="673.819423" y="229.171002" style="fill: #dc2626; stroke: #dc2626"/>
     <use xlink:href="#m7ab4a406fc" x="715.239878" y="239.760121" style="fill: #dc2626; stroke: #dc2626"/>
     <use xlink:href="#m7ab4a406fc" x="756.660332" y="246.637527" style="fill: #dc2626; stroke: #dc2626"/>
     <use xlink:href="#m7ab4a406fc" x="798.080787" y="252.695793" style="fill: #dc2626; stroke: #dc2626"/>
    </g>
   </g>
   <g id="line2d_40">
    <path d="M 549.55806 302.112 
L 549.55806 81.984 
" clip-path="url(#p93b0ec7b9b)" style="fill: none; stroke-dasharray: 3.7,1.6; stroke-dashoffset: 0; stroke: #0f172a"/>
   </g>
   <g id="patch_6">
    <path d="M 450.148969 302.112 
L 450.148969 81.984 
" style="fill: none; stroke: #cbd5e1; stroke-linejoin: miter; stroke-linecap: square"/>
   </g>
   <g id="patch_7">
    <path d="M 450.148969 302.112 
L 814.648969 302.112 
" style="fill: none; stroke: #cbd5e1; stroke-linejoin: miter; stroke-linecap: square"/>
   </g>
   <g id="legend_2">
    <g id="line2d_41">
     <path d="M 684.766547 91.807828 
L 692.266547 91.807828 
L 699.766547 91.807828 
" style="fill: none; stroke: #2563eb; stroke-width: 1.2; stroke-linecap: round"/>
     <g>
      <use xlink:href="#m0edf3940d3" x="692.266547" y="91.807828" style="fill: #2563eb; stroke: #2563eb"/>
     </g>
    </g>
    <g id="text_38">
     <text style="fill: #0f172a; font: 7.5px 'DejaVu Sans'; text-anchor: start" x="705.766547" y="94.432828" transform="rotate(-0 705.766547 94.432828)">Score-pass rate</text>
    </g>
    <g id="line2d_42">
     <path d="M 684.766547 102.816422 
L 692.266547 102.816422 
L 699.766547 102.816422 
" style="fill: none; stroke: #16a34a; stroke-width: 1.2; stroke-linecap: round"/>
     <g>
      <use xlink:href="#m92a99c2721" x="692.266547" y="102.816422" style="fill: #16a34a; stroke: #16a34a"/>
     </g>
    </g>
    <g id="text_39">
     <text style="fill: #0f172a; font: 7.5px 'DejaVu Sans'; text-anchor: start" x="705.766547" y="105.441422" transform="rotate(-0 705.766547 105.441422)">Type-pass rate</text>
    </g>
    <g id="line2d_43">
     <path d="M 684.766547 113.825016 
L 692.266547 113.825016 
L 699.766547 113.825016 
" style="fill: none; stroke: #dc2626; stroke-width: 1.2; stroke-linecap: round"/>
     <g>
      <use xlink:href="#m7ab4a406fc" x="692.266547" y="113.825016" style="fill: #dc2626; stroke: #dc2626"/>
     </g>
    </g>
    <g id="text_40">
     <text style="fill: #0f172a; font: 7.5px 'DejaVu Sans'; text-anchor: start" x="705.766547" y="116.450016" transform="rotate(-0 705.766547 116.450016)">Type-fail among score-pass</text>
    </g>
   </g>
  </g>
  <g id="text_41">
   <text style="fill: #0f172a; font: 700 14px 'DejaVu Sans'; text-anchor: start" x="59.008969" y="17.837812" transform="rotate(-0 59.008969 17.837812)">Threshold selection controls both coverage and semantic rejection</text>
  </g>
  <g id="text_42">
   <text style="fill: #475569; font: 8.7px 'DejaVu Sans'; text-anchor: start" x="59.008969" y="26.208" transform="rotate(-0 59.008969 26.208)">The Stage 05 sweep supports the selected 0.30 embedding threshold without pretending to estimate true precision.</text>
  </g>
 </g>
 <defs>
  <clipPath id="p8648040e1d">
   <rect x="42.688969" y="81.984" width="364.5" height="220.128"/>
  </clipPath>
  <clipPath id="p93b0ec7b9b">
   <rect x="450.148969" y="81.984" width="364.5" height="220.128"/>
  </clipPath>
 </defs>
</svg>
