<?xml version="1.0" encoding="utf-8" standalone="no"?>
<!DOCTYPE svg PUBLIC "-//W3C//DTD SVG 1.1//EN"
  "http://www.w3.org/Graphics/SVG/1.1/DTD/svg11.dtd">
<svg xmlns:xlink="http://www.w3.org/1999/xlink" width="857.831219pt" height="573.438pt" viewBox="0 0 857.831219 573.438" xmlns="http://www.w3.org/2000/svg" version="1.1">
 <metadata>
  <rdf:RDF xmlns:dc="http://purl.org/dc/elements/1.1/" xmlns:cc="http://creativecommons.org/ns#" xmlns:rdf="http://www.w3.org/1999/02/22-rdf-syntax-ns#">
   <cc:Work>
    <dc:type rdf:resource="http://purl.org/dc/dcmitype/StillImage"/>
    <dc:date>2026-07-02T23:57:38.526515</dc:date>
    <dc:format>image/svg+xml</dc:format>
    <dc:creator>
     <cc:Agent>
      <dc:title>Matplotlib v3.9.4, https://matplotlib.org/</dc:title>
     </cc:Agent>
    </dc:creator>
   </cc:Work>
  </rdf:RDF>
 </metadata>
 <defs>
  <style type="text/css">*{stroke-linejoin: round; stroke-linecap: butt}</style>
 </defs>
 <g id="figure_1">
  <g id="patch_1">
   <path d="M 0 573.438 
L 857.831219 573.438 
L 857.831219 0 
L 0 0 
z
" style="fill: #ffffff"/>
  </g>
  <g id="axes_1">
   <g id="patch_2">
    <path d="M 45.491219 233.99942 
L 425.171219 233.99942 
L 425.171219 108.768 
L 45.491219 108.768 
z
" style="fill: #ffffff"/>
   </g>
   <g id="matplotlib.axis_1">
    <g id="xtick_1">
     <g id="text_1">
      <text style="fill: #475569; font: 8.8px 'DejaVu Sans'" transform="translate(70.994892 269.793438) rotate(-25)">Strict proxy</text>
     </g>
    </g>
    <g id="xtick_2">
     <g id="text_2">
      <text style="fill: #475569; font: 8.8px 'DejaVu Sans'" transform="translate(153.076193 281.767006) rotate(-25)">Ranked 0.30–0.45</text>
     </g>
    </g>
    <g id="xtick_3">
     <g id="text_3">
      <text style="fill: #475569; font: 8.8px 'DejaVu Sans'" transform="translate(247.996193 281.767006) rotate(-25)">Ranked 0.45–0.60</text>
     </g>
    </g>
    <g id="xtick_4">
     <g id="text_4">
      <text style="fill: #475569; font: 8.8px 'DejaVu Sans'" transform="translate(350.44744 274.743249) rotate(-25)">Ranked ≥0.60</text>
     </g>
    </g>
    <g id="text_5">
     <text style="fill: #262626; font: 9.5px 'DejaVu Sans'; text-anchor: middle" x="235.331219" y="294.644178" transform="rotate(-0 235.331219 294.644178)">Sample</text>
    </g>
   </g>
   <g id="matplotlib.axis_2">
    <g id="ytick_1">
     <g id="line2d_1">
      <path d="M 45.491219 211.032634 
L 425.171219 211.032634 
" clip-path="url(#p854555e13a)" style="fill: none; stroke: #e2e8f0; stroke-width: 0.7; stroke-linecap: round"/>
     </g>
     <g id="text_6">
      <text style="fill: #475569; font: 8.8px 'DejaVu Sans'; text-anchor: end" x="37.191219" y="214.375946" transform="rotate(-0 37.191219 214.375946)">0.4</text>
     </g>
    </g>
    <g id="ytick_2">
     <g id="line2d_2">
      <path d="M 45.491219 176.02899 
L 425.171219 176.02899 
" clip-path="url(#p854555e13a)" style="fill: none; stroke: #e2e8f0; stroke-width: 0.7; stroke-linecap: round"/>
     </g>
     <g id="text_7">
      <text style="fill: #475569; font: 8.8px 'DejaVu Sans'; text-anchor: end" x="37.191219" y="179.372303" transform="rotate(-0 37.191219 179.372303)">0.6</text>
     </g>
    </g>
    <g id="ytick_3">
     <g id="line2d_3">
      <path d="M 45.491219 141.025347 
L 425.171219 141.025347 
" clip-path="url(#p854555e13a)" style="fill: none; stroke: #e2e8f0; stroke-width: 0.7; stroke-linecap: round"/>
     </g>
     <g id="text_8">
      <text style="fill: #475569; font: 8.8px 'DejaVu Sans'; text-anchor: end" x="37.191219" y="144.36866" transform="rotate(-0 37.191219 144.36866)">0.8</text>
     </g>
    </g>
    <g id="text_9">
     <text style="fill: #262626; font: 9.5px 'DejaVu Sans'; text-anchor: middle" x="17.220766" y="171.38371" transform="rotate(-90 17.220766 171.38371)">ABC score</text>
    </g>
   </g>
   <g id="patch_3">
    <path d="M 54.983219 114.642785 
L 130.919219 114.642785 
L 130.919219 114.56893 
L 54.983219 114.56893 
L 54.983219 114.642785 
z
" clip-path="url(#p854555e13a)" style="fill: #a0c6f0; stroke: #787878; stroke-linejoin: miter"/>
   </g>
   <g id="line2d_4">
    <path d="M 92.951219 114.642785 
L 92.951219 114.745948 
" clip-path="url(#p854555e13a)" style="fill: none; stroke: #787878"/>
   </g>
   <g id="line2d_5">
    <path d="M 92.951219 114.56893 
L 92.951219 114.460337 
" clip-path="url(#p854555e13a)" style="fill: none; stroke: #787878"/>
   </g>
   <g id="line2d_6">
    <path d="M 73.967219 114.745948 
L 111.935219 114.745948 
" clip-path="url(#p854555e13a)" style="fill: none; stroke: #787878; stroke-linecap: round"/>
   </g>
   <g id="line2d_7">
    <path d="M 73.967219 114.460337 
L 111.935219 114.460337 
" clip-path="url(#p854555e13a)" style="fill: none; stroke: #787878; stroke-linecap: round"/>
   </g>
   <g id="patch_4">
    <path d="M 149.903219 222.071822 
L 225.839219 222.071822 
L 225.839219 207.444988 
L 149.903219 207.444988 
L 149.903219 222.071822 
z
" clip-path="url(#p854555e13a)" style="fill: #a0c6f0; stroke: #787878; stroke-linejoin: miter"/>
   </g>
   <g id="line2d_8">
    <path d="M 187.871219 222.071822 
L 187.871219 228.307083 
" clip-path="url(#p854555e13a)" style="fill: none; stroke: #787878"/>
   </g>
   <g id="line2d_9">
    <path d="M 187.871219 207.444988 
L 187.871219 202.720044 
" clip-path="url(#p854555e13a)" style="fill: none; stroke: #787878"/>
   </g>
   <g id="line2d_10">
    <path d="M 168.887219 228.307083 
L 206.855219 228.307083 
" clip-path="url(#p854555e13a)" style="fill: none; stroke: #787878; stroke-linecap: round"/>
   </g>
   <g id="line2d_11">
    <path d="M 168.887219 202.720044 
L 206.855219 202.720044 
" clip-path="url(#p854555e13a)" style="fill: none; stroke: #787878; stroke-linecap: round"/>
   </g>
   <g id="patch_5">
    <path d="M 244.823219 191.342658 
L 320.759219 191.342658 
L 320.759219 181.05835 
L 244.823219 181.05835 
L 244.823219 191.342658 
z
" clip-path="url(#p854555e13a)" style="fill: #a0c6f0; stroke: #787878; stroke-linejoin: miter"/>
   </g>
   <g id="line2d_12">
    <path d="M 282.791219 191.342658 
L 282.791219 200.719275 
" clip-path="url(#p854555e13a)" style="fill: none; stroke: #787878"/>
   </g>
   <g id="line2d_13">
    <path d="M 282.791219 181.05835 
L 282.791219 176.125301 
" clip-path="url(#p854555e13a)" style="fill: none; stroke: #787878"/>
   </g>
   <g id="line2d_14">
    <path d="M 263.807219 200.719275 
L 301.775219 200.719275 
" clip-path="url(#p854555e13a)" style="fill: none; stroke: #787878; stroke-linecap: round"/>
   </g>
   <g id="line2d_15">
    <path d="M 263.807219 176.125301 
L 301.775219 176.125301 
" clip-path="url(#p854555e13a)" style="fill: none; stroke: #787878; stroke-linecap: round"/>
   </g>
   <g id="patch_6">
    <path d="M 339.743219 174.255522 
L 415.679219 174.255522 
L 415.679219 169.197309 
L 339.743219 169.197309 
L 339.743219 174.255522 
z
" clip-path="url(#p854555e13a)" style="fill: #a0c6f0; stroke: #787878; stroke-linejoin: miter"/>
   </g>
   <g id="line2d_16">
    <path d="M 377.711219 174.255522 
L 377.711219 175.937882 
" clip-path="url(#p854555e13a)" style="fill: none; stroke: #787878"/>
   </g>
   <g id="line2d_17">
    <path d="M 377.711219 169.197309 
L 377.711219 163.743182 
" clip-path="url(#p854555e13a)" style="fill: none; stroke: #787878"/>
   </g>
   <g id="line2d_18">
    <path d="M 358.727219 175.937882 
L 396.695219 175.937882 
" clip-path="url(#p854555e13a)" style="fill: none; stroke: #787878; stroke-linecap: round"/>
   </g>
   <g id="line2d_19">
    <path d="M 358.727219 163.743182 
L 396.695219 163.743182 
" clip-path="url(#p854555e13a)" style="fill: none; stroke: #787878; stroke-linecap: round"/>
   </g>
   <g id="line2d_20">
    <path d="M 54.983219 114.607794 
L 130.919219 114.607794 
" clip-path="url(#p854555e13a)" style="fill: none; stroke: #787878"/>
   </g>
   <g id="line2d_21">
    <path d="M 149.903219 211.521517 
L 225.839219 211.521517 
" clip-path="url(#p854555e13a)" style="fill: none; stroke: #787878"/>
   </g>
   <g id="line2d_22">
    <path d="M 244.823219 185.592369 
L 320.759219 185.592369 
" clip-path="url(#p854555e13a)" style="fill: none; stroke: #787878"/>
   </g>
   <g id="line2d_23">
    <path d="M 339.743219 172.115638 
L 415.679219 172.115638 
" clip-path="url(#p854555e13a)" style="fill: none; stroke: #787878"/>
   </g>
   <g id="patch_7">
    <path d="M 45.491219 233.99942 
L 45.491219 108.768 
" style="fill: none; stroke: #cbd5e1; stroke-linejoin: miter; stroke-linecap: square"/>
   </g>
   <g id="patch_8">
    <path d="M 45.491219 233.99942 
L 425.171219 233.99942 
" style="fill: none; stroke: #cbd5e1; stroke-linejoin: miter; stroke-linecap: square"/>
   </g>
   <g id="text_10">
    <text style="fill: #0f172a; font: 700 11.5px 'DejaVu Sans'; text-anchor: start" x="45.491219" y="102.768" transform="rotate(-0 45.491219 102.768)">A · Final combined score</text>
   </g>
  </g>
  <g id="axes_2">
   <g id="patch_9">
    <path d="M 470.951219 233.99942 
L 850.631219 233.99942 
L 850.631219 108.768 
L 470.951219 108.768 
z
" style="fill: #ffffff"/>
   </g>
   <g id="matplotlib.axis_3">
    <g id="xtick_5">
     <g id="text_11">
      <text style="fill: #475569; font: 8.8px 'DejaVu Sans'" transform="translate(496.454892 269.793438) rotate(-25)">Strict proxy</text>
     </g>
    </g>
    <g id="xtick_6">
     <g id="text_12">
      <text style="fill: #475569; font: 8.8px 'DejaVu Sans'" transform="translate(578.536193 281.767006) rotate(-25)">Ranked 0.30–0.45</text>
     </g>
    </g>
    <g id="xtick_7">
     <g id="text_13">
      <text style="fill: #475569; font: 8.8px 'DejaVu Sans'" transform="translate(673.456193 281.767006) rotate(-25)">Ranked 0.45–0.60</text>
     </g>
    </g>
    <g id="xtick_8">
     <g id="text_14">
      <text style="fill: #475569; font: 8.8px 'DejaVu Sans'" transform="translate(775.90744 274.743249) rotate(-25)">Ranked ≥0.60</text>
     </g>
    </g>
    <g id="text_15">
     <text style="fill: #262626; font: 9.5px 'DejaVu Sans'; text-anchor: middle" x="660.791219" y="294.644178" transform="rotate(-0 660.791219 294.644178)">Sample</text>
    </g>
   </g>
   <g id="matplotlib.axis_4">
    <g id="ytick_4">
     <g id="line2d_24">
      <path d="M 470.951219 228.536441 
L 850.631219 228.536441 
" clip-path="url(#pa9fee4ec94)" style="fill: none; stroke: #e2e8f0; stroke-width: 0.7; stroke-linecap: round"/>
     </g>
     <g id="text_16">
      <text style="fill: #475569; font: 8.8px 'DejaVu Sans'; text-anchor: end" x="462.651219" y="231.879754" transform="rotate(-0 462.651219 231.879754)">0.2</text>
     </g>
    </g>
    <g id="ytick_5">
     <g id="line2d_25">
      <path d="M 470.951219 200.017415 
L 850.631219 200.017415 
" clip-path="url(#pa9fee4ec94)" style="fill: none; stroke: #e2e8f0; stroke-width: 0.7; stroke-linecap: round"/>
     </g>
     <g id="text_17">
      <text style="fill: #475569; font: 8.8px 'DejaVu Sans'; text-anchor: end" x="462.651219" y="203.360728" transform="rotate(-0 462.651219 203.360728)">0.4</text>
     </g>
    </g>
    <g id="ytick_6">
     <g id="line2d_26">
      <path d="M 470.951219 171.498389 
L 850.631219 171.498389 
" clip-path="url(#pa9fee4ec94)" style="fill: none; stroke: #e2e8f0; stroke-width: 0.7; stroke-linecap: round"/>
     </g>
     <g id="text_18">
      <text style="fill: #475569; font: 8.8px 'DejaVu Sans'; text-anchor: end" x="462.651219" y="174.841702" transform="rotate(-0 462.651219 174.841702)">0.6</text>
     </g>
    </g>
    <g id="ytick_7">
     <g id="line2d_27">
      <path d="M 470.951219 142.979363 
L 850.631219 142.979363 
" clip-path="url(#pa9fee4ec94)" style="fill: none; stroke: #e2e8f0; stroke-width: 0.7; stroke-linecap: round"/>
     </g>
     <g id="text_19">
      <text style="fill: #475569; font: 8.8px 'DejaVu Sans'; text-anchor: end" x="462.651219" y="146.322676" transform="rotate(-0 462.651219 146.322676)">0.8</text>
     </g>
    </g>
    <g id="ytick_8">
     <g id="line2d_28">
      <path d="M 470.951219 114.460337 
L 850.631219 114.460337 
" clip-path="url(#pa9fee4ec94)" style="fill: none; stroke: #e2e8f0; stroke-width: 0.7; stroke-linecap: round"/>
     </g>
     <g id="text_20">
      <text style="fill: #475569; font: 8.8px 'DejaVu Sans'; text-anchor: end" x="462.651219" y="117.80365" transform="rotate(-0 462.651219 117.80365)">1.0</text>
     </g>
    </g>
    <g id="text_21">
     <text style="fill: #262626; font: 9.5px 'DejaVu Sans'; text-anchor: middle" x="442.680766" y="171.38371" transform="rotate(-90 442.680766 171.38371)">Embedding cosine</text>
    </g>
   </g>
   <g id="patch_10">
    <path d="M 480.443219 114.460337 
L 556.379219 114.460337 
L 556.379219 114.460337 
L 480.443219 114.460337 
L 480.443219 114.460337 
z
" clip-path="url(#pa9fee4ec94)" style="fill: #c9bef4; stroke: #828282; stroke-linejoin: miter"/>
   </g>
   <g id="line2d_29">
    <path d="M 518.411219 114.460337 
L 518.411219 114.460337 
" clip-path="url(#pa9fee4ec94)" style="fill: none; stroke: #828282"/>
   </g>
   <g id="line2d_30">
    <path d="M 518.411219 114.460337 
L 518.411219 114.460337 
" clip-path="url(#pa9fee4ec94)" style="fill: none; stroke: #828282"/>
   </g>
   <g id="line2d_31">
    <path d="M 499.427219 114.460337 
L 537.395219 114.460337 
" clip-path="url(#pa9fee4ec94)" style="fill: none; stroke: #828282; stroke-linecap: round"/>
   </g>
   <g id="line2d_32">
    <path d="M 499.427219 114.460337 
L 537.395219 114.460337 
" clip-path="url(#pa9fee4ec94)" style="fill: none; stroke: #828282; stroke-linecap: round"/>
   </g>
   <g id="patch_11">
    <path d="M 575.363219 226.501995 
L 651.299219 226.501995 
L 651.299219 215.539337 
L 575.363219 215.539337 
L 575.363219 226.501995 
z
" clip-path="url(#pa9fee4ec94)" style="fill: #c9bef4; stroke: #828282; stroke-linejoin: miter"/>
   </g>
   <g id="line2d_33">
    <path d="M 613.331219 226.501995 
L 613.331219 228.227647 
" clip-path="url(#pa9fee4ec94)" style="fill: none; stroke: #828282"/>
   </g>
   <g id="line2d_34">
    <path d="M 613.331219 215.539337 
L 613.331219 200.644215 
" clip-path="url(#pa9fee4ec94)" style="fill: none; stroke: #828282"/>
   </g>
   <g id="line2d_35">
    <path d="M 594.347219 228.227647 
L 632.315219 228.227647 
" clip-path="url(#pa9fee4ec94)" style="fill: none; stroke: #828282; stroke-linecap: round"/>
   </g>
   <g id="line2d_36">
    <path d="M 594.347219 200.644215 
L 632.315219 200.644215 
" clip-path="url(#pa9fee4ec94)" style="fill: none; stroke: #828282; stroke-linecap: round"/>
   </g>
   <g id="patch_12">
    <path d="M 670.283219 216.36576 
L 746.219219 216.36576 
L 746.219219 203.00691 
L 670.283219 203.00691 
L 670.283219 216.36576 
z
" clip-path="url(#pa9fee4ec94)" style="fill: #c9bef4; stroke: #828282; stroke-linejoin: miter"/>
   </g>
   <g id="line2d_37">
    <path d="M 708.251219 216.36576 
L 708.251219 228.307083 
" clip-path="url(#pa9fee4ec94)" style="fill: none; stroke: #828282"/>
   </g>
   <g id="line2d_38">
    <path d="M 708.251219 203.00691 
L 708.251219 190.679593 
" clip-path="url(#pa9fee4ec94)" style="fill: none; stroke: #828282"/>
   </g>
   <g id="line2d_39">
    <path d="M 689.267219 228.307083 
L 727.235219 228.307083 
" clip-path="url(#pa9fee4ec94)" style="fill: none; stroke: #828282; stroke-linecap: round"/>
   </g>
   <g id="line2d_40">
    <path d="M 689.267219 190.679593 
L 727.235219 190.679593 
" clip-path="url(#pa9fee4ec94)" style="fill: none; stroke: #828282; stroke-linecap: round"/>
   </g>
   <g id="patch_13">
    <path d="M 765.203219 195.027019 
L 841.139219 195.027019 
L 841.139219 187.839372 
L 765.203219 187.839372 
L 765.203219 195.027019 
z
" clip-path="url(#pa9fee4ec94)" style="fill: #c9bef4; stroke: #828282; stroke-linejoin: miter"/>
   </g>
   <g id="line2d_41">
    <path d="M 803.171219 195.027019 
L 803.171219 203.357766 
" clip-path="url(#pa9fee4ec94)" style="fill: none; stroke: #828282"/>
   </g>
   <g id="line2d_42">
    <path d="M 803.171219 187.839372 
L 803.171219 177.440822 
" clip-path="url(#pa9fee4ec94)" style="fill: none; stroke: #828282"/>
   </g>
   <g id="line2d_43">
    <path d="M 784.187219 203.357766 
L 822.155219 203.357766 
" clip-path="url(#pa9fee4ec94)" style="fill: none; stroke: #828282; stroke-linecap: round"/>
   </g>
   <g id="line2d_44">
    <path d="M 784.187219 177.440822 
L 822.155219 177.440822 
" clip-path="url(#pa9fee4ec94)" style="fill: none; stroke: #828282; stroke-linecap: round"/>
   </g>
   <g id="line2d_45">
    <path d="M 480.443219 114.460337 
L 556.379219 114.460337 
" clip-path="url(#pa9fee4ec94)" style="fill: none; stroke: #828282"/>
   </g>
   <g id="line2d_46">
    <path d="M 575.363219 222.557314 
L 651.299219 222.557314 
" clip-path="url(#pa9fee4ec94)" style="fill: none; stroke: #828282"/>
   </g>
   <g id="line2d_47">
    <path d="M 670.283219 208.574645 
L 746.219219 208.574645 
" clip-path="url(#pa9fee4ec94)" style="fill: none; stroke: #828282"/>
   </g>
   <g id="line2d_48">
    <path d="M 765.203219 192.31642 
L 841.139219 192.31642 
" clip-path="url(#pa9fee4ec94)" style="fill: none; stroke: #828282"/>
   </g>
   <g id="patch_14">
    <path d="M 470.951219 233.99942 
L 470.951219 108.768 
" style="fill: none; stroke: #cbd5e1; stroke-linejoin: miter; stroke-linecap: square"/>
   </g>
   <g id="patch_15">
    <path d="M 470.951219 233.99942 
L 850.631219 233.99942 
" style="fill: none; stroke: #cbd5e1; stroke-linejoin: miter; stroke-linecap: square"/>
   </g>
   <g id="text_22">
    <text style="fill: #0f172a; font: 700 11.5px 'DejaVu Sans'; text-anchor: start" x="470.951219" y="102.768" transform="rotate(-0 470.951219 102.768)">B · Embedding similarity</text>
   </g>
  </g>
  <g id="axes_3">
   <g id="patch_16">
    <path d="M 45.491219 447.38342 
L 425.171219 447.38342 
L 425.171219 322.152 
L 45.491219 322.152 
z
" style="fill: #ffffff"/>
   </g>
   <g id="matplotlib.axis_5">
    <g id="xtick_9">
     <g id="text_23">
      <text style="fill: #475569; font: 8.8px 'DejaVu Sans'" transform="translate(77.126088 483.177438) rotate(-25)">Strict proxy</text>
     </g>
    </g>
    <g id="xtick_10">
     <g id="text_24">
      <text style="fill: #475569; font: 8.8px 'DejaVu Sans'" transform="translate(155.119925 495.151006) rotate(-25)">Ranked 0.30–0.45</text>
     </g>
    </g>
    <g id="xtick_11">
     <g id="text_25">
      <text style="fill: #475569; font: 8.8px 'DejaVu Sans'" transform="translate(245.952461 495.151006) rotate(-25)">Ranked 0.45–0.60</text>
     </g>
    </g>
    <g id="xtick_12">
     <g id="text_26">
      <text style="fill: #475569; font: 8.8px 'DejaVu Sans'" transform="translate(344.316244 488.127249) rotate(-25)">Ranked ≥0.60</text>
     </g>
    </g>
    <g id="text_27">
     <text style="fill: #262626; font: 9.5px 'DejaVu Sans'; text-anchor: middle" x="235.331219" y="508.028178" transform="rotate(-0 235.331219 508.028178)">Sample</text>
    </g>
   </g>
   <g id="matplotlib.axis_6">
    <g id="ytick_9">
     <g id="line2d_49">
      <path d="M 45.491219 447.38342 
L 425.171219 447.38342 
" clip-path="url(#p338721655f)" style="fill: none; stroke: #e2e8f0; stroke-width: 0.7; stroke-linecap: round"/>
     </g>
     <g id="text_28">
      <text style="fill: #475569; font: 8.8px 'DejaVu Sans'; text-anchor: end" x="37.191219" y="450.726733" transform="rotate(-0 37.191219 450.726733)">0</text>
     </g>
    </g>
    <g id="ytick_10">
     <g id="line2d_50">
      <path d="M 45.491219 423.529816 
L 425.171219 423.529816 
" clip-path="url(#p338721655f)" style="fill: none; stroke: #e2e8f0; stroke-width: 0.7; stroke-linecap: round"/>
     </g>
     <g id="text_29">
      <text style="fill: #475569; font: 8.8px 'DejaVu Sans'; text-anchor: end" x="37.191219" y="426.873129" transform="rotate(-0 37.191219 426.873129)">20</text>
     </g>
    </g>
    <g id="ytick_11">
     <g id="line2d_51">
      <path d="M 45.491219 399.676213 
L 425.171219 399.676213 
" clip-path="url(#p338721655f)" style="fill: none; stroke: #e2e8f0; stroke-width: 0.7; stroke-linecap: round"/>
     </g>
     <g id="text_30">
      <text style="fill: #475569; font: 8.8px 'DejaVu Sans'; text-anchor: end" x="37.191219" y="403.019525" transform="rotate(-0 37.191219 403.019525)">40</text>
     </g>
    </g>
    <g id="ytick_12">
     <g id="line2d_52">
      <path d="M 45.491219 375.822609 
L 425.171219 375.822609 
" clip-path="url(#p338721655f)" style="fill: none; stroke: #e2e8f0; stroke-width: 0.7; stroke-linecap: round"/>
     </g>
     <g id="text_31">
      <text style="fill: #475569; font: 8.8px 'DejaVu Sans'; text-anchor: end" x="37.191219" y="379.165921" transform="rotate(-0 37.191219 379.165921)">60</text>
     </g>
    </g>
    <g id="ytick_13">
     <g id="line2d_53">
      <path d="M 45.491219 351.969005 
L 425.171219 351.969005 
" clip-path="url(#p338721655f)" style="fill: none; stroke: #e2e8f0; stroke-width: 0.7; stroke-linecap: round"/>
     </g>
     <g id="text_32">
      <text style="fill: #475569; font: 8.8px 'DejaVu Sans'; text-anchor: end" x="37.191219" y="355.312317" transform="rotate(-0 37.191219 355.312317)">80</text>
     </g>
    </g>
    <g id="ytick_14">
     <g id="line2d_54">
      <path d="M 45.491219 328.115401 
L 425.171219 328.115401 
" clip-path="url(#p338721655f)" style="fill: none; stroke: #e2e8f0; stroke-width: 0.7; stroke-linecap: round"/>
     </g>
     <g id="text_33">
      <text style="fill: #475569; font: 8.8px 'DejaVu Sans'; text-anchor: end" x="37.191219" y="331.458713" transform="rotate(-0 37.191219 331.458713)">100</text>
     </g>
    </g>
    <g id="text_34">
     <text style="fill: #262626; font: 9.5px 'DejaVu Sans'; text-anchor: middle" x="14.418516" y="384.76771" transform="rotate(-90 14.418516 384.76771)">Within-sample type share (%)</text>
    </g>
   </g>
   <g id="patch_17">
    <path d="M 68.199353 447.38342 
L 129.965477 447.38342 
L 129.965477 366.892195 
L 68.199353 366.892195 
z
" clip-path="url(#p338721655f)" style="fill: #1f77b4; stroke: #ffffff; stroke-width: 0.8; stroke-linejoin: miter"/>
   </g>
   <g id="patch_18">
    <path d="M 159.031889 447.38342 
L 220.798013 447.38342 
L 220.798013 430.741371 
L 159.031889 430.741371 
z
" clip-path="url(#p338721655f)" style="fill: #1f77b4; stroke: #ffffff; stroke-width: 0.8; stroke-linejoin: miter"/>
   </g>
   <g id="patch_19">
    <path d="M 249.864424 447.38342 
L 311.630549 447.38342 
L 311.630549 370.209996 
L 249.864424 370.209996 
z
" clip-path="url(#p338721655f)" style="fill: #1f77b4; stroke: #ffffff; stroke-width: 0.8; stroke-linejoin: miter"/>
   </g>
   <g id="patch_20">
    <path d="M 340.69696 447.38342 
L 402.463085 447.38342 
L 402.463085 372.988517 
L 340.69696 372.988517 
z
" clip-path="url(#p338721655f)" style="fill: #1f77b4; stroke: #ffffff; stroke-width: 0.8; stroke-linejoin: miter"/>
   </g>
   <g id="patch_21">
    <path d="M 68.199353 366.892195 
L 129.965477 366.892195 
L 129.965477 363.954559 
L 68.199353 363.954559 
z
" clip-path="url(#p338721655f)" style="fill: #ff7f0e; stroke: #ffffff; stroke-width: 0.8; stroke-linejoin: miter"/>
   </g>
   <g id="patch_22">
    <path d="M 159.031889 430.741371 
L 220.798013 430.741371 
L 220.798013 416.872997 
L 159.031889 416.872997 
z
" clip-path="url(#p338721655f)" style="fill: #ff7f0e; stroke: #ffffff; stroke-width: 0.8; stroke-linejoin: miter"/>
   </g>
   <g id="patch_23">
    <path d="M 249.864424 370.209996 
L 311.630549 370.209996 
L 311.630549 366.312348 
L 249.864424 366.312348 
z
" clip-path="url(#p338721655f)" style="fill: #ff7f0e; stroke: #ffffff; stroke-width: 0.8; stroke-linejoin: miter"/>
   </g>
   <g id="patch_24">
    <path d="M 340.69696 372.988517 
L 402.463085 372.988517 
L 402.463085 367.08416 
L 340.69696 367.08416 
z
" clip-path="url(#p338721655f)" style="fill: #ff7f0e; stroke: #ffffff; stroke-width: 0.8; stroke-linejoin: miter"/>
   </g>
   <g id="patch_25">
    <path d="M 68.199353 447.38342 
L 129.965477 447.38342 
L 129.965477 447.38342 
L 68.199353 447.38342 
z
" clip-path="url(#p338721655f)" style="fill: #2ca02c; stroke: #ffffff; stroke-width: 0.8; stroke-linejoin: miter"/>
   </g>
   <g id="patch_26">
    <path d="M 159.031889 447.38342 
L 220.798013 447.38342 
L 220.798013 447.38342 
L 159.031889 447.38342 
z
" clip-path="url(#p338721655f)" style="fill: #2ca02c; stroke: #ffffff; stroke-width: 0.8; stroke-linejoin: miter"/>
   </g>
   <g id="patch_27">
    <path d="M 249.864424 366.312348 
L 311.630549 366.312348 
L 311.630549 365.532819 
L 249.864424 365.532819 
z
" clip-path="url(#p338721655f)" style="fill: #2ca02c; stroke: #ffffff; stroke-width: 0.8; stroke-linejoin: miter"/>
   </g>
   <g id="patch_28">
    <path d="M 340.69696 447.38342 
L 402.463085 447.38342 
L 402.463085 447.38342 
L 340.69696 447.38342 
z
" clip-path="url(#p338721655f)" style="fill: #2ca02c; stroke: #ffffff; stroke-width: 0.8; stroke-linejoin: miter"/>
   </g>
   <g id="patch_29">
    <path d="M 68.199353 363.954559 
L 129.965477 363.954559 
L 129.965477 361.016924 
L 68.199353 361.016924 
z
" clip-path="url(#p338721655f)" style="fill: #d62728; stroke: #ffffff; stroke-width: 0.8; stroke-linejoin: miter"/>
   </g>
   <g id="patch_30">
    <path d="M 159.031889 416.872997 
L 220.798013 416.872997 
L 220.798013 403.004622 
L 159.031889 403.004622 
z
" clip-path="url(#p338721655f)" style="fill: #d62728; stroke: #ffffff; stroke-width: 0.8; stroke-linejoin: miter"/>
   </g>
   <g id="patch_31">
    <path d="M 249.864424 365.532819 
L 311.630549 365.532819 
L 311.630549 361.635171 
L 249.864424 361.635171 
z
" clip-path="url(#p338721655f)" style="fill: #d62728; stroke: #ffffff; stroke-width: 0.8; stroke-linejoin: miter"/>
   </g>
   <g id="patch_32">
    <path d="M 340.69696 367.08416 
L 402.463085 367.08416 
L 402.463085 362.360674 
L 340.69696 362.360674 
z
" clip-path="url(#p338721655f)" style="fill: #d62728; stroke: #ffffff; stroke-width: 0.8; stroke-linejoin: miter"/>
   </g>
   <g id="patch_33">
    <path d="M 68.199353 361.016924 
L 129.965477 361.016924 
L 129.965477 355.729179 
L 68.199353 355.729179 
z
" clip-path="url(#p338721655f)" style="fill: #9467bd; stroke: #ffffff; stroke-width: 0.8; stroke-linejoin: miter"/>
   </g>
   <g id="patch_34">
    <path d="M 159.031889 403.004622 
L 220.798013 403.004622 
L 220.798013 389.136248 
L 159.031889 389.136248 
z
" clip-path="url(#p338721655f)" style="fill: #9467bd; stroke: #ffffff; stroke-width: 0.8; stroke-linejoin: miter"/>
   </g>
   <g id="patch_35">
    <path d="M 249.864424 361.635171 
L 311.630549 361.635171 
L 311.630549 357.737523 
L 249.864424 357.737523 
z
" clip-path="url(#p338721655f)" style="fill: #9467bd; stroke: #ffffff; stroke-width: 0.8; stroke-linejoin: miter"/>
   </g>
   <g id="patch_36">
    <path d="M 340.69696 362.360674 
L 402.463085 362.360674 
L 402.463085 356.456316 
L 340.69696 356.456316 
z
" clip-path="url(#p338721655f)" style="fill: #9467bd; stroke: #ffffff; stroke-width: 0.8; stroke-linejoin: miter"/>
   </g>
   <g id="patch_37">
    <path d="M 68.199353 355.729179 
L 129.965477 355.729179 
L 129.965477 352.791543 
L 68.199353 352.791543 
z
" clip-path="url(#p338721655f)" style="fill: #8c564b; stroke: #ffffff; stroke-width: 0.8; stroke-linejoin: miter"/>
   </g>
   <g id="patch_38">
    <path d="M 159.031889 389.136248 
L 220.798013 389.136248 
L 220.798013 375.267874 
L 159.031889 375.267874 
z
" clip-path="url(#p338721655f)" style="fill: #8c564b; stroke: #ffffff; stroke-width: 0.8; stroke-linejoin: miter"/>
   </g>
   <g id="patch_39">
    <path d="M 249.864424 357.737523 
L 311.630549 357.737523 
L 311.630549 353.839876 
L 249.864424 353.839876 
z
" clip-path="url(#p338721655f)" style="fill: #8c564b; stroke: #ffffff; stroke-width: 0.8; stroke-linejoin: miter"/>
   </g>
   <g id="patch_40">
    <path d="M 340.69696 356.456316 
L 402.463085 356.456316 
L 402.463085 350.551959 
L 340.69696 350.551959 
z
" clip-path="url(#p338721655f)" style="fill: #8c564b; stroke: #ffffff; stroke-width: 0.8; stroke-linejoin: miter"/>
   </g>
   <g id="patch_41">
    <path d="M 68.199353 352.791543 
L 129.965477 352.791543 
L 129.965477 349.853907 
L 68.199353 349.853907 
z
" clip-path="url(#p338721655f)" style="fill: #e377c2; stroke: #ffffff; stroke-width: 0.8; stroke-linejoin: miter"/>
   </g>
   <g id="patch_42">
    <path d="M 159.031889 375.267874 
L 220.798013 375.267874 
L 220.798013 361.399499 
L 159.031889 361.399499 
z
" clip-path="url(#p338721655f)" style="fill: #e377c2; stroke: #ffffff; stroke-width: 0.8; stroke-linejoin: miter"/>
   </g>
   <g id="patch_43">
    <path d="M 249.864424 353.839876 
L 311.630549 353.839876 
L 311.630549 349.942228 
L 249.864424 349.942228 
z
" clip-path="url(#p338721655f)" style="fill: #e377c2; stroke: #ffffff; stroke-width: 0.8; stroke-linejoin: miter"/>
   </g>
   <g id="patch_44">
    <path d="M 340.69696 350.551959 
L 402.463085 350.551959 
L 402.463085 344.647602 
L 340.69696 344.647602 
z
" clip-path="url(#p338721655f)" style="fill: #e377c2; stroke: #ffffff; stroke-width: 0.8; stroke-linejoin: miter"/>
   </g>
   <g id="patch_45">
    <path d="M 68.199353 349.853907 
L 129.965477 349.853907 
L 129.965477 346.916271 
L 68.199353 346.916271 
z
" clip-path="url(#p338721655f)" style="fill: #7f7f7f; stroke: #ffffff; stroke-width: 0.8; stroke-linejoin: miter"/>
   </g>
   <g id="patch_46">
    <path d="M 159.031889 361.399499 
L 220.798013 361.399499 
L 220.798013 347.531125 
L 159.031889 347.531125 
z
" clip-path="url(#p338721655f)" style="fill: #7f7f7f; stroke: #ffffff; stroke-width: 0.8; stroke-linejoin: miter"/>
   </g>
   <g id="patch_47">
    <path d="M 249.864424 349.942228 
L 311.630549 349.942228 
L 311.630549 346.04458 
L 249.864424 346.04458 
z
" clip-path="url(#p338721655f)" style="fill: #7f7f7f; stroke: #ffffff; stroke-width: 0.8; stroke-linejoin: miter"/>
   </g>
   <g id="patch_48">
    <path d="M 340.69696 344.647602 
L 402.463085 344.647602 
L 402.463085 335.20063 
L 340.69696 335.20063 
z
" clip-path="url(#p338721655f)" style="fill: #7f7f7f; stroke: #ffffff; stroke-width: 0.8; stroke-linejoin: miter"/>
   </g>
   <g id="patch_49">
    <path d="M 68.199353 346.916271 
L 129.965477 346.916271 
L 129.965477 346.328744 
L 68.199353 346.328744 
z
" clip-path="url(#p338721655f)" style="fill: #bcbd22; stroke: #ffffff; stroke-width: 0.8; stroke-linejoin: miter"/>
   </g>
   <g id="patch_50">
    <path d="M 159.031889 447.38342 
L 220.798013 447.38342 
L 220.798013 447.38342 
L 159.031889 447.38342 
z
" clip-path="url(#p338721655f)" style="fill: #bcbd22; stroke: #ffffff; stroke-width: 0.8; stroke-linejoin: miter"/>
   </g>
   <g id="patch_51">
    <path d="M 249.864424 346.04458 
L 311.630549 346.04458 
L 311.630549 345.265051 
L 249.864424 345.265051 
z
" clip-path="url(#p338721655f)" style="fill: #bcbd22; stroke: #ffffff; stroke-width: 0.8; stroke-linejoin: miter"/>
   </g>
   <g id="patch_52">
    <path d="M 340.69696 335.20063 
L 402.463085 335.20063 
L 402.463085 334.019758 
L 340.69696 334.019758 
z
" clip-path="url(#p338721655f)" style="fill: #bcbd22; stroke: #ffffff; stroke-width: 0.8; stroke-linejoin: miter"/>
   </g>
   <g id="patch_53">
    <path d="M 68.199353 346.328744 
L 129.965477 346.328744 
L 129.965477 345.741217 
L 68.199353 345.741217 
z
" clip-path="url(#p338721655f)" style="fill: #17becf; stroke: #ffffff; stroke-width: 0.8; stroke-linejoin: miter"/>
   </g>
   <g id="patch_54">
    <path d="M 159.031889 447.38342 
L 220.798013 447.38342 
L 220.798013 447.38342 
L 159.031889 447.38342 
z
" clip-path="url(#p338721655f)" style="fill: #17becf; stroke: #ffffff; stroke-width: 0.8; stroke-linejoin: miter"/>
   </g>
   <g id="patch_55">
    <path d="M 249.864424 447.38342 
L 311.630549 447.38342 
L 311.630549 447.38342 
L 249.864424 447.38342 
z
" clip-path="url(#p338721655f)" style="fill: #17becf; stroke: #ffffff; stroke-width: 0.8; stroke-linejoin: miter"/>
   </g>
   <g id="patch_56">
    <path d="M 340.69696 447.38342 
L 402.463085 447.38342 
L 402.463085 447.38342 
L 340.69696 447.38342 
z
" clip-path="url(#p338721655f)" style="fill: #17becf; stroke: #ffffff; stroke-width: 0.8; stroke-linejoin: miter"/>
   </g>
   <g id="patch_57">
    <path d="M 68.199353 345.741217 
L 129.965477 345.741217 
L 129.965477 328.115401 
L 68.199353 328.115401 
z
" clip-path="url(#p338721655f)" style="fill: #1f77b4; stroke: #ffffff; stroke-width: 0.8; stroke-linejoin: miter"/>
   </g>
   <g id="patch_58">
    <path d="M 159.031889 347.531125 
L 220.798013 347.531125 
L 220.798013 328.115401 
L 159.031889 328.115401 
z
" clip-path="url(#p338721655f)" style="fill: #1f77b4; stroke: #ffffff; stroke-width: 0.8; stroke-linejoin: miter"/>
   </g>
   <g id="patch_59">
    <path d="M 249.864424 345.265051 
L 311.630549 345.265051 
L 311.630549 328.115401 
L 249.864424 328.115401 
z
" clip-path="url(#p338721655f)" style="fill: #1f77b4; stroke: #ffffff; stroke-width: 0.8; stroke-linejoin: miter"/>
   </g>
   <g id="patch_60">
    <path d="M 340.69696 334.019758 
L 402.463085 334.019758 
L 402.463085 328.115401 
L 340.69696 328.115401 
z
" clip-path="url(#p338721655f)" style="fill: #1f77b4; stroke: #ffffff; stroke-width: 0.8; stroke-linejoin: miter"/>
   </g>
   <g id="patch_61">
    <path d="M 45.491219 447.38342 
L 45.491219 322.152 
" style="fill: none; stroke: #cbd5e1; stroke-linejoin: miter; stroke-linecap: square"/>
   </g>
   <g id="patch_62">
    <path d="M 45.491219 447.38342 
L 425.171219 447.38342 
" style="fill: none; stroke: #cbd5e1; stroke-linejoin: miter; stroke-linecap: square"/>
   </g>
   <g id="text_35">
    <text style="fill: #0f172a; font: 700 11.5px 'DejaVu Sans'; text-anchor: start" x="45.491219" y="316.152" transform="rotate(-0 45.491219 316.152)">C · SemOpenAlex entity-type composition</text>
   </g>
  </g>
  <g id="axes_4">
   <g id="patch_63">
    <path d="M 470.951219 447.38342 
L 850.631219 447.38342 
L 850.631219 322.152 
L 470.951219 322.152 
z
" style="fill: #ffffff"/>
   </g>
   <g id="matplotlib.axis_7">
    <g id="xtick_13">
     <g id="text_36">
      <text style="fill: #475569; font: 8.8px 'DejaVu Sans'" transform="translate(496.454892 483.177438) rotate(-25)">Strict proxy</text>
     </g>
    </g>
    <g id="xtick_14">
     <g id="text_37">
      <text style="fill: #475569; font: 8.8px 'DejaVu Sans'" transform="translate(578.536193 495.151006) rotate(-25)">Ranked 0.30–0.45</text>
     </g>
    </g>
    <g id="xtick_15">
     <g id="text_38">
      <text style="fill: #475569; font: 8.8px 'DejaVu Sans'" transform="translate(673.456193 495.151006) rotate(-25)">Ranked 0.45–0.60</text>
     </g>
    </g>
    <g id="xtick_16">
     <g id="text_39">
      <text style="fill: #475569; font: 8.8px 'DejaVu Sans'" transform="translate(775.90744 488.127249) rotate(-25)">Ranked ≥0.60</text>
     </g>
    </g>
    <g id="text_40">
     <text style="fill: #262626; font: 9.5px 'DejaVu Sans'; text-anchor: middle" x="660.791219" y="508.028178" transform="rotate(-0 660.791219 508.028178)">Sample</text>
    </g>
   </g>
   <g id="matplotlib.axis_8">
    <g id="ytick_15">
     <g id="line2d_55">
      <path d="M 470.951219 441.691083 
L 850.631219 441.691083 
" clip-path="url(#pc6b28e6d07)" style="fill: none; stroke: #e2e8f0; stroke-width: 0.7; stroke-linecap: round"/>
     </g>
     <g id="text_41">
      <text style="fill: #475569; font: 8.8px 'DejaVu Sans'; text-anchor: end" x="462.651219" y="445.034395" transform="rotate(-0 462.651219 445.034395)">5</text>
     </g>
    </g>
    <g id="ytick_16">
     <g id="line2d_56">
      <path d="M 470.951219 416.94179 
L 850.631219 416.94179 
" clip-path="url(#pc6b28e6d07)" style="fill: none; stroke: #e2e8f0; stroke-width: 0.7; stroke-linecap: round"/>
     </g>
     <g id="text_42">
      <text style="fill: #475569; font: 8.8px 'DejaVu Sans'; text-anchor: end" x="462.651219" y="420.285103" transform="rotate(-0 462.651219 420.285103)">10</text>
     </g>
    </g>
    <g id="ytick_17">
     <g id="line2d_57">
      <path d="M 470.951219 392.192498 
L 850.631219 392.192498 
" clip-path="url(#pc6b28e6d07)" style="fill: none; stroke: #e2e8f0; stroke-width: 0.7; stroke-linecap: round"/>
     </g>
     <g id="text_43">
      <text style="fill: #475569; font: 8.8px 'DejaVu Sans'; text-anchor: end" x="462.651219" y="395.53581" transform="rotate(-0 462.651219 395.53581)">15</text>
     </g>
    </g>
    <g id="ytick_18">
     <g id="line2d_58">
      <path d="M 470.951219 367.443205 
L 850.631219 367.443205 
" clip-path="url(#pc6b28e6d07)" style="fill: none; stroke: #e2e8f0; stroke-width: 0.7; stroke-linecap: round"/>
     </g>
     <g id="text_44">
      <text style="fill: #475569; font: 8.8px 'DejaVu Sans'; text-anchor: end" x="462.651219" y="370.786518" transform="rotate(-0 462.651219 370.786518)">20</text>
     </g>
    </g>
    <g id="ytick_19">
     <g id="line2d_59">
      <path d="M 470.951219 342.693913 
L 850.631219 342.693913 
" clip-path="url(#pc6b28e6d07)" style="fill: none; stroke: #e2e8f0; stroke-width: 0.7; stroke-linecap: round"/>
     </g>
     <g id="text_45">
      <text style="fill: #475569; font: 8.8px 'DejaVu Sans'; text-anchor: end" x="462.651219" y="346.037225" transform="rotate(-0 462.651219 346.037225)">25</text>
     </g>
    </g>
    <g id="text_46">
     <text style="fill: #262626; font: 9.5px 'DejaVu Sans'; text-anchor: middle" x="445.477516" y="384.76771" transform="rotate(-90 445.477516 384.76771)">Label length</text>
    </g>
   </g>
   <g id="patch_64">
    <path d="M 480.443219 407.042073 
L 556.379219 407.042073 
L 556.379219 382.292781 
L 480.443219 382.292781 
L 480.443219 407.042073 
z
" clip-path="url(#pc6b28e6d07)" style="fill: #e6c763; stroke: #636363; stroke-linejoin: miter"/>
   </g>
   <g id="line2d_60">
    <path d="M 518.411219 407.042073 
L 518.411219 436.741224 
" clip-path="url(#pc6b28e6d07)" style="fill: none; stroke: #636363"/>
   </g>
   <g id="line2d_61">
    <path d="M 518.411219 382.292781 
L 518.411219 347.643771 
" clip-path="url(#pc6b28e6d07)" style="fill: none; stroke: #636363"/>
   </g>
   <g id="line2d_62">
    <path d="M 499.427219 436.741224 
L 537.395219 436.741224 
" clip-path="url(#pc6b28e6d07)" style="fill: none; stroke: #636363; stroke-linecap: round"/>
   </g>
   <g id="line2d_63">
    <path d="M 499.427219 347.643771 
L 537.395219 347.643771 
" clip-path="url(#pc6b28e6d07)" style="fill: none; stroke: #636363; stroke-linecap: round"/>
   </g>
   <g id="patch_65">
    <path d="M 575.363219 409.517003 
L 651.299219 409.517003 
L 651.299219 372.393064 
L 575.363219 372.393064 
L 575.363219 409.517003 
z
" clip-path="url(#pc6b28e6d07)" style="fill: #e6c763; stroke: #636363; stroke-linejoin: miter"/>
   </g>
   <g id="line2d_64">
    <path d="M 613.331219 409.517003 
L 613.331219 426.841507 
" clip-path="url(#pc6b28e6d07)" style="fill: none; stroke: #636363"/>
   </g>
   <g id="line2d_65">
    <path d="M 613.331219 372.393064 
L 613.331219 332.794196 
" clip-path="url(#pc6b28e6d07)" style="fill: none; stroke: #636363"/>
   </g>
   <g id="line2d_66">
    <path d="M 594.347219 426.841507 
L 632.315219 426.841507 
" clip-path="url(#pc6b28e6d07)" style="fill: none; stroke: #636363; stroke-linecap: round"/>
   </g>
   <g id="line2d_67">
    <path d="M 594.347219 332.794196 
L 632.315219 332.794196 
" clip-path="url(#pc6b28e6d07)" style="fill: none; stroke: #636363; stroke-linecap: round"/>
   </g>
   <g id="patch_66">
    <path d="M 670.283219 411.991932 
L 746.219219 411.991932 
L 746.219219 377.342922 
L 670.283219 377.342922 
L 670.283219 411.991932 
z
" clip-path="url(#pc6b28e6d07)" style="fill: #e6c763; stroke: #636363; stroke-linejoin: miter"/>
   </g>
   <g id="line2d_68">
    <path d="M 708.251219 411.991932 
L 708.251219 441.691083 
" clip-path="url(#pc6b28e6d07)" style="fill: none; stroke: #636363"/>
   </g>
   <g id="line2d_69">
    <path d="M 708.251219 377.342922 
L 708.251219 327.844337 
" clip-path="url(#pc6b28e6d07)" style="fill: none; stroke: #636363"/>
   </g>
   <g id="line2d_70">
    <path d="M 689.267219 441.691083 
L 727.235219 441.691083 
" clip-path="url(#pc6b28e6d07)" style="fill: none; stroke: #636363; stroke-linecap: round"/>
   </g>
   <g id="line2d_71">
    <path d="M 689.267219 327.844337 
L 727.235219 327.844337 
" clip-path="url(#pc6b28e6d07)" style="fill: none; stroke: #636363; stroke-linecap: round"/>
   </g>
   <g id="patch_67">
    <path d="M 765.203219 411.991932 
L 841.139219 411.991932 
L 841.139219 382.292781 
L 765.203219 382.292781 
L 765.203219 411.991932 
z
" clip-path="url(#pc6b28e6d07)" style="fill: #e6c763; stroke: #636363; stroke-linejoin: miter"/>
   </g>
   <g id="line2d_72">
    <path d="M 803.171219 411.991932 
L 803.171219 436.741224 
" clip-path="url(#pc6b28e6d07)" style="fill: none; stroke: #636363"/>
   </g>
   <g id="line2d_73">
    <path d="M 803.171219 382.292781 
L 803.171219 337.744054 
" clip-path="url(#pc6b28e6d07)" style="fill: none; stroke: #636363"/>
   </g>
   <g id="line2d_74">
    <path d="M 784.187219 436.741224 
L 822.155219 436.741224 
" clip-path="url(#pc6b28e6d07)" style="fill: none; stroke: #636363; stroke-linecap: round"/>
   </g>
   <g id="line2d_75">
    <path d="M 784.187219 337.744054 
L 822.155219 337.744054 
" clip-path="url(#pc6b28e6d07)" style="fill: none; stroke: #636363; stroke-linecap: round"/>
   </g>
   <g id="line2d_76">
    <path d="M 480.443219 397.142356 
L 556.379219 397.142356 
" clip-path="url(#pc6b28e6d07)" style="fill: none; stroke: #636363"/>
   </g>
   <g id="line2d_77">
    <path d="M 575.363219 402.092215 
L 651.299219 402.092215 
" clip-path="url(#pc6b28e6d07)" style="fill: none; stroke: #636363"/>
   </g>
   <g id="line2d_78">
    <path d="M 670.283219 402.092215 
L 746.219219 402.092215 
" clip-path="url(#pc6b28e6d07)" style="fill: none; stroke: #636363"/>
   </g>
   <g id="line2d_79">
    <path d="M 765.203219 402.092215 
L 841.139219 402.092215 
" clip-path="url(#pc6b28e6d07)" style="fill: none; stroke: #636363"/>
   </g>
   <g id="patch_68">
    <path d="M 470.951219 447.38342 
L 470.951219 322.152 
" style="fill: none; stroke: #cbd5e1; stroke-linejoin: miter; stroke-linecap: square"/>
   </g>
   <g id="patch_69">
    <path d="M 470.951219 447.38342 
L 850.631219 447.38342 
" style="fill: none; stroke: #cbd5e1; stroke-linejoin: miter; stroke-linecap: square"/>
   </g>
   <g id="text_47">
    <text style="fill: #0f172a; font: 700 11.5px 'DejaVu Sans'; text-anchor: start" x="470.951219" y="316.152" transform="rotate(-0 470.951219 316.152)">D · YAGO label length</text>
   </g>
  </g>
  <g id="text_48">
   <text style="fill: #0f172a; font: 700 14px 'DejaVu Sans'; text-anchor: start" x="61.691219" y="17.837813" transform="rotate(-0 61.691219 17.837813)">Validation-sample cohorts expose different review risks</text>
  </g>
  <g id="text_49">
   <text style="fill: #475569; font: 8.7px 'DejaVu Sans'; text-anchor: start" x="61.691219" y="39.276" transform="rotate(-0 61.691219 39.276)">The current 500-pair stratified sample is compared by selection source and ABC-score band; no verdicts are implied.</text>
  </g>
  <g id="legend_1">
   <g id="text_50">
    <text style="fill: #0f172a; font: 8px 'DejaVu Sans'; text-anchor: start" x="377.613719" y="528.548469" transform="rotate(-0 377.613719 528.548469)">SemOpenAlex entity type</text>
   </g>
   <g id="patch_70">
    <path d="M 303.875008 539.661047 
L 318.875008 539.661047 
L 318.875008 534.411047 
L 303.875008 534.411047 
z
" style="fill: #1f77b4; stroke: #ffffff; stroke-width: 0.8; stroke-linejoin: miter"/>
   </g>
   <g id="text_51">
    <text style="fill: #0f172a; font: 7.5px 'DejaVu Sans'; text-anchor: start" x="324.875008" y="539.661047" transform="rotate(-0 324.875008 539.661047)">author</text>
   </g>
   <g id="patch_71">
    <path d="M 303.875008 550.669641 
L 318.875008 550.669641 
L 318.875008 545.419641 
L 303.875008 545.419641 
z
" style="fill: #ff7f0e; stroke: #ffffff; stroke-width: 0.8; stroke-linejoin: miter"/>
   </g>
   <g id="text_52">
    <text style="fill: #0f172a; font: 7.5px 'DejaVu Sans'; text-anchor: start" x="324.875008" y="550.669641" transform="rotate(-0 324.875008 550.669641)">concept</text>
   </g>
   <g id="patch_72">
    <path d="M 303.875008 561.678234 
L 318.875008 561.678234 
L 318.875008 556.428234 
L 303.875008 556.428234 
z
" style="fill: #2ca02c; stroke: #ffffff; stroke-width: 0.8; stroke-linejoin: miter"/>
   </g>
   <g id="text_53">
    <text style="fill: #0f172a; font: 7.5px 'DejaVu Sans'; text-anchor: start" x="324.875008" y="561.678234" transform="rotate(-0 324.875008 561.678234)">field</text>
   </g>
   <g id="patch_73">
    <path d="M 369.781258 539.661047 
L 384.781258 539.661047 
L 384.781258 534.411047 
L 369.781258 534.411047 
z
" style="fill: #d62728; stroke: #ffffff; stroke-width: 0.8; stroke-linejoin: miter"/>
   </g>
   <g id="text_54">
    <text style="fill: #0f172a; font: 7.5px 'DejaVu Sans'; text-anchor: start" x="390.781258" y="539.661047" transform="rotate(-0 390.781258 539.661047)">funder</text>
   </g>
   <g id="patch_74">
    <path d="M 369.781258 550.669641 
L 384.781258 550.669641 
L 384.781258 545.419641 
L 369.781258 545.419641 
z
" style="fill: #9467bd; stroke: #ffffff; stroke-width: 0.8; stroke-linejoin: miter"/>
   </g>
   <g id="text_55">
    <text style="fill: #0f172a; font: 7.5px 'DejaVu Sans'; text-anchor: start" x="390.781258" y="550.669641" transform="rotate(-0 390.781258 550.669641)">institution</text>
   </g>
   <g id="patch_75">
    <path d="M 369.781258 561.678234 
L 384.781258 561.678234 
L 384.781258 556.428234 
L 369.781258 556.428234 
z
" style="fill: #8c564b; stroke: #ffffff; stroke-width: 0.8; stroke-linejoin: miter"/>
   </g>
   <g id="text_56">
    <text style="fill: #0f172a; font: 7.5px 'DejaVu Sans'; text-anchor: start" x="390.781258" y="561.678234" transform="rotate(-0 390.781258 561.678234)">keyword</text>
   </g>
   <g id="patch_76">
    <path d="M 443.608211 539.661047 
L 458.608211 539.661047 
L 458.608211 534.411047 
L 443.608211 534.411047 
z
" style="fill: #e377c2; stroke: #ffffff; stroke-width: 0.8; stroke-linejoin: miter"/>
   </g>
   <g id="text_57">
    <text style="fill: #0f172a; font: 7.5px 'DejaVu Sans'; text-anchor: start" x="464.608211" y="539.661047" transform="rotate(-0 464.608211 539.661047)">publisher</text>
   </g>
   <g id="patch_77">
    <path d="M 443.608211 550.669641 
L 458.608211 550.669641 
L 458.608211 545.419641 
L 443.608211 545.419641 
z
" style="fill: #7f7f7f; stroke: #ffffff; stroke-width: 0.8; stroke-linejoin: miter"/>
   </g>
   <g id="text_58">
    <text style="fill: #0f172a; font: 7.5px 'DejaVu Sans'; text-anchor: start" x="464.608211" y="550.669641" transform="rotate(-0 464.608211 550.669641)">source</text>
   </g>
   <g id="patch_78">
    <path d="M 443.608211 561.678234 
L 458.608211 561.678234 
L 458.608211 556.428234 
L 443.608211 556.428234 
z
" style="fill: #bcbd22; stroke: #ffffff; stroke-width: 0.8; stroke-linejoin: miter"/>
   </g>
   <g id="text_59">
    <text style="fill: #0f172a; font: 7.5px 'DejaVu Sans'; text-anchor: start" x="464.608211" y="561.678234" transform="rotate(-0 464.608211 561.678234)">subfield</text>
   </g>
   <g id="patch_79">
    <path d="M 514.409383 539.661047 
L 529.409383 539.661047 
L 529.409383 534.411047 
L 514.409383 534.411047 
z
" style="fill: #17becf; stroke: #ffffff; stroke-width: 0.8; stroke-linejoin: miter"/>
   </g>
   <g id="text_60">
    <text style="fill: #0f172a; font: 7.5px 'DejaVu Sans'; text-anchor: start" x="535.409383" y="539.661047" transform="rotate(-0 535.409383 539.661047)">topic</text>
   </g>
   <g id="patch_80">
    <path d="M 514.409383 550.669641 
L 529.409383 550.669641 
L 529.409383 545.419641 
L 514.409383 545.419641 
z
" style="fill: #1f77b4; stroke: #ffffff; stroke-width: 0.8; stroke-linejoin: miter"/>
   </g>
   <g id="text_61">
    <text style="fill: #0f172a; font: 7.5px 'DejaVu Sans'; text-anchor: start" x="535.409383" y="550.669641" transform="rotate(-0 535.409383 550.669641)">work</text>
   </g>
  </g>
 </g>
 <defs>
  <clipPath id="p854555e13a">
   <rect x="45.491219" y="108.768" width="379.68" height="125.23142"/>
  </clipPath>
  <clipPath id="pa9fee4ec94">
   <rect x="470.951219" y="108.768" width="379.68" height="125.23142"/>
  </clipPath>
  <clipPath id="p338721655f">
   <rect x="45.491219" y="322.152" width="379.68" height="125.23142"/>
  </clipPath>
  <clipPath id="pc6b28e6d07">
   <rect x="470.951219" y="322.152" width="379.68" height="125.23142"/>
  </clipPath>
 </defs>
</svg>
