<?xml version="1.0" encoding="utf-8" standalone="no"?>
<!DOCTYPE svg PUBLIC "-//W3C//DTD SVG 1.1//EN"
  "http://www.w3.org/Graphics/SVG/1.1/DTD/svg11.dtd">
<svg xmlns:xlink="http://www.w3.org/1999/xlink" width="605.497525pt" height="380.31575pt" viewBox="0 0 605.497525 380.31575" xmlns="http://www.w3.org/2000/svg" version="1.1">
 <metadata>
  <rdf:RDF xmlns:dc="http://purl.org/dc/elements/1.1/" xmlns:cc="http://creativecommons.org/ns#" xmlns:rdf="http://www.w3.org/1999/02/22-rdf-syntax-ns#">
   <cc:Work>
    <dc:type rdf:resource="http://purl.org/dc/dcmitype/StillImage"/>
    <dc:date>2026-07-03T00:05:35.491112</dc:date>
    <dc:format>image/svg+xml</dc:format>
    <dc:creator>
     <cc:Agent>
      <dc:title>Matplotlib v3.9.4, https://matplotlib.org/</dc:title>
     </cc:Agent>
    </dc:creator>
   </cc:Work>
  </rdf:RDF>
 </metadata>
 <defs>
  <style type="text/css">*{stroke-linejoin: round; stroke-linecap: butt}</style>
 </defs>
 <g id="figure_1">
  <g id="patch_1">
   <path d="M 0 380.31575 
L 605.497525 380.31575 
L 605.497525 0 
L 0 0 
z
" style="fill: #ffffff"/>
  </g>
  <g id="axes_1">
   <g id="patch_2">
    <path d="M 44.279 343.008 
L 590.779218 343.008 
L 590.779218 76.152 
L 44.279 76.152 
z
" style="fill: #ffffff"/>
   </g>
   <g id="matplotlib.axis_1">
    <g id="xtick_1">
     <g id="line2d_1">
      <path d="M 69.119919 343.008 
L 69.119919 76.152 
" clip-path="url(#p538f779430)" style="fill: none; stroke: #e2e8f0; stroke-width: 0.7; stroke-linecap: round"/>
     </g>
     <g id="text_1">
      <!-- $\mathdefault{10^{0}}$ -->
      <g style="fill: #262626" transform="translate(61.375919 357.994625)">
       <text>
        <tspan style="font: 8.8px 'DejaVu Sans'" x="0 5.567017" y="-0.8734375000000014">10</tspan>
        <tspan style="font: 6.16px 'DejaVu Sans'" x="11.220166" y="-4.318750000000001">0</tspan>
       </text>
      </g>
     </g>
    </g>
    <g id="xtick_2">
     <g id="line2d_2">
      <path d="M 199.47832 343.008 
L 199.47832 76.152 
" clip-path="url(#p538f779430)" style="fill: none; stroke: #e2e8f0; stroke-width: 0.7; stroke-linecap: round"/>
     </g>
     <g id="text_2">
      <!-- $\mathdefault{10^{1}}$ -->
      <g style="fill: #262626" transform="translate(191.73432 357.994625)">
       <text>
        <tspan style="font: 8.8px 'DejaVu Sans'" x="0 5.567017" y="-0.9609375">10</tspan>
        <tspan style="font: 6.16px 'DejaVu Sans'" x="11.220166" y="-4.40625">1</tspan>
       </text>
      </g>
     </g>
    </g>
    <g id="xtick_3">
     <g id="line2d_3">
      <path d="M 329.836722 343.008 
L 329.836722 76.152 
" clip-path="url(#p538f779430)" style="fill: none; stroke: #e2e8f0; stroke-width: 0.7; stroke-linecap: round"/>
     </g>
     <g id="text_3">
      <!-- $\mathdefault{10^{2}}$ -->
      <g style="fill: #262626" transform="translate(322.092722 357.994625)">
       <text>
        <tspan style="font: 8.8px 'DejaVu Sans'" x="0 5.567017" y="-0.8734375000000014">10</tspan>
        <tspan style="font: 6.16px 'DejaVu Sans'" x="11.220166" y="-4.318750000000001">2</tspan>
       </text>
      </g>
     </g>
    </g>
    <g id="xtick_4">
     <g id="line2d_4">
      <path d="M 460.195123 343.008 
L 460.195123 76.152 
" clip-path="url(#p538f779430)" style="fill: none; stroke: #e2e8f0; stroke-width: 0.7; stroke-linecap: round"/>
     </g>
     <g id="text_4">
      <!-- $\mathdefault{10^{3}}$ -->
      <g style="fill: #262626" transform="translate(452.451123 357.994625)">
       <text>
        <tspan style="font: 8.8px 'DejaVu Sans'" x="0 5.567017" y="-0.8734375000000014">10</tspan>
        <tspan style="font: 6.16px 'DejaVu Sans'" x="11.220166" y="-4.318750000000001">3</tspan>
       </text>
      </g>
     </g>
    </g>
    <g id="xtick_5">
     <g id="line2d_5">
      <path d="M 590.553525 343.008 
L 590.553525 76.152 
" clip-path="url(#p538f779430)" style="fill: none; stroke: #e2e8f0; stroke-width: 0.7; stroke-linecap: round"/>
     </g>
     <g id="text_5">
      <!-- $\mathdefault{10^{4}}$ -->
      <g style="fill: #262626" transform="translate(582.809525 357.994625)">
       <text>
        <tspan style="font: 8.8px 'DejaVu Sans'" x="0 5.567017" y="-0.9609375">10</tspan>
        <tspan style="font: 6.16px 'DejaVu Sans'" x="11.220166" y="-4.40625">4</tspan>
       </text>
      </g>
     </g>
    </g>
    <g id="xtick_6"/>
    <g id="xtick_7"/>
    <g id="xtick_8"/>
    <g id="xtick_9"/>
    <g id="xtick_10"/>
    <g id="xtick_11"/>
    <g id="xtick_12"/>
    <g id="xtick_13"/>
    <g id="xtick_14"/>
    <g id="xtick_15"/>
    <g id="xtick_16"/>
    <g id="xtick_17"/>
    <g id="xtick_18"/>
    <g id="xtick_19"/>
    <g id="xtick_20"/>
    <g id="xtick_21"/>
    <g id="xtick_22"/>
    <g id="xtick_23"/>
    <g id="xtick_24"/>
    <g id="xtick_25"/>
    <g id="xtick_26"/>
    <g id="xtick_27"/>
    <g id="xtick_28"/>
    <g id="xtick_29"/>
    <g id="xtick_30"/>
    <g id="xtick_31"/>
    <g id="xtick_32"/>
    <g id="xtick_33"/>
    <g id="xtick_34"/>
    <g id="xtick_35"/>
    <g id="xtick_36"/>
    <g id="xtick_37"/>
    <g id="xtick_38"/>
    <g id="xtick_39"/>
    <g id="xtick_40"/>
    <g id="text_6">
     <text style="fill: #262626; font: 9.6px 'DejaVu Sans'; text-anchor: middle" x="317.529109" y="371.11925" transform="rotate(-0 317.529109 371.11925)">Undirected degree</text>
    </g>
   </g>
   <g id="matplotlib.axis_2">
    <g id="ytick_1">
     <g id="line2d_6">
      <path d="M 44.279 330.878182 
L 590.779218 330.878182 
" clip-path="url(#p538f779430)" style="fill: none; stroke: #e2e8f0; stroke-width: 0.7; stroke-linecap: round"/>
     </g>
     <g id="text_7">
      <!-- $\mathdefault{10^{0}}$ -->
      <g style="fill: #262626" transform="translate(20.491 334.221494)">
       <text>
        <tspan style="font: 8.8px 'DejaVu Sans'" x="0 5.567017" y="-0.8734375000000014">10</tspan>
        <tspan style="font: 6.16px 'DejaVu Sans'" x="11.220166" y="-4.318750000000001">0</tspan>
       </text>
      </g>
     </g>
    </g>
    <g id="ytick_2">
     <g id="line2d_7">
      <path d="M 44.279 286.027899 
L 590.779218 286.027899 
" clip-path="url(#p538f779430)" style="fill: none; stroke: #e2e8f0; stroke-width: 0.7; stroke-linecap: round"/>
     </g>
     <g id="text_8">
      <!-- $\mathdefault{10^{1}}$ -->
      <g style="fill: #262626" transform="translate(20.491 289.371212)">
       <text>
        <tspan style="font: 8.8px 'DejaVu Sans'" x="0 5.567017" y="-0.9609375">10</tspan>
        <tspan style="font: 6.16px 'DejaVu Sans'" x="11.220166" y="-4.40625">1</tspan>
       </text>
      </g>
     </g>
    </g>
    <g id="ytick_3">
     <g id="line2d_8">
      <path d="M 44.279 241.177616 
L 590.779218 241.177616 
" clip-path="url(#p538f779430)" style="fill: none; stroke: #e2e8f0; stroke-width: 0.7; stroke-linecap: round"/>
     </g>
     <g id="text_9">
      <!-- $\mathdefault{10^{2}}$ -->
      <g style="fill: #262626" transform="translate(20.491 244.520929)">
       <text>
        <tspan style="font: 8.8px 'DejaVu Sans'" x="0 5.567017" y="-0.8734375000000014">10</tspan>
        <tspan style="font: 6.16px 'DejaVu Sans'" x="11.220166" y="-4.318750000000001">2</tspan>
       </text>
      </g>
     </g>
    </g>
    <g id="ytick_4">
     <g id="line2d_9">
      <path d="M 44.279 196.327334 
L 590.779218 196.327334 
" clip-path="url(#p538f779430)" style="fill: none; stroke: #e2e8f0; stroke-width: 0.7; stroke-linecap: round"/>
     </g>
     <g id="text_10">
      <!-- $\mathdefault{10^{3}}$ -->
      <g style="fill: #262626" transform="translate(20.491 199.670646)">
       <text>
        <tspan style="font: 8.8px 'DejaVu Sans'" x="0 5.567017" y="-0.8734375000000014">10</tspan>
        <tspan style="font: 6.16px 'DejaVu Sans'" x="11.220166" y="-4.318750000000001">3</tspan>
       </text>
      </g>
     </g>
    </g>
    <g id="ytick_5">
     <g id="line2d_10">
      <path d="M 44.279 151.477051 
L 590.779218 151.477051 
" clip-path="url(#p538f779430)" style="fill: none; stroke: #e2e8f0; stroke-width: 0.7; stroke-linecap: round"/>
     </g>
     <g id="text_11">
      <!-- $\mathdefault{10^{4}}$ -->
      <g style="fill: #262626" transform="translate(20.491 154.820364)">
       <text>
        <tspan style="font: 8.8px 'DejaVu Sans'" x="0 5.567017" y="-0.9609375">10</tspan>
        <tspan style="font: 6.16px 'DejaVu Sans'" x="11.220166" y="-4.40625">4</tspan>
       </text>
      </g>
     </g>
    </g>
    <g id="ytick_6">
     <g id="line2d_11">
      <path d="M 44.279 106.626768 
L 590.779218 106.626768 
" clip-path="url(#p538f779430)" style="fill: none; stroke: #e2e8f0; stroke-width: 0.7; stroke-linecap: round"/>
     </g>
     <g id="text_12">
      <!-- $\mathdefault{10^{5}}$ -->
      <g style="fill: #262626" transform="translate(20.491 109.970081)">
       <text>
        <tspan style="font: 8.8px 'DejaVu Sans'" x="0 5.567017" y="-0.9609375">10</tspan>
        <tspan style="font: 6.16px 'DejaVu Sans'" x="11.220166" y="-4.40625">5</tspan>
       </text>
      </g>
     </g>
    </g>
    <g id="ytick_7"/>
    <g id="ytick_8"/>
    <g id="ytick_9"/>
    <g id="ytick_10"/>
    <g id="ytick_11"/>
    <g id="ytick_12"/>
    <g id="ytick_13"/>
    <g id="ytick_14"/>
    <g id="ytick_15"/>
    <g id="ytick_16"/>
    <g id="ytick_17"/>
    <g id="ytick_18"/>
    <g id="ytick_19"/>
    <g id="ytick_20"/>
    <g id="ytick_21"/>
    <g id="ytick_22"/>
    <g id="ytick_23"/>
    <g id="ytick_24"/>
    <g id="ytick_25"/>
    <g id="ytick_26"/>
    <g id="ytick_27"/>
    <g id="ytick_28"/>
    <g id="ytick_29"/>
    <g id="ytick_30"/>
    <g id="ytick_31"/>
    <g id="ytick_32"/>
    <g id="ytick_33"/>
    <g id="ytick_34"/>
    <g id="ytick_35"/>
    <g id="ytick_36"/>
    <g id="ytick_37"/>
    <g id="ytick_38"/>
    <g id="ytick_39"/>
    <g id="ytick_40"/>
    <g id="ytick_41"/>
    <g id="ytick_42"/>
    <g id="ytick_43"/>
    <g id="ytick_44"/>
    <g id="ytick_45"/>
    <g id="ytick_46"/>
    <g id="ytick_47"/>
    <g id="ytick_48"/>
    <g id="ytick_49"/>
    <g id="ytick_50"/>
    <g id="ytick_51"/>
    <g id="ytick_52"/>
    <g id="ytick_53"/>
    <g id="text_13">
     <text style="fill: #262626; font: 9.6px 'DejaVu Sans'; text-anchor: middle" x="14.4945" y="209.58" transform="rotate(-90 14.4945 209.58)">Node count</text>
    </g>
   </g>
   <g id="line2d_12">
    <path d="M 69.119919 88.281818 
L 108.361708 173.202127 
L 131.316683 194.119892 
L 160.236531 217.283432 
L 170.558472 226.633457 
L 179.285549 233.940216 
L 186.845286 239.321143 
L 193.513447 244.573712 
L 199.47832 246.017204 
L 204.874205 250.488908 
L 209.800261 261.626294 
L 214.331794 260.543891 
L 218.527338 255.07241 
L 222.433295 261.626294 
L 226.087075 268.975317 
L 229.519273 260.543891 
L 232.755236 270.670145 
L 235.816194 265.972735 
L 238.720109 284.171425 
L 241.482313 270.670145 
L 244.115994 278.130156 
L 246.632583 275.6922 
L 249.04205 274.578855 
L 251.353144 280.917508 
L 253.573583 276.87306 
L 255.710211 280.917508 
L 257.769127 299.52918 
L 259.755784 290.374341 
L 261.675084 292.975296 
L 263.531445 290.374341 
L 265.328864 290.374341 
L 267.070969 292.975296 
L 268.761062 292.975296 
L 270.402161 286.027899 
L 271.997025 309.479159 
L 273.548189 295.977878 
L 275.057983 303.875621 
L 276.528558 299.52918 
L 277.961898 292.975296 
L 279.359844 295.977878 
L 280.724102 303.875621 
L 282.056256 309.479159 
L 283.357783 309.479159 
L 284.630059 299.52918 
L 285.874372 292.975296 
L 287.091923 295.977878 
L 288.283839 317.376901 
L 289.451178 303.875621 
L 290.594933 299.52918 
L 291.716037 330.878182 
L 292.815372 303.875621 
L 293.893765 303.875621 
L 294.952 309.479159 
L 295.990817 317.376901 
L 298.012958 295.977878 
L 298.997573 309.479159 
L 299.965356 317.376901 
L 300.916873 295.977878 
L 301.852662 303.875621 
L 302.773234 309.479159 
L 303.679077 309.479159 
L 304.570653 317.376901 
L 305.448406 317.376901 
L 306.312758 309.479159 
L 307.164111 330.878182 
L 308.002851 317.376901 
L 309.64395 317.376901 
L 310.446998 309.479159 
L 311.238814 330.878182 
L 312.019708 330.878182 
L 312.789978 317.376901 
L 314.299772 330.878182 
L 315.039834 303.875621 
L 315.770347 309.479159 
L 316.491553 303.875621 
L 317.906975 317.376901 
L 319.965891 317.376901 
L 321.298045 330.878182 
L 321.952548 317.376901 
L 323.239284 317.376901 
L 323.871848 330.878182 
L 325.116161 317.376901 
L 325.728209 309.479159 
L 326.333712 299.52918 
L 326.932807 330.878182 
L 330.400049 330.878182 
L 330.957826 317.376901 
L 332.057161 330.878182 
L 333.135554 303.875621 
L 333.667144 330.878182 
L 334.193789 317.376901 
L 334.71558 309.479159 
L 335.232606 317.376901 
L 338.239362 317.376901 
L 340.62849 330.878182 
L 345.12402 330.878182 
L 345.554547 317.376901 
L 345.981824 317.376901 
L 349.288687 330.878182 
L 349.688787 330.878182 
L 350.086079 309.479159 
L 350.480603 330.878182 
L 351.647942 330.878182 
L 352.031767 317.376901 
L 352.791697 330.878182 
L 356.445476 330.878182 
L 357.148764 317.376901 
L 358.187581 330.878182 
L 371.840714 330.878182 
L 372.377343 317.376901 
L 374.731148 330.878182 
L 375.241187 317.376901 
L 376.496536 330.878182 
L 418.994976 330.878182 
L 422.29602 317.376901 
L 424.038125 330.878182 
L 565.938299 330.878182 
L 565.938299 330.878182 
" clip-path="url(#p538f779430)" style="fill: none; stroke: #2563eb; stroke-width: 1.5; stroke-linecap: round"/>
    <defs>
     <path id="m30d786b168" d="M 0 1.5 
C 0.397805 1.5 0.77937 1.341951 1.06066 1.06066 
C 1.341951 0.77937 1.5 0.397805 1.5 0 
C 1.5 -0.397805 1.341951 -0.77937 1.06066 -1.06066 
C 0.77937 -1.341951 0.397805 -1.5 0 -1.5 
C -0.397805 -1.5 -0.77937 -1.341951 -1.06066 -1.06066 
C -1.341951 -0.77937 -1.5 -0.397805 -1.5 0 
C -1.5 0.397805 -1.341951 0.77937 -1.06066 1.06066 
C -0.77937 1.341951 -0.397805 1.5 0 1.5 
z
" style="stroke: #2563eb"/>
    </defs>
    <g clip-path="url(#p538f779430)">
     <use xlink:href="#m30d786b168" x="69.119919" y="88.281818" style="fill: #2563eb; stroke: #2563eb"/>
     <use xlink:href="#m30d786b168" x="108.361708" y="173.202127" style="fill: #2563eb; stroke: #2563eb"/>
     <use xlink:href="#m30d786b168" x="131.316683" y="194.119892" style="fill: #2563eb; stroke: #2563eb"/>
     <use xlink:href="#m30d786b168" x="147.603497" y="207.106299" style="fill: #2563eb; stroke: #2563eb"/>
     <use xlink:href="#m30d786b168" x="160.236531" y="217.283432" style="fill: #2563eb; stroke: #2563eb"/>
     <use xlink:href="#m30d786b168" x="170.558472" y="226.633457" style="fill: #2563eb; stroke: #2563eb"/>
     <use xlink:href="#m30d786b168" x="179.285549" y="233.940216" style="fill: #2563eb; stroke: #2563eb"/>
     <use xlink:href="#m30d786b168" x="186.845286" y="239.321143" style="fill: #2563eb; stroke: #2563eb"/>
     <use xlink:href="#m30d786b168" x="193.513447" y="244.573712" style="fill: #2563eb; stroke: #2563eb"/>
     <use xlink:href="#m30d786b168" x="199.47832" y="246.017204" style="fill: #2563eb; stroke: #2563eb"/>
     <use xlink:href="#m30d786b168" x="204.874205" y="250.488908" style="fill: #2563eb; stroke: #2563eb"/>
     <use xlink:href="#m30d786b168" x="209.800261" y="261.626294" style="fill: #2563eb; stroke: #2563eb"/>
     <use xlink:href="#m30d786b168" x="214.331794" y="260.543891" style="fill: #2563eb; stroke: #2563eb"/>
     <use xlink:href="#m30d786b168" x="218.527338" y="255.07241" style="fill: #2563eb; stroke: #2563eb"/>
     <use xlink:href="#m30d786b168" x="222.433295" y="261.626294" style="fill: #2563eb; stroke: #2563eb"/>
     <use xlink:href="#m30d786b168" x="226.087075" y="268.975317" style="fill: #2563eb; stroke: #2563eb"/>
     <use xlink:href="#m30d786b168" x="229.519273" y="260.543891" style="fill: #2563eb; stroke: #2563eb"/>
     <use xlink:href="#m30d786b168" x="232.755236" y="270.670145" style="fill: #2563eb; stroke: #2563eb"/>
     <use xlink:href="#m30d786b168" x="235.816194" y="265.972735" style="fill: #2563eb; stroke: #2563eb"/>
     <use xlink:href="#m30d786b168" x="238.720109" y="284.171425" style="fill: #2563eb; stroke: #2563eb"/>
     <use xlink:href="#m30d786b168" x="241.482313" y="270.670145" style="fill: #2563eb; stroke: #2563eb"/>
     <use xlink:href="#m30d786b168" x="244.115994" y="278.130156" style="fill: #2563eb; stroke: #2563eb"/>
     <use xlink:href="#m30d786b168" x="246.632583" y="275.6922" style="fill: #2563eb; stroke: #2563eb"/>
     <use xlink:href="#m30d786b168" x="249.04205" y="274.578855" style="fill: #2563eb; stroke: #2563eb"/>
     <use xlink:href="#m30d786b168" x="251.353144" y="280.917508" style="fill: #2563eb; stroke: #2563eb"/>
     <use xlink:href="#m30d786b168" x="253.573583" y="276.87306" style="fill: #2563eb; stroke: #2563eb"/>
     <use xlink:href="#m30d786b168" x="255.710211" y="280.917508" style="fill: #2563eb; stroke: #2563eb"/>
     <use xlink:href="#m30d786b168" x="257.769127" y="299.52918" style="fill: #2563eb; stroke: #2563eb"/>
     <use xlink:href="#m30d786b168" x="259.755784" y="290.374341" style="fill: #2563eb; stroke: #2563eb"/>
     <use xlink:href="#m30d786b168" x="261.675084" y="292.975296" style="fill: #2563eb; stroke: #2563eb"/>
     <use xlink:href="#m30d786b168" x="263.531445" y="290.374341" style="fill: #2563eb; stroke: #2563eb"/>
     <use xlink:href="#m30d786b168" x="265.328864" y="290.374341" style="fill: #2563eb; stroke: #2563eb"/>
     <use xlink:href="#m30d786b168" x="267.070969" y="292.975296" style="fill: #2563eb; stroke: #2563eb"/>
     <use xlink:href="#m30d786b168" x="268.761062" y="292.975296" style="fill: #2563eb; stroke: #2563eb"/>
     <use xlink:href="#m30d786b168" x="270.402161" y="286.027899" style="fill: #2563eb; stroke: #2563eb"/>
     <use xlink:href="#m30d786b168" x="271.997025" y="309.479159" style="fill: #2563eb; stroke: #2563eb"/>
     <use xlink:href="#m30d786b168" x="273.548189" y="295.977878" style="fill: #2563eb; stroke: #2563eb"/>
     <use xlink:href="#m30d786b168" x="275.057983" y="303.875621" style="fill: #2563eb; stroke: #2563eb"/>
     <use xlink:href="#m30d786b168" x="276.528558" y="299.52918" style="fill: #2563eb; stroke: #2563eb"/>
     <use xlink:href="#m30d786b168" x="277.961898" y="292.975296" style="fill: #2563eb; stroke: #2563eb"/>
     <use xlink:href="#m30d786b168" x="279.359844" y="295.977878" style="fill: #2563eb; stroke: #2563eb"/>
     <use xlink:href="#m30d786b168" x="280.724102" y="303.875621" style="fill: #2563eb; stroke: #2563eb"/>
     <use xlink:href="#m30d786b168" x="282.056256" y="309.479159" style="fill: #2563eb; stroke: #2563eb"/>
     <use xlink:href="#m30d786b168" x="283.357783" y="309.479159" style="fill: #2563eb; stroke: #2563eb"/>
     <use xlink:href="#m30d786b168" x="284.630059" y="299.52918" style="fill: #2563eb; stroke: #2563eb"/>
     <use xlink:href="#m30d786b168" x="285.874372" y="292.975296" style="fill: #2563eb; stroke: #2563eb"/>
     <use xlink:href="#m30d786b168" x="287.091923" y="295.977878" style="fill: #2563eb; stroke: #2563eb"/>
     <use xlink:href="#m30d786b168" x="288.283839" y="317.376901" style="fill: #2563eb; stroke: #2563eb"/>
     <use xlink:href="#m30d786b168" x="289.451178" y="303.875621" style="fill: #2563eb; stroke: #2563eb"/>
     <use xlink:href="#m30d786b168" x="290.594933" y="299.52918" style="fill: #2563eb; stroke: #2563eb"/>
     <use xlink:href="#m30d786b168" x="291.716037" y="330.878182" style="fill: #2563eb; stroke: #2563eb"/>
     <use xlink:href="#m30d786b168" x="292.815372" y="303.875621" style="fill: #2563eb; stroke: #2563eb"/>
     <use xlink:href="#m30d786b168" x="293.893765" y="303.875621" style="fill: #2563eb; stroke: #2563eb"/>
     <use xlink:href="#m30d786b168" x="294.952" y="309.479159" style="fill: #2563eb; stroke: #2563eb"/>
     <use xlink:href="#m30d786b168" x="295.990817" y="317.376901" style="fill: #2563eb; stroke: #2563eb"/>
     <use xlink:href="#m30d786b168" x="298.012958" y="295.977878" style="fill: #2563eb; stroke: #2563eb"/>
     <use xlink:href="#m30d786b168" x="298.997573" y="309.479159" style="fill: #2563eb; stroke: #2563eb"/>
     <use xlink:href="#m30d786b168" x="299.965356" y="317.376901" style="fill: #2563eb; stroke: #2563eb"/>
     <use xlink:href="#m30d786b168" x="300.916873" y="295.977878" style="fill: #2563eb; stroke: #2563eb"/>
     <use xlink:href="#m30d786b168" x="301.852662" y="303.875621" style="fill: #2563eb; stroke: #2563eb"/>
     <use xlink:href="#m30d786b168" x="302.773234" y="309.479159" style="fill: #2563eb; stroke: #2563eb"/>
     <use xlink:href="#m30d786b168" x="303.679077" y="309.479159" style="fill: #2563eb; stroke: #2563eb"/>
     <use xlink:href="#m30d786b168" x="304.570653" y="317.376901" style="fill: #2563eb; stroke: #2563eb"/>
     <use xlink:href="#m30d786b168" x="305.448406" y="317.376901" style="fill: #2563eb; stroke: #2563eb"/>
     <use xlink:href="#m30d786b168" x="306.312758" y="309.479159" style="fill: #2563eb; stroke: #2563eb"/>
     <use xlink:href="#m30d786b168" x="307.164111" y="330.878182" style="fill: #2563eb; stroke: #2563eb"/>
     <use xlink:href="#m30d786b168" x="308.002851" y="317.376901" style="fill: #2563eb; stroke: #2563eb"/>
     <use xlink:href="#m30d786b168" x="309.64395" y="317.376901" style="fill: #2563eb; stroke: #2563eb"/>
     <use xlink:href="#m30d786b168" x="310.446998" y="309.479159" style="fill: #2563eb; stroke: #2563eb"/>
     <use xlink:href="#m30d786b168" x="311.238814" y="330.878182" style="fill: #2563eb; stroke: #2563eb"/>
     <use xlink:href="#m30d786b168" x="312.019708" y="330.878182" style="fill: #2563eb; stroke: #2563eb"/>
     <use xlink:href="#m30d786b168" x="312.789978" y="317.376901" style="fill: #2563eb; stroke: #2563eb"/>
     <use xlink:href="#m30d786b168" x="314.299772" y="330.878182" style="fill: #2563eb; stroke: #2563eb"/>
     <use xlink:href="#m30d786b168" x="315.039834" y="303.875621" style="fill: #2563eb; stroke: #2563eb"/>
     <use xlink:href="#m30d786b168" x="315.770347" y="309.479159" style="fill: #2563eb; stroke: #2563eb"/>
     <use xlink:href="#m30d786b168" x="316.491553" y="303.875621" style="fill: #2563eb; stroke: #2563eb"/>
     <use xlink:href="#m30d786b168" x="317.906975" y="317.376901" style="fill: #2563eb; stroke: #2563eb"/>
     <use xlink:href="#m30d786b168" x="319.965891" y="317.376901" style="fill: #2563eb; stroke: #2563eb"/>
     <use xlink:href="#m30d786b168" x="321.298045" y="330.878182" style="fill: #2563eb; stroke: #2563eb"/>
     <use xlink:href="#m30d786b168" x="321.952548" y="317.376901" style="fill: #2563eb; stroke: #2563eb"/>
     <use xlink:href="#m30d786b168" x="323.239284" y="317.376901" style="fill: #2563eb; stroke: #2563eb"/>
     <use xlink:href="#m30d786b168" x="323.871848" y="330.878182" style="fill: #2563eb; stroke: #2563eb"/>
     <use xlink:href="#m30d786b168" x="325.116161" y="317.376901" style="fill: #2563eb; stroke: #2563eb"/>
     <use xlink:href="#m30d786b168" x="325.728209" y="309.479159" style="fill: #2563eb; stroke: #2563eb"/>
     <use xlink:href="#m30d786b168" x="326.333712" y="299.52918" style="fill: #2563eb; stroke: #2563eb"/>
     <use xlink:href="#m30d786b168" x="326.932807" y="330.878182" style="fill: #2563eb; stroke: #2563eb"/>
     <use xlink:href="#m30d786b168" x="327.525628" y="330.878182" style="fill: #2563eb; stroke: #2563eb"/>
     <use xlink:href="#m30d786b168" x="328.692967" y="330.878182" style="fill: #2563eb; stroke: #2563eb"/>
     <use xlink:href="#m30d786b168" x="329.836722" y="330.878182" style="fill: #2563eb; stroke: #2563eb"/>
     <use xlink:href="#m30d786b168" x="330.400049" y="330.878182" style="fill: #2563eb; stroke: #2563eb"/>
     <use xlink:href="#m30d786b168" x="330.957826" y="317.376901" style="fill: #2563eb; stroke: #2563eb"/>
     <use xlink:href="#m30d786b168" x="332.057161" y="330.878182" style="fill: #2563eb; stroke: #2563eb"/>
     <use xlink:href="#m30d786b168" x="333.135554" y="303.875621" style="fill: #2563eb; stroke: #2563eb"/>
     <use xlink:href="#m30d786b168" x="333.667144" y="330.878182" style="fill: #2563eb; stroke: #2563eb"/>
     <use xlink:href="#m30d786b168" x="334.193789" y="317.376901" style="fill: #2563eb; stroke: #2563eb"/>
     <use xlink:href="#m30d786b168" x="334.71558" y="309.479159" style="fill: #2563eb; stroke: #2563eb"/>
     <use xlink:href="#m30d786b168" x="335.232606" y="317.376901" style="fill: #2563eb; stroke: #2563eb"/>
     <use xlink:href="#m30d786b168" x="335.744953" y="317.376901" style="fill: #2563eb; stroke: #2563eb"/>
     <use xlink:href="#m30d786b168" x="338.239362" y="317.376901" style="fill: #2563eb; stroke: #2563eb"/>
     <use xlink:href="#m30d786b168" x="340.62849" y="330.878182" style="fill: #2563eb; stroke: #2563eb"/>
     <use xlink:href="#m30d786b168" x="341.094451" y="330.878182" style="fill: #2563eb; stroke: #2563eb"/>
     <use xlink:href="#m30d786b168" x="343.368409" y="330.878182" style="fill: #2563eb; stroke: #2563eb"/>
     <use xlink:href="#m30d786b168" x="344.690195" y="330.878182" style="fill: #2563eb; stroke: #2563eb"/>
     <use xlink:href="#m30d786b168" x="345.12402" y="330.878182" style="fill: #2563eb; stroke: #2563eb"/>
     <use xlink:href="#m30d786b168" x="345.554547" y="317.376901" style="fill: #2563eb; stroke: #2563eb"/>
     <use xlink:href="#m30d786b168" x="345.981824" y="317.376901" style="fill: #2563eb; stroke: #2563eb"/>
     <use xlink:href="#m30d786b168" x="349.288687" y="330.878182" style="fill: #2563eb; stroke: #2563eb"/>
     <use xlink:href="#m30d786b168" x="349.688787" y="330.878182" style="fill: #2563eb; stroke: #2563eb"/>
     <use xlink:href="#m30d786b168" x="350.086079" y="309.479159" style="fill: #2563eb; stroke: #2563eb"/>
     <use xlink:href="#m30d786b168" x="350.480603" y="330.878182" style="fill: #2563eb; stroke: #2563eb"/>
     <use xlink:href="#m30d786b168" x="350.872397" y="330.878182" style="fill: #2563eb; stroke: #2563eb"/>
     <use xlink:href="#m30d786b168" x="351.647942" y="330.878182" style="fill: #2563eb; stroke: #2563eb"/>
     <use xlink:href="#m30d786b168" x="352.031767" y="317.376901" style="fill: #2563eb; stroke: #2563eb"/>
     <use xlink:href="#m30d786b168" x="352.791697" y="330.878182" style="fill: #2563eb; stroke: #2563eb"/>
     <use xlink:href="#m30d786b168" x="356.445476" y="330.878182" style="fill: #2563eb; stroke: #2563eb"/>
     <use xlink:href="#m30d786b168" x="357.148764" y="317.376901" style="fill: #2563eb; stroke: #2563eb"/>
     <use xlink:href="#m30d786b168" x="358.187581" y="330.878182" style="fill: #2563eb; stroke: #2563eb"/>
     <use xlink:href="#m30d786b168" x="358.869685" y="330.878182" style="fill: #2563eb; stroke: #2563eb"/>
     <use xlink:href="#m30d786b168" x="359.877675" y="330.878182" style="fill: #2563eb; stroke: #2563eb"/>
     <use xlink:href="#m30d786b168" x="361.194337" y="330.878182" style="fill: #2563eb; stroke: #2563eb"/>
     <use xlink:href="#m30d786b168" x="362.16212" y="330.878182" style="fill: #2563eb; stroke: #2563eb"/>
     <use xlink:href="#m30d786b168" x="363.113637" y="330.878182" style="fill: #2563eb; stroke: #2563eb"/>
     <use xlink:href="#m30d786b168" x="363.739212" y="330.878182" style="fill: #2563eb; stroke: #2563eb"/>
     <use xlink:href="#m30d786b168" x="367.64517" y="330.878182" style="fill: #2563eb; stroke: #2563eb"/>
     <use xlink:href="#m30d786b168" x="371.57048" y="330.878182" style="fill: #2563eb; stroke: #2563eb"/>
     <use xlink:href="#m30d786b168" x="371.840714" y="330.878182" style="fill: #2563eb; stroke: #2563eb"/>
     <use xlink:href="#m30d786b168" x="372.377343" y="317.376901" style="fill: #2563eb; stroke: #2563eb"/>
     <use xlink:href="#m30d786b168" x="374.731148" y="330.878182" style="fill: #2563eb; stroke: #2563eb"/>
     <use xlink:href="#m30d786b168" x="375.241187" y="317.376901" style="fill: #2563eb; stroke: #2563eb"/>
     <use xlink:href="#m30d786b168" x="376.496536" y="330.878182" style="fill: #2563eb; stroke: #2563eb"/>
     <use xlink:href="#m30d786b168" x="376.7443" y="330.878182" style="fill: #2563eb; stroke: #2563eb"/>
     <use xlink:href="#m30d786b168" x="376.990984" y="330.878182" style="fill: #2563eb; stroke: #2563eb"/>
     <use xlink:href="#m30d786b168" x="377.724652" y="330.878182" style="fill: #2563eb; stroke: #2563eb"/>
     <use xlink:href="#m30d786b168" x="378.688317" y="330.878182" style="fill: #2563eb; stroke: #2563eb"/>
     <use xlink:href="#m30d786b168" x="380.798397" y="330.878182" style="fill: #2563eb; stroke: #2563eb"/>
     <use xlink:href="#m30d786b168" x="382.162655" y="330.878182" style="fill: #2563eb; stroke: #2563eb"/>
     <use xlink:href="#m30d786b168" x="383.274948" y="330.878182" style="fill: #2563eb; stroke: #2563eb"/>
     <use xlink:href="#m30d786b168" x="383.931984" y="330.878182" style="fill: #2563eb; stroke: #2563eb"/>
     <use xlink:href="#m30d786b168" x="385.223613" y="330.878182" style="fill: #2563eb; stroke: #2563eb"/>
     <use xlink:href="#m30d786b168" x="389.918628" y="330.878182" style="fill: #2563eb; stroke: #2563eb"/>
     <use xlink:href="#m30d786b168" x="390.30907" y="330.878182" style="fill: #2563eb; stroke: #2563eb"/>
     <use xlink:href="#m30d786b168" x="391.844457" y="330.878182" style="fill: #2563eb; stroke: #2563eb"/>
     <use xlink:href="#m30d786b168" x="392.596813" y="330.878182" style="fill: #2563eb; stroke: #2563eb"/>
     <use xlink:href="#m30d786b168" x="393.889847" y="330.878182" style="fill: #2563eb; stroke: #2563eb"/>
     <use xlink:href="#m30d786b168" x="394.072178" y="330.878182" style="fill: #2563eb; stroke: #2563eb"/>
     <use xlink:href="#m30d786b168" x="397.42937" y="330.878182" style="fill: #2563eb; stroke: #2563eb"/>
     <use xlink:href="#m30d786b168" x="397.600668" y="330.878182" style="fill: #2563eb; stroke: #2563eb"/>
     <use xlink:href="#m30d786b168" x="397.771449" y="330.878182" style="fill: #2563eb; stroke: #2563eb"/>
     <use xlink:href="#m30d786b168" x="398.785457" y="330.878182" style="fill: #2563eb; stroke: #2563eb"/>
     <use xlink:href="#m30d786b168" x="400.760562" y="330.878182" style="fill: #2563eb; stroke: #2563eb"/>
     <use xlink:href="#m30d786b168" x="401.722862" y="330.878182" style="fill: #2563eb; stroke: #2563eb"/>
     <use xlink:href="#m30d786b168" x="406.156447" y="330.878182" style="fill: #2563eb; stroke: #2563eb"/>
     <use xlink:href="#m30d786b168" x="409.023588" y="330.878182" style="fill: #2563eb; stroke: #2563eb"/>
     <use xlink:href="#m30d786b168" x="409.302474" y="330.878182" style="fill: #2563eb; stroke: #2563eb"/>
     <use xlink:href="#m30d786b168" x="409.579994" y="330.878182" style="fill: #2563eb; stroke: #2563eb"/>
     <use xlink:href="#m30d786b168" x="410.540739" y="330.878182" style="fill: #2563eb; stroke: #2563eb"/>
     <use xlink:href="#m30d786b168" x="413.972937" y="330.878182" style="fill: #2563eb; stroke: #2563eb"/>
     <use xlink:href="#m30d786b168" x="417.0878" y="330.878182" style="fill: #2563eb; stroke: #2563eb"/>
     <use xlink:href="#m30d786b168" x="418.168481" y="330.878182" style="fill: #2563eb; stroke: #2563eb"/>
     <use xlink:href="#m30d786b168" x="418.877642" y="330.878182" style="fill: #2563eb; stroke: #2563eb"/>
     <use xlink:href="#m30d786b168" x="418.994976" y="330.878182" style="fill: #2563eb; stroke: #2563eb"/>
     <use xlink:href="#m30d786b168" x="422.29602" y="317.376901" style="fill: #2563eb; stroke: #2563eb"/>
     <use xlink:href="#m30d786b168" x="424.038125" y="330.878182" style="fill: #2563eb; stroke: #2563eb"/>
     <use xlink:href="#m30d786b168" x="426.142974" y="330.878182" style="fill: #2563eb; stroke: #2563eb"/>
     <use xlink:href="#m30d786b168" x="428.668546" y="330.878182" style="fill: #2563eb; stroke: #2563eb"/>
     <use xlink:href="#m30d786b168" x="429.841934" y="330.878182" style="fill: #2563eb; stroke: #2563eb"/>
     <use xlink:href="#m30d786b168" x="431.18084" y="330.878182" style="fill: #2563eb; stroke: #2563eb"/>
     <use xlink:href="#m30d786b168" x="431.651449" y="330.878182" style="fill: #2563eb; stroke: #2563eb"/>
     <use xlink:href="#m30d786b168" x="434.751859" y="330.878182" style="fill: #2563eb; stroke: #2563eb"/>
     <use xlink:href="#m30d786b168" x="437.522513" y="330.878182" style="fill: #2563eb; stroke: #2563eb"/>
     <use xlink:href="#m30d786b168" x="442.533004" y="330.878182" style="fill: #2563eb; stroke: #2563eb"/>
     <use xlink:href="#m30d786b168" x="451.12734" y="330.878182" style="fill: #2563eb; stroke: #2563eb"/>
     <use xlink:href="#m30d786b168" x="453.022271" y="330.878182" style="fill: #2563eb; stroke: #2563eb"/>
     <use xlink:href="#m30d786b168" x="455.781414" y="330.878182" style="fill: #2563eb; stroke: #2563eb"/>
     <use xlink:href="#m30d786b168" x="467.613149" y="330.878182" style="fill: #2563eb; stroke: #2563eb"/>
     <use xlink:href="#m30d786b168" x="472.873431" y="330.878182" style="fill: #2563eb; stroke: #2563eb"/>
     <use xlink:href="#m30d786b168" x="491.747623" y="330.878182" style="fill: #2563eb; stroke: #2563eb"/>
     <use xlink:href="#m30d786b168" x="495.053796" y="330.878182" style="fill: #2563eb; stroke: #2563eb"/>
     <use xlink:href="#m30d786b168" x="500.530258" y="330.878182" style="fill: #2563eb; stroke: #2563eb"/>
     <use xlink:href="#m30d786b168" x="500.668916" y="330.878182" style="fill: #2563eb; stroke: #2563eb"/>
     <use xlink:href="#m30d786b168" x="502.306849" y="330.878182" style="fill: #2563eb; stroke: #2563eb"/>
     <use xlink:href="#m30d786b168" x="505.345143" y="330.878182" style="fill: #2563eb; stroke: #2563eb"/>
     <use xlink:href="#m30d786b168" x="522.824272" y="330.878182" style="fill: #2563eb; stroke: #2563eb"/>
     <use xlink:href="#m30d786b168" x="527.25343" y="330.878182" style="fill: #2563eb; stroke: #2563eb"/>
     <use xlink:href="#m30d786b168" x="530.057676" y="330.878182" style="fill: #2563eb; stroke: #2563eb"/>
     <use xlink:href="#m30d786b168" x="565.938299" y="330.878182" style="fill: #2563eb; stroke: #2563eb"/>
    </g>
   </g>
   <g id="line2d_13">
    <path d="M 69.119919 96.257298 
L 108.361708 180.705762 
L 131.316683 197.719949 
L 147.603497 209.328652 
L 160.236531 221.54438 
L 170.558472 226.541361 
L 179.285549 240.042641 
L 186.845286 247.042611 
L 193.513447 254.678897 
L 199.47832 256.731133 
L 204.874205 262.772402 
L 209.800261 264.628876 
L 214.331794 272.526619 
L 218.527338 279.474015 
L 222.433295 275.6922 
L 226.087075 290.374341 
L 229.519273 282.476598 
L 232.755236 286.027899 
L 235.816194 282.476598 
L 238.720109 282.476598 
L 241.482313 292.975296 
L 244.115994 292.975296 
L 246.632583 303.875621 
L 249.04205 288.080136 
L 251.353144 303.875621 
L 253.573583 295.977878 
L 255.710211 317.376901 
L 257.769127 295.977878 
L 259.755784 330.878182 
L 261.675084 303.875621 
L 263.531445 317.376901 
L 265.328864 317.376901 
L 267.070969 309.479159 
L 268.761062 317.376901 
L 271.997025 309.479159 
L 273.548189 309.479159 
L 275.057983 330.878182 
L 276.528558 317.376901 
L 277.961898 309.479159 
L 280.724102 317.376901 
L 285.874372 330.878182 
L 288.283839 330.878182 
L 291.716037 317.376901 
L 294.952 330.878182 
L 297.010916 317.376901 
L 298.012958 330.878182 
L 299.965356 330.878182 
L 300.916873 330.878182 
L 301.852662 330.878182 
L 303.679077 330.878182 
L 305.448406 309.479159 
L 306.312758 317.376901 
L 307.164111 330.878182 
L 308.002851 330.878182 
L 310.446998 330.878182 
L 312.019708 330.878182 
L 314.299772 330.878182 
L 316.491553 330.878182 
L 317.203687 330.878182 
L 319.965891 330.878182 
L 323.239284 330.878182 
L 328.112306 330.878182 
L 328.692967 330.878182 
L 329.267733 330.878182 
L 330.957826 330.878182 
L 332.057161 317.376901 
L 333.135554 330.878182 
L 333.667144 317.376901 
L 334.193789 317.376901 
L 334.71558 330.878182 
L 337.254747 330.878182 
L 338.725322 330.878182 
L 345.12402 309.479159 
L 348.071136 330.878182 
L 350.086079 330.878182 
L 356.798212 330.878182 
L 364.049426 330.878182 
L 364.664801 330.878182 
L 370.199615 330.878182 
L 371.29895 330.878182 
L 372.377343 330.878182 
L 372.643762 330.878182 
L 375.746672 330.878182 
L 377.481151 330.878182 
L 382.610198 330.878182 
L 397.257552 330.878182 
L 409.579994 330.878182 
L 429.355975 330.878182 
L 463.172589 330.878182 
L 517.73283 330.878182 
" clip-path="url(#p538f779430)" style="fill: none; stroke: #16a34a; stroke-width: 1.5; stroke-linecap: round"/>
    <defs>
     <path id="m0a5d659e78" d="M 0 1.5 
C 0.397805 1.5 0.77937 1.341951 1.06066 1.06066 
C 1.341951 0.77937 1.5 0.397805 1.5 0 
C 1.5 -0.397805 1.341951 -0.77937 1.06066 -1.06066 
C 0.77937 -1.341951 0.397805 -1.5 0 -1.5 
C -0.397805 -1.5 -0.77937 -1.341951 -1.06066 -1.06066 
C -1.341951 -0.77937 -1.5 -0.397805 -1.5 0 
C -1.5 0.397805 -1.341951 0.77937 -1.06066 1.06066 
C -0.77937 1.341951 -0.397805 1.5 0 1.5 
z
" style="stroke: #16a34a"/>
    </defs>
    <g clip-path="url(#p538f779430)">
     <use xlink:href="#m0a5d659e78" x="69.119919" y="96.257298" style="fill: #16a34a; stroke: #16a34a"/>
     <use xlink:href="#m0a5d659e78" x="108.361708" y="180.705762" style="fill: #16a34a; stroke: #16a34a"/>
     <use xlink:href="#m0a5d659e78" x="131.316683" y="197.719949" style="fill: #16a34a; stroke: #16a34a"/>
     <use xlink:href="#m0a5d659e78" x="147.603497" y="209.328652" style="fill: #16a34a; stroke: #16a34a"/>
     <use xlink:href="#m0a5d659e78" x="160.236531" y="221.54438" style="fill: #16a34a; stroke: #16a34a"/>
     <use xlink:href="#m0a5d659e78" x="170.558472" y="226.541361" style="fill: #16a34a; stroke: #16a34a"/>
     <use xlink:href="#m0a5d659e78" x="179.285549" y="240.042641" style="fill: #16a34a; stroke: #16a34a"/>
     <use xlink:href="#m0a5d659e78" x="186.845286" y="247.042611" style="fill: #16a34a; stroke: #16a34a"/>
     <use xlink:href="#m0a5d659e78" x="193.513447" y="254.678897" style="fill: #16a34a; stroke: #16a34a"/>
     <use xlink:href="#m0a5d659e78" x="199.47832" y="256.731133" style="fill: #16a34a; stroke: #16a34a"/>
     <use xlink:href="#m0a5d659e78" x="204.874205" y="262.772402" style="fill: #16a34a; stroke: #16a34a"/>
     <use xlink:href="#m0a5d659e78" x="209.800261" y="264.628876" style="fill: #16a34a; stroke: #16a34a"/>
     <use xlink:href="#m0a5d659e78" x="214.331794" y="272.526619" style="fill: #16a34a; stroke: #16a34a"/>
     <use xlink:href="#m0a5d659e78" x="218.527338" y="279.474015" style="fill: #16a34a; stroke: #16a34a"/>
     <use xlink:href="#m0a5d659e78" x="222.433295" y="275.6922" style="fill: #16a34a; stroke: #16a34a"/>
     <use xlink:href="#m0a5d659e78" x="226.087075" y="290.374341" style="fill: #16a34a; stroke: #16a34a"/>
     <use xlink:href="#m0a5d659e78" x="229.519273" y="282.476598" style="fill: #16a34a; stroke: #16a34a"/>
     <use xlink:href="#m0a5d659e78" x="232.755236" y="286.027899" style="fill: #16a34a; stroke: #16a34a"/>
     <use xlink:href="#m0a5d659e78" x="235.816194" y="282.476598" style="fill: #16a34a; stroke: #16a34a"/>
     <use xlink:href="#m0a5d659e78" x="238.720109" y="282.476598" style="fill: #16a34a; stroke: #16a34a"/>
     <use xlink:href="#m0a5d659e78" x="241.482313" y="292.975296" style="fill: #16a34a; stroke: #16a34a"/>
     <use xlink:href="#m0a5d659e78" x="244.115994" y="292.975296" style="fill: #16a34a; stroke: #16a34a"/>
     <use xlink:href="#m0a5d659e78" x="246.632583" y="303.875621" style="fill: #16a34a; stroke: #16a34a"/>
     <use xlink:href="#m0a5d659e78" x="249.04205" y="288.080136" style="fill: #16a34a; stroke: #16a34a"/>
     <use xlink:href="#m0a5d659e78" x="251.353144" y="303.875621" style="fill: #16a34a; stroke: #16a34a"/>
     <use xlink:href="#m0a5d659e78" x="253.573583" y="295.977878" style="fill: #16a34a; stroke: #16a34a"/>
     <use xlink:href="#m0a5d659e78" x="255.710211" y="317.376901" style="fill: #16a34a; stroke: #16a34a"/>
     <use xlink:href="#m0a5d659e78" x="257.769127" y="295.977878" style="fill: #16a34a; stroke: #16a34a"/>
     <use xlink:href="#m0a5d659e78" x="259.755784" y="330.878182" style="fill: #16a34a; stroke: #16a34a"/>
     <use xlink:href="#m0a5d659e78" x="261.675084" y="303.875621" style="fill: #16a34a; stroke: #16a34a"/>
     <use xlink:href="#m0a5d659e78" x="263.531445" y="317.376901" style="fill: #16a34a; stroke: #16a34a"/>
     <use xlink:href="#m0a5d659e78" x="265.328864" y="317.376901" style="fill: #16a34a; stroke: #16a34a"/>
     <use xlink:href="#m0a5d659e78" x="267.070969" y="309.479159" style="fill: #16a34a; stroke: #16a34a"/>
     <use xlink:href="#m0a5d659e78" x="268.761062" y="317.376901" style="fill: #16a34a; stroke: #16a34a"/>
     <use xlink:href="#m0a5d659e78" x="271.997025" y="309.479159" style="fill: #16a34a; stroke: #16a34a"/>
     <use xlink:href="#m0a5d659e78" x="273.548189" y="309.479159" style="fill: #16a34a; stroke: #16a34a"/>
     <use xlink:href="#m0a5d659e78" x="275.057983" y="330.878182" style="fill: #16a34a; stroke: #16a34a"/>
     <use xlink:href="#m0a5d659e78" x="276.528558" y="317.376901" style="fill: #16a34a; stroke: #16a34a"/>
     <use xlink:href="#m0a5d659e78" x="277.961898" y="309.479159" style="fill: #16a34a; stroke: #16a34a"/>
     <use xlink:href="#m0a5d659e78" x="280.724102" y="317.376901" style="fill: #16a34a; stroke: #16a34a"/>
     <use xlink:href="#m0a5d659e78" x="285.874372" y="330.878182" style="fill: #16a34a; stroke: #16a34a"/>
     <use xlink:href="#m0a5d659e78" x="288.283839" y="330.878182" style="fill: #16a34a; stroke: #16a34a"/>
     <use xlink:href="#m0a5d659e78" x="291.716037" y="317.376901" style="fill: #16a34a; stroke: #16a34a"/>
     <use xlink:href="#m0a5d659e78" x="294.952" y="330.878182" style="fill: #16a34a; stroke: #16a34a"/>
     <use xlink:href="#m0a5d659e78" x="297.010916" y="317.376901" style="fill: #16a34a; stroke: #16a34a"/>
     <use xlink:href="#m0a5d659e78" x="298.012958" y="330.878182" style="fill: #16a34a; stroke: #16a34a"/>
     <use xlink:href="#m0a5d659e78" x="299.965356" y="330.878182" style="fill: #16a34a; stroke: #16a34a"/>
     <use xlink:href="#m0a5d659e78" x="300.916873" y="330.878182" style="fill: #16a34a; stroke: #16a34a"/>
     <use xlink:href="#m0a5d659e78" x="301.852662" y="330.878182" style="fill: #16a34a; stroke: #16a34a"/>
     <use xlink:href="#m0a5d659e78" x="303.679077" y="330.878182" style="fill: #16a34a; stroke: #16a34a"/>
     <use xlink:href="#m0a5d659e78" x="305.448406" y="309.479159" style="fill: #16a34a; stroke: #16a34a"/>
     <use xlink:href="#m0a5d659e78" x="306.312758" y="317.376901" style="fill: #16a34a; stroke: #16a34a"/>
     <use xlink:href="#m0a5d659e78" x="307.164111" y="330.878182" style="fill: #16a34a; stroke: #16a34a"/>
     <use xlink:href="#m0a5d659e78" x="308.002851" y="330.878182" style="fill: #16a34a; stroke: #16a34a"/>
     <use xlink:href="#m0a5d659e78" x="310.446998" y="330.878182" style="fill: #16a34a; stroke: #16a34a"/>
     <use xlink:href="#m0a5d659e78" x="312.019708" y="330.878182" style="fill: #16a34a; stroke: #16a34a"/>
     <use xlink:href="#m0a5d659e78" x="314.299772" y="330.878182" style="fill: #16a34a; stroke: #16a34a"/>
     <use xlink:href="#m0a5d659e78" x="316.491553" y="330.878182" style="fill: #16a34a; stroke: #16a34a"/>
     <use xlink:href="#m0a5d659e78" x="317.203687" y="330.878182" style="fill: #16a34a; stroke: #16a34a"/>
     <use xlink:href="#m0a5d659e78" x="319.965891" y="330.878182" style="fill: #16a34a; stroke: #16a34a"/>
     <use xlink:href="#m0a5d659e78" x="323.239284" y="330.878182" style="fill: #16a34a; stroke: #16a34a"/>
     <use xlink:href="#m0a5d659e78" x="328.112306" y="330.878182" style="fill: #16a34a; stroke: #16a34a"/>
     <use xlink:href="#m0a5d659e78" x="328.692967" y="330.878182" style="fill: #16a34a; stroke: #16a34a"/>
     <use xlink:href="#m0a5d659e78" x="329.267733" y="330.878182" style="fill: #16a34a; stroke: #16a34a"/>
     <use xlink:href="#m0a5d659e78" x="330.957826" y="330.878182" style="fill: #16a34a; stroke: #16a34a"/>
     <use xlink:href="#m0a5d659e78" x="332.057161" y="317.376901" style="fill: #16a34a; stroke: #16a34a"/>
     <use xlink:href="#m0a5d659e78" x="333.135554" y="330.878182" style="fill: #16a34a; stroke: #16a34a"/>
     <use xlink:href="#m0a5d659e78" x="333.667144" y="317.376901" style="fill: #16a34a; stroke: #16a34a"/>
     <use xlink:href="#m0a5d659e78" x="334.193789" y="317.376901" style="fill: #16a34a; stroke: #16a34a"/>
     <use xlink:href="#m0a5d659e78" x="334.71558" y="330.878182" style="fill: #16a34a; stroke: #16a34a"/>
     <use xlink:href="#m0a5d659e78" x="337.254747" y="330.878182" style="fill: #16a34a; stroke: #16a34a"/>
     <use xlink:href="#m0a5d659e78" x="338.725322" y="330.878182" style="fill: #16a34a; stroke: #16a34a"/>
     <use xlink:href="#m0a5d659e78" x="345.12402" y="309.479159" style="fill: #16a34a; stroke: #16a34a"/>
     <use xlink:href="#m0a5d659e78" x="348.071136" y="330.878182" style="fill: #16a34a; stroke: #16a34a"/>
     <use xlink:href="#m0a5d659e78" x="350.086079" y="330.878182" style="fill: #16a34a; stroke: #16a34a"/>
     <use xlink:href="#m0a5d659e78" x="356.798212" y="330.878182" style="fill: #16a34a; stroke: #16a34a"/>
     <use xlink:href="#m0a5d659e78" x="364.049426" y="330.878182" style="fill: #16a34a; stroke: #16a34a"/>
     <use xlink:href="#m0a5d659e78" x="364.664801" y="330.878182" style="fill: #16a34a; stroke: #16a34a"/>
     <use xlink:href="#m0a5d659e78" x="370.199615" y="330.878182" style="fill: #16a34a; stroke: #16a34a"/>
     <use xlink:href="#m0a5d659e78" x="371.29895" y="330.878182" style="fill: #16a34a; stroke: #16a34a"/>
     <use xlink:href="#m0a5d659e78" x="372.377343" y="330.878182" style="fill: #16a34a; stroke: #16a34a"/>
     <use xlink:href="#m0a5d659e78" x="372.643762" y="330.878182" style="fill: #16a34a; stroke: #16a34a"/>
     <use xlink:href="#m0a5d659e78" x="375.746672" y="330.878182" style="fill: #16a34a; stroke: #16a34a"/>
     <use xlink:href="#m0a5d659e78" x="377.481151" y="330.878182" style="fill: #16a34a; stroke: #16a34a"/>
     <use xlink:href="#m0a5d659e78" x="382.610198" y="330.878182" style="fill: #16a34a; stroke: #16a34a"/>
     <use xlink:href="#m0a5d659e78" x="397.257552" y="330.878182" style="fill: #16a34a; stroke: #16a34a"/>
     <use xlink:href="#m0a5d659e78" x="409.579994" y="330.878182" style="fill: #16a34a; stroke: #16a34a"/>
     <use xlink:href="#m0a5d659e78" x="429.355975" y="330.878182" style="fill: #16a34a; stroke: #16a34a"/>
     <use xlink:href="#m0a5d659e78" x="463.172589" y="330.878182" style="fill: #16a34a; stroke: #16a34a"/>
     <use xlink:href="#m0a5d659e78" x="517.73283" y="330.878182" style="fill: #16a34a; stroke: #16a34a"/>
    </g>
   </g>
   <g id="patch_3">
    <path d="M 44.279 343.008 
L 44.279 76.152 
" style="fill: none; stroke: #cbd5e1; stroke-linejoin: miter; stroke-linecap: square"/>
   </g>
   <g id="patch_4">
    <path d="M 44.279 343.008 
L 590.779218 343.008 
" style="fill: none; stroke: #cbd5e1; stroke-linejoin: miter; stroke-linecap: square"/>
   </g>
   <g id="legend_1">
    <g id="line2d_14">
     <path d="M 436.725593 87.678625 
L 445.525593 87.678625 
L 454.325593 87.678625 
" style="fill: none; stroke: #2563eb; stroke-width: 1.5; stroke-linecap: round"/>
     <g>
      <use xlink:href="#m30d786b168" x="445.525593" y="87.678625" style="fill: #2563eb; stroke: #2563eb"/>
     </g>
    </g>
    <g id="text_14">
     <text style="fill: #0f172a; font: 8.8px 'DejaVu Sans'; text-anchor: start" x="461.365593" y="90.758625" transform="rotate(-0 461.365593 90.758625)">YAGO held-out</text>
    </g>
    <g id="line2d_15">
     <path d="M 436.725593 100.595375 
L 445.525593 100.595375 
L 454.325593 100.595375 
" style="fill: none; stroke: #16a34a; stroke-width: 1.5; stroke-linecap: round"/>
     <g>
      <use xlink:href="#m0a5d659e78" x="445.525593" y="100.595375" style="fill: #16a34a; stroke: #16a34a"/>
     </g>
    </g>
    <g id="text_15">
     <text style="fill: #0f172a; font: 8.8px 'DejaVu Sans'; text-anchor: start" x="461.365593" y="103.675375" transform="rotate(-0 461.365593 103.675375)">SemOpenAlex 100k sample</text>
    </g>
   </g>
  </g>
  <g id="text_16">
   <text style="fill: #0f172a; font: 700 14px 'DejaVu Sans'; text-anchor: start" x="42.661895" y="17.837812" transform="rotate(-0 42.661895 17.837812)">Degree distributions are strongly right-skewed</text>
  </g>
  <g id="text_17">
   <text style="fill: #475569; font: 8.7px 'DejaVu Sans'; text-anchor: start" x="42.661895" y="28.584" transform="rotate(-0 42.661895 28.584)">Log–log view of evaluation-graph degrees; this supports heavy-tail language without claiming a fitted power law.</text>
  </g>
 </g>
 <defs>
  <clipPath id="p538f779430">
   <rect x="44.279" y="76.152" width="546.500218" height="266.856"/>
  </clipPath>
 </defs>
</svg>
