<?xml version="1.0" encoding="utf-8" standalone="no"?>
<!DOCTYPE svg PUBLIC "-//W3C//DTD SVG 1.1//EN"
  "http://www.w3.org/Graphics/SVG/1.1/DTD/svg11.dtd">
<svg xmlns:xlink="http://www.w3.org/1999/xlink" width="821.90475pt" height="339.41975pt" viewBox="0 0 821.90475 339.41975" xmlns="http://www.w3.org/2000/svg" version="1.1">
 <metadata>
  <rdf:RDF xmlns:dc="http://purl.org/dc/elements/1.1/" xmlns:cc="http://creativecommons.org/ns#" xmlns:rdf="http://www.w3.org/1999/02/22-rdf-syntax-ns#">
   <cc:Work>
    <dc:type rdf:resource="http://purl.org/dc/dcmitype/StillImage"/>
    <dc:date>2026-07-03T00:05:37.442988</dc:date>
    <dc:format>image/svg+xml</dc:format>
    <dc:creator>
     <cc:Agent>
      <dc:title>Matplotlib v3.9.4, https://matplotlib.org/</dc:title>
     </cc:Agent>
    </dc:creator>
   </cc:Work>
  </rdf:RDF>
 </metadata>
 <defs>
  <style type="text/css">*{stroke-linejoin: round; stroke-linecap: butt}</style>
 </defs>
 <g id="figure_1">
  <g id="patch_1">
   <path d="M 0 339.41975 
L 821.90475 339.41975 
L 821.90475 0 
L 0 0 
z
" style="fill: #ffffff"/>
  </g>
  <g id="axes_1">
   <g id="patch_2">
    <path d="M 48.38475 302.112 
L 408.65475 302.112 
L 408.65475 75.624 
L 48.38475 75.624 
z
" style="fill: #ffffff"/>
   </g>
   <g id="matplotlib.axis_1">
    <g id="xtick_1">
     <g id="text_1">
      <text style="fill: #262626; font: 8.8px 'DejaVu Sans'; text-anchor: middle" x="64.760659" y="317.098625" transform="rotate(-0 64.760659 317.098625)">0.2</text>
     </g>
    </g>
    <g id="xtick_2">
     <g id="text_2">
      <text style="fill: #262626; font: 8.8px 'DejaVu Sans'; text-anchor: middle" x="124.309419" y="317.098625" transform="rotate(-0 124.309419 317.098625)">0.3</text>
     </g>
    </g>
    <g id="xtick_3">
     <g id="text_3">
      <text style="fill: #262626; font: 8.8px 'DejaVu Sans'; text-anchor: middle" x="183.85818" y="317.098625" transform="rotate(-0 183.85818 317.098625)">0.4</text>
     </g>
    </g>
    <g id="xtick_4">
     <g id="text_4">
      <text style="fill: #262626; font: 8.8px 'DejaVu Sans'; text-anchor: middle" x="243.40694" y="317.098625" transform="rotate(-0 243.40694 317.098625)">0.5</text>
     </g>
    </g>
    <g id="xtick_5">
     <g id="text_5">
      <text style="fill: #262626; font: 8.8px 'DejaVu Sans'; text-anchor: middle" x="302.9557" y="317.098625" transform="rotate(-0 302.9557 317.098625)">0.6</text>
     </g>
    </g>
    <g id="xtick_6">
     <g id="text_6">
      <text style="fill: #262626; font: 8.8px 'DejaVu Sans'; text-anchor: middle" x="362.504461" y="317.098625" transform="rotate(-0 362.504461 317.098625)">0.7</text>
     </g>
    </g>
    <g id="text_7">
     <text style="fill: #262626; font: 9.6px 'DejaVu Sans'; text-anchor: middle" x="228.51975" y="330.22325" transform="rotate(-0 228.51975 330.22325)">ABC score</text>
    </g>
   </g>
   <g id="matplotlib.axis_2">
    <g id="ytick_1">
     <g id="line2d_1">
      <path d="M 48.38475 302.112 
L 408.65475 302.112 
" clip-path="url(#p36f24e2da3)" style="fill: none; stroke: #e2e8f0; stroke-width: 0.7; stroke-linecap: round"/>
     </g>
     <g id="text_8">
      <text style="fill: #262626; font: 8.8px 'DejaVu Sans'; text-anchor: end" x="40.08475" y="305.455312" transform="rotate(-0 40.08475 305.455312)">0.0</text>
     </g>
    </g>
    <g id="ytick_2">
     <g id="line2d_2">
      <path d="M 48.38475 275.593417 
L 408.65475 275.593417 
" clip-path="url(#p36f24e2da3)" style="fill: none; stroke: #e2e8f0; stroke-width: 0.7; stroke-linecap: round"/>
     </g>
     <g id="text_9">
      <text style="fill: #262626; font: 8.8px 'DejaVu Sans'; text-anchor: end" x="40.08475" y="278.93673" transform="rotate(-0 40.08475 278.93673)">2.5</text>
     </g>
    </g>
    <g id="ytick_3">
     <g id="line2d_3">
      <path d="M 48.38475 249.074834 
L 408.65475 249.074834 
" clip-path="url(#p36f24e2da3)" style="fill: none; stroke: #e2e8f0; stroke-width: 0.7; stroke-linecap: round"/>
     </g>
     <g id="text_10">
      <text style="fill: #262626; font: 8.8px 'DejaVu Sans'; text-anchor: end" x="40.08475" y="252.418147" transform="rotate(-0 40.08475 252.418147)">5.0</text>
     </g>
    </g>
    <g id="ytick_4">
     <g id="line2d_4">
      <path d="M 48.38475 222.556252 
L 408.65475 222.556252 
" clip-path="url(#p36f24e2da3)" style="fill: none; stroke: #e2e8f0; stroke-width: 0.7; stroke-linecap: round"/>
     </g>
     <g id="text_11">
      <text style="fill: #262626; font: 8.8px 'DejaVu Sans'; text-anchor: end" x="40.08475" y="225.899564" transform="rotate(-0 40.08475 225.899564)">7.5</text>
     </g>
    </g>
    <g id="ytick_5">
     <g id="line2d_5">
      <path d="M 48.38475 196.037669 
L 408.65475 196.037669 
" clip-path="url(#p36f24e2da3)" style="fill: none; stroke: #e2e8f0; stroke-width: 0.7; stroke-linecap: round"/>
     </g>
     <g id="text_12">
      <text style="fill: #262626; font: 8.8px 'DejaVu Sans'; text-anchor: end" x="40.08475" y="199.380981" transform="rotate(-0 40.08475 199.380981)">10.0</text>
     </g>
    </g>
    <g id="ytick_6">
     <g id="line2d_6">
      <path d="M 48.38475 169.519086 
L 408.65475 169.519086 
" clip-path="url(#p36f24e2da3)" style="fill: none; stroke: #e2e8f0; stroke-width: 0.7; stroke-linecap: round"/>
     </g>
     <g id="text_13">
      <text style="fill: #262626; font: 8.8px 'DejaVu Sans'; text-anchor: end" x="40.08475" y="172.862399" transform="rotate(-0 40.08475 172.862399)">12.5</text>
     </g>
    </g>
    <g id="ytick_7">
     <g id="line2d_7">
      <path d="M 48.38475 143.000503 
L 408.65475 143.000503 
" clip-path="url(#p36f24e2da3)" style="fill: none; stroke: #e2e8f0; stroke-width: 0.7; stroke-linecap: round"/>
     </g>
     <g id="text_14">
      <text style="fill: #262626; font: 8.8px 'DejaVu Sans'; text-anchor: end" x="40.08475" y="146.343816" transform="rotate(-0 40.08475 146.343816)">15.0</text>
     </g>
    </g>
    <g id="ytick_8">
     <g id="line2d_8">
      <path d="M 48.38475 116.48192 
L 408.65475 116.48192 
" clip-path="url(#p36f24e2da3)" style="fill: none; stroke: #e2e8f0; stroke-width: 0.7; stroke-linecap: round"/>
     </g>
     <g id="text_15">
      <text style="fill: #262626; font: 8.8px 'DejaVu Sans'; text-anchor: end" x="40.08475" y="119.825233" transform="rotate(-0 40.08475 119.825233)">17.5</text>
     </g>
    </g>
    <g id="ytick_9">
     <g id="line2d_9">
      <path d="M 48.38475 89.963338 
L 408.65475 89.963338 
" clip-path="url(#p36f24e2da3)" style="fill: none; stroke: #e2e8f0; stroke-width: 0.7; stroke-linecap: round"/>
     </g>
     <g id="text_16">
      <text style="fill: #262626; font: 8.8px 'DejaVu Sans'; text-anchor: end" x="40.08475" y="93.30665" transform="rotate(-0 40.08475 93.30665)">20.0</text>
     </g>
    </g>
    <g id="text_17">
     <text style="fill: #262626; font: 9.6px 'DejaVu Sans'; text-anchor: middle" x="14.4945" y="188.868" transform="rotate(-90 14.4945 188.868)">Density</text>
    </g>
   </g>
   <g id="patch_3">
    <path d="M 64.760659 302.112 
L 72.204254 302.112 
L 72.204254 302.112 
L 64.760659 302.112 
z
" clip-path="url(#p36f24e2da3)" style="fill: #2563eb; opacity: 0.65; stroke: #ffffff; stroke-width: 0.8; stroke-linejoin: miter"/>
   </g>
   <g id="patch_4">
    <path d="M 72.204254 302.112 
L 79.647849 302.112 
L 79.647849 302.112 
L 72.204254 302.112 
z
" clip-path="url(#p36f24e2da3)" style="fill: #2563eb; opacity: 0.65; stroke: #ffffff; stroke-width: 0.8; stroke-linejoin: miter"/>
   </g>
   <g id="patch_5">
    <path d="M 79.647849 302.112 
L 87.091444 302.112 
L 87.091444 302.112 
L 79.647849 302.112 
z
" clip-path="url(#p36f24e2da3)" style="fill: #2563eb; opacity: 0.65; stroke: #ffffff; stroke-width: 0.8; stroke-linejoin: miter"/>
   </g>
   <g id="patch_6">
    <path d="M 87.091444 302.112 
L 94.535039 302.112 
L 94.535039 302.112 
L 87.091444 302.112 
z
" clip-path="url(#p36f24e2da3)" style="fill: #2563eb; opacity: 0.65; stroke: #ffffff; stroke-width: 0.8; stroke-linejoin: miter"/>
   </g>
   <g id="patch_7">
    <path d="M 94.535039 302.112 
L 101.978634 302.112 
L 101.978634 302.112 
L 94.535039 302.112 
z
" clip-path="url(#p36f24e2da3)" style="fill: #2563eb; opacity: 0.65; stroke: #ffffff; stroke-width: 0.8; stroke-linejoin: miter"/>
   </g>
   <g id="patch_8">
    <path d="M 101.978634 302.112 
L 109.422229 302.112 
L 109.422229 302.112 
L 101.978634 302.112 
z
" clip-path="url(#p36f24e2da3)" style="fill: #2563eb; opacity: 0.65; stroke: #ffffff; stroke-width: 0.8; stroke-linejoin: miter"/>
   </g>
   <g id="patch_9">
    <path d="M 109.422229 302.112 
L 116.865824 302.112 
L 116.865824 302.112 
L 109.422229 302.112 
z
" clip-path="url(#p36f24e2da3)" style="fill: #2563eb; opacity: 0.65; stroke: #ffffff; stroke-width: 0.8; stroke-linejoin: miter"/>
   </g>
   <g id="patch_10">
    <path d="M 116.865824 302.112 
L 124.309419 302.112 
L 124.309419 302.112 
L 116.865824 302.112 
z
" clip-path="url(#p36f24e2da3)" style="fill: #2563eb; opacity: 0.65; stroke: #ffffff; stroke-width: 0.8; stroke-linejoin: miter"/>
   </g>
   <g id="patch_11">
    <path d="M 124.309419 302.112 
L 131.753014 302.112 
L 131.753014 300.768224 
L 124.309419 300.768224 
z
" clip-path="url(#p36f24e2da3)" style="fill: #2563eb; opacity: 0.65; stroke: #ffffff; stroke-width: 0.8; stroke-linejoin: miter"/>
   </g>
   <g id="patch_12">
    <path d="M 131.753014 302.112 
L 139.19661 302.112 
L 139.19661 301.157212 
L 131.753014 301.157212 
z
" clip-path="url(#p36f24e2da3)" style="fill: #2563eb; opacity: 0.65; stroke: #ffffff; stroke-width: 0.8; stroke-linejoin: miter"/>
   </g>
   <g id="patch_13">
    <path d="M 139.19661 302.112 
L 146.640205 302.112 
L 146.640205 301.015762 
L 139.19661 301.015762 
z
" clip-path="url(#p36f24e2da3)" style="fill: #2563eb; opacity: 0.65; stroke: #ffffff; stroke-width: 0.8; stroke-linejoin: miter"/>
   </g>
   <g id="patch_14">
    <path d="M 146.640205 302.112 
L 154.0838 302.112 
L 154.0838 300.945036 
L 146.640205 300.945036 
z
" clip-path="url(#p36f24e2da3)" style="fill: #2563eb; opacity: 0.65; stroke: #ffffff; stroke-width: 0.8; stroke-linejoin: miter"/>
   </g>
   <g id="patch_15">
    <path d="M 154.0838 302.112 
L 161.527395 302.112 
L 161.527395 300.556049 
L 154.0838 300.556049 
z
" clip-path="url(#p36f24e2da3)" style="fill: #2563eb; opacity: 0.65; stroke: #ffffff; stroke-width: 0.8; stroke-linejoin: miter"/>
   </g>
   <g id="patch_16">
    <path d="M 161.527395 302.112 
L 168.97099 302.112 
L 168.97099 300.379236 
L 161.527395 300.379236 
z
" clip-path="url(#p36f24e2da3)" style="fill: #2563eb; opacity: 0.65; stroke: #ffffff; stroke-width: 0.8; stroke-linejoin: miter"/>
   </g>
   <g id="patch_17">
    <path d="M 168.97099 302.112 
L 176.414585 302.112 
L 176.414585 300.379236 
L 168.97099 300.379236 
z
" clip-path="url(#p36f24e2da3)" style="fill: #2563eb; opacity: 0.65; stroke: #ffffff; stroke-width: 0.8; stroke-linejoin: miter"/>
   </g>
   <g id="patch_18">
    <path d="M 176.414585 302.112 
L 183.85818 302.112 
L 183.85818 299.990248 
L 176.414585 299.990248 
z
" clip-path="url(#p36f24e2da3)" style="fill: #2563eb; opacity: 0.65; stroke: #ffffff; stroke-width: 0.8; stroke-linejoin: miter"/>
   </g>
   <g id="patch_19">
    <path d="M 183.85818 302.112 
L 191.301775 302.112 
L 191.301775 299.60126 
L 183.85818 299.60126 
z
" clip-path="url(#p36f24e2da3)" style="fill: #2563eb; opacity: 0.65; stroke: #ffffff; stroke-width: 0.8; stroke-linejoin: miter"/>
   </g>
   <g id="patch_20">
    <path d="M 191.301775 302.112 
L 198.74537 302.112 
L 198.74537 298.75256 
L 191.301775 298.75256 
z
" clip-path="url(#p36f24e2da3)" style="fill: #2563eb; opacity: 0.65; stroke: #ffffff; stroke-width: 0.8; stroke-linejoin: miter"/>
   </g>
   <g id="patch_21">
    <path d="M 198.74537 302.112 
L 206.188965 302.112 
L 206.188965 297.479508 
L 198.74537 297.479508 
z
" clip-path="url(#p36f24e2da3)" style="fill: #2563eb; opacity: 0.65; stroke: #ffffff; stroke-width: 0.8; stroke-linejoin: miter"/>
   </g>
   <g id="patch_22">
    <path d="M 206.188965 302.112 
L 213.63256 302.112 
L 213.63256 295.569932 
L 206.188965 295.569932 
z
" clip-path="url(#p36f24e2da3)" style="fill: #2563eb; opacity: 0.65; stroke: #ffffff; stroke-width: 0.8; stroke-linejoin: miter"/>
   </g>
   <g id="patch_23">
    <path d="M 213.63256 302.112 
L 221.076155 302.112 
L 221.076155 292.175129 
L 213.63256 292.175129 
z
" clip-path="url(#p36f24e2da3)" style="fill: #2563eb; opacity: 0.65; stroke: #ffffff; stroke-width: 0.8; stroke-linejoin: miter"/>
   </g>
   <g id="patch_24">
    <path d="M 221.076155 302.112 
L 228.51975 302.112 
L 228.51975 279.090993 
L 221.076155 279.090993 
z
" clip-path="url(#p36f24e2da3)" style="fill: #2563eb; opacity: 0.65; stroke: #ffffff; stroke-width: 0.8; stroke-linejoin: miter"/>
   </g>
   <g id="patch_25">
    <path d="M 228.51975 302.112 
L 235.963345 302.112 
L 235.963345 260.419576 
L 228.51975 260.419576 
z
" clip-path="url(#p36f24e2da3)" style="fill: #2563eb; opacity: 0.65; stroke: #ffffff; stroke-width: 0.8; stroke-linejoin: miter"/>
   </g>
   <g id="patch_26">
    <path d="M 235.963345 302.112 
L 243.40694 302.112 
L 243.40694 252.498369 
L 235.963345 252.498369 
z
" clip-path="url(#p36f24e2da3)" style="fill: #2563eb; opacity: 0.65; stroke: #ffffff; stroke-width: 0.8; stroke-linejoin: miter"/>
   </g>
   <g id="patch_27">
    <path d="M 243.40694 302.112 
L 250.850535 302.112 
L 250.850535 239.025245 
L 243.40694 239.025245 
z
" clip-path="url(#p36f24e2da3)" style="fill: #2563eb; opacity: 0.65; stroke: #ffffff; stroke-width: 0.8; stroke-linejoin: miter"/>
   </g>
   <g id="patch_28">
    <path d="M 250.850535 302.112 
L 258.29413 302.112 
L 258.29413 231.033313 
L 250.850535 231.033313 
z
" clip-path="url(#p36f24e2da3)" style="fill: #2563eb; opacity: 0.65; stroke: #ffffff; stroke-width: 0.8; stroke-linejoin: miter"/>
   </g>
   <g id="patch_29">
    <path d="M 258.29413 302.112 
L 265.737725 302.112 
L 265.737725 239.626408 
L 258.29413 239.626408 
z
" clip-path="url(#p36f24e2da3)" style="fill: #2563eb; opacity: 0.65; stroke: #ffffff; stroke-width: 0.8; stroke-linejoin: miter"/>
   </g>
   <g id="patch_30">
    <path d="M 265.737725 302.112 
L 273.18132 302.112 
L 273.18132 248.148778 
L 265.737725 248.148778 
z
" clip-path="url(#p36f24e2da3)" style="fill: #2563eb; opacity: 0.65; stroke: #ffffff; stroke-width: 0.8; stroke-linejoin: miter"/>
   </g>
   <g id="patch_31">
    <path d="M 273.18132 302.112 
L 280.624915 302.112 
L 280.624915 245.461226 
L 273.18132 245.461226 
z
" clip-path="url(#p36f24e2da3)" style="fill: #2563eb; opacity: 0.65; stroke: #ffffff; stroke-width: 0.8; stroke-linejoin: miter"/>
   </g>
   <g id="patch_32">
    <path d="M 280.624915 302.112 
L 288.06851 302.112 
L 288.06851 240.439746 
L 280.624915 240.439746 
z
" clip-path="url(#p36f24e2da3)" style="fill: #2563eb; opacity: 0.65; stroke: #ffffff; stroke-width: 0.8; stroke-linejoin: miter"/>
   </g>
   <g id="patch_33">
    <path d="M 288.06851 302.112 
L 295.512105 302.112 
L 295.512105 241.394535 
L 288.06851 241.394535 
z
" clip-path="url(#p36f24e2da3)" style="fill: #2563eb; opacity: 0.65; stroke: #ffffff; stroke-width: 0.8; stroke-linejoin: miter"/>
   </g>
   <g id="patch_34">
    <path d="M 295.512105 302.112 
L 302.9557 302.112 
L 302.9557 243.162661 
L 295.512105 243.162661 
z
" clip-path="url(#p36f24e2da3)" style="fill: #2563eb; opacity: 0.65; stroke: #ffffff; stroke-width: 0.8; stroke-linejoin: miter"/>
   </g>
   <g id="patch_35">
    <path d="M 302.9557 302.112 
L 310.399295 302.112 
L 310.399295 246.769639 
L 302.9557 246.769639 
z
" clip-path="url(#p36f24e2da3)" style="fill: #2563eb; opacity: 0.65; stroke: #ffffff; stroke-width: 0.8; stroke-linejoin: miter"/>
   </g>
   <g id="patch_36">
    <path d="M 310.399295 302.112 
L 317.84289 302.112 
L 317.84289 254.266496 
L 310.399295 254.266496 
z
" clip-path="url(#p36f24e2da3)" style="fill: #2563eb; opacity: 0.65; stroke: #ffffff; stroke-width: 0.8; stroke-linejoin: miter"/>
   </g>
   <g id="patch_37">
    <path d="M 317.84289 302.112 
L 325.286486 302.112 
L 325.286486 266.325119 
L 317.84289 266.325119 
z
" clip-path="url(#p36f24e2da3)" style="fill: #2563eb; opacity: 0.65; stroke: #ffffff; stroke-width: 0.8; stroke-linejoin: miter"/>
   </g>
   <g id="patch_38">
    <path d="M 325.286486 302.112 
L 332.730081 302.112 
L 332.730081 274.670676 
L 325.286486 274.670676 
z
" clip-path="url(#p36f24e2da3)" style="fill: #2563eb; opacity: 0.65; stroke: #ffffff; stroke-width: 0.8; stroke-linejoin: miter"/>
   </g>
   <g id="patch_39">
    <path d="M 332.730081 302.112 
L 340.173676 302.112 
L 340.173676 284.077109 
L 332.730081 284.077109 
z
" clip-path="url(#p36f24e2da3)" style="fill: #2563eb; opacity: 0.65; stroke: #ffffff; stroke-width: 0.8; stroke-linejoin: miter"/>
   </g>
   <g id="patch_40">
    <path d="M 340.173676 302.112 
L 347.617271 302.112 
L 347.617271 290.37164 
L 340.173676 290.37164 
z
" clip-path="url(#p36f24e2da3)" style="fill: #2563eb; opacity: 0.65; stroke: #ffffff; stroke-width: 0.8; stroke-linejoin: miter"/>
   </g>
   <g id="patch_41">
    <path d="M 347.617271 302.112 
L 355.060866 302.112 
L 355.060866 296.52472 
L 347.617271 296.52472 
z
" clip-path="url(#p36f24e2da3)" style="fill: #2563eb; opacity: 0.65; stroke: #ffffff; stroke-width: 0.8; stroke-linejoin: miter"/>
   </g>
   <g id="patch_42">
    <path d="M 355.060866 302.112 
L 362.504461 302.112 
L 362.504461 298.964735 
L 355.060866 298.964735 
z
" clip-path="url(#p36f24e2da3)" style="fill: #2563eb; opacity: 0.65; stroke: #ffffff; stroke-width: 0.8; stroke-linejoin: miter"/>
   </g>
   <g id="patch_43">
    <path d="M 362.504461 302.112 
L 369.948056 302.112 
L 369.948056 300.874311 
L 362.504461 300.874311 
z
" clip-path="url(#p36f24e2da3)" style="fill: #2563eb; opacity: 0.65; stroke: #ffffff; stroke-width: 0.8; stroke-linejoin: miter"/>
   </g>
   <g id="patch_44">
    <path d="M 369.948056 302.112 
L 377.391651 302.112 
L 377.391651 301.616925 
L 369.948056 301.616925 
z
" clip-path="url(#p36f24e2da3)" style="fill: #2563eb; opacity: 0.65; stroke: #ffffff; stroke-width: 0.8; stroke-linejoin: miter"/>
   </g>
   <g id="patch_45">
    <path d="M 377.391651 302.112 
L 384.835246 302.112 
L 384.835246 301.864462 
L 377.391651 301.864462 
z
" clip-path="url(#p36f24e2da3)" style="fill: #2563eb; opacity: 0.65; stroke: #ffffff; stroke-width: 0.8; stroke-linejoin: miter"/>
   </g>
   <g id="patch_46">
    <path d="M 384.835246 302.112 
L 392.278841 302.112 
L 392.278841 302.041275 
L 384.835246 302.041275 
z
" clip-path="url(#p36f24e2da3)" style="fill: #2563eb; opacity: 0.65; stroke: #ffffff; stroke-width: 0.8; stroke-linejoin: miter"/>
   </g>
   <g id="patch_47">
    <path d="M 64.760659 302.112 
L 72.204254 302.112 
L 72.204254 302.112 
L 64.760659 302.112 
z
" clip-path="url(#p36f24e2da3)" style="fill: #dc2626; opacity: 0.65; stroke: #ffffff; stroke-width: 0.8; stroke-linejoin: miter"/>
   </g>
   <g id="patch_48">
    <path d="M 72.204254 302.112 
L 79.647849 302.112 
L 79.647849 302.112 
L 72.204254 302.112 
z
" clip-path="url(#p36f24e2da3)" style="fill: #dc2626; opacity: 0.65; stroke: #ffffff; stroke-width: 0.8; stroke-linejoin: miter"/>
   </g>
   <g id="patch_49">
    <path d="M 79.647849 302.112 
L 87.091444 302.112 
L 87.091444 302.112 
L 79.647849 302.112 
z
" clip-path="url(#p36f24e2da3)" style="fill: #dc2626; opacity: 0.65; stroke: #ffffff; stroke-width: 0.8; stroke-linejoin: miter"/>
   </g>
   <g id="patch_50">
    <path d="M 87.091444 302.112 
L 94.535039 302.112 
L 94.535039 302.112 
L 87.091444 302.112 
z
" clip-path="url(#p36f24e2da3)" style="fill: #dc2626; opacity: 0.65; stroke: #ffffff; stroke-width: 0.8; stroke-linejoin: miter"/>
   </g>
   <g id="patch_51">
    <path d="M 94.535039 302.112 
L 101.978634 302.112 
L 101.978634 90.57613 
L 94.535039 90.57613 
z
" clip-path="url(#p36f24e2da3)" style="fill: #dc2626; opacity: 0.65; stroke: #ffffff; stroke-width: 0.8; stroke-linejoin: miter"/>
   </g>
   <g id="patch_52">
    <path d="M 101.978634 302.112 
L 109.422229 302.112 
L 109.422229 86.409143 
L 101.978634 86.409143 
z
" clip-path="url(#p36f24e2da3)" style="fill: #dc2626; opacity: 0.65; stroke: #ffffff; stroke-width: 0.8; stroke-linejoin: miter"/>
   </g>
   <g id="patch_53">
    <path d="M 109.422229 302.112 
L 116.865824 302.112 
L 116.865824 92.291948 
L 109.422229 92.291948 
z
" clip-path="url(#p36f24e2da3)" style="fill: #dc2626; opacity: 0.65; stroke: #ffffff; stroke-width: 0.8; stroke-linejoin: miter"/>
   </g>
   <g id="patch_54">
    <path d="M 116.865824 302.112 
L 124.309419 302.112 
L 124.309419 90.57613 
L 116.865824 90.57613 
z
" clip-path="url(#p36f24e2da3)" style="fill: #dc2626; opacity: 0.65; stroke: #ffffff; stroke-width: 0.8; stroke-linejoin: miter"/>
   </g>
   <g id="patch_55">
    <path d="M 124.309419 302.112 
L 131.753014 302.112 
L 131.753014 302.112 
L 124.309419 302.112 
z
" clip-path="url(#p36f24e2da3)" style="fill: #dc2626; opacity: 0.65; stroke: #ffffff; stroke-width: 0.8; stroke-linejoin: miter"/>
   </g>
   <g id="patch_56">
    <path d="M 131.753014 302.112 
L 139.19661 302.112 
L 139.19661 302.112 
L 131.753014 302.112 
z
" clip-path="url(#p36f24e2da3)" style="fill: #dc2626; opacity: 0.65; stroke: #ffffff; stroke-width: 0.8; stroke-linejoin: miter"/>
   </g>
   <g id="patch_57">
    <path d="M 139.19661 302.112 
L 146.640205 302.112 
L 146.640205 302.112 
L 139.19661 302.112 
z
" clip-path="url(#p36f24e2da3)" style="fill: #dc2626; opacity: 0.65; stroke: #ffffff; stroke-width: 0.8; stroke-linejoin: miter"/>
   </g>
   <g id="patch_58">
    <path d="M 146.640205 302.112 
L 154.0838 302.112 
L 154.0838 302.112 
L 146.640205 302.112 
z
" clip-path="url(#p36f24e2da3)" style="fill: #dc2626; opacity: 0.65; stroke: #ffffff; stroke-width: 0.8; stroke-linejoin: miter"/>
   </g>
   <g id="patch_59">
    <path d="M 154.0838 302.112 
L 161.527395 302.112 
L 161.527395 302.112 
L 154.0838 302.112 
z
" clip-path="url(#p36f24e2da3)" style="fill: #dc2626; opacity: 0.65; stroke: #ffffff; stroke-width: 0.8; stroke-linejoin: miter"/>
   </g>
   <g id="patch_60">
    <path d="M 161.527395 302.112 
L 168.97099 302.112 
L 168.97099 302.112 
L 161.527395 302.112 
z
" clip-path="url(#p36f24e2da3)" style="fill: #dc2626; opacity: 0.65; stroke: #ffffff; stroke-width: 0.8; stroke-linejoin: miter"/>
   </g>
   <g id="patch_61">
    <path d="M 168.97099 302.112 
L 176.414585 302.112 
L 176.414585 302.112 
L 168.97099 302.112 
z
" clip-path="url(#p36f24e2da3)" style="fill: #dc2626; opacity: 0.65; stroke: #ffffff; stroke-width: 0.8; stroke-linejoin: miter"/>
   </g>
   <g id="patch_62">
    <path d="M 176.414585 302.112 
L 183.85818 302.112 
L 183.85818 302.112 
L 176.414585 302.112 
z
" clip-path="url(#p36f24e2da3)" style="fill: #dc2626; opacity: 0.65; stroke: #ffffff; stroke-width: 0.8; stroke-linejoin: miter"/>
   </g>
   <g id="patch_63">
    <path d="M 183.85818 302.112 
L 191.301775 302.112 
L 191.301775 302.112 
L 183.85818 302.112 
z
" clip-path="url(#p36f24e2da3)" style="fill: #dc2626; opacity: 0.65; stroke: #ffffff; stroke-width: 0.8; stroke-linejoin: miter"/>
   </g>
   <g id="patch_64">
    <path d="M 191.301775 302.112 
L 198.74537 302.112 
L 198.74537 302.112 
L 191.301775 302.112 
z
" clip-path="url(#p36f24e2da3)" style="fill: #dc2626; opacity: 0.65; stroke: #ffffff; stroke-width: 0.8; stroke-linejoin: miter"/>
   </g>
   <g id="patch_65">
    <path d="M 198.74537 302.112 
L 206.188965 302.112 
L 206.188965 302.112 
L 198.74537 302.112 
z
" clip-path="url(#p36f24e2da3)" style="fill: #dc2626; opacity: 0.65; stroke: #ffffff; stroke-width: 0.8; stroke-linejoin: miter"/>
   </g>
   <g id="patch_66">
    <path d="M 206.188965 302.112 
L 213.63256 302.112 
L 213.63256 302.112 
L 206.188965 302.112 
z
" clip-path="url(#p36f24e2da3)" style="fill: #dc2626; opacity: 0.65; stroke: #ffffff; stroke-width: 0.8; stroke-linejoin: miter"/>
   </g>
   <g id="patch_67">
    <path d="M 213.63256 302.112 
L 221.076155 302.112 
L 221.076155 302.112 
L 213.63256 302.112 
z
" clip-path="url(#p36f24e2da3)" style="fill: #dc2626; opacity: 0.65; stroke: #ffffff; stroke-width: 0.8; stroke-linejoin: miter"/>
   </g>
   <g id="patch_68">
    <path d="M 221.076155 302.112 
L 228.51975 302.112 
L 228.51975 302.112 
L 221.076155 302.112 
z
" clip-path="url(#p36f24e2da3)" style="fill: #dc2626; opacity: 0.65; stroke: #ffffff; stroke-width: 0.8; stroke-linejoin: miter"/>
   </g>
   <g id="patch_69">
    <path d="M 228.51975 302.112 
L 235.963345 302.112 
L 235.963345 302.112 
L 228.51975 302.112 
z
" clip-path="url(#p36f24e2da3)" style="fill: #dc2626; opacity: 0.65; stroke: #ffffff; stroke-width: 0.8; stroke-linejoin: miter"/>
   </g>
   <g id="patch_70">
    <path d="M 235.963345 302.112 
L 243.40694 302.112 
L 243.40694 302.112 
L 235.963345 302.112 
z
" clip-path="url(#p36f24e2da3)" style="fill: #dc2626; opacity: 0.65; stroke: #ffffff; stroke-width: 0.8; stroke-linejoin: miter"/>
   </g>
   <g id="patch_71">
    <path d="M 243.40694 302.112 
L 250.850535 302.112 
L 250.850535 302.112 
L 243.40694 302.112 
z
" clip-path="url(#p36f24e2da3)" style="fill: #dc2626; opacity: 0.65; stroke: #ffffff; stroke-width: 0.8; stroke-linejoin: miter"/>
   </g>
   <g id="patch_72">
    <path d="M 250.850535 302.112 
L 258.29413 302.112 
L 258.29413 302.112 
L 250.850535 302.112 
z
" clip-path="url(#p36f24e2da3)" style="fill: #dc2626; opacity: 0.65; stroke: #ffffff; stroke-width: 0.8; stroke-linejoin: miter"/>
   </g>
   <g id="patch_73">
    <path d="M 258.29413 302.112 
L 265.737725 302.112 
L 265.737725 302.112 
L 258.29413 302.112 
z
" clip-path="url(#p36f24e2da3)" style="fill: #dc2626; opacity: 0.65; stroke: #ffffff; stroke-width: 0.8; stroke-linejoin: miter"/>
   </g>
   <g id="patch_74">
    <path d="M 265.737725 302.112 
L 273.18132 302.112 
L 273.18132 302.112 
L 265.737725 302.112 
z
" clip-path="url(#p36f24e2da3)" style="fill: #dc2626; opacity: 0.65; stroke: #ffffff; stroke-width: 0.8; stroke-linejoin: miter"/>
   </g>
   <g id="patch_75">
    <path d="M 273.18132 302.112 
L 280.624915 302.112 
L 280.624915 302.112 
L 273.18132 302.112 
z
" clip-path="url(#p36f24e2da3)" style="fill: #dc2626; opacity: 0.65; stroke: #ffffff; stroke-width: 0.8; stroke-linejoin: miter"/>
   </g>
   <g id="patch_76">
    <path d="M 280.624915 302.112 
L 288.06851 302.112 
L 288.06851 302.112 
L 280.624915 302.112 
z
" clip-path="url(#p36f24e2da3)" style="fill: #dc2626; opacity: 0.65; stroke: #ffffff; stroke-width: 0.8; stroke-linejoin: miter"/>
   </g>
   <g id="patch_77">
    <path d="M 288.06851 302.112 
L 295.512105 302.112 
L 295.512105 302.112 
L 288.06851 302.112 
z
" clip-path="url(#p36f24e2da3)" style="fill: #dc2626; opacity: 0.65; stroke: #ffffff; stroke-width: 0.8; stroke-linejoin: miter"/>
   </g>
   <g id="patch_78">
    <path d="M 295.512105 302.112 
L 302.9557 302.112 
L 302.9557 302.112 
L 295.512105 302.112 
z
" clip-path="url(#p36f24e2da3)" style="fill: #dc2626; opacity: 0.65; stroke: #ffffff; stroke-width: 0.8; stroke-linejoin: miter"/>
   </g>
   <g id="patch_79">
    <path d="M 302.9557 302.112 
L 310.399295 302.112 
L 310.399295 302.112 
L 302.9557 302.112 
z
" clip-path="url(#p36f24e2da3)" style="fill: #dc2626; opacity: 0.65; stroke: #ffffff; stroke-width: 0.8; stroke-linejoin: miter"/>
   </g>
   <g id="patch_80">
    <path d="M 310.399295 302.112 
L 317.84289 302.112 
L 317.84289 302.112 
L 310.399295 302.112 
z
" clip-path="url(#p36f24e2da3)" style="fill: #dc2626; opacity: 0.65; stroke: #ffffff; stroke-width: 0.8; stroke-linejoin: miter"/>
   </g>
   <g id="patch_81">
    <path d="M 317.84289 302.112 
L 325.286486 302.112 
L 325.286486 302.112 
L 317.84289 302.112 
z
" clip-path="url(#p36f24e2da3)" style="fill: #dc2626; opacity: 0.65; stroke: #ffffff; stroke-width: 0.8; stroke-linejoin: miter"/>
   </g>
   <g id="patch_82">
    <path d="M 325.286486 302.112 
L 332.730081 302.112 
L 332.730081 302.112 
L 325.286486 302.112 
z
" clip-path="url(#p36f24e2da3)" style="fill: #dc2626; opacity: 0.65; stroke: #ffffff; stroke-width: 0.8; stroke-linejoin: miter"/>
   </g>
   <g id="patch_83">
    <path d="M 332.730081 302.112 
L 340.173676 302.112 
L 340.173676 302.112 
L 332.730081 302.112 
z
" clip-path="url(#p36f24e2da3)" style="fill: #dc2626; opacity: 0.65; stroke: #ffffff; stroke-width: 0.8; stroke-linejoin: miter"/>
   </g>
   <g id="patch_84">
    <path d="M 340.173676 302.112 
L 347.617271 302.112 
L 347.617271 302.112 
L 340.173676 302.112 
z
" clip-path="url(#p36f24e2da3)" style="fill: #dc2626; opacity: 0.65; stroke: #ffffff; stroke-width: 0.8; stroke-linejoin: miter"/>
   </g>
   <g id="patch_85">
    <path d="M 347.617271 302.112 
L 355.060866 302.112 
L 355.060866 302.112 
L 347.617271 302.112 
z
" clip-path="url(#p36f24e2da3)" style="fill: #dc2626; opacity: 0.65; stroke: #ffffff; stroke-width: 0.8; stroke-linejoin: miter"/>
   </g>
   <g id="patch_86">
    <path d="M 355.060866 302.112 
L 362.504461 302.112 
L 362.504461 302.112 
L 355.060866 302.112 
z
" clip-path="url(#p36f24e2da3)" style="fill: #dc2626; opacity: 0.65; stroke: #ffffff; stroke-width: 0.8; stroke-linejoin: miter"/>
   </g>
   <g id="patch_87">
    <path d="M 362.504461 302.112 
L 369.948056 302.112 
L 369.948056 302.112 
L 362.504461 302.112 
z
" clip-path="url(#p36f24e2da3)" style="fill: #dc2626; opacity: 0.65; stroke: #ffffff; stroke-width: 0.8; stroke-linejoin: miter"/>
   </g>
   <g id="patch_88">
    <path d="M 369.948056 302.112 
L 377.391651 302.112 
L 377.391651 302.112 
L 369.948056 302.112 
z
" clip-path="url(#p36f24e2da3)" style="fill: #dc2626; opacity: 0.65; stroke: #ffffff; stroke-width: 0.8; stroke-linejoin: miter"/>
   </g>
   <g id="patch_89">
    <path d="M 377.391651 302.112 
L 384.835246 302.112 
L 384.835246 302.112 
L 377.391651 302.112 
z
" clip-path="url(#p36f24e2da3)" style="fill: #dc2626; opacity: 0.65; stroke: #ffffff; stroke-width: 0.8; stroke-linejoin: miter"/>
   </g>
   <g id="patch_90">
    <path d="M 384.835246 302.112 
L 392.278841 302.112 
L 392.278841 302.112 
L 384.835246 302.112 
z
" clip-path="url(#p36f24e2da3)" style="fill: #dc2626; opacity: 0.65; stroke: #ffffff; stroke-width: 0.8; stroke-linejoin: miter"/>
   </g>
   <g id="line2d_10">
    <path d="M 124.309419 302.112 
L 124.309419 75.624 
" clip-path="url(#p36f24e2da3)" style="fill: none; stroke-dasharray: 4.44,1.92; stroke-dashoffset: 0; stroke: #0f172a; stroke-width: 1.2"/>
   </g>
   <g id="patch_91">
    <path d="M 48.38475 302.112 
L 48.38475 75.624 
" style="fill: none; stroke: #cbd5e1; stroke-linejoin: miter; stroke-linecap: square"/>
   </g>
   <g id="patch_92">
    <path d="M 48.38475 302.112 
L 408.65475 302.112 
" style="fill: none; stroke: #cbd5e1; stroke-linejoin: miter; stroke-linecap: square"/>
   </g>
   <g id="legend_1">
    <g id="patch_93">
     <path d="M 283.597125 90.230625 
L 301.197125 90.230625 
L 301.197125 84.070625 
L 283.597125 84.070625 
z
" style="fill: #2563eb; opacity: 0.65; stroke: #ffffff; stroke-width: 0.8; stroke-linejoin: miter"/>
    </g>
    <g id="text_18">
     <text style="fill: #0f172a; font: 8.8px 'DejaVu Sans'; text-anchor: start" x="308.237125" y="90.230625" transform="rotate(-0 308.237125 90.230625)">Accepted ambiguous</text>
    </g>
    <g id="patch_94">
     <path d="M 283.597125 103.147375 
L 301.197125 103.147375 
L 301.197125 96.987375 
L 283.597125 96.987375 
z
" style="fill: #dc2626; opacity: 0.65; stroke: #ffffff; stroke-width: 0.8; stroke-linejoin: miter"/>
    </g>
    <g id="text_19">
     <text style="fill: #0f172a; font: 8.8px 'DejaVu Sans'; text-anchor: start" x="308.237125" y="103.147375" transform="rotate(-0 308.237125 103.147375)">Threshold rejected</text>
    </g>
    <g id="line2d_11">
     <path d="M 283.597125 112.984125 
L 292.397125 112.984125 
L 301.197125 112.984125 
" style="fill: none; stroke-dasharray: 4.44,1.92; stroke-dashoffset: 0; stroke: #0f172a; stroke-width: 1.2"/>
    </g>
    <g id="text_20">
     <text style="fill: #0f172a; font: 8.8px 'DejaVu Sans'; text-anchor: start" x="308.237125" y="116.064125" transform="rotate(-0 308.237125 116.064125)">ABC threshold 0.30</text>
    </g>
   </g>
  </g>
  <g id="axes_2">
   <g id="patch_95">
    <path d="M 454.43475 302.112 
L 814.70475 302.112 
L 814.70475 75.624 
L 454.43475 75.624 
z
" style="fill: #ffffff"/>
   </g>
   <g id="matplotlib.axis_3">
    <g id="xtick_7">
     <g id="line2d_12">
      <path d="M 500.546808 302.112 
L 500.546808 75.624 
" clip-path="url(#p4dfbb8e0b7)" style="fill: none; stroke: #e2e8f0; stroke-width: 0.7; stroke-linecap: round"/>
     </g>
     <g id="text_21">
      <text style="fill: #262626; font: 8.8px 'DejaVu Sans'; text-anchor: middle" x="500.546808" y="317.098625" transform="rotate(-0 500.546808 317.098625)">0.3</text>
     </g>
    </g>
    <g id="xtick_8">
     <g id="line2d_13">
      <path d="M 560.019138 302.112 
L 560.019138 75.624 
" clip-path="url(#p4dfbb8e0b7)" style="fill: none; stroke: #e2e8f0; stroke-width: 0.7; stroke-linecap: round"/>
     </g>
     <g id="text_22">
      <text style="fill: #262626; font: 8.8px 'DejaVu Sans'; text-anchor: middle" x="560.019138" y="317.098625" transform="rotate(-0 560.019138 317.098625)">0.4</text>
     </g>
    </g>
    <g id="xtick_9">
     <g id="line2d_14">
      <path d="M 619.491468 302.112 
L 619.491468 75.624 
" clip-path="url(#p4dfbb8e0b7)" style="fill: none; stroke: #e2e8f0; stroke-width: 0.7; stroke-linecap: round"/>
     </g>
     <g id="text_23">
      <text style="fill: #262626; font: 8.8px 'DejaVu Sans'; text-anchor: middle" x="619.491468" y="317.098625" transform="rotate(-0 619.491468 317.098625)">0.5</text>
     </g>
    </g>
    <g id="xtick_10">
     <g id="line2d_15">
      <path d="M 678.963798 302.112 
L 678.963798 75.624 
" clip-path="url(#p4dfbb8e0b7)" style="fill: none; stroke: #e2e8f0; stroke-width: 0.7; stroke-linecap: round"/>
     </g>
     <g id="text_24">
      <text style="fill: #262626; font: 8.8px 'DejaVu Sans'; text-anchor: middle" x="678.963798" y="317.098625" transform="rotate(-0 678.963798 317.098625)">0.6</text>
     </g>
    </g>
    <g id="xtick_11">
     <g id="line2d_16">
      <path d="M 738.436128 302.112 
L 738.436128 75.624 
" clip-path="url(#p4dfbb8e0b7)" style="fill: none; stroke: #e2e8f0; stroke-width: 0.7; stroke-linecap: round"/>
     </g>
     <g id="text_25">
      <text style="fill: #262626; font: 8.8px 'DejaVu Sans'; text-anchor: middle" x="738.436128" y="317.098625" transform="rotate(-0 738.436128 317.098625)">0.7</text>
     </g>
    </g>
    <g id="xtick_12">
     <g id="line2d_17">
      <path d="M 797.908458 302.112 
L 797.908458 75.624 
" clip-path="url(#p4dfbb8e0b7)" style="fill: none; stroke: #e2e8f0; stroke-width: 0.7; stroke-linecap: round"/>
     </g>
     <g id="text_26">
      <text style="fill: #262626; font: 8.8px 'DejaVu Sans'; text-anchor: middle" x="797.908458" y="317.098625" transform="rotate(-0 797.908458 317.098625)">0.8</text>
     </g>
    </g>
    <g id="text_27">
     <text style="fill: #262626; font: 9.6px 'DejaVu Sans'; text-anchor: middle" x="634.56975" y="330.22325" transform="rotate(-0 634.56975 330.22325)">ABC score</text>
    </g>
   </g>
   <g id="matplotlib.axis_4">
    <g id="ytick_10">
     <g id="line2d_18">
      <path d="M 454.43475 302.112 
L 814.70475 302.112 
" clip-path="url(#p4dfbb8e0b7)" style="fill: none; stroke: #e2e8f0; stroke-width: 0.7; stroke-linecap: round"/>
     </g>
     <g id="text_28">
      <text style="fill: #262626; font: 8.8px 'DejaVu Sans'; text-anchor: end" x="446.13475" y="305.455312" transform="rotate(-0 446.13475 305.455312)">0.0</text>
     </g>
    </g>
    <g id="ytick_11">
     <g id="line2d_19">
      <path d="M 454.43475 256.8144 
L 814.70475 256.8144 
" clip-path="url(#p4dfbb8e0b7)" style="fill: none; stroke: #e2e8f0; stroke-width: 0.7; stroke-linecap: round"/>
     </g>
     <g id="text_29">
      <text style="fill: #262626; font: 8.8px 'DejaVu Sans'; text-anchor: end" x="446.13475" y="260.157713" transform="rotate(-0 446.13475 260.157713)">0.2</text>
     </g>
    </g>
    <g id="ytick_12">
     <g id="line2d_20">
      <path d="M 454.43475 211.5168 
L 814.70475 211.5168 
" clip-path="url(#p4dfbb8e0b7)" style="fill: none; stroke: #e2e8f0; stroke-width: 0.7; stroke-linecap: round"/>
     </g>
     <g id="text_30">
      <text style="fill: #262626; font: 8.8px 'DejaVu Sans'; text-anchor: end" x="446.13475" y="214.860113" transform="rotate(-0 446.13475 214.860113)">0.4</text>
     </g>
    </g>
    <g id="ytick_13">
     <g id="line2d_21">
      <path d="M 454.43475 166.2192 
L 814.70475 166.2192 
" clip-path="url(#p4dfbb8e0b7)" style="fill: none; stroke: #e2e8f0; stroke-width: 0.7; stroke-linecap: round"/>
     </g>
     <g id="text_31">
      <text style="fill: #262626; font: 8.8px 'DejaVu Sans'; text-anchor: end" x="446.13475" y="169.562512" transform="rotate(-0 446.13475 169.562512)">0.6</text>
     </g>
    </g>
    <g id="ytick_14">
     <g id="line2d_22">
      <path d="M 454.43475 120.9216 
L 814.70475 120.9216 
" clip-path="url(#p4dfbb8e0b7)" style="fill: none; stroke: #e2e8f0; stroke-width: 0.7; stroke-linecap: round"/>
     </g>
     <g id="text_32">
      <text style="fill: #262626; font: 8.8px 'DejaVu Sans'; text-anchor: end" x="446.13475" y="124.264913" transform="rotate(-0 446.13475 124.264913)">0.8</text>
     </g>
    </g>
    <g id="ytick_15">
     <g id="line2d_23">
      <path d="M 454.43475 75.624 
L 814.70475 75.624 
" clip-path="url(#p4dfbb8e0b7)" style="fill: none; stroke: #e2e8f0; stroke-width: 0.7; stroke-linecap: round"/>
     </g>
     <g id="text_33">
      <text style="fill: #262626; font: 8.8px 'DejaVu Sans'; text-anchor: end" x="446.13475" y="78.967313" transform="rotate(-0 446.13475 78.967313)">1.0</text>
     </g>
    </g>
    <g id="text_34">
     <text style="fill: #262626; font: 9.6px 'DejaVu Sans'; text-anchor: middle" x="426.1435" y="188.868" transform="rotate(-90 426.1435 188.868)">Cumulative share</text>
    </g>
   </g>
   <g id="line2d_24">
    <path d="M 500.578715 302.112 
L 500.578715 302.102563 
L 503.035311 301.998756 
L 503.122019 301.979882 
L 505.119504 301.876075 
L 505.119504 301.866638 
L 506.982272 301.762831 
L 506.982272 301.753394 
L 510.320865 301.649587 
L 510.320865 301.64015 
L 514.259988 301.536343 
L 514.259988 301.526906 
L 517.438207 301.423099 
L 517.438207 301.413662 
L 519.907059 301.309855 
L 519.907059 301.300418 
L 523.884708 301.196611 
L 523.884708 301.187174 
L 525.248036 301.083367 
L 525.248036 301.07393 
L 528.062425 300.970123 
L 528.062425 300.960686 
L 531.549666 300.856879 
L 531.549666 300.847442 
L 533.763281 300.743635 
L 533.822446 300.724761 
L 535.638506 300.620954 
L 535.725731 300.60208 
L 537.249134 300.498273 
L 537.249134 300.488836 
L 539.617106 300.385029 
L 539.620663 300.366155 
L 541.147486 300.262348 
L 541.147486 300.252911 
L 542.487212 300.149104 
L 542.487212 300.139667 
L 544.68106 300.03586 
L 544.68106 300.026423 
L 546.821341 299.922616 
L 546.848637 299.903742 
L 549.094339 299.799935 
L 549.094339 299.790498 
L 550.504569 299.686691 
L 550.504569 299.677254 
L 552.471402 299.573447 
L 552.490988 299.554573 
L 553.542322 299.450766 
L 553.542322 299.441329 
L 555.153828 299.337522 
L 555.197254 299.318648 
L 556.715682 299.214841 
L 556.763773 299.195967 
L 558.534649 299.09216 
L 558.534649 299.082723 
L 560.300312 298.978916 
L 560.378459 298.960042 
L 561.664375 298.856235 
L 561.664375 298.846798 
L 563.402298 298.742991 
L 563.402298 298.733554 
L 564.525383 298.629747 
L 564.525383 298.62031 
L 566.139761 298.516503 
L 566.189917 298.488192 
L 566.810223 298.384385 
L 566.859498 298.365511 
L 567.76503 298.261704 
L 567.82669 298.24283 
L 568.75973 298.139023 
L 568.75973 298.129586 
L 570.125104 298.025779 
L 570.161038 298.006905 
L 571.227758 297.903098 
L 571.242966 297.884224 
L 572.015902 297.780417 
L 572.024947 297.761543 
L 573.221465 297.657736 
L 573.221465 297.648299 
L 574.072333 297.544492 
L 574.090033 297.525618 
L 575.070824 297.421811 
L 575.070824 297.412374 
L 576.17155 297.308567 
L 576.265998 297.280256 
L 577.317824 297.176449 
L 577.406412 297.138701 
L 577.956809 297.034894 
L 578.064877 297.01602 
L 578.478419 296.912213 
L 578.519998 296.883902 
L 579.058451 296.780095 
L 579.077328 296.751784 
L 579.975878 296.647977 
L 579.975878 296.63854 
L 580.873554 296.534733 
L 580.967911 296.506422 
L 581.405993 296.402615 
L 581.498752 296.364867 
L 582.055835 296.26106 
L 582.164526 296.223312 
L 582.634623 296.119505 
L 582.73935 296.091194 
L 583.320579 295.987387 
L 583.426378 295.959076 
L 583.820821 295.855269 
L 583.916819 295.808084 
L 584.428347 295.704277 
L 584.511462 295.647655 
L 584.907851 295.543848 
L 584.993947 295.524974 
L 585.720897 295.421167 
L 585.796465 295.364545 
L 586.339515 295.260738 
L 586.366901 295.241864 
L 586.873067 295.138057 
L 586.943868 295.119183 
L 587.300582 295.015376 
L 587.409543 294.949317 
L 588.164344 294.84551 
L 588.267049 294.817199 
L 588.713903 294.713392 
L 588.790861 294.694518 
L 589.332068 294.590711 
L 589.389932 294.571837 
L 589.706808 294.46803 
L 589.739803 294.439719 
L 590.230943 294.335912 
L 590.327873 294.27929 
L 590.735151 294.175483 
L 590.836311 294.118861 
L 591.106345 294.015054 
L 591.188679 293.967869 
L 591.525063 293.864062 
L 591.631907 293.835751 
L 591.897977 293.731944 
L 591.979137 293.684759 
L 592.333537 293.580952 
L 592.393807 293.552641 
L 592.930951 293.448834 
L 593.010899 293.42996 
L 593.406109 293.326153 
L 593.406109 293.316716 
L 593.905405 293.212909 
L 593.978326 293.175161 
L 594.371467 293.071354 
L 594.452703 293.024169 
L 594.638513 292.920362 
L 594.73697 292.825992 
L 594.993348 292.722185 
L 595.089368 292.684437 
L 595.296796 292.58063 
L 595.405361 292.533445 
L 595.670829 292.429638 
L 595.733898 292.382453 
L 595.971881 292.278646 
L 595.997578 292.250335 
L 596.297204 292.146528 
L 596.376553 292.118217 
L 596.762851 292.01441 
L 596.847881 291.948351 
L 597.082887 291.844544 
L 597.180796 291.787922 
L 597.404528 291.684115 
L 597.451474 291.599182 
L 597.841389 291.495375 
L 597.940129 291.457627 
L 598.15179 291.35382 
L 598.236495 291.278324 
L 598.422537 291.174517 
L 598.500828 291.108458 
L 598.716044 291.004651 
L 598.820053 290.910281 
L 599.075865 290.806474 
L 599.166562 290.759289 
L 599.328303 290.655482 
L 599.421885 290.579986 
L 599.751836 290.476179 
L 599.8339 290.447868 
L 599.932271 290.344061 
L 599.99929 290.296876 
L 600.243415 290.193069 
L 600.337882 290.089262 
L 600.610754 289.985455 
L 600.707131 289.900522 
L 600.926635 289.796715 
L 601.030725 289.664597 
L 601.154804 289.56079 
L 601.24172 289.504168 
L 601.373963 289.400361 
L 601.481146 289.324865 
L 601.672702 289.221058 
L 601.755011 289.173873 
L 601.986319 289.070066 
L 602.078382 288.985133 
L 602.236427 288.881326 
L 602.336742 288.758645 
L 602.385387 288.654838 
L 602.491295 288.579342 
L 602.580187 288.475535 
L 602.688249 288.286795 
L 602.811626 288.182988 
L 602.907863 288.069744 
L 602.986336 287.965937 
L 603.096569 287.786634 
L 603.191505 287.682827 
L 603.301513 287.522398 
L 603.387938 287.418591 
L 603.48528 287.267599 
L 603.546945 287.163792 
L 603.655005 286.956178 
L 603.745537 286.852371 
L 603.844801 286.691942 
L 603.969955 286.588135 
L 604.078228 286.380521 
L 604.165279 286.276714 
L 604.272199 286.078537 
L 604.35027 285.97473 
L 604.444298 285.908671 
L 604.526535 285.804864 
L 604.625872 285.625561 
L 604.69774 285.521754 
L 604.792898 285.323577 
L 604.865027 285.21977 
L 604.970654 285.040467 
L 605.092554 284.93666 
L 605.188832 284.719609 
L 605.344368 284.615802 
L 605.444454 284.502558 
L 605.533697 284.398751 
L 605.642295 284.238322 
L 605.709832 284.134515 
L 605.820632 283.917464 
L 605.882512 283.813657 
L 605.989899 283.719287 
L 606.045846 283.61548 
L 606.135256 283.360681 
L 606.228985 283.256874 
L 606.338235 283.14363 
L 606.429856 283.039823 
L 606.531666 282.869957 
L 606.652218 282.76615 
L 606.74715 282.615158 
L 606.88172 282.511351 
L 606.986699 282.398107 
L 607.088773 282.2943 
L 607.198802 282.133871 
L 607.25382 282.030064 
L 607.348658 281.860198 
L 607.450025 281.756391 
L 607.549223 281.586525 
L 607.624635 281.482718 
L 607.731842 281.322289 
L 607.820409 281.218482 
L 607.931291 281.06749 
L 608.013454 280.963683 
L 608.11408 280.831565 
L 608.170556 280.727758 
L 608.280216 280.482396 
L 608.347163 280.378589 
L 608.453761 280.21816 
L 608.505963 280.114353 
L 608.613014 279.93505 
L 608.673718 279.831243 
L 608.780252 279.604755 
L 608.900578 279.500948 
L 609.01036 279.283897 
L 609.131231 279.18009 
L 609.237855 278.934728 
L 609.312099 278.830921 
L 609.41975 278.679929 
L 609.556161 278.576122 
L 609.666929 278.406256 
L 609.787519 278.302449 
L 609.878364 278.208079 
L 609.956429 278.104272 
L 610.05905 277.924969 
L 610.106815 277.821162 
L 610.217255 277.604111 
L 610.302841 277.500304 
L 610.41035 277.29269 
L 610.459364 277.188883 
L 610.549279 276.990706 
L 610.602043 276.886899 
L 610.712494 276.679285 
L 610.793519 276.575478 
L 610.894209 276.367864 
L 610.957541 276.264057 
L 611.065378 276.16025 
L 611.160685 276.056443 
L 611.263319 275.829955 
L 611.351001 275.726148 
L 611.460658 275.509097 
L 611.53046 275.40529 
L 611.630392 275.131617 
L 611.732702 275.02781 
L 611.842351 274.810759 
L 611.934349 274.706952 
L 612.041554 274.518212 
L 612.121702 274.414405 
L 612.229501 274.225665 
L 612.262064 274.121858 
L 612.373011 273.980303 
L 612.415867 273.876496 
L 612.526786 273.678319 
L 612.579379 273.574512 
L 612.689195 273.376335 
L 612.742329 273.272528 
L 612.852268 272.989418 
L 612.941615 272.885611 
L 613.052284 272.66856 
L 613.120098 272.564753 
L 613.215993 272.38545 
L 613.295994 272.281643 
L 613.395885 272.121214 
L 613.504369 272.017407 
L 613.608452 271.81923 
L 613.703618 271.715423 
L 613.81019 271.554994 
L 613.853559 271.451187 
L 613.962012 271.234136 
L 614.069072 271.130329 
L 614.172519 270.922715 
L 614.223056 270.818908 
L 614.33201 270.68679 
L 614.394682 270.582983 
L 614.502449 270.356495 
L 614.560204 270.252688 
L 614.66776 270.111133 
L 614.735104 270.007326 
L 614.837115 269.828023 
L 614.939108 269.724216 
L 615.033608 269.535476 
L 615.084621 269.431669 
L 615.189586 269.261803 
L 615.256141 269.157996 
L 615.360562 268.959819 
L 615.399676 268.856012 
L 615.509784 268.648398 
L 615.573179 268.544591 
L 615.68074 268.318103 
L 615.730655 268.214296 
L 615.833425 268.025556 
L 615.880736 267.921749 
L 615.984796 267.742446 
L 616.114421 267.638639 
L 616.221194 267.393277 
L 616.282737 267.28947 
L 616.39026 267.044108 
L 616.44054 266.940301 
L 616.551121 266.732687 
L 616.633577 266.62888 
L 616.73131 266.430703 
L 616.820788 266.326896 
L 616.929747 266.15703 
L 617.013128 266.053223 
L 617.116816 265.892794 
L 617.181478 265.788987 
L 617.290755 265.553062 
L 617.339867 265.449255 
L 617.440876 265.251078 
L 617.515245 265.147271 
L 617.623455 264.920783 
L 617.673779 264.816976 
L 617.781607 264.571614 
L 617.851138 264.467807 
L 617.956096 264.307378 
L 618.00859 264.203571 
L 618.1174 263.920461 
L 618.169257 263.816654 
L 618.273523 263.627914 
L 618.325792 263.524107 
L 618.435848 263.32593 
L 618.488602 263.222123 
L 618.59711 263.04282 
L 618.687348 262.939013 
L 618.796932 262.75971 
L 618.838169 262.655903 
L 618.941405 262.391667 
L 619.016101 262.28786 
L 619.103366 262.136868 
L 619.190103 262.033061 
L 619.300162 261.806573 
L 619.346045 261.702766 
L 619.456733 261.410219 
L 619.487412 261.306412 
L 619.591682 261.051613 
L 619.649633 260.947806 
L 619.760313 260.740192 
L 619.795379 260.636385 
L 619.905976 260.40046 
L 619.942457 260.296653 
L 620.042244 260.02298 
L 620.078644 259.919173 
L 620.18854 259.654937 
L 620.22123 259.55113 
L 620.330711 259.352953 
L 620.364501 259.249146 
L 620.473986 259.032095 
L 620.523515 258.928288 
L 620.634458 258.711237 
L 620.697652 258.60743 
L 620.805947 258.343194 
L 620.869009 258.239387 
L 620.975148 257.937403 
L 621.02371 257.833596 
L 621.129701 257.578797 
L 621.197775 257.47499 
L 621.302842 257.257939 
L 621.362666 257.154132 
L 621.473236 256.880459 
L 621.516585 256.776652 
L 621.624034 256.521853 
L 621.692507 256.418046 
L 621.79612 256.200995 
L 621.830869 256.097188 
L 621.940367 255.757456 
L 621.971776 255.653649 
L 622.078618 255.417724 
L 622.152152 255.313917 
L 622.25832 255.059118 
L 622.299999 254.955311 
L 622.409216 254.662764 
L 622.447289 254.558957 
L 622.546727 254.313595 
L 622.603977 254.209788 
L 622.708502 253.926678 
L 622.768002 253.822871 
L 622.877461 253.577509 
L 622.935603 253.473702 
L 623.045078 253.124533 
L 623.093389 253.020726 
L 623.203515 252.680994 
L 623.245744 252.577187 
L 623.351914 252.360136 
L 623.403763 252.256329 
L 623.512667 252.00153 
L 623.551507 251.897723 
L 623.655332 251.62405 
L 623.70699 251.520243 
L 623.808348 251.24657 
L 623.886092 251.142763 
L 623.990675 250.86909 
L 624.068707 250.765283 
L 624.172564 250.548232 
L 624.261219 250.444425 
L 624.366214 250.180189 
L 624.402999 250.076382 
L 624.514024 249.849894 
L 624.551199 249.746087 
L 624.659973 249.368607 
L 624.717849 249.2648 
L 624.828353 249.066623 
L 624.876324 248.962816 
L 624.982261 248.69858 
L 625.041823 248.594773 
L 625.150689 248.377722 
L 625.193742 248.273915 
L 625.303754 248.075738 
L 625.341547 247.971931 
L 625.452428 247.745443 
L 625.512704 247.641636 
L 625.619078 247.396274 
L 625.665727 247.292467 
L 625.774582 246.990483 
L 625.818126 246.886676 
L 625.925216 246.660188 
L 625.966025 246.556381 
L 626.071511 246.235523 
L 626.124337 246.131716 
L 626.233974 245.86748 
L 626.292869 245.763673 
L 626.400647 245.499437 
L 626.454371 245.39563 
L 626.562337 245.159705 
L 626.633782 245.055898 
L 626.743923 244.782225 
L 626.809131 244.678418 
L 626.919681 244.470804 
L 626.955475 244.366997 
L 627.06497 244.102761 
L 627.103743 243.998954 
L 627.212845 243.725281 
L 627.265832 243.621474 
L 627.37624 243.394986 
L 627.424533 243.291179 
L 627.534627 243.093002 
L 627.566625 242.989195 
L 627.676583 242.84764 
L 627.728883 242.743833 
L 627.835898 242.517345 
L 627.899891 242.413538 
L 628.009854 242.130428 
L 628.077054 242.026621 
L 628.184625 241.781259 
L 628.234296 241.677452 
L 628.345253 241.309409 
L 628.39149 241.205602 
L 628.502233 240.884744 
L 628.564162 240.780937 
L 628.665761 240.412894 
L 628.722449 240.309087 
L 628.82463 239.941044 
L 628.879593 239.837237 
L 628.984856 239.554127 
L 629.044208 239.45032 
L 629.154991 239.148336 
L 629.1976 239.044529 
L 629.290844 238.808604 
L 629.323984 238.704797 
L 629.429928 238.431124 
L 629.481426 238.327317 
L 629.591061 238.006459 
L 629.641285 237.902652 
L 629.750261 237.647853 
L 629.784547 237.544046 
L 629.893041 237.336432 
L 629.968154 237.232625 
L 630.07484 237.053322 
L 630.113351 236.949515 
L 630.218979 236.562598 
L 630.250636 236.458791 
L 630.360907 236.194555 
L 630.397807 236.090748 
L 630.507974 235.826512 
L 630.543793 235.722705 
L 630.654039 235.467906 
L 630.691678 235.364099 
L 630.799729 235.01493 
L 630.851889 234.911123 
L 630.961352 234.571391 
L 631.004023 234.467584 
L 631.112725 234.118415 
L 631.166813 234.014608 
L 631.276626 233.712624 
L 631.309007 233.608817 
L 631.404695 233.372892 
L 631.482926 233.269085 
L 631.593883 233.061471 
L 631.619914 232.957664 
L 631.726215 232.740613 
L 631.76581 232.636806 
L 631.875146 232.353696 
L 631.919186 232.249889 
L 632.00606 232.004527 
L 632.109166 231.90072 
L 632.219407 231.513803 
L 632.260094 231.409996 
L 632.369883 231.117449 
L 632.400291 231.013642 
L 632.511298 230.730532 
L 632.557836 230.626725 
L 632.66674 230.277556 
L 632.707515 230.173749 
L 632.81648 229.937824 
L 632.839653 229.834017 
L 632.950224 229.381041 
L 632.994443 229.277234 
L 633.101931 229.088494 
L 633.159424 228.984687 
L 633.262493 228.701577 
L 633.313173 228.59777 
L 633.422179 228.22029 
L 633.468175 228.116483 
L 633.576765 227.720129 
L 633.638223 227.616322 
L 633.74884 227.229405 
L 633.787273 227.125598 
L 633.896187 226.776429 
L 633.943107 226.672622 
L 634.040099 226.361201 
L 634.08271 226.257394 
L 634.192424 225.86104 
L 634.238682 225.757233 
L 634.34347 225.48356 
L 634.388741 225.379753 
L 634.498295 224.983399 
L 634.554447 224.879592 
L 634.661123 224.577608 
L 634.713242 224.473801 
L 634.822591 224.16238 
L 634.858268 224.058573 
L 634.967093 223.624471 
L 635.001575 223.520664 
L 635.110702 223.152621 
L 635.156403 223.048814 
L 635.263796 222.765704 
L 635.30934 222.661897 
L 635.418954 222.27498 
L 635.462753 222.171173 
L 635.565909 221.840878 
L 635.618845 221.737071 
L 635.729696 221.359591 
L 635.782266 221.255784 
L 635.892072 220.925489 
L 635.938992 220.821682 
L 636.04896 220.491387 
L 636.100155 220.38758 
L 636.208159 220.095033 
L 636.251711 219.991226 
L 636.362748 219.623183 
L 636.387621 219.519376 
L 636.498332 219.274014 
L 636.52692 219.170207 
L 636.637808 218.934282 
L 636.662033 218.830475 
L 636.772033 218.59455 
L 636.828012 218.490743 
L 636.936111 218.160448 
L 636.978444 218.056641 
L 637.0876 217.74522 
L 637.163387 217.641413 
L 637.272404 217.339429 
L 637.332729 217.235622 
L 637.433516 216.924201 
L 637.496574 216.820394 
L 637.598421 216.565595 
L 637.651465 216.461788 
L 637.760354 216.103182 
L 637.820584 215.999375 
L 637.929561 215.735139 
L 637.974805 215.631332 
L 638.065651 215.461466 
L 638.126591 215.357659 
L 638.23486 214.999053 
L 638.3013 214.895246 
L 638.411867 214.715943 
L 638.48387 214.612136 
L 638.593671 214.366774 
L 638.668701 214.262967 
L 638.777393 214.121412 
L 638.830059 214.017605 
L 638.923519 213.847739 
L 639.002349 213.743932 
L 639.109961 213.59294 
L 639.169764 213.489133 
L 639.27546 213.347578 
L 639.356996 213.243771 
L 639.456533 213.055031 
L 639.525232 212.951224 
L 639.630083 212.828543 
L 639.686666 212.724736 
L 639.764668 212.592618 
L 639.867779 212.488811 
L 639.975604 212.167953 
L 640.024736 212.064146 
L 640.131151 211.79991 
L 640.178078 211.696103 
L 640.285195 211.412993 
L 640.351433 211.309186 
L 640.462287 211.111009 
L 640.529584 211.007202 
L 640.636926 210.809025 
L 640.696014 210.705218 
L 640.806374 210.544789 
L 640.888956 210.440982 
L 640.999496 210.176746 
L 641.071185 210.072939 
L 641.181058 209.827577 
L 641.262825 209.72377 
L 641.369255 209.563341 
L 641.429513 209.459534 
L 641.521195 209.25192 
L 641.625833 209.148113 
L 641.736356 208.87444 
L 641.806594 208.770633 
L 641.917534 208.572456 
L 641.987242 208.468649 
L 642.097824 208.223287 
L 642.140416 208.11948 
L 642.242283 207.921303 
L 642.335707 207.817496 
L 642.431805 207.675941 
L 642.488909 207.572134 
L 642.599418 207.317335 
L 642.640911 207.213528 
L 642.750347 206.977603 
L 642.785967 206.873796 
L 642.89475 206.70393 
L 642.981496 206.600123 
L 643.091687 206.298139 
L 643.150262 206.194332 
L 643.258461 205.920659 
L 643.329694 205.816852 
L 643.440271 205.57149 
L 643.502958 205.467683 
L 643.607949 205.250632 
L 643.699225 205.146825 
L 643.809071 204.873152 
L 643.879284 204.769345 
L 643.988121 204.53342 
L 644.124362 204.429613 
L 644.234536 204.212562 
L 644.287623 204.108755 
L 644.398473 203.920015 
L 644.441329 203.816208 
L 644.545702 203.646342 
L 644.601103 203.542535 
L 644.701508 203.325484 
L 644.764048 203.221677 
L 644.871163 203.0235 
L 644.919878 202.919693 
L 645.028269 202.730953 
L 645.078391 202.627146 
L 645.184546 202.438406 
L 645.23405 202.334599 
L 645.343598 202.0798 
L 645.38549 201.975993 
L 645.49565 201.730631 
L 645.559506 201.626824 
L 645.660591 201.400336 
L 645.697698 201.296529 
L 645.802438 201.098352 
L 645.855738 200.994545 
L 645.960449 200.796368 
L 646.012549 200.692561 
L 646.1233 200.456636 
L 646.179647 200.352829 
L 646.283717 200.09803 
L 646.355176 199.994223 
L 646.462806 199.796046 
L 646.515828 199.692239 
L 646.612539 199.569558 
L 646.702886 199.465751 
L 646.811142 199.267574 
L 646.848424 199.163767 
L 646.953617 198.833472 
L 647.071605 198.729665 
L 647.182532 198.503177 
L 647.255339 198.39937 
L 647.36505 198.125697 
L 647.418855 198.02189 
L 647.522592 197.710469 
L 647.579631 197.606662 
L 647.681292 197.3613 
L 647.745519 197.257493 
L 647.850881 197.115938 
L 647.935466 197.012131 
L 648.045931 196.79508 
L 648.112023 196.691273 
L 648.223002 196.455348 
L 648.290493 196.351541 
L 648.399812 196.058994 
L 648.456416 195.955187 
L 648.558554 195.766447 
L 648.61794 195.66264 
L 648.726105 195.426715 
L 648.792257 195.322908 
L 648.9015 194.983176 
L 648.966606 194.879369 
L 649.074089 194.62457 
L 649.127603 194.520763 
L 649.234566 194.379208 
L 649.28531 194.275401 
L 649.394894 194.096098 
L 649.484392 193.992291 
L 649.593386 193.756366 
L 649.665463 193.652559 
L 649.776161 193.378886 
L 649.8357 193.275079 
L 649.938395 193.076902 
L 649.9886 192.973095 
L 650.09429 192.708859 
L 650.151392 192.605052 
L 650.261746 192.35969 
L 650.320388 192.255883 
L 650.431298 191.972773 
L 650.481227 191.868966 
L 650.585879 191.680226 
L 650.67361 191.576419 
L 650.780793 191.359368 
L 650.84552 191.255561 
L 650.956039 191.010199 
L 650.982119 190.906392 
L 651.085882 190.708215 
L 651.171069 190.604408 
L 651.281422 190.330735 
L 651.316772 190.226928 
L 651.423613 189.991003 
L 651.484286 189.887196 
L 651.588258 189.71733 
L 651.676355 189.613523 
L 651.78658 189.415346 
L 651.848705 189.311539 
L 651.952112 189.122799 
L 652.039855 189.018992 
L 652.150819 188.820815 
L 652.20495 188.717008 
L 652.311899 188.547142 
L 652.379886 188.443335 
L 652.484138 188.235721 
L 652.533644 188.131914 
L 652.642337 187.82993 
L 652.683809 187.726123 
L 652.784263 187.443013 
L 652.855007 187.339206 
L 652.962801 186.999474 
L 653.037822 186.895667 
L 653.141719 186.725801 
L 653.201646 186.621994 
L 653.312345 186.376632 
L 653.366747 186.272825 
L 653.477041 185.970841 
L 653.513792 185.867034 
L 653.621863 185.640546 
L 653.675081 185.536739 
L 653.785754 185.253629 
L 653.828388 185.149822 
L 653.938077 184.90446 
L 653.985761 184.800653 
L 654.085562 184.583602 
L 654.160865 184.479795 
L 654.268843 184.347677 
L 654.334069 184.24387 
L 654.436384 184.007945 
L 654.502783 183.904138 
L 654.612705 183.658776 
L 654.681974 183.554969 
L 654.789522 183.366229 
L 654.853107 183.262422 
L 654.958013 183.01706 
L 655.004247 182.913253 
L 655.113301 182.582958 
L 655.164039 182.479151 
L 655.271959 182.205478 
L 655.321801 182.101671 
L 655.432346 181.856309 
L 655.476733 181.752502 
L 655.57726 181.488266 
L 655.620159 181.384459 
L 655.729163 181.176845 
L 655.793566 181.073038 
L 655.901184 180.818239 
L 655.958562 180.714432 
L 656.06268 180.535129 
L 656.121032 180.431322 
L 656.222195 180.176523 
L 656.285476 180.072716 
L 656.389048 179.80848 
L 656.463698 179.704673 
L 656.572933 179.497059 
L 656.610435 179.393252 
L 656.714982 179.185638 
L 656.796651 179.081831 
L 656.906959 178.874217 
L 656.951795 178.77041 
L 657.061563 178.477863 
L 657.136652 178.374056 
L 657.247284 178.100383 
L 657.301665 177.996576 
L 657.40242 177.741777 
L 657.466588 177.63797 
L 657.575211 177.420919 
L 657.608732 177.317112 
L 657.717241 177.100061 
L 657.776257 176.996254 
L 657.883405 176.779203 
L 657.930966 176.675396 
L 658.027226 176.363975 
L 658.082379 176.260168 
L 658.191141 175.977058 
L 658.264805 175.873251 
L 658.374656 175.524082 
L 658.44112 175.420275 
L 658.547549 175.212661 
L 658.612975 175.108854 
L 658.7228 174.80687 
L 658.776359 174.703063 
L 658.885199 174.495449 
L 658.951095 174.391642 
L 659.060986 174.033036 
L 659.110847 173.929229 
L 659.21444 173.683867 
L 659.260652 173.58006 
L 659.360884 173.325261 
L 659.403568 173.221454 
L 659.512243 172.976092 
L 659.54254 172.872285 
L 659.646252 172.655234 
L 659.721288 172.551427 
L 659.825732 172.334376 
L 659.903312 172.230569 
L 660.012573 171.938022 
L 660.060218 171.834215 
L 660.169546 171.607727 
L 660.223441 171.50392 
L 660.333943 171.239684 
L 660.381014 171.135877 
L 660.487859 170.739523 
L 660.592194 170.635716 
L 660.702935 170.305421 
L 660.761858 170.201614 
L 660.867543 170.022311 
L 660.940581 169.918504 
L 661.04302 169.692016 
L 661.088542 169.588209 
L 661.192829 169.352284 
L 661.26092 169.248477 
L 661.369279 168.993678 
L 661.433804 168.889871 
L 661.52985 168.606761 
L 661.597884 168.502954 
L 661.705757 168.304777 
L 661.781914 168.20097 
L 661.889881 167.955608 
L 661.953926 167.851801 
L 662.06302 167.530943 
L 662.109073 167.427136 
L 662.216731 167.210085 
L 662.320006 167.106278 
L 662.428093 166.851479 
L 662.465359 166.747672 
L 662.569908 166.464562 
L 662.614817 166.360755 
L 662.711581 166.039897 
L 662.805275 165.93609 
L 662.914372 165.728476 
L 662.970704 165.624669 
L 663.077513 165.350996 
L 663.123918 165.247189 
L 663.233915 164.822524 
L 663.297675 164.718717 
L 663.405438 164.435607 
L 663.469997 164.3318 
L 663.579106 164.020379 
L 663.639389 163.916572 
L 663.747833 163.605151 
L 663.795797 163.501344 
L 663.901693 163.19936 
L 663.963466 163.095553 
L 664.07239 162.859628 
L 664.118849 162.755821 
L 664.228689 162.53877 
L 664.266681 162.434963 
L 664.375393 162.236786 
L 664.440079 162.132979 
L 664.534131 161.934802 
L 664.575885 161.830995 
L 664.685341 161.510137 
L 664.741916 161.40633 
L 664.844022 161.179842 
L 664.917762 161.076035 
L 665.024936 160.736303 
L 665.074604 160.632496 
L 665.183733 160.406008 
L 665.223224 160.302201 
L 665.333181 159.971906 
L 665.3989 159.868099 
L 665.509637 159.632174 
L 665.561196 159.528367 
L 665.671509 159.320753 
L 665.720191 159.216946 
L 665.824485 158.971584 
L 665.87222 158.867777 
L 665.977551 158.641289 
L 666.052351 158.537482 
L 666.156486 158.244935 
L 666.216351 158.141128 
L 666.314694 157.933514 
L 666.4056 157.829707 
L 666.514848 157.584345 
L 666.572188 157.480538 
L 666.673541 157.25405 
L 666.739528 157.150243 
L 666.843786 156.895444 
L 666.934137 156.791637 
L 667.043963 156.565149 
L 667.118686 156.461342 
L 667.219355 156.272602 
L 667.284244 156.168795 
L 667.392419 155.885685 
L 667.485876 155.781878 
L 667.59248 155.536516 
L 667.655094 155.432709 
L 667.763676 155.168473 
L 667.819118 155.064666 
L 667.923655 154.781556 
L 667.975274 154.677749 
L 668.081482 154.441824 
L 668.128257 154.338017 
L 668.232603 153.9511 
L 668.270984 153.847293 
L 668.38104 153.611368 
L 668.429726 153.507561 
L 668.525526 153.318821 
L 668.584236 153.215014 
L 668.694571 152.91303 
L 668.749287 152.809223 
L 668.853779 152.592172 
L 668.927078 152.488365 
L 669.037063 152.214692 
L 669.062222 152.110885 
L 669.166033 151.837212 
L 669.208507 151.733405 
L 669.316297 151.506917 
L 669.369999 151.40311 
L 669.47738 151.063378 
L 669.545582 150.959571 
L 669.642484 150.733083 
L 669.718007 150.629276 
L 669.823145 150.402788 
L 669.853403 150.298981 
L 669.963964 150.138552 
L 670.002579 150.034745 
L 670.112877 149.79882 
L 670.148602 149.695013 
L 670.259105 149.383592 
L 670.321766 149.279785 
L 670.429268 149.024986 
L 670.47841 148.921179 
L 670.588049 148.713565 
L 670.643386 148.609758 
L 670.740527 148.38327 
L 670.80485 148.279463 
L 670.912676 148.015227 
L 670.959456 147.91142 
L 671.057221 147.62831 
L 671.132866 147.524503 
L 671.241093 147.25083 
L 671.30052 147.147023 
L 671.41021 146.892224 
L 671.444276 146.788417 
L 671.551591 146.571366 
L 671.605767 146.467559 
L 671.712246 146.175012 
L 671.797421 146.071205 
L 671.907266 145.750347 
L 671.991083 145.64654 
L 672.09907 145.382304 
L 672.134522 145.278497 
L 672.244885 145.099194 
L 672.306466 144.995387 
L 672.415002 144.683966 
L 672.482899 144.580159 
L 672.591367 144.297049 
L 672.643371 144.193242 
L 672.754236 143.94788 
L 672.810266 143.844073 
L 672.904584 143.589274 
L 672.975881 143.485467 
L 673.077218 143.240105 
L 673.140043 143.136298 
L 673.247351 142.928684 
L 673.311053 142.824877 
L 673.412118 142.645574 
L 673.485494 142.541767 
L 673.592226 142.258657 
L 673.668458 142.15485 
L 673.773905 141.862303 
L 673.830084 141.758496 
L 673.940421 141.484823 
L 673.991523 141.381016 
L 674.099395 141.088469 
L 674.143316 140.984662 
L 674.254082 140.7393 
L 674.292681 140.635493 
L 674.401542 140.36182 
L 674.456506 140.258013 
L 674.566005 140.050399 
L 674.620601 139.946592 
L 674.728966 139.710667 
L 674.784713 139.60686 
L 674.885961 139.399246 
L 674.966394 139.295439 
L 675.077165 139.097262 
L 675.113312 138.993455 
L 675.22358 138.738656 
L 675.26488 138.634849 
L 675.364356 138.351739 
L 675.440218 138.247932 
L 675.549779 138.059192 
L 675.611424 137.955385 
L 675.721483 137.672275 
L 675.755748 137.568468 
L 675.866773 137.304232 
L 675.912654 137.200425 
L 676.017791 136.955063 
L 676.094989 136.851256 
L 676.203965 136.719138 
L 676.246115 136.615331 
L 676.355091 136.369969 
L 676.408119 136.266162 
L 676.51048 135.983052 
L 676.556772 135.879245 
L 676.665901 135.54895 
L 676.710028 135.445143 
L 676.820669 135.209218 
L 676.870117 135.105411 
L 676.980771 134.775116 
L 677.04195 134.671309 
L 677.150836 134.501443 
L 677.208194 134.397636 
L 677.291446 134.218333 
L 677.387625 134.114526 
L 677.497999 133.85029 
L 677.578587 133.746483 
L 677.686074 133.56718 
L 677.735282 133.463373 
L 677.836397 133.246322 
L 677.883057 133.142515 
L 677.993425 132.840531 
L 678.048617 132.736724 
L 678.153752 132.510236 
L 678.220798 132.406429 
L 678.329292 132.189378 
L 678.385125 132.085571 
L 678.49239 131.859083 
L 678.548203 131.755276 
L 678.656837 131.462729 
L 678.70815 131.358922 
L 678.808396 131.198493 
L 678.866036 131.094686 
L 678.97671 130.849324 
L 679.009416 130.745517 
L 679.111891 130.54734 
L 679.181295 130.443533 
L 679.292305 130.226482 
L 679.364609 130.122675 
L 679.470815 129.896187 
L 679.528285 129.79238 
L 679.638243 129.565892 
L 679.68852 129.462085 
L 679.791426 129.263908 
L 679.839275 129.160101 
L 679.943988 128.895865 
L 679.995486 128.792058 
L 680.102634 128.593881 
L 680.204344 128.490074 
L 680.312625 128.18809 
L 680.374217 128.084283 
L 680.482229 127.791736 
L 680.532886 127.687929 
L 680.637669 127.442567 
L 680.697935 127.33876 
L 680.8013 127.093398 
L 680.871946 126.989591 
L 680.978792 126.725355 
L 681.069532 126.621548 
L 681.180422 126.281816 
L 681.243057 126.178009 
L 681.34967 125.92321 
L 681.423666 125.819403 
L 681.534633 125.517419 
L 681.604461 125.413612 
L 681.702989 125.224872 
L 681.757233 125.121065 
L 681.86651 124.856829 
L 681.941386 124.753022 
L 682.052136 124.517097 
L 682.165015 124.41329 
L 682.27273 124.186802 
L 682.337955 124.082995 
L 682.446266 123.856507 
L 682.494784 123.7527 
L 682.605532 123.545086 
L 682.633424 123.441279 
L 682.742171 123.205354 
L 682.811939 123.101547 
L 682.919031 122.884496 
L 682.964543 122.780689 
L 683.074162 122.601386 
L 683.117248 122.497579 
L 683.227709 122.308839 
L 683.290505 122.205032 
L 683.387855 121.997418 
L 683.462867 121.893611 
L 683.573424 121.685997 
L 683.639973 121.58219 
L 683.749716 121.327391 
L 683.803519 121.223584 
L 683.906404 121.034844 
L 683.973976 120.931037 
L 684.084748 120.704549 
L 684.161274 120.600742 
L 684.267828 120.317632 
L 684.345468 120.213825 
L 684.453965 119.9779 
L 684.495642 119.874093 
L 684.606478 119.619294 
L 684.637453 119.515487 
L 684.74725 119.326747 
L 684.78635 119.22294 
L 684.897349 118.968141 
L 684.942554 118.864334 
L 685.05223 118.65672 
L 685.110379 118.552913 
L 685.212142 118.354736 
L 685.309509 118.250929 
L 685.411803 118.109374 
L 685.466802 118.005567 
L 685.567743 117.741331 
L 685.618403 117.637524 
L 685.727231 117.344977 
L 685.807428 117.24117 
L 685.90254 117.071304 
L 685.963611 116.967497 
L 686.072017 116.712698 
L 686.146688 116.608891 
L 686.252328 116.372966 
L 686.312691 116.269159 
L 686.420584 116.089856 
L 686.48548 115.986049 
L 686.595894 115.816183 
L 686.657749 115.712376 
L 686.766491 115.504762 
L 686.807951 115.400955 
L 686.917251 115.183904 
L 686.977258 115.080097 
L 687.084365 114.853609 
L 687.164048 114.749802 
L 687.247462 114.542188 
L 687.342889 114.438381 
L 687.45092 114.22133 
L 687.517607 114.117523 
L 687.625044 113.947657 
L 687.688649 113.84385 
L 687.794116 113.607925 
L 687.852424 113.504118 
L 687.958981 113.268193 
L 688.029102 113.164386 
L 688.139037 112.99452 
L 688.213059 112.890713 
L 688.315309 112.758595 
L 688.369161 112.654788 
L 688.472487 112.503796 
L 688.553689 112.399989 
L 688.659072 112.220686 
L 688.757398 112.116879 
L 688.867217 111.871517 
L 688.928739 111.76771 
L 689.035622 111.597844 
L 689.089896 111.494037 
L 689.196867 111.258112 
L 689.249439 111.154305 
L 689.349785 110.965565 
L 689.418306 110.861758 
L 689.527081 110.606959 
L 689.609002 110.503152 
L 689.719189 110.267227 
L 689.802359 110.16342 
L 689.912257 109.955806 
L 689.994684 109.851999 
L 690.102049 109.568889 
L 690.156978 109.465082 
L 690.257172 109.31409 
L 690.346468 109.210283 
L 690.451721 109.002669 
L 690.537991 108.898862 
L 690.643407 108.691248 
L 690.698724 108.587441 
L 690.801265 108.427012 
L 690.880228 108.323205 
L 690.986476 108.172213 
L 691.051626 108.068406 
L 691.159927 107.889103 
L 691.2285 107.794733 
L 691.2285 107.785296 
L 691.33185 107.587119 
L 691.390893 107.483312 
L 691.501034 107.247387 
L 691.52149 107.14358 
L 691.61972 106.917092 
L 691.687286 106.813285 
L 691.795403 106.615108 
L 691.878823 106.511301 
L 691.983143 106.265939 
L 692.043537 106.162132 
L 692.150424 105.945081 
L 692.211599 105.841274 
L 692.320498 105.624223 
L 692.369201 105.520416 
L 692.472219 105.388298 
L 692.584438 105.284491 
L 692.691905 105.16181 
L 692.768656 105.058003 
L 692.876923 104.793767 
L 692.946092 104.68996 
L 693.053884 104.510657 
L 693.117038 104.40685 
L 693.2211 104.199236 
L 693.312153 104.095429 
L 693.422079 103.935 
L 693.508328 103.831193 
L 693.604744 103.680201 
L 693.66909 103.576394 
L 693.775407 103.453713 
L 693.86219 103.349906 
L 693.963711 103.198914 
L 694.038597 103.095107 
L 694.14079 102.944115 
L 694.233888 102.840308 
L 694.341878 102.642131 
L 694.42848 102.538324 
L 694.536772 102.396769 
L 694.589462 102.292962 
L 694.67758 102.179718 
L 694.769279 102.075911 
L 694.875699 101.962667 
L 694.961507 101.85886 
L 695.066369 101.67012 
L 695.181611 101.566313 
L 695.28895 101.38701 
L 695.391832 101.283203 
L 695.49688 101.047278 
L 695.592687 100.943471 
L 695.698938 100.764168 
L 695.740411 100.660361 
L 695.848796 100.528243 
L 695.909583 100.424436 
L 696.016089 100.216822 
L 696.159074 100.113015 
L 696.2698 99.990334 
L 696.292684 99.886527 
L 696.398484 99.735535 
L 696.499436 99.631728 
L 696.60446 99.442988 
L 696.669886 99.339181 
L 696.747628 99.244811 
L 696.900386 99.141004 
L 696.997558 99.008886 
L 697.154979 98.905079 
L 697.256998 98.782398 
L 697.379235 98.678591 
L 697.484236 98.537036 
L 697.547208 98.433229 
L 697.646319 98.338859 
L 697.776316 98.235052 
L 697.883729 98.074623 
L 697.956894 97.970816 
L 698.062242 97.791513 
L 698.160097 97.687706 
L 698.266047 97.536714 
L 698.334953 97.432907 
L 698.436266 97.281915 
L 698.527375 97.178108 
L 698.632634 97.017679 
L 698.715993 96.913872 
L 698.822791 96.800628 
L 698.872471 96.696821 
L 698.981031 96.564703 
L 699.056067 96.460896 
L 699.162787 96.272156 
L 699.249587 96.168349 
L 699.358755 96.00792 
L 699.429648 95.904113 
L 699.52948 95.762558 
L 699.601237 95.658751 
L 699.711567 95.554944 
L 699.854032 95.451137 
L 699.964261 95.375641 
L 700.046527 95.271834 
L 700.149745 95.130279 
L 700.254844 95.026472 
L 700.346604 94.866043 
L 700.465386 94.762236 
L 700.571394 94.648992 
L 700.702277 94.545185 
L 700.802506 94.394193 
L 700.890206 94.290386 
L 700.994888 94.12052 
L 701.134567 94.016713 
L 701.230475 93.856284 
L 701.320886 93.752477 
L 701.429071 93.573174 
L 701.491119 93.469367 
L 701.589056 93.374997 
L 701.664561 93.27119 
L 701.769876 93.101324 
L 701.890655 92.997517 
L 701.996718 92.903147 
L 702.052889 92.79934 
L 702.160199 92.714407 
L 702.266593 92.6106 
L 702.356817 92.487919 
L 702.476911 92.384112 
L 702.582329 92.261431 
L 702.659724 92.157624 
L 702.769357 91.997195 
L 702.841034 91.893388 
L 702.949391 91.780144 
L 703.055701 91.676337 
L 703.156069 91.581967 
L 703.265554 91.47816 
L 703.371783 91.402664 
L 703.462806 91.298857 
L 703.560187 91.128991 
L 703.64653 91.025184 
L 703.756173 90.921377 
L 703.831003 90.81757 
L 703.940758 90.742074 
L 704.054708 90.638267 
L 704.154829 90.53446 
L 704.283584 90.430653 
L 704.38951 90.326846 
L 704.526775 90.223039 
L 704.63319 90.119232 
L 704.72936 90.015425 
L 704.825112 89.902181 
L 704.934181 89.798374 
L 705.04223 89.619071 
L 705.188177 89.515264 
L 705.281978 89.420894 
L 705.389107 89.317087 
L 705.493019 89.203843 
L 705.729931 89.100036 
L 705.831231 89.015103 
L 706.001289 88.911296 
L 706.110047 88.779178 
L 706.216713 88.675371 
L 706.30802 88.524379 
L 706.394607 88.420572 
L 706.498763 88.288454 
L 706.713576 88.184647 
L 706.814361 88.071403 
L 706.952523 87.967596 
L 707.060568 87.835478 
L 707.155619 87.731671 
L 707.264844 87.627864 
L 707.356924 87.524057 
L 707.442899 87.439124 
L 707.585226 87.335317 
L 707.673486 87.259821 
L 707.902494 87.156014 
L 708.003145 87.023896 
L 708.120683 86.920089 
L 708.218212 86.844593 
L 708.373222 86.740786 
L 708.479257 86.627542 
L 708.612626 86.523735 
L 708.722784 86.457676 
L 708.8876 86.353869 
L 708.971317 86.297247 
L 709.179925 86.19344 
L 709.262986 86.136818 
L 709.408422 86.033011 
L 709.512277 85.882019 
L 709.652497 85.778212 
L 709.748795 85.617783 
L 709.933361 85.513976 
L 710.039633 85.43848 
L 710.20137 85.334673 
L 710.281723 85.278051 
L 710.452067 85.174244 
L 710.558523 85.098748 
L 710.70251 84.994941 
L 710.809165 84.910008 
L 711.013442 84.806201 
L 711.087615 84.759016 
L 711.332451 84.655209 
L 711.402743 84.551402 
L 711.584242 84.447595 
L 711.684905 84.409847 
L 711.944203 84.30604 
L 712.04199 84.249418 
L 712.194455 84.145611 
L 712.303436 84.088989 
L 712.43351 83.985182 
L 712.542436 83.909686 
L 712.687854 83.805879 
L 712.790813 83.711509 
L 712.921096 83.607702 
L 713.029614 83.541643 
L 713.220818 83.437836 
L 713.324196 83.324592 
L 713.509642 83.220785 
L 713.604349 83.088667 
L 713.948296 82.98486 
L 714.023853 82.928238 
L 714.29082 82.824431 
L 714.399597 82.767809 
L 714.586238 82.664002 
L 714.694802 82.597943 
L 714.803226 82.494136 
L 714.907178 82.456388 
L 715.097361 82.352581 
L 715.194954 82.286522 
L 715.37002 82.182715 
L 715.478703 82.126093 
L 715.716824 82.022286 
L 715.740627 81.956227 
L 715.935113 81.85242 
L 716.044124 81.767487 
L 716.136243 81.66368 
L 716.215633 81.625932 
L 716.563692 81.522125 
L 716.67398 81.456066 
L 716.964716 81.352259 
L 717.071267 81.2862 
L 717.239651 81.182393 
L 717.336865 81.116334 
L 717.524081 81.012527 
L 717.604747 80.955905 
L 717.839888 80.852098 
L 717.938964 80.776602 
L 718.148949 80.672795 
L 718.256937 80.587862 
L 718.502846 80.484055 
L 718.590646 80.43687 
L 718.8183 80.333063 
L 718.925814 80.229256 
L 719.309175 80.125449 
L 719.415085 80.049953 
L 719.56882 79.946146 
L 719.662778 79.898961 
L 719.826872 79.795154 
L 719.93785 79.766843 
L 720.270811 79.663036 
L 720.364906 79.606414 
L 720.704243 79.502607 
L 720.772976 79.483733 
L 721.132436 79.379926 
L 721.210772 79.332741 
L 721.613132 79.228934 
L 721.717759 79.162875 
L 721.974313 79.059068 
L 722.078884 78.983572 
L 722.424028 78.879765 
L 722.531063 78.823143 
L 722.783759 78.719336 
L 722.875616 78.672151 
L 723.422069 78.568344 
L 723.504151 78.530596 
L 724.209448 78.426789 
L 724.251124 78.389041 
L 724.869431 78.285234 
L 724.970412 78.209738 
L 725.256841 78.105931 
L 725.294377 78.068183 
L 726.220663 77.964376 
L 726.264244 77.907754 
L 726.746711 77.803947 
L 726.793945 77.775636 
L 727.278357 77.671829 
L 727.388558 77.643518 
L 728.229545 77.539711 
L 728.229545 77.530274 
L 728.960195 77.426467 
L 729.056656 77.379282 
L 729.770292 77.275475 
L 729.814675 77.256601 
L 730.380172 77.152794 
L 730.427094 77.124483 
L 731.134074 77.020676 
L 731.137507 76.992365 
L 732.256012 76.888558 
L 732.256012 76.879121 
L 733.164237 76.775314 
L 733.26456 76.728129 
L 734.183394 76.624322 
L 734.282854 76.596011 
L 735.30946 76.492204 
L 735.41414 76.47333 
L 736.95509 76.369523 
L 737.018243 76.331775 
L 738.341019 76.227968 
L 738.400151 76.199657 
L 741.192993 76.09585 
L 741.192993 76.086413 
L 743.418278 75.982606 
L 743.418278 75.973169 
L 746.350651 75.869362 
L 746.350651 75.859925 
L 753.01319 75.756118 
L 753.01319 75.746681 
L 775.394442 75.642874 
L 775.394442 75.633437 
L 798.328841 75.633437 
L 798.328841 75.624 
" clip-path="url(#p4dfbb8e0b7)" style="fill: none; stroke: #2563eb; stroke-width: 2; stroke-linecap: round"/>
   </g>
   <g id="line2d_25">
    <path d="M 470.810659 302.112 
L 470.919621 301.065262 
L 470.940198 300.999841 
L 471.048542 300.083945 
L 471.099874 300.018523 
L 471.201305 298.971785 
L 471.218902 298.906364 
L 471.328403 297.925047 
L 471.336348 297.859626 
L 471.440461 297.467099 
L 471.463584 297.401678 
L 471.571463 296.224097 
L 471.584506 296.158676 
L 471.691892 294.981095 
L 471.716009 294.915674 
L 471.820415 294.457726 
L 471.848668 294.392305 
L 471.951195 293.868936 
L 471.978409 293.803515 
L 472.084772 293.083882 
L 472.093749 293.018461 
L 472.194297 291.971723 
L 472.219298 291.906302 
L 472.317712 290.728721 
L 472.347248 290.6633 
L 472.449496 289.616562 
L 472.466644 289.55114 
L 472.561761 288.569823 
L 472.610647 288.504402 
L 472.719079 287.653927 
L 472.732015 287.588506 
L 472.842582 286.868873 
L 472.844162 286.803452 
L 472.955028 285.952977 
L 472.957843 285.887556 
L 473.033144 285.167924 
L 473.072097 285.102503 
L 473.172221 284.448291 
L 473.187883 284.38287 
L 473.293013 283.728659 
L 473.310234 283.663237 
L 473.419395 282.68192 
L 473.439286 282.616499 
L 473.539459 281.831445 
L 473.582575 281.766024 
L 473.672868 280.784707 
L 473.727825 280.719286 
L 473.827468 279.737969 
L 473.881041 279.672548 
L 473.989915 278.822073 
L 474.042983 278.756652 
L 474.149672 277.840756 
L 474.172596 277.775334 
L 474.27691 276.466912 
L 474.306549 276.40149 
L 474.41555 275.485594 
L 474.430048 275.420173 
L 474.535875 274.373435 
L 474.553822 274.308014 
L 474.658777 273.195854 
L 474.675276 273.130433 
L 474.785528 271.756589 
L 474.797181 271.691168 
L 474.901984 270.840693 
L 474.922368 270.775272 
L 475.026176 269.728534 
L 475.055204 269.663113 
L 475.16449 268.94348 
L 475.194785 268.878059 
L 475.300252 268.289269 
L 475.326395 268.223847 
L 475.436312 267.438794 
L 475.463167 267.373373 
L 475.566551 266.522898 
L 475.592195 266.457477 
L 475.688638 265.672423 
L 475.713736 265.607002 
L 475.814324 264.625685 
L 475.84222 264.560263 
L 475.926913 264.167737 
L 475.974981 264.102315 
L 476.084117 263.120998 
L 476.105183 263.055577 
L 476.215565 262.008839 
L 476.224775 261.943418 
L 476.322469 261.158364 
L 476.351966 261.092943 
L 476.453505 260.111626 
L 476.484262 260.046205 
L 476.593447 259.064887 
L 476.604411 258.999466 
L 476.707031 257.756464 
L 476.731109 257.691043 
L 476.833924 256.840568 
L 476.850163 256.775147 
L 476.960079 255.270461 
L 476.979265 255.20504 
L 477.083879 254.354565 
L 477.107267 254.289144 
L 477.207612 253.634932 
L 477.235081 253.569511 
L 477.33259 252.9153 
L 477.383425 252.849879 
L 477.49385 251.80314 
L 477.502333 251.737719 
L 477.601599 250.756402 
L 477.628078 250.690981 
L 477.726816 249.709664 
L 477.750925 249.644243 
L 477.861187 248.466662 
L 477.891301 248.401241 
L 477.99058 247.812451 
L 478.022833 247.747029 
L 478.113628 246.63487 
L 478.153248 246.569449 
L 478.249191 245.588132 
L 478.268139 245.522711 
L 478.351935 244.868499 
L 478.383017 244.803078 
L 478.482398 244.083445 
L 478.510036 244.018024 
L 478.611253 243.167549 
L 478.642187 243.102128 
L 478.744735 242.317075 
L 478.76101 242.251653 
L 478.863618 241.139494 
L 478.919076 241.074073 
L 479.023505 240.35444 
L 479.032008 240.289019 
L 479.136143 239.569386 
L 479.174111 239.503965 
L 479.28434 238.130121 
L 479.290271 238.0647 
L 479.39848 237.083383 
L 479.427741 237.017962 
L 479.531862 235.840381 
L 479.558199 235.77496 
L 479.663211 235.055328 
L 479.684109 234.989906 
L 479.790991 234.204853 
L 479.810813 234.139432 
L 479.919667 232.961851 
L 479.9352 232.89643 
L 480.045329 231.980534 
L 480.067192 231.915113 
L 480.178032 231.19548 
L 480.191273 231.130059 
L 480.29872 230.279584 
L 480.307926 230.214163 
L 480.412623 229.49453 
L 480.436288 229.429109 
L 480.546737 228.120686 
L 480.552117 228.055265 
L 480.651518 227.335633 
L 480.684752 227.270211 
L 480.794731 226.158052 
L 480.803984 226.092631 
L 480.914039 225.045893 
L 480.93532 224.980471 
L 481.045907 224.260839 
L 481.056721 224.195418 
L 481.160764 223.148679 
L 481.172967 223.083258 
L 481.274209 222.232783 
L 481.329681 222.167362 
L 481.424539 221.251466 
L 481.457008 221.186045 
L 481.562395 219.877622 
L 481.575917 219.812201 
L 481.678204 218.961726 
L 481.712434 218.896305 
L 481.819918 218.04583 
L 481.844682 217.980409 
L 481.95039 217.129934 
L 481.971545 217.064513 
L 482.055438 215.952354 
L 482.133057 215.886932 
L 482.243778 214.905615 
L 482.269734 214.840194 
L 482.377892 213.858877 
L 482.446337 213.793456 
L 482.555266 212.746718 
L 482.582932 212.681296 
L 482.692102 211.438295 
L 482.737411 211.372873 
L 482.848271 210.129872 
L 482.863387 210.064451 
L 482.972897 209.017712 
L 482.988075 208.952291 
L 483.098049 208.428922 
L 483.13214 208.363501 
L 483.237874 207.578447 
L 483.272028 207.513026 
L 483.377451 206.400867 
L 483.407667 206.335445 
L 483.514002 204.89618 
L 483.538625 204.830759 
L 483.649342 203.849442 
L 483.660816 203.784021 
L 483.762272 202.279334 
L 483.776684 202.213913 
L 483.884478 201.167175 
L 483.921865 201.101754 
L 484.024427 200.251279 
L 484.071808 200.185858 
L 484.16718 199.400804 
L 484.210503 199.335383 
L 484.321211 198.550329 
L 484.325192 198.484908 
L 484.432327 197.569012 
L 484.463429 197.503591 
L 484.567722 196.783958 
L 484.604099 196.718537 
L 484.706411 195.933484 
L 484.716311 195.868062 
L 484.808755 195.14843 
L 484.836563 195.083009 
L 484.943673 194.03627 
L 484.95852 193.970849 
L 485.062818 192.727847 
L 485.072207 192.662426 
L 485.180067 191.681109 
L 485.18931 191.615688 
L 485.296248 190.699792 
L 485.332308 190.634371 
L 485.440795 189.783896 
L 485.478625 189.718475 
L 485.586186 188.802579 
L 485.618771 188.737158 
L 485.727822 187.690419 
L 485.745311 187.624998 
L 485.84427 186.643681 
L 485.87723 186.57826 
L 485.982752 185.858627 
L 486.017807 185.793206 
L 486.113119 184.615626 
L 486.182737 184.550205 
L 486.271609 183.961414 
L 486.312171 183.895993 
L 486.411161 182.58757 
L 486.436302 182.522149 
L 486.531612 181.279147 
L 486.557656 181.213726 
L 486.66204 180.166988 
L 486.695525 180.101567 
L 486.795499 179.185671 
L 486.815894 179.12025 
L 486.924227 178.138932 
L 486.932519 178.073511 
L 487.042546 176.765088 
L 487.052558 176.699667 
L 487.162452 175.849192 
L 487.179309 175.783771 
L 487.271282 174.737033 
L 487.336121 174.671612 
L 487.428714 174.0174 
L 487.478581 173.951979 
L 487.580167 172.83982 
L 487.612056 172.774399 
L 487.712329 171.662239 
L 487.728515 171.596818 
L 487.822024 170.157553 
L 487.864746 170.092132 
L 487.970846 169.241657 
L 487.998256 169.176236 
L 488.102067 168.194919 
L 488.116382 168.129497 
L 488.219521 167.082759 
L 488.234969 167.017338 
L 488.338905 166.166863 
L 488.367245 166.101442 
L 488.468172 165.381809 
L 488.481529 165.316388 
L 488.588322 164.85844 
L 488.597656 164.793019 
L 488.694431 163.942544 
L 488.770896 163.877123 
L 488.874504 163.419175 
L 488.938887 163.353754 
L 489.047813 162.045331 
L 489.052115 161.97991 
L 489.160988 161.064014 
L 489.179435 160.998593 
L 489.282704 160.344381 
L 489.307835 160.27896 
L 489.416326 159.624749 
L 489.427839 159.559328 
L 489.512372 158.643432 
L 489.549345 158.57801 
L 489.649899 157.596693 
L 489.66874 157.531272 
L 489.770762 156.680797 
L 489.79996 156.615376 
L 489.909079 155.176111 
L 489.927932 155.11069 
L 490.032196 154.456478 
L 490.072056 154.391057 
L 490.16975 153.802267 
L 490.208892 153.736846 
L 490.297193 152.82095 
L 490.336196 152.755529 
L 490.44242 151.905054 
L 490.459944 151.839633 
L 490.562792 150.858315 
L 490.578668 150.792894 
L 490.688201 149.811577 
L 490.713951 149.746156 
L 490.787324 149.157366 
L 490.833665 149.091945 
L 490.922656 147.979785 
L 490.958474 147.914364 
L 491.068143 146.933047 
L 491.10162 146.867626 
L 491.192405 146.147993 
L 491.215233 146.082572 
L 491.32213 145.166676 
L 491.347029 145.101255 
L 491.450466 144.119938 
L 491.479211 144.054516 
L 491.577871 143.531147 
L 491.615419 143.465726 
L 491.726281 142.615251 
L 491.740816 142.54983 
L 491.842084 141.633934 
L 491.879215 141.568513 
L 491.972534 140.914302 
L 492.014364 140.84888 
L 492.123341 139.736721 
L 492.167796 139.6713 
L 492.277476 138.755404 
L 492.298484 138.689983 
L 492.40828 137.708666 
L 492.423157 137.643244 
L 492.503651 136.596506 
L 492.536445 136.531085 
L 492.642727 135.615189 
L 492.681721 135.549768 
L 492.775276 134.503029 
L 492.793173 134.437608 
L 492.903999 133.521712 
L 492.930577 133.456291 
L 493.038573 132.474974 
L 493.059733 132.409553 
L 493.160466 131.68992 
L 493.187405 131.624499 
L 493.296993 131.10113 
L 493.322992 131.035709 
L 493.429073 130.054392 
L 493.439747 129.988971 
L 493.523615 129.073075 
L 493.569537 129.007653 
L 493.677275 127.895494 
L 493.691303 127.830073 
L 493.794601 126.390808 
L 493.814672 126.325386 
L 493.899577 125.605754 
L 493.929333 125.540333 
L 494.027604 124.624437 
L 494.078326 124.559016 
L 494.168718 123.773962 
L 494.221229 123.708541 
L 494.329682 122.792645 
L 494.348878 122.727224 
L 494.455883 121.745906 
L 494.48143 121.680485 
L 494.578357 120.502905 
L 494.599874 120.437484 
L 494.702931 119.325324 
L 494.722939 119.259903 
L 494.819914 118.474849 
L 494.835354 118.409428 
L 494.945849 117.035584 
L 494.950905 116.970163 
L 495.057535 116.054267 
L 495.083588 115.988846 
L 495.188226 114.876686 
L 495.222759 114.811265 
L 495.33198 113.568263 
L 495.393788 113.502842 
L 495.501529 112.652367 
L 495.515948 112.586946 
L 495.608567 111.474787 
L 495.657359 111.409366 
L 495.767284 110.035522 
L 495.790791 109.970101 
L 495.895436 109.054205 
L 495.91448 108.988783 
L 496.014678 108.138308 
L 496.055858 108.072887 
L 496.163481 106.895307 
L 496.194171 106.829886 
L 496.293367 105.456042 
L 496.353913 105.39062 
L 496.454875 104.670988 
L 496.523776 104.605567 
L 496.599795 103.62425 
L 496.6533 103.558828 
L 496.759295 103.035459 
L 496.784694 102.970038 
L 496.895021 101.727036 
L 496.918776 101.661615 
L 497.018967 101.269088 
L 497.040498 101.203667 
L 497.147137 100.549456 
L 497.180344 100.484035 
L 497.287829 99.568139 
L 497.309027 99.502718 
L 497.39611 98.586821 
L 497.425402 98.5214 
L 497.520954 97.801768 
L 497.552646 97.736347 
L 497.641668 96.951293 
L 497.709009 96.885872 
L 497.795079 95.839133 
L 497.833779 95.773712 
L 497.940954 94.661553 
L 497.956002 94.596132 
L 498.057836 93.94192 
L 498.075955 93.876499 
L 498.180057 93.35313 
L 498.19258 93.287709 
L 498.299788 92.371813 
L 498.329038 92.306392 
L 498.435439 91.06339 
L 498.453061 90.997969 
L 498.556612 90.147494 
L 498.599085 90.082073 
L 498.707486 89.297019 
L 498.716543 89.231598 
L 498.825346 88.511965 
L 498.834552 88.446544 
L 498.944809 87.465227 
L 498.965001 87.399806 
L 499.075154 86.680173 
L 499.078133 86.614752 
L 499.169685 85.960541 
L 499.198859 85.89512 
L 499.307975 84.78296 
L 499.326369 84.717539 
L 499.41513 84.19417 
L 499.440548 84.128749 
L 499.547579 82.951168 
L 499.591315 82.885747 
L 499.699207 81.90443 
L 499.705763 81.839009 
L 499.814099 80.857692 
L 499.827553 80.79227 
L 499.931025 79.941795 
L 499.987525 79.876374 
L 500.09707 79.025899 
L 500.118154 78.960478 
L 500.222288 78.175425 
L 500.237851 78.110003 
L 500.3293 77.455792 
L 500.353231 77.390371 
L 500.464126 76.278211 
L 500.465335 76.21279 
L 500.540753 75.624 
L 500.540753 75.624 
" clip-path="url(#p4dfbb8e0b7)" style="fill: none; stroke: #dc2626; stroke-width: 2; stroke-linecap: round"/>
   </g>
   <g id="line2d_26">
    <path d="M 500.546808 302.112 
L 500.546808 75.624 
" clip-path="url(#p4dfbb8e0b7)" style="fill: none; stroke-dasharray: 4.44,1.92; stroke-dashoffset: 0; stroke: #0f172a; stroke-width: 1.2"/>
   </g>
   <g id="patch_96">
    <path d="M 454.43475 302.112 
L 454.43475 75.624 
" style="fill: none; stroke: #cbd5e1; stroke-linejoin: miter; stroke-linecap: square"/>
   </g>
   <g id="patch_97">
    <path d="M 454.43475 302.112 
L 814.70475 302.112 
" style="fill: none; stroke: #cbd5e1; stroke-linejoin: miter; stroke-linecap: square"/>
   </g>
   <g id="legend_2">
    <g id="line2d_27">
     <path d="M 689.647125 276.365125 
L 698.447125 276.365125 
L 698.447125 276.365125 
L 707.247125 276.365125 
L 707.247125 276.365125 
" style="fill: none; stroke: #2563eb; stroke-width: 2; stroke-linecap: round"/>
    </g>
    <g id="text_35">
     <text style="fill: #0f172a; font: 8.8px 'DejaVu Sans'; text-anchor: start" x="714.287125" y="279.445125" transform="rotate(-0 714.287125 279.445125)">Accepted ambiguous</text>
    </g>
    <g id="line2d_28">
     <path d="M 689.647125 289.281875 
L 698.447125 289.281875 
L 698.447125 289.281875 
L 707.247125 289.281875 
L 707.247125 289.281875 
" style="fill: none; stroke: #dc2626; stroke-width: 2; stroke-linecap: round"/>
    </g>
    <g id="text_36">
     <text style="fill: #0f172a; font: 8.8px 'DejaVu Sans'; text-anchor: start" x="714.287125" y="292.361875" transform="rotate(-0 714.287125 292.361875)">Threshold rejected</text>
    </g>
   </g>
  </g>
  <g id="text_37">
   <text style="fill: #0f172a; font: 700 14px 'DejaVu Sans'; text-anchor: start" x="59.06475" y="17.837812" transform="rotate(-0 59.06475 17.837812)">Final-score separation around the selected threshold</text>
  </g>
  <g id="text_38">
   <text style="fill: #475569; font: 8.7px 'DejaVu Sans'; text-anchor: start" x="59.06475" y="26.208" transform="rotate(-0 59.06475 26.208)">Rejected population contains every pair present at threshold 0.25 but removed at 0.30.</text>
  </g>
 </g>
 <defs>
  <clipPath id="p36f24e2da3">
   <rect x="48.38475" y="75.624" width="360.27" height="226.488"/>
  </clipPath>
  <clipPath id="p4dfbb8e0b7">
   <rect x="454.43475" y="75.624" width="360.27" height="226.488"/>
  </clipPath>
 </defs>
</svg>
