<?xml version="1.0" encoding="utf-8" standalone="no"?>
<!DOCTYPE svg PUBLIC "-//W3C//DTD SVG 1.1//EN"
  "http://www.w3.org/Graphics/SVG/1.1/DTD/svg11.dtd">
<svg xmlns:xlink="http://www.w3.org/1999/xlink" width="809.28pt" height="488.16pt" viewBox="0 0 809.28 488.16" xmlns="http://www.w3.org/2000/svg" version="1.1">
 <metadata>
  <rdf:RDF xmlns:dc="http://purl.org/dc/elements/1.1/" xmlns:cc="http://creativecommons.org/ns#" xmlns:rdf="http://www.w3.org/1999/02/22-rdf-syntax-ns#">
   <cc:Work>
    <dc:type rdf:resource="http://purl.org/dc/dcmitype/StillImage"/>
    <dc:date>2026-07-03T00:06:17.859313</dc:date>
    <dc:format>image/svg+xml</dc:format>
    <dc:creator>
     <cc:Agent>
      <dc:title>Matplotlib v3.9.4, https://matplotlib.org/</dc:title>
     </cc:Agent>
    </dc:creator>
   </cc:Work>
  </rdf:RDF>
 </metadata>
 <defs>
  <style type="text/css">*{stroke-linejoin: round; stroke-linecap: butt}</style>
 </defs>
 <g id="figure_1">
  <g id="patch_1">
   <path d="M 0 488.16 
L 809.28 488.16 
L 809.28 0 
L 0 0 
z
" style="fill: #ffffff"/>
  </g>
  <g id="axes_1">
   <g id="patch_2">
    <path d="M 213.8688 291.898941 
C 404.64 291.898941 404.64 240.309547 595.4112 240.309547 
L 595.4112 100.2888 
C 404.64 100.2888 404.64 100.2888 213.8688 100.2888 
z
" clip-path="url(#p7b97efbf79)" style="fill: #2563eb; opacity: 0.3"/>
   </g>
   <g id="patch_3">
    <path d="M 213.8688 386.183345 
C 404.64 386.183345 404.64 311.822149 595.4112 311.822149 
L 595.4112 254.950747 
C 404.64 254.950747 404.64 310.134725 213.8688 310.134725 
z
" clip-path="url(#p7b97efbf79)" style="fill: #16a34a; opacity: 0.3"/>
   </g>
   <g id="patch_4">
    <path d="M 213.8688 426.639713 
C 404.64 426.639713 404.64 344.455922 595.4112 344.455922 
L 595.4112 326.585689 
C 404.64 326.585689 404.64 403.315836 213.8688 403.315836 
z
" clip-path="url(#p7b97efbf79)" style="fill: #7c3aed; opacity: 0.3"/>
   </g>
   <g id="patch_5">
    <path d="M 213.8688 310.134725 
C 404.64 310.134725 404.64 370.698576 595.4112 370.698576 
L 595.4112 359.377646 
C 404.64 359.377646 404.64 307.046577 213.8688 307.046577 
z
" clip-path="url(#p7b97efbf79)" style="fill: #16a34a; opacity: 0.3"/>
   </g>
   <g id="patch_6">
    <path d="M 213.8688 403.315836 
C 404.64 403.315836 404.64 389.626847 595.4112 389.626847 
L 595.4112 385.339776 
C 404.64 385.339776 404.64 401.982627 213.8688 401.982627 
z
" clip-path="url(#p7b97efbf79)" style="fill: #7c3aed; opacity: 0.3"/>
   </g>
   <g id="patch_7">
    <path d="M 213.8688 307.046577 
C 404.64 307.046577 404.64 408.448902 595.4112 408.448902 
L 595.4112 404.268047 
C 404.64 404.268047 404.64 306.635585 213.8688 306.635585 
z
" clip-path="url(#p7b97efbf79)" style="fill: #16a34a; opacity: 0.3"/>
   </g>
   <g id="patch_8">
    <path d="M 213.8688 401.982627 
C 404.64 401.982627 404.64 426.655246 595.4112 426.655246 
L 595.4112 423.090102 
C 404.64 423.090102 404.64 401.060626 213.8688 401.060626 
z
" clip-path="url(#p7b97efbf79)" style="fill: #7c3aed; opacity: 0.3"/>
   </g>
   <g id="patch_9">
    <path d="M 213.8688 306.635585 
C 404.64 306.635585 404.64 443.3112 595.4112 443.3112 
L 595.4112 441.296446 
C 404.64 441.296446 404.64 306.540141 213.8688 306.540141 
z
" clip-path="url(#p7b97efbf79)" style="fill: #16a34a; opacity: 0.3"/>
   </g>
   <g id="patch_10">
    <path d="M 213.8688 401.060626 
C 404.64 401.060626 404.64 359.377646 595.4112 359.377646 
L 595.4112 359.097122 
C 404.64 359.097122 404.64 400.824545 213.8688 400.824545 
z
" clip-path="url(#p7b97efbf79)" style="fill: #7c3aed; opacity: 0.3"/>
   </g>
   <g id="patch_11">
    <path d="M 213.8688 443.3112 
C 404.64 443.3112 404.64 326.585689 595.4112 326.585689 
L 595.4112 326.463349 
C 404.64 326.463349 404.64 441.280913 213.8688 441.280913 
z
" clip-path="url(#p7b97efbf79)" style="fill: #d97706; opacity: 0.3"/>
   </g>
   <g id="patch_12">
    <path d="M 134.3808 293.572221 
L 213.8688 293.572221 
Q 217.04832 293.572221 217.04832 291.898941 
L 217.04832 100.2888 
Q 217.04832 98.61552 213.8688 98.61552 
L 134.3808 98.61552 
Q 131.20128 98.61552 131.20128 100.2888 
L 131.20128 291.898941 
Q 131.20128 293.572221 134.3808 293.572221 
z
" clip-path="url(#p7b97efbf79)" style="fill: #2563eb; stroke: #ffffff; stroke-width: 0.8; stroke-linejoin: miter"/>
   </g>
   <g id="patch_13">
    <path d="M 134.3808 387.856625 
L 213.8688 387.856625 
Q 217.04832 387.856625 217.04832 386.183345 
L 217.04832 306.540141 
Q 217.04832 304.866861 213.8688 304.866861 
L 134.3808 304.866861 
Q 131.20128 304.866861 131.20128 306.540141 
L 131.20128 386.183345 
Q 131.20128 387.856625 134.3808 387.856625 
z
" clip-path="url(#p7b97efbf79)" style="fill: #16a34a; stroke: #ffffff; stroke-width: 0.8; stroke-linejoin: miter"/>
   </g>
   <g id="patch_14">
    <path d="M 134.3808 428.312993 
L 213.8688 428.312993 
Q 217.04832 428.312993 217.04832 426.639713 
L 217.04832 400.824545 
Q 217.04832 399.151265 213.8688 399.151265 
L 134.3808 399.151265 
Q 131.20128 399.151265 131.20128 400.824545 
L 131.20128 426.639713 
Q 131.20128 428.312993 134.3808 428.312993 
z
" clip-path="url(#p7b97efbf79)" style="fill: #7c3aed; stroke: #ffffff; stroke-width: 0.8; stroke-linejoin: miter"/>
   </g>
   <g id="patch_15">
    <path d="M 134.3808 448.989176 
L 213.8688 448.989176 
Q 217.04832 448.989176 217.04832 447.315896 
L 217.04832 437.276216 
Q 217.04832 435.602936 213.8688 435.602936 
L 134.3808 435.602936 
Q 131.20128 435.602936 131.20128 437.276216 
L 131.20128 447.315896 
Q 131.20128 448.989176 134.3808 448.989176 
z
" clip-path="url(#p7b97efbf79)" style="fill: #d97706; stroke: #ffffff; stroke-width: 0.8; stroke-linejoin: miter"/>
   </g>
   <g id="patch_16">
    <path d="M 595.4112 241.982827 
L 674.8992 241.982827 
Q 678.07872 241.982827 678.07872 240.309547 
L 678.07872 100.2888 
Q 678.07872 98.61552 674.8992 98.61552 
L 595.4112 98.61552 
Q 592.23168 98.61552 592.23168 100.2888 
L 592.23168 240.309547 
Q 592.23168 241.982827 595.4112 241.982827 
z
" clip-path="url(#p7b97efbf79)" style="fill: #0891b2; stroke: #ffffff; stroke-width: 0.8; stroke-linejoin: miter"/>
   </g>
   <g id="patch_17">
    <path d="M 595.4112 313.495429 
L 674.8992 313.495429 
Q 678.07872 313.495429 678.07872 311.822149 
L 678.07872 254.950747 
Q 678.07872 253.277467 674.8992 253.277467 
L 595.4112 253.277467 
Q 592.23168 253.277467 592.23168 254.950747 
L 592.23168 311.822149 
Q 592.23168 313.495429 595.4112 313.495429 
z
" clip-path="url(#p7b97efbf79)" style="fill: #0891b2; stroke: #ffffff; stroke-width: 0.8; stroke-linejoin: miter"/>
   </g>
   <g id="patch_18">
    <path d="M 595.4112 346.129202 
L 674.8992 346.129202 
Q 678.07872 346.129202 678.07872 344.455922 
L 678.07872 326.463349 
Q 678.07872 324.790069 674.8992 324.790069 
L 595.4112 324.790069 
Q 592.23168 324.790069 592.23168 326.463349 
L 592.23168 344.455922 
Q 592.23168 346.129202 595.4112 346.129202 
z
" clip-path="url(#p7b97efbf79)" style="fill: #0891b2; stroke: #ffffff; stroke-width: 0.8; stroke-linejoin: miter"/>
   </g>
   <g id="patch_19">
    <path d="M 595.4112 372.371856 
L 674.8992 372.371856 
Q 678.07872 372.371856 678.07872 370.698576 
L 678.07872 359.097122 
Q 678.07872 357.423842 674.8992 357.423842 
L 595.4112 357.423842 
Q 592.23168 357.423842 592.23168 359.097122 
L 592.23168 370.698576 
Q 592.23168 372.371856 595.4112 372.371856 
z
" clip-path="url(#p7b97efbf79)" style="fill: #0891b2; stroke: #ffffff; stroke-width: 0.8; stroke-linejoin: miter"/>
   </g>
   <g id="patch_20">
    <path d="M 595.4112 394.176432 
L 674.8992 394.176432 
Q 678.07872 394.176432 678.07872 392.503152 
L 678.07872 382.463472 
Q 678.07872 380.790192 674.8992 380.790192 
L 595.4112 380.790192 
Q 592.23168 380.790192 592.23168 382.463472 
L 592.23168 392.503152 
Q 592.23168 394.176432 595.4112 394.176432 
z
" clip-path="url(#p7b97efbf79)" style="fill: #0891b2; stroke: #ffffff; stroke-width: 0.8; stroke-linejoin: miter"/>
   </g>
   <g id="patch_21">
    <path d="M 595.4112 413.051595 
L 674.8992 413.051595 
Q 678.07872 413.051595 678.07872 411.378315 
L 678.07872 401.338635 
Q 678.07872 399.665355 674.8992 399.665355 
L 595.4112 399.665355 
Q 592.23168 399.665355 592.23168 401.338635 
L 592.23168 411.378315 
Q 592.23168 413.051595 595.4112 413.051595 
z
" clip-path="url(#p7b97efbf79)" style="fill: #0891b2; stroke: #ffffff; stroke-width: 0.8; stroke-linejoin: miter"/>
   </g>
   <g id="patch_22">
    <path d="M 595.4112 431.565794 
L 674.8992 431.565794 
Q 678.07872 431.565794 678.07872 429.892514 
L 678.07872 419.852834 
Q 678.07872 418.179554 674.8992 418.179554 
L 595.4112 418.179554 
Q 592.23168 418.179554 592.23168 419.852834 
L 592.23168 429.892514 
Q 592.23168 431.565794 595.4112 431.565794 
z
" clip-path="url(#p7b97efbf79)" style="fill: #0891b2; stroke: #ffffff; stroke-width: 0.8; stroke-linejoin: miter"/>
   </g>
   <g id="patch_23">
    <path d="M 595.4112 448.996943 
L 674.8992 448.996943 
Q 678.07872 448.996943 678.07872 447.323663 
L 678.07872 437.283983 
Q 678.07872 435.610703 674.8992 435.610703 
L 595.4112 435.610703 
Q 592.23168 435.610703 592.23168 437.283983 
L 592.23168 447.323663 
Q 592.23168 448.996943 595.4112 448.996943 
z
" clip-path="url(#p7b97efbf79)" style="fill: #0891b2; stroke: #ffffff; stroke-width: 0.8; stroke-linejoin: miter"/>
   </g>
   <g id="text_1">
    <text style="fill: #0f172a; font: 8.5px 'DejaVu Sans'; text-anchor: end" x="122.4576" y="198.439339" transform="rotate(-0 122.4576 198.439339)">person like</text>
   </g>
   <g id="text_2">
    <text style="fill: #0f172a; font: 8.5px 'DejaVu Sans'; text-anchor: end" x="122.4576" y="348.707212" transform="rotate(-0 122.4576 348.707212)">creative work like</text>
   </g>
   <g id="text_3">
    <text style="fill: #0f172a; font: 8.5px 'DejaVu Sans'; text-anchor: end" x="122.4576" y="416.077598" transform="rotate(-0 122.4576 416.077598)">organization like</text>
   </g>
   <g id="text_4">
    <text style="fill: #0f172a; font: 8.5px 'DejaVu Sans'; text-anchor: end" x="122.4576" y="444.641525" transform="rotate(-0 122.4576 444.641525)">place like</text>
   </g>
   <g id="text_5">
    <text style="fill: #0f172a; font: 8.5px 'DejaVu Sans'; text-anchor: start" x="686.8224" y="172.644642" transform="rotate(-0 686.8224 172.644642)">author</text>
   </g>
   <g id="text_6">
    <text style="fill: #0f172a; font: 8.5px 'DejaVu Sans'; text-anchor: start" x="686.8224" y="285.731917" transform="rotate(-0 686.8224 285.731917)">work</text>
   </g>
   <g id="text_7">
    <text style="fill: #0f172a; font: 8.5px 'DejaVu Sans'; text-anchor: start" x="686.8224" y="337.805104" transform="rotate(-0 686.8224 337.805104)">institution</text>
   </g>
   <g id="text_8">
    <text style="fill: #0f172a; font: 8.5px 'DejaVu Sans'; text-anchor: start" x="686.8224" y="367.243318" transform="rotate(-0 686.8224 367.243318)">source</text>
   </g>
   <g id="text_9">
    <text style="fill: #0f172a; font: 8.5px 'DejaVu Sans'; text-anchor: start" x="686.8224" y="389.82878" transform="rotate(-0 686.8224 389.82878)">publisher</text>
   </g>
   <g id="text_10">
    <text style="fill: #0f172a; font: 8.5px 'DejaVu Sans'; text-anchor: start" x="686.8224" y="408.703943" transform="rotate(-0 686.8224 408.703943)">concept</text>
   </g>
   <g id="text_11">
    <text style="fill: #0f172a; font: 8.5px 'DejaVu Sans'; text-anchor: start" x="686.8224" y="427.218143" transform="rotate(-0 686.8224 427.218143)">funder</text>
   </g>
   <g id="text_12">
    <text style="fill: #0f172a; font: 8.5px 'DejaVu Sans'; text-anchor: start" x="686.8224" y="444.649292" transform="rotate(-0 686.8224 444.649292)">keyword</text>
   </g>
   <g id="text_13">
    <text style="fill: #0f172a; font: 700 11px 'DejaVu Sans'; text-anchor: middle" x="174.1248" y="81.4644" transform="rotate(-0 174.1248 81.4644)">YAGO predicate-profile category</text>
   </g>
   <g id="text_14">
    <text style="fill: #0f172a; font: 700 11px 'DejaVu Sans'; text-anchor: middle" x="635.1552" y="81.4644" transform="rotate(-0 635.1552 81.4644)">SemOpenAlex URI type</text>
   </g>
   <g id="text_15">
    <text style="fill: #ffffff; font: 700 7.5px 'DejaVu Sans'; text-anchor: middle" x="174.1248" y="198.163402" transform="rotate(-0 174.1248 198.163402)">1.66M</text>
   </g>
   <g id="text_16">
    <text style="fill: #ffffff; font: 700 7.5px 'DejaVu Sans'; text-anchor: middle" x="174.1248" y="348.431274" transform="rotate(-0 174.1248 348.431274)">286.22K</text>
   </g>
   <g id="text_17">
    <text style="fill: #ffffff; font: 700 7.5px 'DejaVu Sans'; text-anchor: middle" x="174.1248" y="415.80166" transform="rotate(-0 174.1248 415.80166)">30.07K</text>
   </g>
   <g id="text_18">
    <text style="fill: #ffffff; font: 700 7.5px 'DejaVu Sans'; text-anchor: middle" x="174.1248" y="444.365588" transform="rotate(-0 174.1248 444.365588)">186</text>
   </g>
   <g id="text_19">
    <text style="fill: #ffffff; font: 700 7.5px 'DejaVu Sans'; text-anchor: middle" x="635.1552" y="172.368705" transform="rotate(-0 635.1552 172.368705)">1.66M</text>
   </g>
   <g id="text_20">
    <text style="fill: #ffffff; font: 700 7.5px 'DejaVu Sans'; text-anchor: middle" x="635.1552" y="285.455979" transform="rotate(-0 635.1552 285.455979)">273.30K</text>
   </g>
   <g id="text_21">
    <text style="fill: #ffffff; font: 700 7.5px 'DejaVu Sans'; text-anchor: middle" x="635.1552" y="337.529167" transform="rotate(-0 635.1552 337.529167)">27.36K</text>
   </g>
   <g id="text_22">
    <text style="fill: #ffffff; font: 700 7.5px 'DejaVu Sans'; text-anchor: middle" x="635.1552" y="366.96738" transform="rotate(-0 635.1552 366.96738)">11.37K</text>
   </g>
   <g id="text_23">
    <text style="fill: #ffffff; font: 700 7.5px 'DejaVu Sans'; text-anchor: middle" x="635.1552" y="389.552843" transform="rotate(-0 635.1552 389.552843)">1.55K</text>
   </g>
   <g id="text_24">
    <text style="fill: #ffffff; font: 700 7.5px 'DejaVu Sans'; text-anchor: middle" x="635.1552" y="408.428006" transform="rotate(-0 635.1552 408.428006)">1.48K</text>
   </g>
   <g id="text_25">
    <text style="fill: #ffffff; font: 700 7.5px 'DejaVu Sans'; text-anchor: middle" x="635.1552" y="426.942206" transform="rotate(-0 635.1552 426.942206)">1.07K</text>
   </g>
   <g id="text_26">
    <text style="fill: #ffffff; font: 700 7.5px 'DejaVu Sans'; text-anchor: middle" x="635.1552" y="444.373354" transform="rotate(-0 635.1552 444.373354)">343</text>
   </g>
  </g>
  <g id="text_27">
   <text style="fill: #0f172a; font: 700 14px 'DejaVu Sans'; text-anchor: start" x="37.44" y="17.837812" transform="rotate(-0 37.44 17.837812)">Bipartite flow of the ambiguous final alignments</text>
  </g>
  <g id="text_28">
   <text style="fill: #475569; font: 8.7px 'DejaVu Sans'; text-anchor: start" x="37.44" y="34.92" transform="rotate(-0 37.44 34.92)">“Unclassified by predicates” means the YAGO heuristic abstained—not that the URI or SemOpenAlex type is unknown.</text>
  </g>
 </g>
 <defs>
  <clipPath id="p7b97efbf79">
   <rect x="7.2" y="62.64" width="794.88" height="418.32"/>
  </clipPath>
 </defs>
</svg>
