<?xml version="1.0" encoding="utf-8" standalone="no"?>
<!DOCTYPE svg PUBLIC "-//W3C//DTD SVG 1.1//EN"
  "http://www.w3.org/Graphics/SVG/1.1/DTD/svg11.dtd">
<svg xmlns:xlink="http://www.w3.org/1999/xlink" width="821.746895pt" height="346.40375pt" viewBox="0 0 821.746895 346.40375" xmlns="http://www.w3.org/2000/svg" version="1.1">
 <metadata>
  <rdf:RDF xmlns:dc="http://purl.org/dc/elements/1.1/" xmlns:cc="http://creativecommons.org/ns#" xmlns:rdf="http://www.w3.org/1999/02/22-rdf-syntax-ns#">
   <cc:Work>
    <dc:type rdf:resource="http://purl.org/dc/dcmitype/StillImage"/>
    <dc:date>2026-07-03T00:06:19.067232</dc:date>
    <dc:format>image/svg+xml</dc:format>
    <dc:creator>
     <cc:Agent>
      <dc:title>Matplotlib v3.9.4, https://matplotlib.org/</dc:title>
     </cc:Agent>
    </dc:creator>
   </cc:Work>
  </rdf:RDF>
 </metadata>
 <defs>
  <style type="text/css">*{stroke-linejoin: round; stroke-linecap: butt}</style>
 </defs>
 <g id="figure_1">
  <g id="patch_1">
   <path d="M 0 346.40375 
L 821.746895 346.40375 
L 821.746895 0 
L 0 0 
z
" style="fill: #ffffff"/>
  </g>
  <g id="axes_1">
   <g id="patch_2">
    <path d="M 44.279 309.096 
L 405.676895 309.096 
L 405.676895 72.912 
L 44.279 72.912 
z
" style="fill: #ffffff"/>
   </g>
   <g id="matplotlib.axis_1">
    <g id="xtick_1">
     <g id="line2d_1">
      <path d="M 60.706177 309.096 
L 60.706177 72.912 
" clip-path="url(#p2ab9fcd018)" style="fill: none; stroke: #e2e8f0; stroke-width: 0.7; stroke-linecap: round"/>
     </g>
     <g id="text_1">
      <text style="fill: #262626; font: 8.8px 'DejaVu Sans'; text-anchor: middle" x="60.706177" y="324.082625" transform="rotate(-0 60.706177 324.082625)">1</text>
     </g>
    </g>
    <g id="xtick_2">
     <g id="line2d_2">
      <path d="M 224.977947 309.096 
L 224.977947 72.912 
" clip-path="url(#p2ab9fcd018)" style="fill: none; stroke: #e2e8f0; stroke-width: 0.7; stroke-linecap: round"/>
     </g>
     <g id="text_2">
      <text style="fill: #262626; font: 8.8px 'DejaVu Sans'; text-anchor: middle" x="224.977947" y="324.082625" transform="rotate(-0 224.977947 324.082625)">2</text>
     </g>
    </g>
    <g id="xtick_3">
     <g id="line2d_3">
      <path d="M 389.249718 309.096 
L 389.249718 72.912 
" clip-path="url(#p2ab9fcd018)" style="fill: none; stroke: #e2e8f0; stroke-width: 0.7; stroke-linecap: round"/>
     </g>
     <g id="text_3">
      <text style="fill: #262626; font: 8.8px 'DejaVu Sans'; text-anchor: middle" x="389.249718" y="324.082625" transform="rotate(-0 389.249718 324.082625)">3</text>
     </g>
    </g>
    <g id="text_4">
     <text style="fill: #262626; font: 9.6px 'DejaVu Sans'; text-anchor: middle" x="224.977947" y="337.20725" transform="rotate(-0 224.977947 337.20725)">Epoch</text>
    </g>
   </g>
   <g id="matplotlib.axis_2">
    <g id="ytick_1">
     <g id="line2d_4">
      <path d="M 44.279 248.585639 
L 405.676895 248.585639 
" clip-path="url(#p2ab9fcd018)" style="fill: none; stroke: #e2e8f0; stroke-width: 0.7; stroke-linecap: round"/>
     </g>
     <g id="text_5">
      <!-- $\mathdefault{10^{0}}$ -->
      <g style="fill: #262626" transform="translate(20.491 251.928952)">
       <text>
        <tspan style="font: 8.8px 'DejaVu Sans'" x="0 5.567017" y="-0.8734375000000014">10</tspan>
        <tspan style="font: 6.16px 'DejaVu Sans'" x="11.220166" y="-4.318750000000001">0</tspan>
       </text>
      </g>
     </g>
    </g>
    <g id="ytick_2">
     <g id="line2d_5">
      <path d="M 44.279 177.850648 
L 405.676895 177.850648 
" clip-path="url(#p2ab9fcd018)" style="fill: none; stroke: #e2e8f0; stroke-width: 0.7; stroke-linecap: round"/>
     </g>
     <g id="text_6">
      <!-- $\mathdefault{10^{1}}$ -->
      <g style="fill: #262626" transform="translate(20.491 181.19396)">
       <text>
        <tspan style="font: 8.8px 'DejaVu Sans'" x="0 5.567017" y="-0.9609375">10</tspan>
        <tspan style="font: 6.16px 'DejaVu Sans'" x="11.220166" y="-4.40625">1</tspan>
       </text>
      </g>
     </g>
    </g>
    <g id="ytick_3">
     <g id="line2d_6">
      <path d="M 44.279 107.115656 
L 405.676895 107.115656 
" clip-path="url(#p2ab9fcd018)" style="fill: none; stroke: #e2e8f0; stroke-width: 0.7; stroke-linecap: round"/>
     </g>
     <g id="text_7">
      <!-- $\mathdefault{10^{2}}$ -->
      <g style="fill: #262626" transform="translate(20.491 110.458968)">
       <text>
        <tspan style="font: 8.8px 'DejaVu Sans'" x="0 5.567017" y="-0.8734375000000014">10</tspan>
        <tspan style="font: 6.16px 'DejaVu Sans'" x="11.220166" y="-4.318750000000001">2</tspan>
       </text>
      </g>
     </g>
    </g>
    <g id="ytick_4"/>
    <g id="ytick_5"/>
    <g id="ytick_6"/>
    <g id="ytick_7"/>
    <g id="ytick_8"/>
    <g id="ytick_9"/>
    <g id="ytick_10"/>
    <g id="ytick_11"/>
    <g id="ytick_12"/>
    <g id="ytick_13"/>
    <g id="ytick_14"/>
    <g id="ytick_15"/>
    <g id="ytick_16"/>
    <g id="ytick_17"/>
    <g id="ytick_18"/>
    <g id="ytick_19"/>
    <g id="ytick_20"/>
    <g id="ytick_21"/>
    <g id="ytick_22"/>
    <g id="ytick_23"/>
    <g id="ytick_24"/>
    <g id="ytick_25"/>
    <g id="ytick_26"/>
    <g id="ytick_27"/>
    <g id="ytick_28"/>
    <g id="ytick_29"/>
    <g id="text_8">
     <text style="fill: #262626; font: 9.6px 'DejaVu Sans'; text-anchor: middle" x="14.4945" y="191.004" transform="rotate(-90 14.4945 191.004)">Training loss</text>
    </g>
   </g>
   <g id="PolyCollection_1">
    <defs>
     <path id="mbd0f0d2afc" d="M 60.706177 -117.061712 
L 60.706177 -88.437934 
L 224.977947 -56.341541 
L 389.249718 -48.043386 
L 389.249718 -81.645385 
L 389.249718 -81.645385 
L 224.977947 -88.187615 
L 60.706177 -117.061712 
z
" style="stroke: #7c3aed; stroke-opacity: 0.12; stroke-width: 0.8"/>
    </defs>
    <g clip-path="url(#p2ab9fcd018)">
     <use xlink:href="#mbd0f0d2afc" x="0" y="346.40375" style="fill: #7c3aed; fill-opacity: 0.12; stroke: #7c3aed; stroke-opacity: 0.12; stroke-width: 0.8"/>
    </g>
   </g>
   <g id="PolyCollection_2">
    <defs>
     <path id="m50010fc40c" d="M 60.706177 -117.053595 
L 60.706177 -88.491334 
L 224.977947 -57.380864 
L 389.249718 -49.847292 
L 389.249718 -82.233359 
L 389.249718 -82.233359 
L 224.977947 -89.002957 
L 60.706177 -117.053595 
z
" style="stroke: #2563eb; stroke-opacity: 0.12; stroke-width: 0.8"/>
    </defs>
    <g clip-path="url(#p2ab9fcd018)">
     <use xlink:href="#m50010fc40c" x="0" y="346.40375" style="fill: #2563eb; fill-opacity: 0.12; stroke: #2563eb; stroke-opacity: 0.12; stroke-width: 0.8"/>
    </g>
   </g>
   <g id="PolyCollection_3">
    <defs>
     <path id="m1d777adc70" d="M 60.706177 -262.756114 
L 60.706177 -224.274609 
L 224.977947 -192.675773 
L 389.249718 -175.779964 
L 389.249718 -220.442662 
L 389.249718 -220.442662 
L 224.977947 -229.90803 
L 60.706177 -262.756114 
z
" style="stroke: #64748b; stroke-opacity: 0.12; stroke-width: 0.8"/>
    </defs>
    <g clip-path="url(#p2ab9fcd018)">
     <use xlink:href="#m1d777adc70" x="0" y="346.40375" style="fill: #64748b; fill-opacity: 0.12; stroke: #64748b; stroke-opacity: 0.12; stroke-width: 0.8"/>
    </g>
   </g>
   <g id="line2d_7">
    <path d="M 60.706177 240.567276 
L 224.977947 266.979166 
L 389.249718 274.311606 
" clip-path="url(#p2ab9fcd018)" style="fill: none; stroke: #7c3aed; stroke-width: 2; stroke-linecap: round"/>
    <defs>
     <path id="m972d222a03" d="M 0 2.4 
C 0.636487 2.4 1.246992 2.147121 1.697056 1.697056 
C 2.147121 1.246992 2.4 0.636487 2.4 0 
C 2.4 -0.636487 2.147121 -1.246992 1.697056 -1.697056 
C 1.246992 -2.147121 0.636487 -2.4 0 -2.4 
C -0.636487 -2.4 -1.246992 -2.147121 -1.697056 -1.697056 
C -2.147121 -1.246992 -2.4 -0.636487 -2.4 0 
C -2.4 0.636487 -2.147121 1.246992 -1.697056 1.697056 
C -1.246992 2.147121 -0.636487 2.4 0 2.4 
z
" style="stroke: #7c3aed"/>
    </defs>
    <g clip-path="url(#p2ab9fcd018)">
     <use xlink:href="#m972d222a03" x="60.706177" y="240.567276" style="fill: #7c3aed; stroke: #7c3aed"/>
     <use xlink:href="#m972d222a03" x="224.977947" y="266.979166" style="fill: #7c3aed; stroke: #7c3aed"/>
     <use xlink:href="#m972d222a03" x="389.249718" y="274.311606" style="fill: #7c3aed; stroke: #7c3aed"/>
    </g>
   </g>
   <g id="line2d_8">
    <path d="M 60.706177 240.674427 
L 224.977947 266.145195 
L 389.249718 273.552531 
" clip-path="url(#p2ab9fcd018)" style="fill: none; stroke: #2563eb; stroke-width: 2; stroke-linecap: round"/>
    <defs>
     <path id="mc693a6d374" d="M 0 2.4 
C 0.636487 2.4 1.246992 2.147121 1.697056 1.697056 
C 2.147121 1.246992 2.4 0.636487 2.4 0 
C 2.4 -0.636487 2.147121 -1.246992 1.697056 -1.697056 
C 1.246992 -2.147121 0.636487 -2.4 0 -2.4 
C -0.636487 -2.4 -1.246992 -2.147121 -1.697056 -1.697056 
C -2.147121 -1.246992 -2.4 -0.636487 -2.4 0 
C -2.4 0.636487 -2.147121 1.246992 -1.697056 1.697056 
C -1.246992 2.147121 -0.636487 2.4 0 2.4 
z
" style="stroke: #2563eb"/>
    </defs>
    <g clip-path="url(#p2ab9fcd018)">
     <use xlink:href="#mc693a6d374" x="60.706177" y="240.674427" style="fill: #2563eb; stroke: #2563eb"/>
     <use xlink:href="#mc693a6d374" x="224.977947" y="266.145195" style="fill: #2563eb; stroke: #2563eb"/>
     <use xlink:href="#mc693a6d374" x="389.249718" y="273.552531" style="fill: #2563eb; stroke: #2563eb"/>
    </g>
   </g>
   <g id="line2d_9">
    <path d="M 60.706177 96.352601 
L 224.977947 125.110798 
L 389.249718 137.030795 
" clip-path="url(#p2ab9fcd018)" style="fill: none; stroke: #64748b; stroke-width: 2; stroke-linecap: round"/>
    <defs>
     <path id="m2e8adc2e44" d="M 0 2.4 
C 0.636487 2.4 1.246992 2.147121 1.697056 1.697056 
C 2.147121 1.246992 2.4 0.636487 2.4 0 
C 2.4 -0.636487 2.147121 -1.246992 1.697056 -1.697056 
C 1.246992 -2.147121 0.636487 -2.4 0 -2.4 
C -0.636487 -2.4 -1.246992 -2.147121 -1.697056 -1.697056 
C -2.147121 -1.246992 -2.4 -0.636487 -2.4 0 
C -2.4 0.636487 -2.147121 1.246992 -1.697056 1.697056 
C -1.246992 2.147121 -0.636487 2.4 0 2.4 
z
" style="stroke: #64748b"/>
    </defs>
    <g clip-path="url(#p2ab9fcd018)">
     <use xlink:href="#m2e8adc2e44" x="60.706177" y="96.352601" style="fill: #64748b; stroke: #64748b"/>
     <use xlink:href="#m2e8adc2e44" x="224.977947" y="125.110798" style="fill: #64748b; stroke: #64748b"/>
     <use xlink:href="#m2e8adc2e44" x="389.249718" y="137.030795" style="fill: #64748b; stroke: #64748b"/>
    </g>
   </g>
   <g id="patch_3">
    <path d="M 44.279 309.096 
L 44.279 72.912 
" style="fill: none; stroke: #cbd5e1; stroke-linejoin: miter; stroke-linecap: square"/>
   </g>
   <g id="patch_4">
    <path d="M 44.279 309.096 
L 405.676895 309.096 
" style="fill: none; stroke: #cbd5e1; stroke-linejoin: miter; stroke-linecap: square"/>
   </g>
   <g id="legend_1">
    <g id="line2d_10">
     <path d="M 334.215395 84.438625 
L 343.015395 84.438625 
L 351.815395 84.438625 
" style="fill: none; stroke: #7c3aed; stroke-width: 2; stroke-linecap: round"/>
     <g>
      <use xlink:href="#m972d222a03" x="343.015395" y="84.438625" style="fill: #7c3aed; stroke: #7c3aed"/>
     </g>
    </g>
    <g id="text_9">
     <text style="fill: #0f172a; font: 8.8px 'DejaVu Sans'; text-anchor: start" x="358.855395" y="87.518625" transform="rotate(-0 358.855395 87.518625)">ComplEx</text>
    </g>
    <g id="line2d_11">
     <path d="M 334.215395 97.355375 
L 343.015395 97.355375 
L 351.815395 97.355375 
" style="fill: none; stroke: #2563eb; stroke-width: 2; stroke-linecap: round"/>
     <g>
      <use xlink:href="#mc693a6d374" x="343.015395" y="97.355375" style="fill: #2563eb; stroke: #2563eb"/>
     </g>
    </g>
    <g id="text_10">
     <text style="fill: #0f172a; font: 8.8px 'DejaVu Sans'; text-anchor: start" x="358.855395" y="100.435375" transform="rotate(-0 358.855395 100.435375)">DistMult</text>
    </g>
    <g id="line2d_12">
     <path d="M 334.215395 110.272125 
L 343.015395 110.272125 
L 351.815395 110.272125 
" style="fill: none; stroke: #64748b; stroke-width: 2; stroke-linecap: round"/>
     <g>
      <use xlink:href="#m2e8adc2e44" x="343.015395" y="110.272125" style="fill: #64748b; stroke: #64748b"/>
     </g>
    </g>
    <g id="text_11">
     <text style="fill: #0f172a; font: 8.8px 'DejaVu Sans'; text-anchor: start" x="358.855395" y="113.352125" transform="rotate(-0 358.855395 113.352125)">TransE</text>
    </g>
   </g>
  </g>
  <g id="axes_2">
   <g id="patch_5">
    <path d="M 453.149 309.096 
L 814.546895 309.096 
L 814.546895 72.912 
L 453.149 72.912 
z
" style="fill: #ffffff"/>
   </g>
   <g id="matplotlib.axis_3">
    <g id="xtick_4">
     <g id="text_12">
      <text style="fill: #262626; font: 8.8px 'DejaVu Sans'; text-anchor: middle" x="513.381982" y="324.082625" transform="rotate(-0 513.381982 324.082625)">TransE</text>
     </g>
    </g>
    <g id="xtick_5">
     <g id="text_13">
      <text style="fill: #262626; font: 8.8px 'DejaVu Sans'; text-anchor: middle" x="633.847947" y="324.082625" transform="rotate(-0 633.847947 324.082625)">DistMult</text>
     </g>
    </g>
    <g id="xtick_6">
     <g id="text_14">
      <text style="fill: #262626; font: 8.8px 'DejaVu Sans'; text-anchor: middle" x="754.313912" y="324.082625" transform="rotate(-0 754.313912 324.082625)">ComplEx</text>
     </g>
    </g>
   </g>
   <g id="matplotlib.axis_4">
    <g id="ytick_30">
     <g id="line2d_13">
      <path d="M 453.149 242.62156 
L 814.546895 242.62156 
" clip-path="url(#pe820c34961)" style="fill: none; stroke: #e2e8f0; stroke-width: 0.7; stroke-linecap: round"/>
     </g>
     <g id="text_15">
      <!-- $\mathdefault{10^{0}}$ -->
      <g style="fill: #262626" transform="translate(429.361 245.964872)">
       <text>
        <tspan style="font: 8.8px 'DejaVu Sans'" x="0 5.567017" y="-0.8734375000000014">10</tspan>
        <tspan style="font: 6.16px 'DejaVu Sans'" x="11.220166" y="-4.318750000000001">0</tspan>
       </text>
      </g>
     </g>
    </g>
    <g id="ytick_31">
     <g id="line2d_14">
      <path d="M 453.149 174.044888 
L 814.546895 174.044888 
" clip-path="url(#pe820c34961)" style="fill: none; stroke: #e2e8f0; stroke-width: 0.7; stroke-linecap: round"/>
     </g>
     <g id="text_16">
      <!-- $\mathdefault{10^{1}}$ -->
      <g style="fill: #262626" transform="translate(429.361 177.388201)">
       <text>
        <tspan style="font: 8.8px 'DejaVu Sans'" x="0 5.567017" y="-0.9609375">10</tspan>
        <tspan style="font: 6.16px 'DejaVu Sans'" x="11.220166" y="-4.40625">1</tspan>
       </text>
      </g>
     </g>
    </g>
    <g id="ytick_32">
     <g id="line2d_15">
      <path d="M 453.149 105.468217 
L 814.546895 105.468217 
" clip-path="url(#pe820c34961)" style="fill: none; stroke: #e2e8f0; stroke-width: 0.7; stroke-linecap: round"/>
     </g>
     <g id="text_17">
      <!-- $\mathdefault{10^{2}}$ -->
      <g style="fill: #262626" transform="translate(429.361 108.811529)">
       <text>
        <tspan style="font: 8.8px 'DejaVu Sans'" x="0 5.567017" y="-0.8734375000000014">10</tspan>
        <tspan style="font: 6.16px 'DejaVu Sans'" x="11.220166" y="-4.318750000000001">2</tspan>
       </text>
      </g>
     </g>
    </g>
    <g id="ytick_33"/>
    <g id="ytick_34"/>
    <g id="ytick_35"/>
    <g id="ytick_36"/>
    <g id="ytick_37"/>
    <g id="ytick_38"/>
    <g id="ytick_39"/>
    <g id="ytick_40"/>
    <g id="ytick_41"/>
    <g id="ytick_42"/>
    <g id="ytick_43"/>
    <g id="ytick_44"/>
    <g id="ytick_45"/>
    <g id="ytick_46"/>
    <g id="ytick_47"/>
    <g id="ytick_48"/>
    <g id="ytick_49"/>
    <g id="ytick_50"/>
    <g id="ytick_51"/>
    <g id="ytick_52"/>
    <g id="ytick_53"/>
    <g id="ytick_54"/>
    <g id="ytick_55"/>
    <g id="ytick_56"/>
    <g id="ytick_57"/>
    <g id="text_18">
     <text style="fill: #262626; font: 9.6px 'DejaVu Sans'; text-anchor: middle" x="423.3645" y="191.004" transform="rotate(-90 423.3645 191.004)">Final-epoch partition loss</text>
    </g>
   </g>
   <g id="PatchCollection_1">
    <path d="M 513.334925 187.173354 
L 513.429039 187.173354 
L 513.429039 184.938126 
L 513.334925 184.938126 
z
" clip-path="url(#pe820c34961)" style="fill: #e3e4e7; stroke: #484848; stroke-width: 0.6"/>
    <path d="M 513.287868 184.938126 
L 513.476096 184.938126 
L 513.476096 181.662518 
L 513.287868 181.662518 
z
" clip-path="url(#pe820c34961)" style="fill: #dfe1e4; stroke: #484848; stroke-width: 0.6"/>
    <path d="M 513.193754 181.662518 
L 513.57021 181.662518 
L 513.57021 178.323737 
L 513.193754 178.323737 
z
" clip-path="url(#pe820c34961)" style="fill: #dbdde0; stroke: #484848; stroke-width: 0.6"/>
    <path d="M 513.005526 178.323737 
L 513.758439 178.323737 
L 513.758439 176.903209 
L 513.005526 176.903209 
z
" clip-path="url(#pe820c34961)" style="fill: #d6d8dc; stroke: #484848; stroke-width: 0.6"/>
    <path d="M 512.62907 176.903209 
L 514.134895 176.903209 
L 514.134895 174.960438 
L 512.62907 174.960438 
z
" clip-path="url(#pe820c34961)" style="fill: #ced2d6; stroke: #484848; stroke-width: 0.6"/>
    <path d="M 511.876158 174.960438 
L 514.887807 174.960438 
L 514.887807 173.180569 
L 511.876158 173.180569 
z
" clip-path="url(#pe820c34961)" style="fill: #c6cad0; stroke: #484848; stroke-width: 0.6"/>
    <path d="M 510.370333 173.180569 
L 516.393632 173.180569 
L 516.393632 171.158934 
L 510.370333 171.158934 
z
" clip-path="url(#pe820c34961)" style="fill: #bbc0c7; stroke: #484848; stroke-width: 0.6"/>
    <path d="M 507.358684 171.158934 
L 519.405281 171.158934 
L 519.405281 168.715964 
L 507.358684 168.715964 
z
" clip-path="url(#pe820c34961)" style="fill: #acb3bb; stroke: #484848; stroke-width: 0.6"/>
    <path d="M 501.335386 168.715964 
L 525.428579 168.715964 
L 525.428579 166.143116 
L 501.335386 166.143116 
z
" clip-path="url(#pe820c34961)" style="fill: #9ba2ae; stroke: #484848; stroke-width: 0.6"/>
    <path d="M 489.288789 166.143116 
L 537.475175 166.143116 
L 537.475175 162.897328 
L 489.288789 162.897328 
z
" clip-path="url(#pe820c34961)" style="fill: #848e9c; stroke: #484848; stroke-width: 0.6"/>
    <path d="M 465.195596 162.897328 
L 561.568368 162.897328 
L 561.568368 137.358352 
L 465.195596 137.358352 
z
" clip-path="url(#pe820c34961)" style="fill: #697586; stroke: #484848; stroke-width: 0.6"/>
    <path d="M 489.288789 137.358352 
L 537.475175 137.358352 
L 537.475175 127.2208 
L 489.288789 127.2208 
z
" clip-path="url(#pe820c34961)" style="fill: #848e9c; stroke: #484848; stroke-width: 0.6"/>
    <path d="M 501.335386 127.2208 
L 525.428579 127.2208 
L 525.428579 117.133178 
L 501.335386 117.133178 
z
" clip-path="url(#pe820c34961)" style="fill: #9ba2ae; stroke: #484848; stroke-width: 0.6"/>
    <path d="M 507.358684 117.133178 
L 519.405281 117.133178 
L 519.405281 109.258676 
L 507.358684 109.258676 
z
" clip-path="url(#pe820c34961)" style="fill: #acb3bb; stroke: #484848; stroke-width: 0.6"/>
    <path d="M 510.370333 109.258676 
L 516.393632 109.258676 
L 516.393632 99.254013 
L 510.370333 99.254013 
z
" clip-path="url(#pe820c34961)" style="fill: #bbc0c7; stroke: #484848; stroke-width: 0.6"/>
    <path d="M 511.876158 99.254013 
L 514.887807 99.254013 
L 514.887807 89.718215 
L 511.876158 89.718215 
z
" clip-path="url(#pe820c34961)" style="fill: #c6cad0; stroke: #484848; stroke-width: 0.6"/>
    <path d="M 512.62907 89.718215 
L 514.134895 89.718215 
L 514.134895 86.191764 
L 512.62907 86.191764 
z
" clip-path="url(#pe820c34961)" style="fill: #ced2d6; stroke: #484848; stroke-width: 0.6"/>
    <path d="M 513.005526 86.191764 
L 513.758439 86.191764 
L 513.758439 85.636529 
L 513.005526 85.636529 
z
" clip-path="url(#pe820c34961)" style="fill: #d6d8dc; stroke: #484848; stroke-width: 0.6"/>
    <path d="M 513.193754 85.636529 
L 513.57021 85.636529 
L 513.57021 84.982197 
L 513.193754 84.982197 
z
" clip-path="url(#pe820c34961)" style="fill: #dbdde0; stroke: #484848; stroke-width: 0.6"/>
    <path d="M 513.287868 84.982197 
L 513.476096 84.982197 
L 513.476096 84.262791 
L 513.287868 84.262791 
z
" clip-path="url(#pe820c34961)" style="fill: #dfe1e4; stroke: #484848; stroke-width: 0.6"/>
    <path d="M 513.334925 84.262791 
L 513.429039 84.262791 
L 513.429039 83.647636 
L 513.334925 83.647636 
z
" clip-path="url(#pe820c34961)" style="fill: #e3e4e7; stroke: #484848; stroke-width: 0.6"/>
   </g>
   <g id="PatchCollection_2">
    <path d="M 633.80089 297.713978 
L 633.895004 297.713978 
L 633.895004 296.602462 
L 633.80089 296.602462 
z
" clip-path="url(#pe820c34961)" style="fill: #dfe4ef; stroke: #484848; stroke-width: 0.6"/>
    <path d="M 633.753833 296.602462 
L 633.942061 296.602462 
L 633.942061 296.252515 
L 633.753833 296.252515 
z
" clip-path="url(#pe820c34961)" style="fill: #dae0ee; stroke: #484848; stroke-width: 0.6"/>
    <path d="M 633.659719 296.252515 
L 634.036175 296.252515 
L 634.036175 295.60573 
L 633.659719 295.60573 
z
" clip-path="url(#pe820c34961)" style="fill: #d4dced; stroke: #484848; stroke-width: 0.6"/>
    <path d="M 633.471491 295.60573 
L 634.224403 295.60573 
L 634.224403 294.686992 
L 633.471491 294.686992 
z
" clip-path="url(#pe820c34961)" style="fill: #cdd7ec; stroke: #484848; stroke-width: 0.6"/>
    <path d="M 633.095035 294.686992 
L 634.60086 294.686992 
L 634.60086 293.797507 
L 633.095035 293.797507 
z
" clip-path="url(#pe820c34961)" style="fill: #c3cfea; stroke: #484848; stroke-width: 0.6"/>
    <path d="M 632.342123 293.797507 
L 635.353772 293.797507 
L 635.353772 292.547348 
L 632.342123 292.547348 
z
" clip-path="url(#pe820c34961)" style="fill: #b8c7e8; stroke: #484848; stroke-width: 0.6"/>
    <path d="M 630.836298 292.547348 
L 636.859596 292.547348 
L 636.859596 291.376112 
L 630.836298 291.376112 
z
" clip-path="url(#pe820c34961)" style="fill: #a9bce6; stroke: #484848; stroke-width: 0.6"/>
    <path d="M 627.824649 291.376112 
L 639.871246 291.376112 
L 639.871246 290.104255 
L 627.824649 290.104255 
z
" clip-path="url(#pe820c34961)" style="fill: #97aee2; stroke: #484848; stroke-width: 0.6"/>
    <path d="M 621.801351 290.104255 
L 645.894544 290.104255 
L 645.894544 288.626357 
L 621.801351 288.626357 
z
" clip-path="url(#pe820c34961)" style="fill: #809dde; stroke: #484848; stroke-width: 0.6"/>
    <path d="M 609.754754 288.626357 
L 657.94114 288.626357 
L 657.94114 286.812181 
L 609.754754 286.812181 
z
" clip-path="url(#pe820c34961)" style="fill: #6287d9; stroke: #484848; stroke-width: 0.6"/>
    <path d="M 585.661561 286.812181 
L 682.034333 286.812181 
L 682.034333 268.02186 
L 585.661561 268.02186 
z
" clip-path="url(#pe820c34961)" style="fill: #3e6cd2; stroke: #484848; stroke-width: 0.6"/>
    <path d="M 609.754754 268.02186 
L 657.94114 268.02186 
L 657.94114 259.033682 
L 609.754754 259.033682 
z
" clip-path="url(#pe820c34961)" style="fill: #6287d9; stroke: #484848; stroke-width: 0.6"/>
    <path d="M 621.801351 259.033682 
L 645.894544 259.033682 
L 645.894544 252.499531 
L 621.801351 252.499531 
z
" clip-path="url(#pe820c34961)" style="fill: #809dde; stroke: #484848; stroke-width: 0.6"/>
    <path d="M 627.824649 252.499531 
L 639.871246 252.499531 
L 639.871246 243.896339 
L 627.824649 243.896339 
z
" clip-path="url(#pe820c34961)" style="fill: #97aee2; stroke: #484848; stroke-width: 0.6"/>
    <path d="M 630.836298 243.896339 
L 636.859596 243.896339 
L 636.859596 234.66143 
L 630.836298 234.66143 
z
" clip-path="url(#pe820c34961)" style="fill: #a9bce6; stroke: #484848; stroke-width: 0.6"/>
    <path d="M 632.342123 234.66143 
L 635.353772 234.66143 
L 635.353772 228.359776 
L 632.342123 228.359776 
z
" clip-path="url(#pe820c34961)" style="fill: #b8c7e8; stroke: #484848; stroke-width: 0.6"/>
    <path d="M 633.095035 228.359776 
L 634.60086 228.359776 
L 634.60086 225.302252 
L 633.095035 225.302252 
z
" clip-path="url(#pe820c34961)" style="fill: #c3cfea; stroke: #484848; stroke-width: 0.6"/>
    <path d="M 633.471491 225.302252 
L 634.224403 225.302252 
L 634.224403 225.15687 
L 633.471491 225.15687 
z
" clip-path="url(#pe820c34961)" style="fill: #cdd7ec; stroke: #484848; stroke-width: 0.6"/>
    <path d="M 633.659719 225.15687 
L 634.036175 225.15687 
L 634.036175 225.048535 
L 633.659719 225.048535 
z
" clip-path="url(#pe820c34961)" style="fill: #d4dced; stroke: #484848; stroke-width: 0.6"/>
    <path d="M 633.753833 225.048535 
L 633.942061 225.048535 
L 633.942061 224.942288 
L 633.753833 224.942288 
z
" clip-path="url(#pe820c34961)" style="fill: #dae0ee; stroke: #484848; stroke-width: 0.6"/>
    <path d="M 633.80089 224.942288 
L 633.895004 224.942288 
L 633.895004 224.766969 
L 633.80089 224.766969 
z
" clip-path="url(#pe820c34961)" style="fill: #dfe4ef; stroke: #484848; stroke-width: 0.6"/>
   </g>
   <g id="PatchCollection_3">
    <path d="M 754.266855 298.360364 
L 754.360969 298.360364 
L 754.360969 297.482219 
L 754.266855 297.482219 
z
" clip-path="url(#pe820c34961)" style="fill: #e6e1f0; stroke: #484848; stroke-width: 0.6"/>
    <path d="M 754.219798 297.482219 
L 754.408026 297.482219 
L 754.408026 296.902566 
L 754.219798 296.902566 
z
" clip-path="url(#pe820c34961)" style="fill: #e3dcef; stroke: #484848; stroke-width: 0.6"/>
    <path d="M 754.125684 296.902566 
L 754.50214 296.902566 
L 754.50214 296.381601 
L 754.125684 296.381601 
z
" clip-path="url(#pe820c34961)" style="fill: #dfd7ee; stroke: #484848; stroke-width: 0.6"/>
    <path d="M 753.937456 296.381601 
L 754.690368 296.381601 
L 754.690368 295.814364 
L 753.937456 295.814364 
z
" clip-path="url(#pe820c34961)" style="fill: #dbd1ed; stroke: #484848; stroke-width: 0.6"/>
    <path d="M 753.561 295.814364 
L 755.066824 295.814364 
L 755.066824 295.016481 
L 753.561 295.016481 
z
" clip-path="url(#pe820c34961)" style="fill: #d5c8eb; stroke: #484848; stroke-width: 0.6"/>
    <path d="M 752.808088 295.016481 
L 755.819737 295.016481 
L 755.819737 294.264794 
L 752.808088 294.264794 
z
" clip-path="url(#pe820c34961)" style="fill: #cebeea; stroke: #484848; stroke-width: 0.6"/>
    <path d="M 751.302263 294.264794 
L 757.325561 294.264794 
L 757.325561 293.214773 
L 751.302263 293.214773 
z
" clip-path="url(#pe820c34961)" style="fill: #c5b1e7; stroke: #484848; stroke-width: 0.6"/>
    <path d="M 748.290614 293.214773 
L 760.33721 293.214773 
L 760.33721 291.935968 
L 748.290614 291.935968 
z
" clip-path="url(#pe820c34961)" style="fill: #b9a0e4; stroke: #484848; stroke-width: 0.6"/>
    <path d="M 742.267316 291.935968 
L 766.360509 291.935968 
L 766.360509 290.355847 
L 742.267316 290.355847 
z
" clip-path="url(#pe820c34961)" style="fill: #ab8be1; stroke: #484848; stroke-width: 0.6"/>
    <path d="M 730.220719 290.355847 
L 778.407105 290.355847 
L 778.407105 288.320061 
L 730.220719 288.320061 
z
" clip-path="url(#pe820c34961)" style="fill: #9871dc; stroke: #484848; stroke-width: 0.6"/>
    <path d="M 706.127526 288.320061 
L 802.500298 288.320061 
L 802.500298 268.775771 
L 706.127526 268.775771 
z
" clip-path="url(#pe820c34961)" style="fill: #8250d7; stroke: #484848; stroke-width: 0.6"/>
    <path d="M 730.220719 268.775771 
L 778.407105 268.775771 
L 778.407105 259.690275 
L 730.220719 259.690275 
z
" clip-path="url(#pe820c34961)" style="fill: #9871dc; stroke: #484848; stroke-width: 0.6"/>
    <path d="M 742.267316 259.690275 
L 766.360509 259.690275 
L 766.360509 253.126136 
L 742.267316 253.126136 
z
" clip-path="url(#pe820c34961)" style="fill: #ab8be1; stroke: #484848; stroke-width: 0.6"/>
    <path d="M 748.290614 253.126136 
L 760.33721 253.126136 
L 760.33721 243.968352 
L 748.290614 243.968352 
z
" clip-path="url(#pe820c34961)" style="fill: #b9a0e4; stroke: #484848; stroke-width: 0.6"/>
    <path d="M 751.302263 243.968352 
L 757.325561 243.968352 
L 757.325561 234.439376 
L 751.302263 234.439376 
z
" clip-path="url(#pe820c34961)" style="fill: #c5b1e7; stroke: #484848; stroke-width: 0.6"/>
    <path d="M 752.808088 234.439376 
L 755.819737 234.439376 
L 755.819737 227.803346 
L 752.808088 227.803346 
z
" clip-path="url(#pe820c34961)" style="fill: #cebeea; stroke: #484848; stroke-width: 0.6"/>
    <path d="M 753.561 227.803346 
L 755.066824 227.803346 
L 755.066824 225.284432 
L 753.561 225.284432 
z
" clip-path="url(#pe820c34961)" style="fill: #d5c8eb; stroke: #484848; stroke-width: 0.6"/>
    <path d="M 753.937456 225.284432 
L 754.690368 225.284432 
L 754.690368 225.162886 
L 753.937456 225.162886 
z
" clip-path="url(#pe820c34961)" style="fill: #dbd1ed; stroke: #484848; stroke-width: 0.6"/>
    <path d="M 754.125684 225.162886 
L 754.50214 225.162886 
L 754.50214 225.084784 
L 754.125684 225.084784 
z
" clip-path="url(#pe820c34961)" style="fill: #dfd7ee; stroke: #484848; stroke-width: 0.6"/>
    <path d="M 754.219798 225.084784 
L 754.408026 225.084784 
L 754.408026 224.872277 
L 754.219798 224.872277 
z
" clip-path="url(#pe820c34961)" style="fill: #e3dcef; stroke: #484848; stroke-width: 0.6"/>
    <path d="M 754.266855 224.872277 
L 754.360969 224.872277 
L 754.360969 224.49756 
L 754.266855 224.49756 
z
" clip-path="url(#pe820c34961)" style="fill: #e6e1f0; stroke: #484848; stroke-width: 0.6"/>
   </g>
   <g id="line2d_16">
    <path d="M 465.195596 154.689902 
L 561.568368 154.689902 
" clip-path="url(#pe820c34961)" style="fill: none; stroke: #484848; stroke-width: 0.75"/>
   </g>
   <g id="line2d_17">
    <path d="M 585.661561 282.507439 
L 682.034333 282.507439 
" clip-path="url(#pe820c34961)" style="fill: none; stroke: #484848; stroke-width: 0.75"/>
   </g>
   <g id="line2d_18">
    <path d="M 706.127526 283.647945 
L 802.500298 283.647945 
" clip-path="url(#pe820c34961)" style="fill: none; stroke: #484848; stroke-width: 0.75"/>
   </g>
   <g id="patch_6">
    <path d="M 453.149 309.096 
L 453.149 72.912 
" style="fill: none; stroke: #cbd5e1; stroke-linejoin: miter; stroke-linecap: square"/>
   </g>
   <g id="patch_7">
    <path d="M 453.149 309.096 
L 814.546895 309.096 
" style="fill: none; stroke: #cbd5e1; stroke-linejoin: miter; stroke-linecap: square"/>
   </g>
  </g>
  <g id="text_19">
   <text style="fill: #0f172a; font: 700 14px 'DejaVu Sans'; text-anchor: start" x="58.906895" y="17.837812" transform="rotate(-0 58.906895 17.837812)">PyTorch-BigGraph training behavior on SemOpenAlex</text>
  </g>
  <g id="text_20">
   <text style="fill: #475569; font: 8.7px 'DejaVu Sans'; text-anchor: start" x="58.906895" y="26.604" transform="rotate(-0 58.906895 26.604)">Weighted epoch means and 10–90% partition bands use all 16,384 partition statistics per model and epoch on the 9.62B-triple graph.</text>
  </g>
 </g>
 <defs>
  <clipPath id="p2ab9fcd018">
   <rect x="44.279" y="72.912" width="361.397895" height="236.184"/>
  </clipPath>
  <clipPath id="pe820c34961">
   <rect x="453.149" y="72.912" width="361.397895" height="236.184"/>
  </clipPath>
 </defs>
</svg>
