<?xml version="1.0" encoding="utf-8" standalone="no"?>
<!DOCTYPE svg PUBLIC "-//W3C//DTD SVG 1.1//EN"
  "http://www.w3.org/Graphics/SVG/1.1/DTD/svg11.dtd">
<svg xmlns:xlink="http://www.w3.org/1999/xlink" width="857.88pt" height="527.94pt" viewBox="0 0 857.88 527.94" xmlns="http://www.w3.org/2000/svg" version="1.1">
 <metadata>
  <rdf:RDF xmlns:dc="http://purl.org/dc/elements/1.1/" xmlns:cc="http://creativecommons.org/ns#" xmlns:rdf="http://www.w3.org/1999/02/22-rdf-syntax-ns#">
   <cc:Work>
    <dc:type rdf:resource="http://purl.org/dc/dcmitype/StillImage"/>
    <dc:date>2026-07-03T00:06:19.264329</dc:date>
    <dc:format>image/svg+xml</dc:format>
    <dc:creator>
     <cc:Agent>
      <dc:title>Matplotlib v3.9.4, https://matplotlib.org/</dc:title>
     </cc:Agent>
    </dc:creator>
   </cc:Work>
  </rdf:RDF>
 </metadata>
 <defs>
  <style type="text/css">*{stroke-linejoin: round; stroke-linecap: butt}</style>
 </defs>
 <g id="figure_1">
  <g id="patch_1">
   <path d="M 0 527.94 
L 857.88 527.94 
L 857.88 0 
L 0 0 
z
" style="fill: #ffffff"/>
  </g>
  <g id="axes_1">
   <g id="patch_2">
    <path d="M 40.9392 229.6494 
L 277.1136 229.6494 
Q 289.7658 229.6494 289.7658 226.494 
L 289.7658 154.9716 
Q 289.7658 151.8162 277.1136 151.8162 
L 40.9392 151.8162 
Q 28.287 151.8162 28.287 154.9716 
L 28.287 226.494 
Q 28.287 229.6494 40.9392 229.6494 
z
" clip-path="url(#p786821d59a)" style="fill: #2563eb; stroke: #ffffff; stroke-width: 1.2; stroke-linejoin: miter"/>
   </g>
   <g id="patch_3">
    <path d="M 580.7664 229.6494 
L 816.9408 229.6494 
Q 829.593 229.6494 829.593 226.494 
L 829.593 154.9716 
Q 829.593 151.8162 816.9408 151.8162 
L 580.7664 151.8162 
Q 568.1142 151.8162 568.1142 154.9716 
L 568.1142 226.494 
Q 568.1142 229.6494 580.7664 229.6494 
z
" clip-path="url(#p786821d59a)" style="fill: #16a34a; stroke: #ffffff; stroke-width: 1.2; stroke-linejoin: miter"/>
   </g>
   <g id="text_1">
    <text style="fill: #ffffff; font: 700 9px 'DejaVu Sans'; text-anchor: middle" x="159.0264" y="184.633549" transform="rotate(-0 159.0264 184.633549)">Nature and Conservation</text>
   </g>
   <g id="text_2">
    <text style="fill: #ffffff; font: 7.5px 'DejaVu Sans'; text-anchor: middle" x="159.0264" y="208.537259" transform="rotate(-0 159.0264 208.537259)">YAGO · Q96717772</text>
   </g>
   <g id="text_3">
    <text style="fill: #ffffff; font: 700 9px 'DejaVu Sans'; text-anchor: middle" x="698.8536" y="184.633549" transform="rotate(-0 698.8536 184.633549)">Nature and Conservation</text>
   </g>
   <g id="text_4">
    <text style="fill: #ffffff; font: 7.5px 'DejaVu Sans'; text-anchor: middle" x="698.8536" y="208.537259" transform="rotate(-0 698.8536 208.537259)">SemOpenAlex source · Q96717772</text>
   </g>
   <g id="patch_4">
    <path d="M 279.110584 190.7328 
Q 428.937361 190.7328 575.410035 190.7328 
" style="fill: none; stroke: #16a34a; stroke-width: 3; stroke-linecap: round"/>
    <path d="M 571.610035 188.8328 
L 575.410035 190.7328 
L 571.610035 192.6328 
" style="fill: none; stroke: #16a34a; stroke-width: 3; stroke-linecap: round"/>
   </g>
   <g id="text_5">
    <text style="fill: #16a34a; font: 700 10px 'DejaVu Sans'; text-anchor: middle" x="428.94" y="173.904" transform="rotate(-0 428.94 173.904)">predicted owl:sameAs</text>
   </g>
   <g id="text_6">
    <text style="fill: #16a34a; font: 700 10px 'DejaVu Sans'; text-anchor: middle" x="428.94" y="211.7688" transform="rotate(-0 428.94 211.7688)">QIDs AGREE</text>
   </g>
   <g id="text_7">
    <text style="fill: #475569; font: 8.5px 'DejaVu Sans'; text-anchor: middle" x="428.94" y="264.3588" transform="rotate(-0 428.94 264.3588)">embedding 1.000   ·   profile 1.000   ·   neighbor 0.637   ·   ABC 0.982</text>
   </g>
   <g id="text_8">
    <text style="fill: #16a34a; font: 700 11px 'DejaVu Sans'; text-anchor: start" x="40.9392" y="121.314" transform="rotate(-0 40.9392 121.314)">Externally confirmed</text>
   </g>
  </g>
  <g id="axes_2">
   <g id="patch_5">
    <path d="M 40.9392 450.2694 
L 277.1136 450.2694 
Q 289.7658 450.2694 289.7658 447.114 
L 289.7658 375.5916 
Q 289.7658 372.4362 277.1136 372.4362 
L 40.9392 372.4362 
Q 28.287 372.4362 28.287 375.5916 
L 28.287 447.114 
Q 28.287 450.2694 40.9392 450.2694 
z
" clip-path="url(#p2feb98b449)" style="fill: #2563eb; stroke: #ffffff; stroke-width: 1.2; stroke-linejoin: miter"/>
   </g>
   <g id="patch_6">
    <path d="M 580.7664 450.2694 
L 816.9408 450.2694 
Q 829.593 450.2694 829.593 447.114 
L 829.593 375.5916 
Q 829.593 372.4362 816.9408 372.4362 
L 580.7664 372.4362 
Q 568.1142 372.4362 568.1142 375.5916 
L 568.1142 447.114 
Q 568.1142 450.2694 580.7664 450.2694 
z
" clip-path="url(#p2feb98b449)" style="fill: #16a34a; stroke: #ffffff; stroke-width: 1.2; stroke-linejoin: miter"/>
   </g>
   <g id="text_9">
    <text style="fill: #ffffff; font: 700 9px 'DejaVu Sans'; text-anchor: middle" x="159.0264" y="405.253549" transform="rotate(-0 159.0264 405.253549)">scientific reports</text>
   </g>
   <g id="text_10">
    <text style="fill: #ffffff; font: 7.5px 'DejaVu Sans'; text-anchor: middle" x="159.0264" y="429.157259" transform="rotate(-0 159.0264 429.157259)">YAGO · Q115932478</text>
   </g>
   <g id="text_11">
    <text style="fill: #ffffff; font: 700 9px 'DejaVu Sans'; text-anchor: middle" x="698.8536" y="405.253549" transform="rotate(-0 698.8536 405.253549)">Scientific Reports</text>
   </g>
   <g id="text_12">
    <text style="fill: #ffffff; font: 7.5px 'DejaVu Sans'; text-anchor: middle" x="698.8536" y="429.157259" transform="rotate(-0 698.8536 429.157259)">SemOpenAlex source · Q2261792</text>
   </g>
   <g id="patch_7">
    <path d="M 279.110584 411.3528 
Q 428.937361 411.3528 575.410035 411.3528 
" style="fill: none; stroke: #dc2626; stroke-width: 3; stroke-linecap: round"/>
    <path d="M 571.610035 409.4528 
L 575.410035 411.3528 
L 571.610035 413.2528 
" style="fill: none; stroke: #dc2626; stroke-width: 3; stroke-linecap: round"/>
   </g>
   <g id="text_13">
    <text style="fill: #dc2626; font: 700 10px 'DejaVu Sans'; text-anchor: middle" x="428.94" y="394.524" transform="rotate(-0 428.94 394.524)">predicted owl:sameAs</text>
   </g>
   <g id="text_14">
    <text style="fill: #dc2626; font: 700 10px 'DejaVu Sans'; text-anchor: middle" x="428.94" y="432.3888" transform="rotate(-0 428.94 432.3888)">QIDs DISAGREE</text>
   </g>
   <g id="text_15">
    <text style="fill: #475569; font: 8.5px 'DejaVu Sans'; text-anchor: middle" x="428.94" y="484.9788" transform="rotate(-0 428.94 484.9788)">embedding 0.373   ·   profile 0.337   ·   neighbor 0.018   ·   ABC 0.343</text>
   </g>
   <g id="text_16">
    <text style="fill: #dc2626; font: 700 11px 'DejaVu Sans'; text-anchor: start" x="40.9392" y="341.934" transform="rotate(-0 40.9392 341.934)">Externally contradicted</text>
   </g>
  </g>
  <g id="text_17">
   <text style="fill: #0f172a; font: 700 14px 'DejaVu Sans'; text-anchor: start" x="61.74" y="17.837812" transform="rotate(-0 61.74 17.837812)">Two real alignments show why aggregate scores need external validation</text>
  </g>
  <g id="text_18">
   <text style="fill: #475569; font: 8.7px 'DejaVu Sans'; text-anchor: start" x="61.74" y="36.9" transform="rotate(-0 61.74 36.9)">Both pairs come directly from the final A+B+C file; Wikidata QIDs provide independent identity evidence for these examples.</text>
  </g>
 </g>
 <defs>
  <clipPath id="p786821d59a">
   <rect x="7.2" y="89.76" width="843.48" height="210.36"/>
  </clipPath>
  <clipPath id="p2feb98b449">
   <rect x="7.2" y="310.38" width="843.48" height="210.36"/>
  </clipPath>
 </defs>
</svg>
