<?xml version="1.0" encoding="utf-8" standalone="no"?>
<!DOCTYPE svg PUBLIC "-//W3C//DTD SVG 1.1//EN"
  "http://www.w3.org/Graphics/SVG/1.1/DTD/svg11.dtd">
<svg xmlns:xlink="http://www.w3.org/1999/xlink" width="1001.88pt" height="582.732pt" viewBox="0 0 1001.88 582.732" xmlns="http://www.w3.org/2000/svg" version="1.1">
 <metadata>
  <rdf:RDF xmlns:dc="http://purl.org/dc/elements/1.1/" xmlns:cc="http://creativecommons.org/ns#" xmlns:rdf="http://www.w3.org/1999/02/22-rdf-syntax-ns#">
   <cc:Work>
    <dc:type rdf:resource="http://purl.org/dc/dcmitype/StillImage"/>
    <dc:date>2026-07-03T00:01:47.169420</dc:date>
    <dc:format>image/svg+xml</dc:format>
    <dc:creator>
     <cc:Agent>
      <dc:title>Matplotlib v3.9.4, https://matplotlib.org/</dc:title>
     </cc:Agent>
    </dc:creator>
   </cc:Work>
  </rdf:RDF>
 </metadata>
 <defs>
  <style type="text/css">*{stroke-linejoin: round; stroke-linecap: butt}</style>
 </defs>
 <g id="figure_1">
  <g id="patch_1">
   <path d="M 0 582.732 
L 1001.88 582.732 
L 1001.88 0 
L 0 0 
z
" style="fill: #ffffff"/>
  </g>
  <g id="axes_1">
   <g id="patch_2">
    <path d="M 126.468189 168.330584 
Q 181.103954 169.095373 234.878427 159.402117 
" clip-path="url(#pea538547b5)" style="fill: none; stroke: #cbd5e1; stroke-linecap: round"/>
   </g>
   <g id="patch_3">
    <path d="M 326.786399 159.237988 
Q 366.326206 163.002523 404.530412 159.365543 
" clip-path="url(#pea538547b5)" style="fill: none; opacity: 0.65; stroke: #2563eb; stroke-width: 1.2; stroke-linecap: round"/>
    <path d="M 401.193182 158.076008 
L 404.530412 159.365543 
L 401.496446 161.261605 
z
" clip-path="url(#pea538547b5)" style="fill: #2563eb; opacity: 0.65; stroke: #2563eb; stroke-width: 1.2; stroke-linecap: round"/>
   </g>
   <g id="patch_4">
    <path d="M 236.8467 170.150118 
L 324.7965 170.150118 
Q 327.72816 170.150118 327.72816 167.373529 
L 327.72816 150.714 
Q 327.72816 147.937412 324.7965 147.937412 
L 236.8467 147.937412 
Q 233.91504 147.937412 233.91504 150.714 
L 233.91504 167.373529 
Q 233.91504 170.150118 236.8467 170.150118 
z
" clip-path="url(#pea538547b5)" style="fill: #f8fafc; stroke: #2563eb; stroke-width: 0.8; stroke-linejoin: miter"/>
   </g>
   <g id="patch_5">
    <path d="M 126.382134 238.067584 
Q 182.877647 221.107756 235.075659 193.635186 
" clip-path="url(#pea538547b5)" style="fill: none; stroke: #cbd5e1; stroke-linecap: round"/>
   </g>
   <g id="patch_6">
    <path d="M 326.503418 193.746112 
Q 364.396152 216.871731 404.729917 231.922577 
" clip-path="url(#pea538547b5)" style="fill: none; opacity: 0.65; stroke: #2563eb; stroke-width: 1.2; stroke-linecap: round"/>
    <path d="M 402.291227 229.304794 
L 404.729917 231.922577 
L 401.172476 232.302859 
z
" clip-path="url(#pea538547b5)" style="fill: #2563eb; opacity: 0.65; stroke: #2563eb; stroke-width: 1.2; stroke-linecap: round"/>
   </g>
   <g id="patch_7">
    <path d="M 236.8467 203.805733 
L 324.7965 203.805733 
Q 327.72816 203.805733 327.72816 201.029144 
L 327.72816 184.369615 
Q 327.72816 181.593027 324.7965 181.593027 
L 236.8467 181.593027 
Q 233.91504 181.593027 233.91504 184.369615 
L 233.91504 201.029144 
Q 233.91504 203.805733 236.8467 203.805733 
z
" clip-path="url(#pea538547b5)" style="fill: #f8fafc; stroke: #2563eb; stroke-width: 0.8; stroke-linejoin: miter"/>
   </g>
   <g id="patch_8">
    <path d="M 126.184087 307.959867 
Q 184.66944 273.129745 235.357246 227.693927 
" clip-path="url(#pea538547b5)" style="fill: none; stroke: #cbd5e1; stroke-linecap: round"/>
   </g>
   <g id="patch_9">
    <path d="M 326.468496 225.251888 
Q 369.5729 196.699141 405.481626 161.387922 
" clip-path="url(#pea538547b5)" style="fill: none; opacity: 0.65; stroke: #2563eb; stroke-width: 1.2; stroke-linecap: round"/>
    <path d="M 402.078142 162.490779 
L 405.481626 161.387922 
L 404.321821 164.772424 
z
" clip-path="url(#pea538547b5)" style="fill: #2563eb; opacity: 0.65; stroke: #2563eb; stroke-width: 1.2; stroke-linecap: round"/>
   </g>
   <g id="patch_10">
    <path d="M 236.8467 237.461348 
L 324.7965 237.461348 
Q 327.72816 237.461348 327.72816 234.684759 
L 327.72816 218.02523 
Q 327.72816 215.248642 324.7965 215.248642 
L 236.8467 215.248642 
Q 233.91504 215.248642 233.91504 218.02523 
L 233.91504 234.684759 
Q 233.91504 237.461348 236.8467 237.461348 
z
" clip-path="url(#pea538547b5)" style="fill: #f8fafc; stroke: #2563eb; stroke-width: 0.8; stroke-linejoin: miter"/>
   </g>
   <g id="patch_11">
    <path d="M 125.972631 378.007129 
Q 186.477876 325.150541 235.62454 261.59502 
" clip-path="url(#pea538547b5)" style="fill: none; stroke: #cbd5e1; stroke-linecap: round"/>
   </g>
   <g id="patch_12">
    <path d="M 326.431676 261.162236 
Q 364.069253 287.553644 404.809317 305.768909 
" clip-path="url(#pea538547b5)" style="fill: none; opacity: 0.65; stroke: #2563eb; stroke-width: 1.2; stroke-linecap: round"/>
    <path d="M 402.541087 303.002118 
L 404.809317 305.768909 
L 401.234946 305.923418 
z
" clip-path="url(#pea538547b5)" style="fill: #2563eb; opacity: 0.65; stroke: #2563eb; stroke-width: 1.2; stroke-linecap: round"/>
   </g>
   <g id="patch_13">
    <path d="M 236.8467 271.116963 
L 324.7965 271.116963 
Q 327.72816 271.116963 327.72816 268.340374 
L 327.72816 251.680845 
Q 327.72816 248.904257 324.7965 248.904257 
L 236.8467 248.904257 
Q 233.91504 248.904257 233.91504 251.680845 
L 233.91504 268.340374 
Q 233.91504 271.116963 236.8467 271.116963 
z
" clip-path="url(#pea538547b5)" style="fill: #f8fafc; stroke: #2563eb; stroke-width: 0.8; stroke-linejoin: miter"/>
   </g>
   <g id="patch_14">
    <path d="M 125.790687 448.15902 
Q 188.297361 377.165686 235.843931 295.394864 
" clip-path="url(#pea538547b5)" style="fill: none; stroke: #cbd5e1; stroke-linecap: round"/>
   </g>
   <g id="patch_15">
    <path d="M 326.521285 292.65011 
Q 369.242964 267.371077 405.36357 235.307461 
" clip-path="url(#pea538547b5)" style="fill: none; opacity: 0.65; stroke: #2563eb; stroke-width: 1.2; stroke-linecap: round"/>
    <path d="M 401.908252 236.23524 
L 405.36357 235.307461 
L 404.032602 238.628384 
z
" clip-path="url(#pea538547b5)" style="fill: #2563eb; opacity: 0.65; stroke: #2563eb; stroke-width: 1.2; stroke-linecap: round"/>
   </g>
   <g id="patch_16">
    <path d="M 236.8467 304.772578 
L 324.7965 304.772578 
Q 327.72816 304.772578 327.72816 301.995989 
L 327.72816 285.33646 
Q 327.72816 282.559872 324.7965 282.559872 
L 236.8467 282.559872 
Q 233.91504 282.559872 233.91504 285.33646 
L 233.91504 301.995989 
Q 233.91504 304.772578 236.8467 304.772578 
z
" clip-path="url(#pea538547b5)" style="fill: #f8fafc; stroke: #2563eb; stroke-width: 0.8; stroke-linejoin: miter"/>
   </g>
   <g id="patch_17">
    <path d="M 125.640008 518.379732 
Q 190.119287 429.181637 236.012973 329.143434 
" clip-path="url(#pea538547b5)" style="fill: none; stroke: #cbd5e1; stroke-linecap: round"/>
   </g>
   <g id="patch_18">
    <path d="M 326.360883 328.568492 
Q 363.741466 358.235387 404.891982 379.63197 
" clip-path="url(#pea538547b5)" style="fill: none; opacity: 0.65; stroke: #2563eb; stroke-width: 1.2; stroke-linecap: round"/>
    <path d="M 402.790959 376.736162 
L 404.891982 379.63197 
L 401.314722 379.575303 
z
" clip-path="url(#pea538547b5)" style="fill: #2563eb; opacity: 0.65; stroke: #2563eb; stroke-width: 1.2; stroke-linecap: round"/>
   </g>
   <g id="patch_19">
    <path d="M 236.8467 338.428193 
L 324.7965 338.428193 
Q 327.72816 338.428193 327.72816 335.651604 
L 327.72816 318.992075 
Q 327.72816 316.215487 324.7965 316.215487 
L 236.8467 316.215487 
Q 233.91504 316.215487 233.91504 318.992075 
L 233.91504 335.651604 
Q 233.91504 338.428193 236.8467 338.428193 
z
" clip-path="url(#pea538547b5)" style="fill: #f8fafc; stroke: #2563eb; stroke-width: 0.8; stroke-linejoin: miter"/>
   </g>
   <g id="patch_20">
    <path d="M 125.299094 170.118401 
Q 171.192571 270.156726 235.671641 359.354943 
" clip-path="url(#pea538547b5)" style="fill: none; stroke: #cbd5e1; stroke-linecap: round"/>
   </g>
   <g id="patch_21">
    <path d="M 325.965222 362.599496 
Q 361.763848 412.119564 405.418647 452.934729 
" clip-path="url(#pea538547b5)" style="fill: none; opacity: 0.65; stroke: #2563eb; stroke-width: 1.2; stroke-linecap: round"/>
    <path d="M 404.17388 449.580545 
L 405.418647 452.934729 
L 401.988439 451.918033 
z
" clip-path="url(#pea538547b5)" style="fill: #2563eb; opacity: 0.65; stroke: #2563eb; stroke-width: 1.2; stroke-linecap: round"/>
   </g>
   <g id="patch_22">
    <path d="M 236.8467 372.083807 
L 324.7965 372.083807 
Q 327.72816 372.083807 327.72816 369.307219 
L 327.72816 352.64769 
Q 327.72816 349.871102 324.7965 349.871102 
L 236.8467 349.871102 
Q 233.91504 349.871102 233.91504 352.64769 
L 233.91504 369.307219 
Q 233.91504 372.083807 236.8467 372.083807 
z
" clip-path="url(#pea538547b5)" style="fill: #f8fafc; stroke: #2563eb; stroke-width: 0.8; stroke-linejoin: miter"/>
   </g>
   <g id="patch_23">
    <path d="M 125.470794 240.370729 
Q 173.01762 322.141367 235.52455 393.134517 
" clip-path="url(#pea538547b5)" style="fill: none; stroke: #cbd5e1; stroke-linecap: round"/>
   </g>
   <g id="patch_24">
    <path d="M 326.291042 395.964878 
Q 363.4151 428.919024 404.982226 453.514708 
" clip-path="url(#pea538547b5)" style="fill: none; opacity: 0.65; stroke: #2563eb; stroke-width: 1.2; stroke-linecap: round"/>
    <path d="M 403.043012 450.508141 
L 404.982226 453.514708 
L 401.413443 453.262139 
z
" clip-path="url(#pea538547b5)" style="fill: #2563eb; opacity: 0.65; stroke: #2563eb; stroke-width: 1.2; stroke-linecap: round"/>
   </g>
   <g id="patch_25">
    <path d="M 236.8467 405.739422 
L 324.7965 405.739422 
Q 327.72816 405.739422 327.72816 402.962834 
L 327.72816 386.303305 
Q 327.72816 383.526717 324.7965 383.526717 
L 236.8467 383.526717 
Q 233.91504 383.526717 233.91504 386.303305 
L 233.91504 402.962834 
Q 233.91504 405.739422 236.8467 405.739422 
z
" clip-path="url(#pea538547b5)" style="fill: #f8fafc; stroke: #2563eb; stroke-width: 0.8; stroke-linejoin: miter"/>
   </g>
   <g id="patch_26">
    <path d="M 125.686681 310.561509 
Q 174.833128 374.117235 235.338155 426.974027 
" clip-path="url(#pea538547b5)" style="fill: none; stroke: #cbd5e1; stroke-linecap: round"/>
   </g>
   <g id="patch_27">
    <path d="M 326.624002 427.476108 
Q 368.588785 408.713098 405.127796 383.09183 
" clip-path="url(#pea538547b5)" style="fill: none; opacity: 0.65; stroke: #2563eb; stroke-width: 1.2; stroke-linecap: round"/>
    <path d="M 401.589139 383.618994 
L 405.127796 383.09183 
L 403.426333 386.239055 
z
" clip-path="url(#pea538547b5)" style="fill: #2563eb; opacity: 0.65; stroke: #2563eb; stroke-width: 1.2; stroke-linecap: round"/>
   </g>
   <g id="patch_28">
    <path d="M 236.8467 439.395037 
L 324.7965 439.395037 
Q 327.72816 439.395037 327.72816 436.618449 
L 327.72816 419.95892 
Q 327.72816 417.182332 324.7965 417.182332 
L 236.8467 417.182332 
Q 233.91504 417.182332 233.91504 419.95892 
L 233.91504 436.618449 
Q 233.91504 439.395037 236.8467 439.395037 
z
" clip-path="url(#pea538547b5)" style="fill: #f8fafc; stroke: #2563eb; stroke-width: 0.8; stroke-linejoin: miter"/>
   </g>
   <g id="patch_29">
    <path d="M 125.951935 380.655184 
Q 176.63944 426.091412 235.124492 460.921945 
" clip-path="url(#pea538547b5)" style="fill: none; stroke: #cbd5e1; stroke-linecap: round"/>
   </g>
   <g id="patch_30">
    <path d="M 325.911746 460.282213 
Q 373.895998 388.59589 406.576247 310.213806 
" clip-path="url(#pea538547b5)" style="fill: none; opacity: 0.65; stroke: #2563eb; stroke-width: 1.2; stroke-linecap: round"/>
    <path d="M 403.86802 312.551648 
L 406.576247 310.213806 
L 406.821584 313.783093 
z
" clip-path="url(#pea538547b5)" style="fill: #2563eb; opacity: 0.65; stroke: #2563eb; stroke-width: 1.2; stroke-linecap: round"/>
   </g>
   <g id="patch_31">
    <path d="M 236.8467 473.050652 
L 324.7965 473.050652 
Q 327.72816 473.050652 327.72816 470.274064 
L 327.72816 453.614535 
Q 327.72816 450.837947 324.7965 450.837947 
L 236.8467 450.837947 
Q 233.91504 450.837947 233.91504 453.614535 
L 233.91504 470.274064 
Q 233.91504 473.050652 236.8467 473.050652 
z
" clip-path="url(#pea538547b5)" style="fill: #f8fafc; stroke: #2563eb; stroke-width: 0.8; stroke-linejoin: miter"/>
   </g>
   <g id="patch_32">
    <path d="M 126.234029 450.594011 
Q 178.431901 478.066924 234.927273 495.027095 
" clip-path="url(#pea538547b5)" style="fill: none; stroke: #cbd5e1; stroke-linecap: round"/>
   </g>
   <g id="patch_33">
    <path d="M 326.566362 496.526806 
Q 364.716789 516.399774 404.654704 528.304624 
" clip-path="url(#pea538547b5)" style="fill: none; opacity: 0.65; stroke: #2563eb; stroke-width: 1.2; stroke-linecap: round"/>
    <path d="M 402.045108 525.857174 
L 404.654704 528.304624 
L 401.130987 528.923831 
z
" clip-path="url(#pea538547b5)" style="fill: #2563eb; opacity: 0.65; stroke: #2563eb; stroke-width: 1.2; stroke-linecap: round"/>
   </g>
   <g id="patch_34">
    <path d="M 236.8467 506.706267 
L 324.7965 506.706267 
Q 327.72816 506.706267 327.72816 503.929679 
L 327.72816 487.27015 
Q 327.72816 484.493561 324.7965 484.493561 
L 236.8467 484.493561 
Q 233.91504 484.493561 233.91504 487.27015 
L 233.91504 503.929679 
Q 233.91504 506.706267 236.8467 506.706267 
z
" clip-path="url(#pea538547b5)" style="fill: #f8fafc; stroke: #2563eb; stroke-width: 0.8; stroke-linejoin: miter"/>
   </g>
   <g id="patch_35">
    <path d="M 126.436059 520.358837 
Q 180.210543 530.051959 234.84632 529.287035 
" clip-path="url(#pea538547b5)" style="fill: none; stroke: #cbd5e1; stroke-linecap: round"/>
   </g>
   <g id="patch_36">
    <path d="M 325.942894 527.614226 
Q 373.561693 459.268845 406.518911 384.230495 
" clip-path="url(#pea538547b5)" style="fill: none; opacity: 0.65; stroke: #2563eb; stroke-width: 1.2; stroke-linecap: round"/>
    <path d="M 403.767166 386.516955 
L 406.518911 384.230495 
L 406.697032 387.803767 
z
" clip-path="url(#pea538547b5)" style="fill: #2563eb; opacity: 0.65; stroke: #2563eb; stroke-width: 1.2; stroke-linecap: round"/>
   </g>
   <g id="patch_37">
    <path d="M 236.8467 540.361882 
L 324.7965 540.361882 
Q 327.72816 540.361882 327.72816 537.585294 
L 327.72816 520.925765 
Q 327.72816 518.149176 324.7965 518.149176 
L 236.8467 518.149176 
Q 233.91504 518.149176 233.91504 520.925765 
L 233.91504 537.585294 
Q 233.91504 540.361882 236.8467 540.361882 
z
" clip-path="url(#pea538547b5)" style="fill: #f8fafc; stroke: #2563eb; stroke-width: 0.8; stroke-linejoin: miter"/>
   </g>
   <g id="patch_38">
    <path d="M 21.8583 184.033059 
L 124.4664 184.033059 
Q 128.37528 184.033059 128.37528 180.330941 
L 128.37528 156.267176 
Q 128.37528 152.565059 124.4664 152.565059 
L 21.8583 152.565059 
Q 17.94942 152.565059 17.94942 156.267176 
L 17.94942 180.330941 
Q 17.94942 184.033059 21.8583 184.033059 
z
" clip-path="url(#pea538547b5)" style="fill: #2563eb; stroke: #ffffff; stroke-width: 0.8; stroke-linejoin: miter"/>
   </g>
   <g id="patch_39">
    <path d="M 21.8583 254.373294 
L 124.4664 254.373294 
Q 128.37528 254.373294 128.37528 250.671176 
L 128.37528 226.607412 
Q 128.37528 222.905294 124.4664 222.905294 
L 21.8583 222.905294 
Q 17.94942 222.905294 17.94942 226.607412 
L 17.94942 250.671176 
Q 17.94942 254.373294 21.8583 254.373294 
z
" clip-path="url(#pea538547b5)" style="fill: #2563eb; stroke: #ffffff; stroke-width: 0.8; stroke-linejoin: miter"/>
   </g>
   <g id="patch_40">
    <path d="M 21.8583 324.713529 
L 124.4664 324.713529 
Q 128.37528 324.713529 128.37528 321.011412 
L 128.37528 296.947647 
Q 128.37528 293.245529 124.4664 293.245529 
L 21.8583 293.245529 
Q 17.94942 293.245529 17.94942 296.947647 
L 17.94942 321.011412 
Q 17.94942 324.713529 21.8583 324.713529 
z
" clip-path="url(#pea538547b5)" style="fill: #2563eb; stroke: #ffffff; stroke-width: 0.8; stroke-linejoin: miter"/>
   </g>
   <g id="patch_41">
    <path d="M 21.8583 395.053765 
L 124.4664 395.053765 
Q 128.37528 395.053765 128.37528 391.351647 
L 128.37528 367.287882 
Q 128.37528 363.585765 124.4664 363.585765 
L 21.8583 363.585765 
Q 17.94942 363.585765 17.94942 367.287882 
L 17.94942 391.351647 
Q 17.94942 395.053765 21.8583 395.053765 
z
" clip-path="url(#pea538547b5)" style="fill: #2563eb; stroke: #ffffff; stroke-width: 0.8; stroke-linejoin: miter"/>
   </g>
   <g id="patch_42">
    <path d="M 21.8583 465.394 
L 124.4664 465.394 
Q 128.37528 465.394 128.37528 461.691882 
L 128.37528 437.628118 
Q 128.37528 433.926 124.4664 433.926 
L 21.8583 433.926 
Q 17.94942 433.926 17.94942 437.628118 
L 17.94942 461.691882 
Q 17.94942 465.394 21.8583 465.394 
z
" clip-path="url(#pea538547b5)" style="fill: #2563eb; stroke: #ffffff; stroke-width: 0.8; stroke-linejoin: miter"/>
   </g>
   <g id="patch_43">
    <path d="M 21.8583 535.734235 
L 124.4664 535.734235 
Q 128.37528 535.734235 128.37528 532.032118 
L 128.37528 507.968353 
Q 128.37528 504.266235 124.4664 504.266235 
L 21.8583 504.266235 
Q 17.94942 504.266235 17.94942 507.968353 
L 17.94942 532.032118 
Q 17.94942 535.734235 21.8583 535.734235 
z
" clip-path="url(#pea538547b5)" style="fill: #2563eb; stroke: #ffffff; stroke-width: 0.8; stroke-linejoin: miter"/>
   </g>
   <g id="patch_44">
    <path d="M 407.8602 174.777765 
L 486.0378 174.777765 
Q 489.94668 174.777765 489.94668 171.075647 
L 489.94668 147.011882 
Q 489.94668 143.309765 486.0378 143.309765 
L 407.8602 143.309765 
Q 403.95132 143.309765 403.95132 147.011882 
L 403.95132 171.075647 
Q 403.95132 174.777765 407.8602 174.777765 
z
" clip-path="url(#pea538547b5)" style="fill: #f1f5f9; stroke: #2563eb; stroke-width: 0.8; stroke-linejoin: miter"/>
   </g>
   <g id="patch_45">
    <path d="M 407.8602 248.820118 
L 486.0378 248.820118 
Q 489.94668 248.820118 489.94668 245.118 
L 489.94668 221.054235 
Q 489.94668 217.352118 486.0378 217.352118 
L 407.8602 217.352118 
Q 403.95132 217.352118 403.95132 221.054235 
L 403.95132 245.118 
Q 403.95132 248.820118 407.8602 248.820118 
z
" clip-path="url(#pea538547b5)" style="fill: #f1f5f9; stroke: #2563eb; stroke-width: 0.8; stroke-linejoin: miter"/>
   </g>
   <g id="patch_46">
    <path d="M 407.8602 322.862471 
L 486.0378 322.862471 
Q 489.94668 322.862471 489.94668 319.160353 
L 489.94668 295.096588 
Q 489.94668 291.394471 486.0378 291.394471 
L 407.8602 291.394471 
Q 403.95132 291.394471 403.95132 295.096588 
L 403.95132 319.160353 
Q 403.95132 322.862471 407.8602 322.862471 
z
" clip-path="url(#pea538547b5)" style="fill: #f1f5f9; stroke: #2563eb; stroke-width: 0.8; stroke-linejoin: miter"/>
   </g>
   <g id="patch_47">
    <path d="M 407.8602 396.904824 
L 486.0378 396.904824 
Q 489.94668 396.904824 489.94668 393.202706 
L 489.94668 369.138941 
Q 489.94668 365.436824 486.0378 365.436824 
L 407.8602 365.436824 
Q 403.95132 365.436824 403.95132 369.138941 
L 403.95132 393.202706 
Q 403.95132 396.904824 407.8602 396.904824 
z
" clip-path="url(#pea538547b5)" style="fill: #f1f5f9; stroke: #2563eb; stroke-width: 0.8; stroke-linejoin: miter"/>
   </g>
   <g id="patch_48">
    <path d="M 407.8602 470.947176 
L 486.0378 470.947176 
Q 489.94668 470.947176 489.94668 467.245059 
L 489.94668 443.181294 
Q 489.94668 439.479176 486.0378 439.479176 
L 407.8602 439.479176 
Q 403.95132 439.479176 403.95132 443.181294 
L 403.95132 467.245059 
Q 403.95132 470.947176 407.8602 470.947176 
z
" clip-path="url(#pea538547b5)" style="fill: #f1f5f9; stroke: #2563eb; stroke-width: 0.8; stroke-linejoin: miter"/>
   </g>
   <g id="patch_49">
    <path d="M 407.8602 544.989529 
L 486.0378 544.989529 
Q 489.94668 544.989529 489.94668 541.287412 
L 489.94668 517.223647 
Q 489.94668 513.521529 486.0378 513.521529 
L 407.8602 513.521529 
Q 403.95132 513.521529 403.95132 517.223647 
L 403.95132 541.287412 
Q 403.95132 544.989529 407.8602 544.989529 
z
" clip-path="url(#pea538547b5)" style="fill: #f1f5f9; stroke: #2563eb; stroke-width: 0.8; stroke-linejoin: miter"/>
   </g>
   <g id="text_1">
    <text style="fill: #0f172a; font: 5.8px 'DejaVu Sans'; text-anchor: middle" x="280.8216" y="160.644202" transform="rotate(-0 280.8216 160.644202)">academicDegree</text>
   </g>
   <g id="text_2">
    <text style="fill: #0f172a; font: 5.8px 'DejaVu Sans'; text-anchor: middle" x="280.8216" y="194.299817" transform="rotate(-0 280.8216 194.299817)">about</text>
   </g>
   <g id="text_3">
    <text style="fill: #0f172a; font: 5.8px 'DejaVu Sans'; text-anchor: middle" x="280.8216" y="227.955432" transform="rotate(-0 280.8216 227.955432)">award</text>
   </g>
   <g id="text_4">
    <text style="fill: #0f172a; font: 5.8px 'DejaVu Sans'; text-anchor: middle" x="280.8216" y="261.611047" transform="rotate(-0 280.8216 261.611047)">highestPoint</text>
   </g>
   <g id="text_5">
    <text style="fill: #0f172a; font: 5.8px 'DejaVu Sans'; text-anchor: middle" x="280.8216" y="295.266662" transform="rotate(-0 280.8216 295.266662)">about</text>
   </g>
   <g id="text_6">
    <text style="fill: #0f172a; font: 5.8px 'DejaVu Sans'; text-anchor: middle" x="280.8216" y="328.922277" transform="rotate(-0 280.8216 328.922277)">editor</text>
   </g>
   <g id="text_7">
    <text style="fill: #0f172a; font: 5.8px 'DejaVu Sans'; text-anchor: middle" x="280.8216" y="362.577892" transform="rotate(-0 280.8216 362.577892)">affiliation</text>
   </g>
   <g id="text_8">
    <text style="fill: #0f172a; font: 5.8px 'DejaVu Sans'; text-anchor: middle" x="280.8216" y="396.233507" transform="rotate(-0 280.8216 396.233507)">author</text>
   </g>
   <g id="text_9">
    <text style="fill: #0f172a; font: 5.8px 'DejaVu Sans'; text-anchor: middle" x="280.8216" y="429.889122" transform="rotate(-0 280.8216 429.889122)">founder</text>
   </g>
   <g id="text_10">
    <text style="fill: #0f172a; font: 5.8px 'DejaVu Sans'; text-anchor: middle" x="280.8216" y="463.544737" transform="rotate(-0 280.8216 463.544737)">location</text>
   </g>
   <g id="text_11">
    <text style="fill: #0f172a; font: 5.8px 'DejaVu Sans'; text-anchor: middle" x="280.8216" y="497.200352" transform="rotate(-0 280.8216 497.200352)">follows</text>
   </g>
   <g id="text_12">
    <text style="fill: #0f172a; font: 5.8px 'DejaVu Sans'; text-anchor: middle" x="280.8216" y="530.855967" transform="rotate(-0 280.8216 530.855967)">illustrator</text>
   </g>
   <g id="text_13">
    <text style="fill: #ffffff; font: 700 7px 'DejaVu Sans'; text-anchor: middle" x="73.16235" y="170.230621" transform="rotate(-0 73.16235 170.230621)">Person</text>
   </g>
   <g id="text_14">
    <text style="fill: #ffffff; font: 700 7px 'DejaVu Sans'; text-anchor: middle" x="73.16235" y="240.570857" transform="rotate(-0 73.16235 240.570857)">CreativeWork</text>
   </g>
   <g id="text_15">
    <text style="fill: #ffffff; font: 700 7px 'DejaVu Sans'; text-anchor: middle" x="73.16235" y="310.883748" transform="rotate(-0 73.16235 310.883748)">Organization</text>
   </g>
   <g id="text_16">
    <text style="fill: #ffffff; font: 700 7px 'DejaVu Sans'; text-anchor: middle" x="73.16235" y="381.251327" transform="rotate(-0 73.16235 381.251327)">Place</text>
   </g>
   <g id="text_17">
    <text style="fill: #ffffff; font: 700 7px 'DejaVu Sans'; text-anchor: middle" x="73.16235" y="451.591563" transform="rotate(-0 73.16235 451.591563)">Event</text>
   </g>
   <g id="text_18">
    <text style="fill: #ffffff; font: 700 7px 'DejaVu Sans'; text-anchor: middle" x="73.16235" y="521.931798" transform="rotate(-0 73.16235 521.931798)">Book</text>
   </g>
   <g id="text_19">
    <text style="fill: #0f172a; font: 6.6px 'DejaVu Sans'; text-anchor: middle" x="446.949" y="160.864952" transform="rotate(-0 446.949 160.864952)">Award</text>
   </g>
   <g id="text_20">
    <text style="fill: #0f172a; font: 6.6px 'DejaVu Sans'; text-anchor: middle" x="446.949" y="234.907305" transform="rotate(-0 446.949 234.907305)">Thing</text>
   </g>
   <g id="text_21">
    <text style="fill: #0f172a; font: 6.6px 'DejaVu Sans'; text-anchor: middle" x="446.949" y="308.949658" transform="rotate(-0 446.949 308.949658)">Place</text>
   </g>
   <g id="text_22">
    <text style="fill: #0f172a; font: 6.6px 'DejaVu Sans'; text-anchor: middle" x="446.949" y="382.992011" transform="rotate(-0 446.949 382.992011)">Person</text>
   </g>
   <g id="text_23">
    <text style="fill: #0f172a; font: 6.6px 'DejaVu Sans'; text-anchor: middle" x="446.949" y="457.034364" transform="rotate(-0 446.949 457.034364)">Organization</text>
   </g>
   <g id="text_24">
    <text style="fill: #0f172a; font: 6.6px 'DejaVu Sans'; text-anchor: middle" x="446.949" y="531.076717" transform="rotate(-0 446.949 531.076717)">Event</text>
   </g>
   <g id="text_25">
    <text style="fill: #0f172a; font: 700 8px 'DejaVu Sans'; text-anchor: middle" x="73.16235" y="123.473691" transform="rotate(-0 73.16235 123.473691)">Domain class</text>
   </g>
   <g id="text_26">
    <text style="fill: #0f172a; font: 700 8px 'DejaVu Sans'; text-anchor: middle" x="280.8216" y="123.473691" transform="rotate(-0 280.8216 123.473691)">Object property</text>
   </g>
   <g id="text_27">
    <text style="fill: #0f172a; font: 700 8px 'DejaVu Sans'; text-anchor: middle" x="446.949" y="123.473691" transform="rotate(-0 446.949 123.473691)">Range class</text>
   </g>
   <g id="text_28">
    <text style="fill: #0f172a; font: 700 11.5px 'DejaVu Sans'; text-anchor: start" x="7.2" y="97.512" transform="rotate(-0 7.2 97.512)">YAGO</text>
   </g>
  </g>
  <g id="axes_2">
   <g id="patch_50">
    <path d="M 625.338189 168.330584 
Q 679.973954 169.095373 733.748427 159.402117 
" clip-path="url(#pf84b84a81d)" style="fill: none; stroke: #cbd5e1; stroke-linecap: round"/>
   </g>
   <g id="patch_51">
    <path d="M 825.656399 159.237988 
Q 865.196206 163.002523 903.400412 159.365543 
" clip-path="url(#pf84b84a81d)" style="fill: none; opacity: 0.65; stroke: #16a34a; stroke-width: 1.2; stroke-linecap: round"/>
    <path d="M 900.063182 158.076008 
L 903.400412 159.365543 
L 900.366446 161.261605 
z
" clip-path="url(#pf84b84a81d)" style="fill: #16a34a; opacity: 0.65; stroke: #16a34a; stroke-width: 1.2; stroke-linecap: round"/>
   </g>
   <g id="patch_52">
    <path d="M 735.7167 170.150118 
L 823.6665 170.150118 
Q 826.59816 170.150118 826.59816 167.373529 
L 826.59816 150.714 
Q 826.59816 147.937412 823.6665 147.937412 
L 735.7167 147.937412 
Q 732.78504 147.937412 732.78504 150.714 
L 732.78504 167.373529 
Q 732.78504 170.150118 735.7167 170.150118 
z
" clip-path="url(#pf84b84a81d)" style="fill: #f8fafc; stroke: #16a34a; stroke-width: 0.8; stroke-linejoin: miter"/>
   </g>
   <g id="patch_53">
    <path d="M 625.277041 226.442774 
Q 681.430358 212.653612 733.903061 188.36475 
" clip-path="url(#pf84b84a81d)" style="fill: none; stroke: #cbd5e1; stroke-linecap: round"/>
   </g>
   <g id="patch_54">
    <path d="M 825.442174 188.441424 
Q 863.610114 208.106522 903.524061 219.810199 
" clip-path="url(#pf84b84a81d)" style="fill: none; opacity: 0.65; stroke: #16a34a; stroke-width: 1.2; stroke-linecap: round"/>
    <path d="M 900.90355 217.37444 
L 903.524061 219.810199 
L 900.003148 220.445152 
z
" clip-path="url(#pf84b84a81d)" style="fill: #16a34a; opacity: 0.65; stroke: #16a34a; stroke-width: 1.2; stroke-linecap: round"/>
   </g>
   <g id="patch_55">
    <path d="M 735.7167 198.627946 
L 823.6665 198.627946 
Q 826.59816 198.627946 826.59816 195.851357 
L 826.59816 179.191828 
Q 826.59816 176.41524 823.6665 176.41524 
L 735.7167 176.41524 
Q 732.78504 176.41524 732.78504 179.191828 
L 732.78504 195.851357 
Q 732.78504 198.627946 735.7167 198.627946 
z
" clip-path="url(#pf84b84a81d)" style="fill: #f8fafc; stroke: #16a34a; stroke-width: 0.8; stroke-linejoin: miter"/>
   </g>
   <g id="patch_56">
    <path d="M 625.13022 284.653178 
Q 682.899338 256.218997 734.127469 217.213231 
" clip-path="url(#pf84b84a81d)" style="fill: none; stroke: #cbd5e1; stroke-linecap: round"/>
   </g>
   <g id="patch_57">
    <path d="M 825.098414 217.394969 
Q 861.997558 253.223906 903.930339 280.622694 
" clip-path="url(#pf84b84a81d)" style="fill: none; opacity: 0.65; stroke: #16a34a; stroke-width: 1.2; stroke-linecap: round"/>
    <path d="M 902.126665 277.532911 
L 903.930339 280.622694 
L 900.376308 280.211764 
z
" clip-path="url(#pf84b84a81d)" style="fill: #16a34a; opacity: 0.65; stroke: #16a34a; stroke-width: 1.2; stroke-linecap: round"/>
   </g>
   <g id="patch_58">
    <path d="M 735.7167 227.105774 
L 823.6665 227.105774 
Q 826.59816 227.105774 826.59816 224.329186 
L 826.59816 207.669656 
Q 826.59816 204.893068 823.6665 204.893068 
L 735.7167 204.893068 
Q 732.78504 204.893068 732.78504 207.669656 
L 732.78504 224.329186 
Q 732.78504 227.105774 735.7167 227.105774 
z
" clip-path="url(#pf84b84a81d)" style="fill: #f8fafc; stroke: #16a34a; stroke-width: 0.8; stroke-linejoin: miter"/>
   </g>
   <g id="patch_59">
    <path d="M 624.958825 342.973687 
Q 684.379339 299.785454 734.354939 245.948112 
" clip-path="url(#pf84b84a81d)" style="fill: none; stroke: #cbd5e1; stroke-linecap: round"/>
   </g>
   <g id="patch_60">
    <path d="M 824.790904 246.132803 
Q 860.365207 298.340828 904.349704 341.801768 
" clip-path="url(#pf84b84a81d)" style="fill: none; opacity: 0.65; stroke: #16a34a; stroke-width: 1.2; stroke-linecap: round"/>
    <path d="M 903.198033 338.414489 
L 904.349704 341.801768 
L 900.948879 340.690738 
z
" clip-path="url(#pf84b84a81d)" style="fill: #16a34a; opacity: 0.65; stroke: #16a34a; stroke-width: 1.2; stroke-linecap: round"/>
   </g>
   <g id="patch_61">
    <path d="M 735.7167 255.583602 
L 823.6665 255.583602 
Q 826.59816 255.583602 826.59816 252.807014 
L 826.59816 236.147484 
Q 826.59816 233.370896 823.6665 233.370896 
L 735.7167 233.370896 
Q 732.78504 233.370896 732.78504 236.147484 
L 732.78504 252.807014 
Q 732.78504 255.583602 735.7167 255.583602 
z
" clip-path="url(#pf84b84a81d)" style="fill: #f8fafc; stroke: #16a34a; stroke-width: 0.8; stroke-linejoin: miter"/>
   </g>
   <g id="patch_62">
    <path d="M 624.786522 401.391754 
Q 685.867479 343.352155 734.562111 274.589473 
" clip-path="url(#pf84b84a81d)" style="fill: none; stroke: #cbd5e1; stroke-linecap: round"/>
   </g>
   <g id="patch_63">
    <path d="M 824.998838 271.461259 
Q 870.736138 220.035886 905.034674 161.92208 
" clip-path="url(#pf84b84a81d)" style="fill: none; opacity: 0.65; stroke: #16a34a; stroke-width: 1.2; stroke-linecap: round"/>
    <path d="M 902.030285 163.864666 
L 905.034674 161.92208 
L 904.78611 165.491143 
z
" clip-path="url(#pf84b84a81d)" style="fill: #16a34a; opacity: 0.65; stroke: #16a34a; stroke-width: 1.2; stroke-linecap: round"/>
   </g>
   <g id="patch_64">
    <path d="M 735.7167 284.06143 
L 823.6665 284.06143 
Q 826.59816 284.06143 826.59816 281.284842 
L 826.59816 264.625312 
Q 826.59816 261.848724 823.6665 261.848724 
L 735.7167 261.848724 
Q 732.78504 261.848724 732.78504 264.625312 
L 732.78504 281.284842 
Q 732.78504 284.06143 735.7167 284.06143 
z
" clip-path="url(#pf84b84a81d)" style="fill: #f8fafc; stroke: #16a34a; stroke-width: 0.8; stroke-linejoin: miter"/>
   </g>
   <g id="patch_65">
    <path d="M 624.641298 459.868671 
Q 687.361835 386.915226 734.732404 303.176979 
" clip-path="url(#pf84b84a81d)" style="fill: none; stroke: #cbd5e1; stroke-linecap: round"/>
   </g>
   <g id="patch_66">
    <path d="M 824.838839 299.813356 
Q 872.147045 234.293827 905.335749 162.083484 
" clip-path="url(#pf84b84a81d)" style="fill: none; opacity: 0.65; stroke: #16a34a; stroke-width: 1.2; stroke-linecap: round"/>
    <path d="M 902.545585 164.322899 
L 905.335749 162.083484 
L 905.453183 165.659265 
z
" clip-path="url(#pf84b84a81d)" style="fill: #16a34a; opacity: 0.65; stroke: #16a34a; stroke-width: 1.2; stroke-linecap: round"/>
   </g>
   <g id="patch_67">
    <path d="M 735.7167 312.539258 
L 823.6665 312.539258 
Q 826.59816 312.539258 826.59816 309.76267 
L 826.59816 293.10314 
Q 826.59816 290.326552 823.6665 290.326552 
L 735.7167 290.326552 
Q 732.78504 290.326552 732.78504 293.10314 
L 732.78504 309.76267 
Q 732.78504 312.539258 735.7167 312.539258 
z
" clip-path="url(#pf84b84a81d)" style="fill: #f8fafc; stroke: #16a34a; stroke-width: 0.8; stroke-linejoin: miter"/>
   </g>
   <g id="patch_68">
    <path d="M 624.519715 518.386449 
Q 688.860533 430.474911 734.872255 331.727271 
" clip-path="url(#pf84b84a81d)" style="fill: none; stroke: #cbd5e1; stroke-linecap: round"/>
   </g>
   <g id="patch_69">
    <path d="M 825.002395 331.396761 
Q 861.533591 371.8907 904.059261 403.848765 
" clip-path="url(#pf84b84a81d)" style="fill: none; opacity: 0.65; stroke: #16a34a; stroke-width: 1.2; stroke-linecap: round"/>
    <path d="M 902.462333 400.647231 
L 904.059261 403.848765 
L 900.539877 403.205387 
z
" clip-path="url(#pf84b84a81d)" style="fill: #16a34a; opacity: 0.65; stroke: #16a34a; stroke-width: 1.2; stroke-linecap: round"/>
   </g>
   <g id="patch_70">
    <path d="M 735.7167 341.017086 
L 823.6665 341.017086 
Q 826.59816 341.017086 826.59816 338.240498 
L 826.59816 321.580968 
Q 826.59816 318.80438 823.6665 318.80438 
L 735.7167 318.80438 
Q 732.78504 318.80438 732.78504 321.580968 
L 732.78504 338.240498 
Q 732.78504 341.017086 735.7167 341.017086 
z
" clip-path="url(#pf84b84a81d)" style="fill: #f8fafc; stroke: #16a34a; stroke-width: 0.8; stroke-linejoin: miter"/>
   </g>
   <g id="patch_71">
    <path d="M 624.179964 170.113705 
Q 670.19151 268.861449 734.532153 356.773091 
" clip-path="url(#pf84b84a81d)" style="fill: none; stroke: #cbd5e1; stroke-linecap: round"/>
   </g>
   <g id="patch_72">
    <path d="M 825.658777 358.243989 
Q 865.875833 355.231088 903.505401 345.02882 
" clip-path="url(#pf84b84a81d)" style="fill: none; opacity: 0.65; stroke: #16a34a; stroke-width: 1.2; stroke-linecap: round"/>
    <path d="M 899.99822 344.321936 
L 903.505401 345.02882 
L 900.835586 347.410434 
z
" clip-path="url(#pf84b84a81d)" style="fill: #16a34a; opacity: 0.65; stroke: #16a34a; stroke-width: 1.2; stroke-linecap: round"/>
   </g>
   <g id="patch_73">
    <path d="M 735.7167 369.494914 
L 823.6665 369.494914 
Q 826.59816 369.494914 826.59816 366.718326 
L 826.59816 350.058796 
Q 826.59816 347.282208 823.6665 347.282208 
L 735.7167 347.282208 
Q 732.78504 347.282208 732.78504 350.058796 
L 732.78504 366.718326 
Q 732.78504 369.494914 735.7167 369.494914 
z
" clip-path="url(#pf84b84a81d)" style="fill: #f8fafc; stroke: #16a34a; stroke-width: 0.8; stroke-linejoin: miter"/>
   </g>
   <g id="patch_74">
    <path d="M 624.319029 228.657048 
Q 671.689327 312.395484 734.409594 385.349119 
" clip-path="url(#pf84b84a81d)" style="fill: none; stroke: #cbd5e1; stroke-linecap: round"/>
   </g>
   <g id="patch_75">
    <path d="M 824.532269 385.067122 
Q 876.403086 277.043356 905.899311 162.283031 
" clip-path="url(#pf84b84a81d)" style="fill: none; opacity: 0.65; stroke: #16a34a; stroke-width: 1.2; stroke-linecap: round"/>
    <path d="M 903.553091 164.984003 
L 905.899311 162.283031 
L 906.652357 165.780591 
z
" clip-path="url(#pf84b84a81d)" style="fill: #16a34a; opacity: 0.65; stroke: #16a34a; stroke-width: 1.2; stroke-linecap: round"/>
   </g>
   <g id="patch_76">
    <path d="M 735.7167 397.972742 
L 823.6665 397.972742 
Q 826.59816 397.972742 826.59816 395.196154 
L 826.59816 378.536624 
Q 826.59816 375.760036 823.6665 375.760036 
L 735.7167 375.760036 
Q 732.78504 375.760036 732.78504 378.536624 
L 732.78504 395.196154 
Q 732.78504 397.972742 735.7167 397.972742 
z
" clip-path="url(#pf84b84a81d)" style="fill: #f8fafc; stroke: #16a34a; stroke-width: 0.8; stroke-linejoin: miter"/>
   </g>
   <g id="patch_77">
    <path d="M 624.489325 287.16483 
Q 673.183745 355.927696 734.26449 413.967478 
" clip-path="url(#pf84b84a81d)" style="fill: none; stroke: #cbd5e1; stroke-linecap: round"/>
   </g>
   <g id="patch_78">
    <path d="M 825.307183 414.1957 
Q 868.632185 383.75052 904.416449 346.559549 
" clip-path="url(#pf84b84a81d)" style="fill: none; opacity: 0.65; stroke: #16a34a; stroke-width: 1.2; stroke-linecap: round"/>
    <path d="M 901.044771 347.756124 
L 904.416449 346.559549 
L 903.350702 349.974836 
z
" clip-path="url(#pf84b84a81d)" style="fill: #16a34a; opacity: 0.65; stroke: #16a34a; stroke-width: 1.2; stroke-linecap: round"/>
   </g>
   <g id="patch_79">
    <path d="M 735.7167 426.45057 
L 823.6665 426.45057 
Q 826.59816 426.45057 826.59816 423.673982 
L 826.59816 407.014452 
Q 826.59816 404.237864 823.6665 404.237864 
L 735.7167 404.237864 
Q 732.78504 404.237864 732.78504 407.014452 
L 732.78504 423.673982 
Q 732.78504 426.45057 735.7167 426.45057 
z
" clip-path="url(#pf84b84a81d)" style="fill: #f8fafc; stroke: #16a34a; stroke-width: 0.8; stroke-linejoin: miter"/>
   </g>
   <g id="patch_80">
    <path d="M 624.697705 345.620019 
Q 674.673262 399.457409 734.093732 442.645691 
" clip-path="url(#pf84b84a81d)" style="fill: none; stroke: #cbd5e1; stroke-linecap: round"/>
   </g>
   <g id="patch_81">
    <path d="M 825.526932 444.555813 
Q 864.06496 459.653925 903.443243 466.949263 
" clip-path="url(#pf84b84a81d)" style="fill: none; opacity: 0.65; stroke: #16a34a; stroke-width: 1.2; stroke-linecap: round"/>
    <path d="M 900.588245 464.793111 
L 903.443243 466.949263 
L 900.005323 467.93957 
z
" clip-path="url(#pf84b84a81d)" style="fill: #16a34a; opacity: 0.65; stroke: #16a34a; stroke-width: 1.2; stroke-linecap: round"/>
   </g>
   <g id="patch_82">
    <path d="M 735.7167 454.928398 
L 823.6665 454.928398 
Q 826.59816 454.928398 826.59816 452.15181 
L 826.59816 435.492281 
Q 826.59816 432.715692 823.6665 432.715692 
L 735.7167 432.715692 
Q 732.78504 432.715692 732.78504 435.492281 
L 732.78504 452.15181 
Q 732.78504 454.928398 735.7167 454.928398 
z
" clip-path="url(#pf84b84a81d)" style="fill: #f8fafc; stroke: #16a34a; stroke-width: 0.8; stroke-linejoin: miter"/>
   </g>
   <g id="patch_83">
    <path d="M 624.92414 403.979185 
Q 676.152177 442.985105 733.921199 471.419439 
" clip-path="url(#pf84b84a81d)" style="fill: none; stroke: #cbd5e1; stroke-linecap: round"/>
   </g>
   <g id="patch_84">
    <path d="M 824.91372 470.736777 
Q 871.440523 412.27177 905.194676 347.119152 
" clip-path="url(#pf84b84a81d)" style="fill: none; opacity: 0.65; stroke: #16a34a; stroke-width: 1.2; stroke-linecap: round"/>
    <path d="M 902.301984 349.224463 
L 905.194676 347.119152 
L 905.14331 350.696492 
z
" clip-path="url(#pf84b84a81d)" style="fill: #16a34a; opacity: 0.65; stroke: #16a34a; stroke-width: 1.2; stroke-linecap: round"/>
   </g>
   <g id="patch_85">
    <path d="M 735.7167 483.406226 
L 823.6665 483.406226 
Q 826.59816 483.406226 826.59816 480.629638 
L 826.59816 463.970109 
Q 826.59816 461.19352 823.6665 461.19352 
L 735.7167 461.19352 
Q 732.78504 461.19352 732.78504 463.970109 
L 732.78504 480.629638 
Q 732.78504 483.406226 735.7167 483.406226 
z
" clip-path="url(#pf84b84a81d)" style="fill: #f8fafc; stroke: #16a34a; stroke-width: 0.8; stroke-linejoin: miter"/>
   </g>
   <g id="patch_86">
    <path d="M 625.147714 462.225453 
Q 677.620334 486.514548 733.77357 500.303942 
" clip-path="url(#pf84b84a81d)" style="fill: none; stroke: #cbd5e1; stroke-linecap: round"/>
   </g>
   <g id="patch_87">
    <path d="M 825.486825 501.607496 
Q 863.836654 518.985314 903.47698 528.480874 
" clip-path="url(#pf84b84a81d)" style="fill: none; opacity: 0.65; stroke: #16a34a; stroke-width: 1.2; stroke-linecap: round"/>
    <path d="M 900.737742 526.179445 
L 903.47698 528.480874 
L 899.992294 529.291407 
z
" clip-path="url(#pf84b84a81d)" style="fill: #16a34a; opacity: 0.65; stroke: #16a34a; stroke-width: 1.2; stroke-linecap: round"/>
   </g>
   <g id="patch_88">
    <path d="M 735.7167 511.884054 
L 823.6665 511.884054 
Q 826.59816 511.884054 826.59816 509.107466 
L 826.59816 492.447937 
Q 826.59816 489.671348 823.6665 489.671348 
L 735.7167 489.671348 
Q 732.78504 489.671348 732.78504 492.447937 
L 732.78504 509.107466 
Q 732.78504 511.884054 735.7167 511.884054 
z
" clip-path="url(#pf84b84a81d)" style="fill: #f8fafc; stroke: #16a34a; stroke-width: 0.8; stroke-linejoin: miter"/>
   </g>
   <g id="patch_89">
    <path d="M 625.306059 520.358837 
Q 679.080543 530.051959 733.71632 529.287035 
" clip-path="url(#pf84b84a81d)" style="fill: none; stroke: #cbd5e1; stroke-linecap: round"/>
   </g>
   <g id="patch_90">
    <path d="M 824.294895 527.358412 
Q 883.51574 348.260046 906.324337 162.360246 
" clip-path="url(#pf84b84a81d)" style="fill: none; opacity: 0.65; stroke: #16a34a; stroke-width: 1.2; stroke-linecap: round"/>
    <path d="M 904.346551 165.341582 
L 906.324337 162.360246 
L 907.522733 165.731277 
z
" clip-path="url(#pf84b84a81d)" style="fill: #16a34a; opacity: 0.65; stroke: #16a34a; stroke-width: 1.2; stroke-linecap: round"/>
   </g>
   <g id="patch_91">
    <path d="M 735.7167 540.361882 
L 823.6665 540.361882 
Q 826.59816 540.361882 826.59816 537.585294 
L 826.59816 520.925765 
Q 826.59816 518.149176 823.6665 518.149176 
L 735.7167 518.149176 
Q 732.78504 518.149176 732.78504 520.925765 
L 732.78504 537.585294 
Q 732.78504 540.361882 735.7167 540.361882 
z
" clip-path="url(#pf84b84a81d)" style="fill: #f8fafc; stroke: #16a34a; stroke-width: 0.8; stroke-linejoin: miter"/>
   </g>
   <g id="patch_92">
    <path d="M 520.7283 184.033059 
L 623.3364 184.033059 
Q 627.24528 184.033059 627.24528 180.330941 
L 627.24528 156.267176 
Q 627.24528 152.565059 623.3364 152.565059 
L 520.7283 152.565059 
Q 516.81942 152.565059 516.81942 156.267176 
L 516.81942 180.330941 
Q 516.81942 184.033059 520.7283 184.033059 
z
" clip-path="url(#pf84b84a81d)" style="fill: #16a34a; stroke: #ffffff; stroke-width: 0.8; stroke-linejoin: miter"/>
   </g>
   <g id="patch_93">
    <path d="M 520.7283 242.649922 
L 623.3364 242.649922 
Q 627.24528 242.649922 627.24528 238.947804 
L 627.24528 214.884039 
Q 627.24528 211.181922 623.3364 211.181922 
L 520.7283 211.181922 
Q 516.81942 211.181922 516.81942 214.884039 
L 516.81942 238.947804 
Q 516.81942 242.649922 520.7283 242.649922 
z
" clip-path="url(#pf84b84a81d)" style="fill: #16a34a; stroke: #ffffff; stroke-width: 0.8; stroke-linejoin: miter"/>
   </g>
   <g id="patch_94">
    <path d="M 520.7283 301.266784 
L 623.3364 301.266784 
Q 627.24528 301.266784 627.24528 297.564667 
L 627.24528 273.500902 
Q 627.24528 269.798784 623.3364 269.798784 
L 520.7283 269.798784 
Q 516.81942 269.798784 516.81942 273.500902 
L 516.81942 297.564667 
Q 516.81942 301.266784 520.7283 301.266784 
z
" clip-path="url(#pf84b84a81d)" style="fill: #16a34a; stroke: #ffffff; stroke-width: 0.8; stroke-linejoin: miter"/>
   </g>
   <g id="patch_95">
    <path d="M 520.7283 359.883647 
L 623.3364 359.883647 
Q 627.24528 359.883647 627.24528 356.181529 
L 627.24528 332.117765 
Q 627.24528 328.415647 623.3364 328.415647 
L 520.7283 328.415647 
Q 516.81942 328.415647 516.81942 332.117765 
L 516.81942 356.181529 
Q 516.81942 359.883647 520.7283 359.883647 
z
" clip-path="url(#pf84b84a81d)" style="fill: #16a34a; stroke: #ffffff; stroke-width: 0.8; stroke-linejoin: miter"/>
   </g>
   <g id="patch_96">
    <path d="M 520.7283 418.50051 
L 623.3364 418.50051 
Q 627.24528 418.50051 627.24528 414.798392 
L 627.24528 390.734627 
Q 627.24528 387.03251 623.3364 387.03251 
L 520.7283 387.03251 
Q 516.81942 387.03251 516.81942 390.734627 
L 516.81942 414.798392 
Q 516.81942 418.50051 520.7283 418.50051 
z
" clip-path="url(#pf84b84a81d)" style="fill: #16a34a; stroke: #ffffff; stroke-width: 0.8; stroke-linejoin: miter"/>
   </g>
   <g id="patch_97">
    <path d="M 520.7283 477.117373 
L 623.3364 477.117373 
Q 627.24528 477.117373 627.24528 473.415255 
L 627.24528 449.35149 
Q 627.24528 445.649373 623.3364 445.649373 
L 520.7283 445.649373 
Q 516.81942 445.649373 516.81942 449.35149 
L 516.81942 473.415255 
Q 516.81942 477.117373 520.7283 477.117373 
z
" clip-path="url(#pf84b84a81d)" style="fill: #16a34a; stroke: #ffffff; stroke-width: 0.8; stroke-linejoin: miter"/>
   </g>
   <g id="patch_98">
    <path d="M 520.7283 535.734235 
L 623.3364 535.734235 
Q 627.24528 535.734235 627.24528 532.032118 
L 627.24528 507.968353 
Q 627.24528 504.266235 623.3364 504.266235 
L 520.7283 504.266235 
Q 516.81942 504.266235 516.81942 507.968353 
L 516.81942 532.032118 
Q 516.81942 535.734235 520.7283 535.734235 
z
" clip-path="url(#pf84b84a81d)" style="fill: #16a34a; stroke: #ffffff; stroke-width: 0.8; stroke-linejoin: miter"/>
   </g>
   <g id="patch_99">
    <path d="M 906.7302 174.777765 
L 984.9078 174.777765 
Q 988.81668 174.777765 988.81668 171.075647 
L 988.81668 147.011882 
Q 988.81668 143.309765 984.9078 143.309765 
L 906.7302 143.309765 
Q 902.82132 143.309765 902.82132 147.011882 
L 902.82132 171.075647 
Q 902.82132 174.777765 906.7302 174.777765 
z
" clip-path="url(#pf84b84a81d)" style="fill: #f1f5f9; stroke: #16a34a; stroke-width: 0.8; stroke-linejoin: miter"/>
   </g>
   <g id="patch_100">
    <path d="M 906.7302 236.479725 
L 984.9078 236.479725 
Q 988.81668 236.479725 988.81668 232.777608 
L 988.81668 208.713843 
Q 988.81668 205.011725 984.9078 205.011725 
L 906.7302 205.011725 
Q 902.82132 205.011725 902.82132 208.713843 
L 902.82132 232.777608 
Q 902.82132 236.479725 906.7302 236.479725 
z
" clip-path="url(#pf84b84a81d)" style="fill: #f1f5f9; stroke: #16a34a; stroke-width: 0.8; stroke-linejoin: miter"/>
   </g>
   <g id="patch_101">
    <path d="M 906.7302 298.181686 
L 984.9078 298.181686 
Q 988.81668 298.181686 988.81668 294.479569 
L 988.81668 270.415804 
Q 988.81668 266.713686 984.9078 266.713686 
L 906.7302 266.713686 
Q 902.82132 266.713686 902.82132 270.415804 
L 902.82132 294.479569 
Q 902.82132 298.181686 906.7302 298.181686 
z
" clip-path="url(#pf84b84a81d)" style="fill: #f1f5f9; stroke: #16a34a; stroke-width: 0.8; stroke-linejoin: miter"/>
   </g>
   <g id="patch_102">
    <path d="M 906.7302 359.883647 
L 984.9078 359.883647 
Q 988.81668 359.883647 988.81668 356.181529 
L 988.81668 332.117765 
Q 988.81668 328.415647 984.9078 328.415647 
L 906.7302 328.415647 
Q 902.82132 328.415647 902.82132 332.117765 
L 902.82132 356.181529 
Q 902.82132 359.883647 906.7302 359.883647 
z
" clip-path="url(#pf84b84a81d)" style="fill: #f1f5f9; stroke: #16a34a; stroke-width: 0.8; stroke-linejoin: miter"/>
   </g>
   <g id="patch_103">
    <path d="M 906.7302 421.585608 
L 984.9078 421.585608 
Q 988.81668 421.585608 988.81668 417.88349 
L 988.81668 393.819725 
Q 988.81668 390.117608 984.9078 390.117608 
L 906.7302 390.117608 
Q 902.82132 390.117608 902.82132 393.819725 
L 902.82132 417.88349 
Q 902.82132 421.585608 906.7302 421.585608 
z
" clip-path="url(#pf84b84a81d)" style="fill: #f1f5f9; stroke: #16a34a; stroke-width: 0.8; stroke-linejoin: miter"/>
   </g>
   <g id="patch_104">
    <path d="M 906.7302 483.287569 
L 984.9078 483.287569 
Q 988.81668 483.287569 988.81668 479.585451 
L 988.81668 455.521686 
Q 988.81668 451.819569 984.9078 451.819569 
L 906.7302 451.819569 
Q 902.82132 451.819569 902.82132 455.521686 
L 902.82132 479.585451 
Q 902.82132 483.287569 906.7302 483.287569 
z
" clip-path="url(#pf84b84a81d)" style="fill: #f1f5f9; stroke: #16a34a; stroke-width: 0.8; stroke-linejoin: miter"/>
   </g>
   <g id="patch_105">
    <path d="M 906.7302 544.989529 
L 984.9078 544.989529 
Q 988.81668 544.989529 988.81668 541.287412 
L 988.81668 517.223647 
Q 988.81668 513.521529 984.9078 513.521529 
L 906.7302 513.521529 
Q 902.82132 513.521529 902.82132 517.223647 
L 902.82132 541.287412 
Q 902.82132 544.989529 906.7302 544.989529 
z
" clip-path="url(#pf84b84a81d)" style="fill: #f1f5f9; stroke: #16a34a; stroke-width: 0.8; stroke-linejoin: miter"/>
   </g>
   <g id="text_29">
    <text style="fill: #0f172a; font: 5.8px 'DejaVu Sans'; text-anchor: middle" x="779.6916" y="160.644202" transform="rotate(-0 779.6916 160.644202)">countsByYear</text>
   </g>
   <g id="text_30">
    <text style="fill: #0f172a; font: 5.8px 'DejaVu Sans'; text-anchor: middle" x="779.6916" y="189.12203" transform="rotate(-0 779.6916 189.12203)">cites</text>
   </g>
   <g id="text_31">
    <text style="fill: #0f172a; font: 5.8px 'DejaVu Sans'; text-anchor: middle" x="779.6916" y="217.599858" transform="rotate(-0 779.6916 217.599858)">hasAuthor</text>
   </g>
   <g id="text_32">
    <text style="fill: #0f172a; font: 5.8px 'DejaVu Sans'; text-anchor: middle" x="779.6916" y="246.077686" transform="rotate(-0 779.6916 246.077686)">hasAssociatedInstitution</text>
   </g>
   <g id="text_33">
    <text style="fill: #0f172a; font: 5.8px 'DejaVu Sans'; text-anchor: middle" x="779.6916" y="274.555514" transform="rotate(-0 779.6916 274.555514)">countsByYear</text>
   </g>
   <g id="text_34">
    <text style="fill: #0f172a; font: 5.8px 'DejaVu Sans'; text-anchor: middle" x="779.6916" y="303.033342" transform="rotate(-0 779.6916 303.033342)">countsByYear</text>
   </g>
   <g id="text_35">
    <text style="fill: #0f172a; font: 5.8px 'DejaVu Sans'; text-anchor: middle" x="779.6916" y="331.511171" transform="rotate(-0 779.6916 331.511171)">broader</text>
   </g>
   <g id="text_36">
    <text style="fill: #0f172a; font: 5.8px 'DejaVu Sans'; text-anchor: middle" x="779.6916" y="359.988999" transform="rotate(-0 779.6916 359.988999)">hasAffiliation</text>
   </g>
   <g id="text_37">
    <text style="fill: #0f172a; font: 5.8px 'DejaVu Sans'; text-anchor: middle" x="779.6916" y="388.466827" transform="rotate(-0 779.6916 388.466827)">countsByYear</text>
   </g>
   <g id="text_38">
    <text style="fill: #0f172a; font: 5.8px 'DejaVu Sans'; text-anchor: middle" x="779.6916" y="416.944655" transform="rotate(-0 779.6916 416.944655)">hasOrganization</text>
   </g>
   <g id="text_39">
    <text style="fill: #0f172a; font: 5.8px 'DejaVu Sans'; text-anchor: middle" x="779.6916" y="445.422483" transform="rotate(-0 779.6916 445.422483)">location</text>
   </g>
   <g id="text_40">
    <text style="fill: #0f172a; font: 5.8px 'DejaVu Sans'; text-anchor: middle" x="779.6916" y="473.900311" transform="rotate(-0 779.6916 473.900311)">hasHostOrganization</text>
   </g>
   <g id="text_41">
    <text style="fill: #0f172a; font: 5.8px 'DejaVu Sans'; text-anchor: middle" x="779.6916" y="502.378139" transform="rotate(-0 779.6916 502.378139)">hasParentPublisher</text>
   </g>
   <g id="text_42">
    <text style="fill: #0f172a; font: 5.8px 'DejaVu Sans'; text-anchor: middle" x="779.6916" y="530.855967" transform="rotate(-0 779.6916 530.855967)">countsByYear</text>
   </g>
   <g id="text_43">
    <text style="fill: #ffffff; font: 700 7px 'DejaVu Sans'; text-anchor: middle" x="572.03235" y="170.230621" transform="rotate(-0 572.03235 170.230621)">Author</text>
   </g>
   <g id="text_44">
    <text style="fill: #ffffff; font: 700 7px 'DejaVu Sans'; text-anchor: middle" x="572.03235" y="228.847484" transform="rotate(-0 572.03235 228.847484)">Work</text>
   </g>
   <g id="text_45">
    <text style="fill: #ffffff; font: 700 7px 'DejaVu Sans'; text-anchor: middle" x="572.03235" y="287.464347" transform="rotate(-0 572.03235 287.464347)">Authorship</text>
   </g>
   <g id="text_46">
    <text style="fill: #ffffff; font: 700 7px 'DejaVu Sans'; text-anchor: middle" x="572.03235" y="346.08121" transform="rotate(-0 572.03235 346.08121)">Institution</text>
   </g>
   <g id="text_47">
    <text style="fill: #ffffff; font: 700 7px 'DejaVu Sans'; text-anchor: middle" x="572.03235" y="404.698072" transform="rotate(-0 572.03235 404.698072)">Source</text>
   </g>
   <g id="text_48">
    <text style="fill: #ffffff; font: 700 7px 'DejaVu Sans'; text-anchor: middle" x="572.03235" y="463.314935" transform="rotate(-0 572.03235 463.314935)">Publisher</text>
   </g>
   <g id="text_49">
    <text style="fill: #ffffff; font: 700 7px 'DejaVu Sans'; text-anchor: middle" x="572.03235" y="521.931798" transform="rotate(-0 572.03235 521.931798)">Concept</text>
   </g>
   <g id="text_50">
    <text style="fill: #0f172a; font: 6.6px 'DejaVu Sans'; text-anchor: middle" x="945.819" y="160.864952" transform="rotate(-0 945.819 160.864952)">CountsByYear</text>
   </g>
   <g id="text_51">
    <text style="fill: #0f172a; font: 6.6px 'DejaVu Sans'; text-anchor: middle" x="945.819" y="222.566913" transform="rotate(-0 945.819 222.566913)">Work</text>
   </g>
   <g id="text_52">
    <text style="fill: #0f172a; font: 6.6px 'DejaVu Sans'; text-anchor: middle" x="945.819" y="284.268874" transform="rotate(-0 945.819 284.268874)">Author</text>
   </g>
   <g id="text_53">
    <text style="fill: #0f172a; font: 6.6px 'DejaVu Sans'; text-anchor: middle" x="945.819" y="345.970835" transform="rotate(-0 945.819 345.970835)">Institution</text>
   </g>
   <g id="text_54">
    <text style="fill: #0f172a; font: 6.6px 'DejaVu Sans'; text-anchor: middle" x="945.819" y="407.672795" transform="rotate(-0 945.819 407.672795)">Concept</text>
   </g>
   <g id="text_55">
    <text style="fill: #0f172a; font: 6.6px 'DejaVu Sans'; text-anchor: middle" x="945.819" y="469.374756" transform="rotate(-0 945.819 469.374756)">Geo</text>
   </g>
   <g id="text_56">
    <text style="fill: #0f172a; font: 6.6px 'DejaVu Sans'; text-anchor: middle" x="945.819" y="531.076717" transform="rotate(-0 945.819 531.076717)">Publisher</text>
   </g>
   <g id="text_57">
    <text style="fill: #0f172a; font: 700 8px 'DejaVu Sans'; text-anchor: middle" x="572.03235" y="123.473691" transform="rotate(-0 572.03235 123.473691)">Domain class</text>
   </g>
   <g id="text_58">
    <text style="fill: #0f172a; font: 700 8px 'DejaVu Sans'; text-anchor: middle" x="779.6916" y="123.473691" transform="rotate(-0 779.6916 123.473691)">Object property</text>
   </g>
   <g id="text_59">
    <text style="fill: #0f172a; font: 700 8px 'DejaVu Sans'; text-anchor: middle" x="945.819" y="123.473691" transform="rotate(-0 945.819 123.473691)">Range class</text>
   </g>
   <g id="text_60">
    <text style="fill: #0f172a; font: 700 11.5px 'DejaVu Sans'; text-anchor: start" x="506.07" y="97.512" transform="rotate(-0 506.07 97.512)">SemOpenAlex</text>
   </g>
  </g>
  <g id="text_61">
   <text style="fill: #0f172a; font: 700 14px 'DejaVu Sans'; text-anchor: start" x="62.46" y="17.837812" transform="rotate(-0 62.46 17.837812)">Semantic predicate connectivity in the two RDF schemas</text>
  </g>
  <g id="text_62">
   <text style="fill: #475569; font: 8.4px 'DejaVu Sans'; text-anchor: start" x="62.46" y="39.672" transform="rotate(-0 62.46 39.672)">Selected alignment-relevant SHACL signatures show the formal domain → object property → range structure; the complete signatures are exported in Table 29.</text>
  </g>
 </g>
 <defs>
  <clipPath id="pea538547b5">
   <rect x="7.2" y="103.512" width="488.61" height="472.02"/>
  </clipPath>
  <clipPath id="pf84b84a81d">
   <rect x="506.07" y="103.512" width="488.61" height="472.02"/>
  </clipPath>
 </defs>
</svg>
