<?xml version="1.0" encoding="utf-8" standalone="no"?>
<!DOCTYPE svg PUBLIC "-//W3C//DTD SVG 1.1//EN"
  "http://www.w3.org/Graphics/SVG/1.1/DTD/svg11.dtd">
<svg xmlns:xlink="http://www.w3.org/1999/xlink" width="827.50375pt" height="632.74775pt" viewBox="0 0 827.50375 632.74775" xmlns="http://www.w3.org/2000/svg" version="1.1">
 <metadata>
  <rdf:RDF xmlns:dc="http://purl.org/dc/elements/1.1/" xmlns:cc="http://creativecommons.org/ns#" xmlns:rdf="http://www.w3.org/1999/02/22-rdf-syntax-ns#">
   <cc:Work>
    <dc:type rdf:resource="http://purl.org/dc/dcmitype/StillImage"/>
    <dc:date>2026-07-03T00:02:05.262218</dc:date>
    <dc:format>image/svg+xml</dc:format>
    <dc:creator>
     <cc:Agent>
      <dc:title>Matplotlib v3.9.4, https://matplotlib.org/</dc:title>
     </cc:Agent>
    </dc:creator>
   </cc:Work>
  </rdf:RDF>
 </metadata>
 <defs>
  <style type="text/css">*{stroke-linejoin: round; stroke-linecap: butt}</style>
 </defs>
 <g id="figure_1">
  <g id="patch_1">
   <path d="M 0 632.74775 
L 827.50375 632.74775 
L 827.50375 0 
L 0 0 
z
" style="fill: #ffffff"/>
  </g>
  <g id="axes_1">
   <g id="patch_2">
    <path d="M 53.98375 234.952826 
L 408.61375 234.952826 
L 408.61375 138.6 
L 53.98375 138.6 
z
" style="fill: #ffffff"/>
   </g>
   <g id="matplotlib.axis_1">
    <g id="xtick_1">
     <g id="line2d_1">
      <path d="M 67.371169 234.952826 
L 67.371169 138.6 
" clip-path="url(#pa2b81436f2)" style="fill: none; stroke: #e2e8f0; stroke-width: 0.8; stroke-linecap: round"/>
     </g>
    </g>
    <g id="xtick_2">
     <g id="line2d_2">
      <path d="M 122.013696 234.952826 
L 122.013696 138.6 
" clip-path="url(#pa2b81436f2)" style="fill: none; stroke: #e2e8f0; stroke-width: 0.8; stroke-linecap: round"/>
     </g>
    </g>
    <g id="xtick_3">
     <g id="line2d_3">
      <path d="M 176.656223 234.952826 
L 176.656223 138.6 
" clip-path="url(#pa2b81436f2)" style="fill: none; stroke: #e2e8f0; stroke-width: 0.8; stroke-linecap: round"/>
     </g>
    </g>
    <g id="xtick_4">
     <g id="line2d_4">
      <path d="M 231.29875 234.952826 
L 231.29875 138.6 
" clip-path="url(#pa2b81436f2)" style="fill: none; stroke: #e2e8f0; stroke-width: 0.8; stroke-linecap: round"/>
     </g>
    </g>
    <g id="xtick_5">
     <g id="line2d_5">
      <path d="M 285.941277 234.952826 
L 285.941277 138.6 
" clip-path="url(#pa2b81436f2)" style="fill: none; stroke: #e2e8f0; stroke-width: 0.8; stroke-linecap: round"/>
     </g>
    </g>
    <g id="xtick_6">
     <g id="line2d_6">
      <path d="M 340.583804 234.952826 
L 340.583804 138.6 
" clip-path="url(#pa2b81436f2)" style="fill: none; stroke: #e2e8f0; stroke-width: 0.8; stroke-linecap: round"/>
     </g>
    </g>
    <g id="xtick_7">
     <g id="line2d_7">
      <path d="M 395.226331 234.952826 
L 395.226331 138.6 
" clip-path="url(#pa2b81436f2)" style="fill: none; stroke: #e2e8f0; stroke-width: 0.8; stroke-linecap: round"/>
     </g>
    </g>
   </g>
   <g id="matplotlib.axis_2">
    <g id="ytick_1">
     <g id="line2d_8">
      <path d="M 53.98375 230.573152 
L 408.61375 230.573152 
" clip-path="url(#pa2b81436f2)" style="fill: none; stroke: #e2e8f0; stroke-width: 0.8; stroke-linecap: round"/>
     </g>
     <g id="text_1">
      <text style="fill: #262626; font: 8.8px 'DejaVu Sans'; text-anchor: end" x="45.68375" y="233.916465" transform="rotate(-0 45.68375 233.916465)">0.00</text>
     </g>
    </g>
    <g id="ytick_2">
     <g id="line2d_9">
      <path d="M 53.98375 208.782965 
L 408.61375 208.782965 
" clip-path="url(#pa2b81436f2)" style="fill: none; stroke: #e2e8f0; stroke-width: 0.8; stroke-linecap: round"/>
     </g>
     <g id="text_2">
      <text style="fill: #262626; font: 8.8px 'DejaVu Sans'; text-anchor: end" x="45.68375" y="212.126278" transform="rotate(-0 45.68375 212.126278)">0.02</text>
     </g>
    </g>
    <g id="ytick_3">
     <g id="line2d_10">
      <path d="M 53.98375 186.992778 
L 408.61375 186.992778 
" clip-path="url(#pa2b81436f2)" style="fill: none; stroke: #e2e8f0; stroke-width: 0.8; stroke-linecap: round"/>
     </g>
     <g id="text_3">
      <text style="fill: #262626; font: 8.8px 'DejaVu Sans'; text-anchor: end" x="45.68375" y="190.336091" transform="rotate(-0 45.68375 190.336091)">0.04</text>
     </g>
    </g>
    <g id="ytick_4">
     <g id="line2d_11">
      <path d="M 53.98375 165.202592 
L 408.61375 165.202592 
" clip-path="url(#pa2b81436f2)" style="fill: none; stroke: #e2e8f0; stroke-width: 0.8; stroke-linecap: round"/>
     </g>
     <g id="text_4">
      <text style="fill: #262626; font: 8.8px 'DejaVu Sans'; text-anchor: end" x="45.68375" y="168.545904" transform="rotate(-0 45.68375 168.545904)">0.06</text>
     </g>
    </g>
    <g id="ytick_5">
     <g id="line2d_12">
      <path d="M 53.98375 143.412405 
L 408.61375 143.412405 
" clip-path="url(#pa2b81436f2)" style="fill: none; stroke: #e2e8f0; stroke-width: 0.8; stroke-linecap: round"/>
     </g>
     <g id="text_5">
      <text style="fill: #262626; font: 8.8px 'DejaVu Sans'; text-anchor: end" x="45.68375" y="146.755717" transform="rotate(-0 45.68375 146.755717)">0.08</text>
     </g>
    </g>
    <g id="text_6">
     <text style="fill: #262626; font: 9.6px 'DejaVu Sans'; text-anchor: middle" x="20.0935" y="186.776413" transform="rotate(-90 20.0935 186.776413)">Share</text>
    </g>
   </g>
   <g id="PolyCollection_1">
    <defs>
     <path id="m8b6b77837c" d="M 70.103295 -402.174598 
L 70.103295 -402.27982 
L 75.567548 -402.299396 
L 81.031801 -402.337325 
L 86.496054 -402.367912 
L 91.960306 -402.397277 
L 97.424559 -402.486593 
L 102.888812 -402.560003 
L 108.353064 -402.599156 
L 113.817317 -402.661555 
L 119.28157 -402.842634 
L 124.745822 -402.990679 
L 130.210075 -403.193781 
L 135.674328 -403.470294 
L 141.138581 -403.828782 
L 146.602833 -404.128542 
L 152.067086 -404.821048 
L 157.531339 -405.950348 
L 162.995591 -412.932915 
L 168.459844 -417.215198 
L 173.924097 -422.788283 
L 179.388349 -429.416033 
L 184.852602 -437.491194 
L 190.316855 -446.508458 
L 195.781107 -455.934373 
L 201.24536 -465.877833 
L 206.709613 -474.261319 
L 212.173866 -481.871547 
L 217.638118 -487.672205 
L 223.102371 -489.768076 
L 228.566624 -489.268884 
L 234.030876 -484.012688 
L 239.495129 -476.285004 
L 244.959382 -465.78607 
L 250.423634 -454.059957 
L 255.887887 -443.114443 
L 261.35214 -431.891192 
L 266.816393 -422.235256 
L 272.280645 -415.032457 
L 277.744898 -409.694286 
L 283.209151 -406.294154 
L 288.673403 -404.257011 
L 294.137656 -403.163193 
L 299.601909 -402.630967 
L 305.066161 -402.354454 
L 310.530414 -402.260243 
L 315.994667 -402.218644 
L 321.458919 -402.190503 
L 326.923172 -402.183162 
L 332.387425 -402.177045 
L 337.851678 -402.174598 
L 343.31593 -402.177045 
L 348.780183 -402.174598 
L 354.244436 -402.174598 
L 359.708688 -402.174598 
L 365.172941 -402.174598 
L 370.637194 -402.174598 
L 376.101446 -402.174598 
L 381.565699 -402.174598 
L 387.029952 -402.174598 
L 392.494205 -402.174598 
L 392.494205 -402.174598 
L 392.494205 -402.174598 
L 387.029952 -402.174598 
L 381.565699 -402.174598 
L 376.101446 -402.174598 
L 370.637194 -402.174598 
L 365.172941 -402.174598 
L 359.708688 -402.174598 
L 354.244436 -402.174598 
L 348.780183 -402.174598 
L 343.31593 -402.174598 
L 337.851678 -402.174598 
L 332.387425 -402.174598 
L 326.923172 -402.174598 
L 321.458919 -402.174598 
L 315.994667 -402.174598 
L 310.530414 -402.174598 
L 305.066161 -402.174598 
L 299.601909 -402.174598 
L 294.137656 -402.174598 
L 288.673403 -402.174598 
L 283.209151 -402.174598 
L 277.744898 -402.174598 
L 272.280645 -402.174598 
L 266.816393 -402.174598 
L 261.35214 -402.174598 
L 255.887887 -402.174598 
L 250.423634 -402.174598 
L 244.959382 -402.174598 
L 239.495129 -402.174598 
L 234.030876 -402.174598 
L 228.566624 -402.174598 
L 223.102371 -402.174598 
L 217.638118 -402.174598 
L 212.173866 -402.174598 
L 206.709613 -402.174598 
L 201.24536 -402.174598 
L 195.781107 -402.174598 
L 190.316855 -402.174598 
L 184.852602 -402.174598 
L 179.388349 -402.174598 
L 173.924097 -402.174598 
L 168.459844 -402.174598 
L 162.995591 -402.174598 
L 157.531339 -402.174598 
L 152.067086 -402.174598 
L 146.602833 -402.174598 
L 141.138581 -402.174598 
L 135.674328 -402.174598 
L 130.210075 -402.174598 
L 124.745822 -402.174598 
L 119.28157 -402.174598 
L 113.817317 -402.174598 
L 108.353064 -402.174598 
L 102.888812 -402.174598 
L 97.424559 -402.174598 
L 91.960306 -402.174598 
L 86.496054 -402.174598 
L 81.031801 -402.174598 
L 75.567548 -402.174598 
L 70.103295 -402.174598 
z
" style="stroke: #2563eb; stroke-opacity: 0.22; stroke-width: 0.8"/>
    </defs>
    <g clip-path="url(#pa2b81436f2)">
     <use xlink:href="#m8b6b77837c" x="0" y="632.74775" style="fill: #2563eb; fill-opacity: 0.22; stroke: #2563eb; stroke-opacity: 0.22; stroke-width: 0.8"/>
    </g>
   </g>
   <g id="line2d_13">
    <path d="M 70.103295 230.46793 
L 75.567548 230.448354 
L 81.031801 230.410425 
L 86.496054 230.379838 
L 91.960306 230.350473 
L 97.424559 230.261157 
L 102.888812 230.187747 
L 108.353064 230.148594 
L 113.817317 230.086195 
L 119.28157 229.905116 
L 124.745822 229.757071 
L 130.210075 229.553969 
L 135.674328 229.277456 
L 141.138581 228.918968 
L 146.602833 228.619208 
L 152.067086 227.926702 
L 157.531339 226.797402 
L 162.995591 219.814835 
L 168.459844 215.532552 
L 173.924097 209.959467 
L 179.388349 203.331717 
L 184.852602 195.256556 
L 190.316855 186.239292 
L 195.781107 176.813377 
L 201.24536 166.869917 
L 206.709613 158.486431 
L 212.173866 150.876203 
L 217.638118 145.075545 
L 223.102371 142.979674 
L 228.566624 143.478866 
L 234.030876 148.735062 
L 239.495129 156.462746 
L 244.959382 166.96168 
L 250.423634 178.687793 
L 255.887887 189.633307 
L 261.35214 200.856558 
L 266.816393 210.512494 
L 272.280645 217.715293 
L 277.744898 223.053464 
L 283.209151 226.453596 
L 288.673403 228.490739 
L 294.137656 229.584557 
L 299.601909 230.116783 
L 305.066161 230.393296 
L 310.530414 230.487507 
L 315.994667 230.529106 
L 321.458919 230.557247 
L 326.923172 230.564588 
L 332.387425 230.570705 
L 337.851678 230.573152 
L 343.31593 230.570705 
L 348.780183 230.573152 
L 354.244436 230.573152 
L 359.708688 230.573152 
L 365.172941 230.573152 
L 370.637194 230.573152 
L 376.101446 230.573152 
L 381.565699 230.573152 
L 387.029952 230.573152 
L 392.494205 230.573152 
" clip-path="url(#pa2b81436f2)" style="fill: none; stroke: #2563eb; stroke-width: 1.8; stroke-linecap: round"/>
   </g>
   <g id="line2d_14">
    <path d="M 221.655786 234.952826 
L 221.655786 138.6 
" clip-path="url(#pa2b81436f2)" style="fill: none; stroke-dasharray: 3.7,1.6; stroke-dashoffset: 0; stroke: #2563eb"/>
   </g>
   <g id="patch_3">
    <path d="M 53.98375 234.952826 
L 53.98375 138.6 
" style="fill: none; stroke: #cbd5e1; stroke-linejoin: miter; stroke-linecap: square"/>
   </g>
   <g id="patch_4">
    <path d="M 53.98375 234.952826 
L 408.61375 234.952826 
" style="fill: none; stroke: #cbd5e1; stroke-linejoin: miter; stroke-linecap: square"/>
   </g>
   <g id="text_7">
    <text style="fill: #0f172a; font: 700 9.3px 'DejaVu Sans'; text-anchor: start" x="53.98375" y="132.6" transform="rotate(-0 53.98375 132.6)">Author · n=890,479 · median=0.582</text>
   </g>
  </g>
  <g id="axes_2">
   <g id="patch_5">
    <path d="M 465.67375 234.952826 
L 820.30375 234.952826 
L 820.30375 138.6 
L 465.67375 138.6 
z
" style="fill: #ffffff"/>
   </g>
   <g id="matplotlib.axis_3">
    <g id="xtick_8">
     <g id="line2d_15">
      <path d="M 479.061169 234.952826 
L 479.061169 138.6 
" clip-path="url(#p3429b5646a)" style="fill: none; stroke: #e2e8f0; stroke-width: 0.8; stroke-linecap: round"/>
     </g>
    </g>
    <g id="xtick_9">
     <g id="line2d_16">
      <path d="M 533.703696 234.952826 
L 533.703696 138.6 
" clip-path="url(#p3429b5646a)" style="fill: none; stroke: #e2e8f0; stroke-width: 0.8; stroke-linecap: round"/>
     </g>
    </g>
    <g id="xtick_10">
     <g id="line2d_17">
      <path d="M 588.346223 234.952826 
L 588.346223 138.6 
" clip-path="url(#p3429b5646a)" style="fill: none; stroke: #e2e8f0; stroke-width: 0.8; stroke-linecap: round"/>
     </g>
    </g>
    <g id="xtick_11">
     <g id="line2d_18">
      <path d="M 642.98875 234.952826 
L 642.98875 138.6 
" clip-path="url(#p3429b5646a)" style="fill: none; stroke: #e2e8f0; stroke-width: 0.8; stroke-linecap: round"/>
     </g>
    </g>
    <g id="xtick_12">
     <g id="line2d_19">
      <path d="M 697.631277 234.952826 
L 697.631277 138.6 
" clip-path="url(#p3429b5646a)" style="fill: none; stroke: #e2e8f0; stroke-width: 0.8; stroke-linecap: round"/>
     </g>
    </g>
    <g id="xtick_13">
     <g id="line2d_20">
      <path d="M 752.273804 234.952826 
L 752.273804 138.6 
" clip-path="url(#p3429b5646a)" style="fill: none; stroke: #e2e8f0; stroke-width: 0.8; stroke-linecap: round"/>
     </g>
    </g>
    <g id="xtick_14">
     <g id="line2d_21">
      <path d="M 806.916331 234.952826 
L 806.916331 138.6 
" clip-path="url(#p3429b5646a)" style="fill: none; stroke: #e2e8f0; stroke-width: 0.8; stroke-linecap: round"/>
     </g>
    </g>
   </g>
   <g id="matplotlib.axis_4">
    <g id="ytick_6">
     <g id="line2d_22">
      <path d="M 465.67375 230.573152 
L 820.30375 230.573152 
" clip-path="url(#p3429b5646a)" style="fill: none; stroke: #e2e8f0; stroke-width: 0.8; stroke-linecap: round"/>
     </g>
     <g id="text_8">
      <text style="fill: #262626; font: 8.8px 'DejaVu Sans'; text-anchor: end" x="457.37375" y="233.916465" transform="rotate(-0 457.37375 233.916465)">0.000</text>
     </g>
    </g>
    <g id="ytick_7">
     <g id="line2d_23">
      <path d="M 465.67375 209.563537 
L 820.30375 209.563537 
" clip-path="url(#p3429b5646a)" style="fill: none; stroke: #e2e8f0; stroke-width: 0.8; stroke-linecap: round"/>
     </g>
     <g id="text_9">
      <text style="fill: #262626; font: 8.8px 'DejaVu Sans'; text-anchor: end" x="457.37375" y="212.906849" transform="rotate(-0 457.37375 212.906849)">0.025</text>
     </g>
    </g>
    <g id="ytick_8">
     <g id="line2d_24">
      <path d="M 465.67375 188.553922 
L 820.30375 188.553922 
" clip-path="url(#p3429b5646a)" style="fill: none; stroke: #e2e8f0; stroke-width: 0.8; stroke-linecap: round"/>
     </g>
     <g id="text_10">
      <text style="fill: #262626; font: 8.8px 'DejaVu Sans'; text-anchor: end" x="457.37375" y="191.897234" transform="rotate(-0 457.37375 191.897234)">0.050</text>
     </g>
    </g>
    <g id="ytick_9">
     <g id="line2d_25">
      <path d="M 465.67375 167.544307 
L 820.30375 167.544307 
" clip-path="url(#p3429b5646a)" style="fill: none; stroke: #e2e8f0; stroke-width: 0.8; stroke-linecap: round"/>
     </g>
     <g id="text_11">
      <text style="fill: #262626; font: 8.8px 'DejaVu Sans'; text-anchor: end" x="457.37375" y="170.887619" transform="rotate(-0 457.37375 170.887619)">0.075</text>
     </g>
    </g>
    <g id="ytick_10">
     <g id="line2d_26">
      <path d="M 465.67375 146.534691 
L 820.30375 146.534691 
" clip-path="url(#p3429b5646a)" style="fill: none; stroke: #e2e8f0; stroke-width: 0.8; stroke-linecap: round"/>
     </g>
     <g id="text_12">
      <text style="fill: #262626; font: 8.8px 'DejaVu Sans'; text-anchor: end" x="457.37375" y="149.878004" transform="rotate(-0 457.37375 149.878004)">0.100</text>
     </g>
    </g>
    <g id="text_13">
     <text style="fill: #262626; font: 9.6px 'DejaVu Sans'; text-anchor: middle" x="426.1845" y="186.776413" transform="rotate(-90 426.1845 186.776413)">Share</text>
    </g>
   </g>
   <g id="PolyCollection_2">
    <defs>
     <path id="m875d01d390" d="M 481.793295 -402.174598 
L 481.793295 -406.096282 
L 487.257548 -406.048037 
L 492.721801 -406.08939 
L 498.186054 -406.137636 
L 503.650306 -406.21345 
L 509.114559 -406.461571 
L 514.578812 -406.585631 
L 520.043064 -406.626985 
L 525.507317 -407.281748 
L 530.97157 -406.95092 
L 536.435822 -407.433377 
L 541.900075 -408.15017 
L 547.364328 -409.852553 
L 552.828581 -413.002307 
L 558.292833 -417.916474 
L 563.757086 -425.263602 
L 569.221339 -440.805603 
L 574.685591 -475.025575 
L 580.149844 -485.343258 
L 585.614097 -486.638999 
L 591.078349 -489.768076 
L 596.542602 -484.013056 
L 602.006855 -475.025575 
L 607.471107 -463.432827 
L 612.93536 -451.2887 
L 618.399613 -437.835048 
L 623.863866 -426.745433 
L 629.328118 -417.627 
L 634.792371 -411.99604 
L 640.256624 -407.385131 
L 645.720876 -405.413951 
L 651.185129 -403.945904 
L 656.649382 -402.863822 
L 662.113634 -402.650162 
L 667.577887 -402.374473 
L 673.04214 -402.257305 
L 678.506393 -402.250412 
L 683.970645 -402.195275 
L 689.434898 -402.195275 
L 694.899151 -402.18149 
L 700.363403 -402.174598 
L 705.827656 -402.174598 
L 711.291909 -402.174598 
L 716.756161 -402.174598 
L 722.220414 -402.174598 
L 727.684667 -402.174598 
L 733.148919 -402.174598 
L 738.613172 -402.174598 
L 744.077425 -402.174598 
L 749.541678 -402.174598 
L 755.00593 -402.174598 
L 760.470183 -402.174598 
L 765.934436 -402.174598 
L 771.398688 -402.174598 
L 776.862941 -402.174598 
L 782.327194 -402.174598 
L 787.791446 -402.174598 
L 793.255699 -402.174598 
L 798.719952 -402.174598 
L 804.184205 -402.174598 
L 804.184205 -402.174598 
L 804.184205 -402.174598 
L 798.719952 -402.174598 
L 793.255699 -402.174598 
L 787.791446 -402.174598 
L 782.327194 -402.174598 
L 776.862941 -402.174598 
L 771.398688 -402.174598 
L 765.934436 -402.174598 
L 760.470183 -402.174598 
L 755.00593 -402.174598 
L 749.541678 -402.174598 
L 744.077425 -402.174598 
L 738.613172 -402.174598 
L 733.148919 -402.174598 
L 727.684667 -402.174598 
L 722.220414 -402.174598 
L 716.756161 -402.174598 
L 711.291909 -402.174598 
L 705.827656 -402.174598 
L 700.363403 -402.174598 
L 694.899151 -402.174598 
L 689.434898 -402.174598 
L 683.970645 -402.174598 
L 678.506393 -402.174598 
L 673.04214 -402.174598 
L 667.577887 -402.174598 
L 662.113634 -402.174598 
L 656.649382 -402.174598 
L 651.185129 -402.174598 
L 645.720876 -402.174598 
L 640.256624 -402.174598 
L 634.792371 -402.174598 
L 629.328118 -402.174598 
L 623.863866 -402.174598 
L 618.399613 -402.174598 
L 612.93536 -402.174598 
L 607.471107 -402.174598 
L 602.006855 -402.174598 
L 596.542602 -402.174598 
L 591.078349 -402.174598 
L 585.614097 -402.174598 
L 580.149844 -402.174598 
L 574.685591 -402.174598 
L 569.221339 -402.174598 
L 563.757086 -402.174598 
L 558.292833 -402.174598 
L 552.828581 -402.174598 
L 547.364328 -402.174598 
L 541.900075 -402.174598 
L 536.435822 -402.174598 
L 530.97157 -402.174598 
L 525.507317 -402.174598 
L 520.043064 -402.174598 
L 514.578812 -402.174598 
L 509.114559 -402.174598 
L 503.650306 -402.174598 
L 498.186054 -402.174598 
L 492.721801 -402.174598 
L 487.257548 -402.174598 
L 481.793295 -402.174598 
z
" style="stroke: #16a34a; stroke-opacity: 0.22; stroke-width: 0.8"/>
    </defs>
    <g clip-path="url(#p3429b5646a)">
     <use xlink:href="#m875d01d390" x="0" y="632.74775" style="fill: #16a34a; fill-opacity: 0.22; stroke: #16a34a; stroke-opacity: 0.22; stroke-width: 0.8"/>
    </g>
   </g>
   <g id="line2d_27">
    <path d="M 481.793295 226.651468 
L 487.257548 226.699713 
L 492.721801 226.65836 
L 498.186054 226.610114 
L 503.650306 226.5343 
L 509.114559 226.286179 
L 514.578812 226.162119 
L 520.043064 226.120765 
L 525.507317 225.466002 
L 530.97157 225.79683 
L 536.435822 225.314373 
L 541.900075 224.59758 
L 547.364328 222.895197 
L 552.828581 219.745443 
L 558.292833 214.831276 
L 563.757086 207.484148 
L 569.221339 191.942147 
L 574.685591 157.722175 
L 580.149844 147.404492 
L 585.614097 146.108751 
L 591.078349 142.979674 
L 596.542602 148.734694 
L 602.006855 157.722175 
L 607.471107 169.314923 
L 612.93536 181.45905 
L 618.399613 194.912702 
L 623.863866 206.002317 
L 629.328118 215.12075 
L 634.792371 220.75171 
L 640.256624 225.362619 
L 645.720876 227.333799 
L 651.185129 228.801846 
L 656.649382 229.883928 
L 662.113634 230.097588 
L 667.577887 230.373277 
L 673.04214 230.490445 
L 678.506393 230.497338 
L 683.970645 230.552475 
L 689.434898 230.552475 
L 694.899151 230.56626 
L 700.363403 230.573152 
L 705.827656 230.573152 
L 711.291909 230.573152 
L 716.756161 230.573152 
L 722.220414 230.573152 
L 727.684667 230.573152 
L 733.148919 230.573152 
L 738.613172 230.573152 
L 744.077425 230.573152 
L 749.541678 230.573152 
L 755.00593 230.573152 
L 760.470183 230.573152 
L 765.934436 230.573152 
L 771.398688 230.573152 
L 776.862941 230.573152 
L 782.327194 230.573152 
L 787.791446 230.573152 
L 793.255699 230.573152 
L 798.719952 230.573152 
L 804.184205 230.573152 
" clip-path="url(#p3429b5646a)" style="fill: none; stroke: #16a34a; stroke-width: 1.8; stroke-linecap: round"/>
   </g>
   <g id="line2d_28">
    <path d="M 590.188288 234.952826 
L 590.188288 138.6 
" clip-path="url(#p3429b5646a)" style="fill: none; stroke-dasharray: 3.7,1.6; stroke-dashoffset: 0; stroke: #16a34a"/>
   </g>
   <g id="patch_6">
    <path d="M 465.67375 234.952826 
L 465.67375 138.6 
" style="fill: none; stroke: #cbd5e1; stroke-linejoin: miter; stroke-linecap: square"/>
   </g>
   <g id="patch_7">
    <path d="M 465.67375 234.952826 
L 820.30375 234.952826 
" style="fill: none; stroke: #cbd5e1; stroke-linejoin: miter; stroke-linecap: square"/>
   </g>
   <g id="text_14">
    <text style="fill: #0f172a; font: 700 9.3px 'DejaVu Sans'; text-anchor: start" x="465.67375" y="132.6" transform="rotate(-0 465.67375 132.6)">Work · n=121,932 · median=0.503</text>
   </g>
  </g>
  <g id="axes_3">
   <g id="patch_8">
    <path d="M 53.98375 355.115217 
L 408.61375 355.115217 
L 408.61375 258.762391 
L 53.98375 258.762391 
z
" style="fill: #ffffff"/>
   </g>
   <g id="matplotlib.axis_5">
    <g id="xtick_15">
     <g id="line2d_29">
      <path d="M 67.371169 355.115217 
L 67.371169 258.762391 
" clip-path="url(#p768b331889)" style="fill: none; stroke: #e2e8f0; stroke-width: 0.8; stroke-linecap: round"/>
     </g>
    </g>
    <g id="xtick_16">
     <g id="line2d_30">
      <path d="M 122.013696 355.115217 
L 122.013696 258.762391 
" clip-path="url(#p768b331889)" style="fill: none; stroke: #e2e8f0; stroke-width: 0.8; stroke-linecap: round"/>
     </g>
    </g>
    <g id="xtick_17">
     <g id="line2d_31">
      <path d="M 176.656223 355.115217 
L 176.656223 258.762391 
" clip-path="url(#p768b331889)" style="fill: none; stroke: #e2e8f0; stroke-width: 0.8; stroke-linecap: round"/>
     </g>
    </g>
    <g id="xtick_18">
     <g id="line2d_32">
      <path d="M 231.29875 355.115217 
L 231.29875 258.762391 
" clip-path="url(#p768b331889)" style="fill: none; stroke: #e2e8f0; stroke-width: 0.8; stroke-linecap: round"/>
     </g>
    </g>
    <g id="xtick_19">
     <g id="line2d_33">
      <path d="M 285.941277 355.115217 
L 285.941277 258.762391 
" clip-path="url(#p768b331889)" style="fill: none; stroke: #e2e8f0; stroke-width: 0.8; stroke-linecap: round"/>
     </g>
    </g>
    <g id="xtick_20">
     <g id="line2d_34">
      <path d="M 340.583804 355.115217 
L 340.583804 258.762391 
" clip-path="url(#p768b331889)" style="fill: none; stroke: #e2e8f0; stroke-width: 0.8; stroke-linecap: round"/>
     </g>
    </g>
    <g id="xtick_21">
     <g id="line2d_35">
      <path d="M 395.226331 355.115217 
L 395.226331 258.762391 
" clip-path="url(#p768b331889)" style="fill: none; stroke: #e2e8f0; stroke-width: 0.8; stroke-linecap: round"/>
     </g>
    </g>
   </g>
   <g id="matplotlib.axis_6">
    <g id="ytick_11">
     <g id="line2d_36">
      <path d="M 53.98375 350.735543 
L 408.61375 350.735543 
" clip-path="url(#p768b331889)" style="fill: none; stroke: #e2e8f0; stroke-width: 0.8; stroke-linecap: round"/>
     </g>
     <g id="text_15">
      <text style="fill: #262626; font: 8.8px 'DejaVu Sans'; text-anchor: end" x="45.68375" y="354.078856" transform="rotate(-0 45.68375 354.078856)">0.00</text>
     </g>
    </g>
    <g id="ytick_12">
     <g id="line2d_37">
      <path d="M 53.98375 327.412597 
L 408.61375 327.412597 
" clip-path="url(#p768b331889)" style="fill: none; stroke: #e2e8f0; stroke-width: 0.8; stroke-linecap: round"/>
     </g>
     <g id="text_16">
      <text style="fill: #262626; font: 8.8px 'DejaVu Sans'; text-anchor: end" x="45.68375" y="330.75591" transform="rotate(-0 45.68375 330.75591)">0.02</text>
     </g>
    </g>
    <g id="ytick_13">
     <g id="line2d_38">
      <path d="M 53.98375 304.089651 
L 408.61375 304.089651 
" clip-path="url(#p768b331889)" style="fill: none; stroke: #e2e8f0; stroke-width: 0.8; stroke-linecap: round"/>
     </g>
     <g id="text_17">
      <text style="fill: #262626; font: 8.8px 'DejaVu Sans'; text-anchor: end" x="45.68375" y="307.432964" transform="rotate(-0 45.68375 307.432964)">0.04</text>
     </g>
    </g>
    <g id="ytick_14">
     <g id="line2d_39">
      <path d="M 53.98375 280.766705 
L 408.61375 280.766705 
" clip-path="url(#p768b331889)" style="fill: none; stroke: #e2e8f0; stroke-width: 0.8; stroke-linecap: round"/>
     </g>
     <g id="text_18">
      <text style="fill: #262626; font: 8.8px 'DejaVu Sans'; text-anchor: end" x="45.68375" y="284.110018" transform="rotate(-0 45.68375 284.110018)">0.06</text>
     </g>
    </g>
    <g id="text_19">
     <text style="fill: #262626; font: 9.6px 'DejaVu Sans'; text-anchor: middle" x="20.0935" y="306.938804" transform="rotate(-90 20.0935 306.938804)">Share</text>
    </g>
   </g>
   <g id="PolyCollection_3">
    <defs>
     <path id="m1fa9fb8892" d="M 70.103295 -282.012207 
L 70.103295 -282.95814 
L 75.567548 -282.39058 
L 81.031801 -282.95814 
L 86.496054 -282.768954 
L 91.960306 -283.336514 
L 97.424559 -282.95814 
L 102.888812 -283.336514 
L 108.353064 -282.95814 
L 113.817317 -283.714888 
L 119.28157 -283.904074 
L 124.745822 -284.093261 
L 130.210075 -282.768954 
L 135.674328 -284.850008 
L 141.138581 -283.904074 
L 146.602833 -286.552689 
L 152.067086 -285.985129 
L 157.531339 -288.066183 
L 162.995591 -292.228293 
L 168.459844 -300.363324 
L 173.924097 -304.71462 
L 179.388349 -321.74143 
L 184.852602 -336.687185 
L 190.316855 -350.119447 
L 195.781107 -348.795139 
L 201.24536 -358.254478 
L 206.709613 -368.848938 
L 212.173866 -364.119268 
L 217.638118 -356.551797 
L 223.102371 -369.605685 
L 228.566624 -360.146346 
L 234.030876 -355.038303 
L 239.495129 -337.822306 
L 244.959382 -336.876372 
L 250.423634 -323.822484 
L 255.887887 -318.146881 
L 261.35214 -317.200947 
L 266.816393 -308.309169 
L 272.280645 -296.390402 
L 277.744898 -293.741787 
L 283.209151 -288.633744 
L 288.673403 -285.795942 
L 294.137656 -285.985129 
L 299.601909 -283.714888 
L 305.066161 -282.579767 
L 310.530414 -282.39058 
L 315.994667 -282.201393 
L 321.458919 -282.012207 
L 326.923172 -282.201393 
L 332.387425 -282.201393 
L 337.851678 -282.012207 
L 343.31593 -282.012207 
L 348.780183 -282.012207 
L 354.244436 -282.012207 
L 359.708688 -282.012207 
L 365.172941 -282.012207 
L 370.637194 -282.012207 
L 376.101446 -282.012207 
L 381.565699 -282.012207 
L 387.029952 -282.012207 
L 392.494205 -282.012207 
L 392.494205 -282.012207 
L 392.494205 -282.012207 
L 387.029952 -282.012207 
L 381.565699 -282.012207 
L 376.101446 -282.012207 
L 370.637194 -282.012207 
L 365.172941 -282.012207 
L 359.708688 -282.012207 
L 354.244436 -282.012207 
L 348.780183 -282.012207 
L 343.31593 -282.012207 
L 337.851678 -282.012207 
L 332.387425 -282.012207 
L 326.923172 -282.012207 
L 321.458919 -282.012207 
L 315.994667 -282.012207 
L 310.530414 -282.012207 
L 305.066161 -282.012207 
L 299.601909 -282.012207 
L 294.137656 -282.012207 
L 288.673403 -282.012207 
L 283.209151 -282.012207 
L 277.744898 -282.012207 
L 272.280645 -282.012207 
L 266.816393 -282.012207 
L 261.35214 -282.012207 
L 255.887887 -282.012207 
L 250.423634 -282.012207 
L 244.959382 -282.012207 
L 239.495129 -282.012207 
L 234.030876 -282.012207 
L 228.566624 -282.012207 
L 223.102371 -282.012207 
L 217.638118 -282.012207 
L 212.173866 -282.012207 
L 206.709613 -282.012207 
L 201.24536 -282.012207 
L 195.781107 -282.012207 
L 190.316855 -282.012207 
L 184.852602 -282.012207 
L 179.388349 -282.012207 
L 173.924097 -282.012207 
L 168.459844 -282.012207 
L 162.995591 -282.012207 
L 157.531339 -282.012207 
L 152.067086 -282.012207 
L 146.602833 -282.012207 
L 141.138581 -282.012207 
L 135.674328 -282.012207 
L 130.210075 -282.012207 
L 124.745822 -282.012207 
L 119.28157 -282.012207 
L 113.817317 -282.012207 
L 108.353064 -282.012207 
L 102.888812 -282.012207 
L 97.424559 -282.012207 
L 91.960306 -282.012207 
L 86.496054 -282.012207 
L 81.031801 -282.012207 
L 75.567548 -282.012207 
L 70.103295 -282.012207 
z
" style="stroke: #7c3aed; stroke-opacity: 0.22; stroke-width: 0.8"/>
    </defs>
    <g clip-path="url(#p768b331889)">
     <use xlink:href="#m1fa9fb8892" x="0" y="632.74775" style="fill: #7c3aed; fill-opacity: 0.22; stroke: #7c3aed; stroke-opacity: 0.22; stroke-width: 0.8"/>
    </g>
   </g>
   <g id="line2d_40">
    <path d="M 70.103295 349.78961 
L 75.567548 350.35717 
L 81.031801 349.78961 
L 86.496054 349.978796 
L 91.960306 349.411236 
L 97.424559 349.78961 
L 102.888812 349.411236 
L 108.353064 349.78961 
L 113.817317 349.032862 
L 119.28157 348.843676 
L 124.745822 348.654489 
L 130.210075 349.978796 
L 135.674328 347.897742 
L 141.138581 348.843676 
L 146.602833 346.195061 
L 152.067086 346.762621 
L 157.531339 344.681567 
L 162.995591 340.519457 
L 168.459844 332.384426 
L 173.924097 328.03313 
L 179.388349 311.00632 
L 184.852602 296.060565 
L 190.316855 282.628303 
L 195.781107 283.952611 
L 201.24536 274.493272 
L 206.709613 263.898812 
L 212.173866 268.628482 
L 217.638118 276.195953 
L 223.102371 263.142065 
L 228.566624 272.601404 
L 234.030876 277.709447 
L 239.495129 294.925444 
L 244.959382 295.871378 
L 250.423634 308.925266 
L 255.887887 314.600869 
L 261.35214 315.546803 
L 266.816393 324.438581 
L 272.280645 336.357348 
L 277.744898 339.005963 
L 283.209151 344.114006 
L 288.673403 346.951808 
L 294.137656 346.762621 
L 299.601909 349.032862 
L 305.066161 350.167983 
L 310.530414 350.35717 
L 315.994667 350.546357 
L 321.458919 350.735543 
L 326.923172 350.546357 
L 332.387425 350.546357 
L 337.851678 350.735543 
L 343.31593 350.735543 
L 348.780183 350.735543 
L 354.244436 350.735543 
L 359.708688 350.735543 
L 365.172941 350.735543 
L 370.637194 350.735543 
L 376.101446 350.735543 
L 381.565699 350.735543 
L 387.029952 350.735543 
L 392.494205 350.735543 
" clip-path="url(#p768b331889)" style="fill: none; stroke: #7c3aed; stroke-width: 1.8; stroke-linecap: round"/>
   </g>
   <g id="line2d_41">
    <path d="M 216.7645 355.115217 
L 216.7645 258.762391 
" clip-path="url(#p768b331889)" style="fill: none; stroke-dasharray: 3.7,1.6; stroke-dashoffset: 0; stroke: #7c3aed"/>
   </g>
   <g id="patch_9">
    <path d="M 53.98375 355.115217 
L 53.98375 258.762391 
" style="fill: none; stroke: #cbd5e1; stroke-linejoin: miter; stroke-linecap: square"/>
   </g>
   <g id="patch_10">
    <path d="M 53.98375 355.115217 
L 408.61375 355.115217 
" style="fill: none; stroke: #cbd5e1; stroke-linejoin: miter; stroke-linecap: square"/>
   </g>
   <g id="text_20">
    <text style="fill: #0f172a; font: 700 9.3px 'DejaVu Sans'; text-anchor: start" x="53.98375" y="252.762391" transform="rotate(-0 53.98375 252.762391)">Source · n=6,164 · median=0.573</text>
   </g>
  </g>
  <g id="axes_4">
   <g id="patch_11">
    <path d="M 465.67375 355.115217 
L 820.30375 355.115217 
L 820.30375 258.762391 
L 465.67375 258.762391 
z
" style="fill: #ffffff"/>
   </g>
   <g id="matplotlib.axis_7">
    <g id="xtick_22">
     <g id="line2d_42">
      <path d="M 479.061169 355.115217 
L 479.061169 258.762391 
" clip-path="url(#pf24255c725)" style="fill: none; stroke: #e2e8f0; stroke-width: 0.8; stroke-linecap: round"/>
     </g>
    </g>
    <g id="xtick_23">
     <g id="line2d_43">
      <path d="M 533.703696 355.115217 
L 533.703696 258.762391 
" clip-path="url(#pf24255c725)" style="fill: none; stroke: #e2e8f0; stroke-width: 0.8; stroke-linecap: round"/>
     </g>
    </g>
    <g id="xtick_24">
     <g id="line2d_44">
      <path d="M 588.346223 355.115217 
L 588.346223 258.762391 
" clip-path="url(#pf24255c725)" style="fill: none; stroke: #e2e8f0; stroke-width: 0.8; stroke-linecap: round"/>
     </g>
    </g>
    <g id="xtick_25">
     <g id="line2d_45">
      <path d="M 642.98875 355.115217 
L 642.98875 258.762391 
" clip-path="url(#pf24255c725)" style="fill: none; stroke: #e2e8f0; stroke-width: 0.8; stroke-linecap: round"/>
     </g>
    </g>
    <g id="xtick_26">
     <g id="line2d_46">
      <path d="M 697.631277 355.115217 
L 697.631277 258.762391 
" clip-path="url(#pf24255c725)" style="fill: none; stroke: #e2e8f0; stroke-width: 0.8; stroke-linecap: round"/>
     </g>
    </g>
    <g id="xtick_27">
     <g id="line2d_47">
      <path d="M 752.273804 355.115217 
L 752.273804 258.762391 
" clip-path="url(#pf24255c725)" style="fill: none; stroke: #e2e8f0; stroke-width: 0.8; stroke-linecap: round"/>
     </g>
    </g>
    <g id="xtick_28">
     <g id="line2d_48">
      <path d="M 806.916331 355.115217 
L 806.916331 258.762391 
" clip-path="url(#pf24255c725)" style="fill: none; stroke: #e2e8f0; stroke-width: 0.8; stroke-linecap: round"/>
     </g>
    </g>
   </g>
   <g id="matplotlib.axis_8">
    <g id="ytick_15">
     <g id="line2d_49">
      <path d="M 465.67375 350.735543 
L 820.30375 350.735543 
" clip-path="url(#pf24255c725)" style="fill: none; stroke: #e2e8f0; stroke-width: 0.8; stroke-linecap: round"/>
     </g>
     <g id="text_21">
      <text style="fill: #262626; font: 8.8px 'DejaVu Sans'; text-anchor: end" x="457.37375" y="354.078856" transform="rotate(-0 457.37375 354.078856)">0.000</text>
     </g>
    </g>
    <g id="ytick_16">
     <g id="line2d_50">
      <path d="M 465.67375 330.444232 
L 820.30375 330.444232 
" clip-path="url(#pf24255c725)" style="fill: none; stroke: #e2e8f0; stroke-width: 0.8; stroke-linecap: round"/>
     </g>
     <g id="text_22">
      <text style="fill: #262626; font: 8.8px 'DejaVu Sans'; text-anchor: end" x="457.37375" y="333.787544" transform="rotate(-0 457.37375 333.787544)">0.025</text>
     </g>
    </g>
    <g id="ytick_17">
     <g id="line2d_51">
      <path d="M 465.67375 310.15292 
L 820.30375 310.15292 
" clip-path="url(#pf24255c725)" style="fill: none; stroke: #e2e8f0; stroke-width: 0.8; stroke-linecap: round"/>
     </g>
     <g id="text_23">
      <text style="fill: #262626; font: 8.8px 'DejaVu Sans'; text-anchor: end" x="457.37375" y="313.496232" transform="rotate(-0 457.37375 313.496232)">0.050</text>
     </g>
    </g>
    <g id="ytick_18">
     <g id="line2d_52">
      <path d="M 465.67375 289.861608 
L 820.30375 289.861608 
" clip-path="url(#pf24255c725)" style="fill: none; stroke: #e2e8f0; stroke-width: 0.8; stroke-linecap: round"/>
     </g>
     <g id="text_24">
      <text style="fill: #262626; font: 8.8px 'DejaVu Sans'; text-anchor: end" x="457.37375" y="293.204921" transform="rotate(-0 457.37375 293.204921)">0.075</text>
     </g>
    </g>
    <g id="ytick_19">
     <g id="line2d_53">
      <path d="M 465.67375 269.570296 
L 820.30375 269.570296 
" clip-path="url(#pf24255c725)" style="fill: none; stroke: #e2e8f0; stroke-width: 0.8; stroke-linecap: round"/>
     </g>
     <g id="text_25">
      <text style="fill: #262626; font: 8.8px 'DejaVu Sans'; text-anchor: end" x="457.37375" y="272.913609" transform="rotate(-0 457.37375 272.913609)">0.100</text>
     </g>
    </g>
    <g id="text_26">
     <text style="fill: #262626; font: 9.6px 'DejaVu Sans'; text-anchor: middle" x="426.1845" y="306.938804" transform="rotate(-90 426.1845 306.938804)">Share</text>
    </g>
   </g>
   <g id="PolyCollection_4">
    <defs>
     <path id="mffd654673d" d="M 481.793295 -282.012207 
L 481.793295 -285.544202 
L 487.257548 -288.369798 
L 492.721801 -285.544202 
L 498.186054 -288.369798 
L 503.650306 -289.782596 
L 509.114559 -288.369798 
L 514.578812 -287.663399 
L 520.043064 -286.250601 
L 525.507317 -286.957 
L 530.97157 -290.488995 
L 536.435822 -286.250601 
L 541.900075 -283.425005 
L 547.364328 -289.782596 
L 552.828581 -289.782596 
L 558.292833 -298.259384 
L 563.757086 -297.552985 
L 569.221339 -303.910576 
L 574.685591 -316.625758 
L 580.149844 -334.285734 
L 585.614097 -358.3033 
L 591.078349 -369.605685 
L 596.542602 -366.07369 
L 602.006855 -356.184103 
L 607.471107 -355.477704 
L 612.93536 -347.000916 
L 618.399613 -322.276951 
L 623.863866 -326.515345 
L 629.328118 -306.736172 
L 634.792371 -291.195394 
L 640.256624 -290.488995 
L 645.720876 -285.544202 
L 651.185129 -282.718606 
L 656.649382 -282.718606 
L 662.113634 -282.012207 
L 667.577887 -282.012207 
L 673.04214 -282.012207 
L 678.506393 -282.012207 
L 683.970645 -282.012207 
L 689.434898 -282.012207 
L 694.899151 -282.012207 
L 700.363403 -282.012207 
L 705.827656 -282.012207 
L 711.291909 -282.012207 
L 716.756161 -282.012207 
L 722.220414 -282.012207 
L 727.684667 -282.012207 
L 733.148919 -282.012207 
L 738.613172 -282.012207 
L 744.077425 -282.012207 
L 749.541678 -282.012207 
L 755.00593 -282.012207 
L 760.470183 -282.012207 
L 765.934436 -282.012207 
L 771.398688 -282.012207 
L 776.862941 -282.012207 
L 782.327194 -282.012207 
L 787.791446 -282.012207 
L 793.255699 -282.012207 
L 798.719952 -282.012207 
L 804.184205 -282.012207 
L 804.184205 -282.012207 
L 804.184205 -282.012207 
L 798.719952 -282.012207 
L 793.255699 -282.012207 
L 787.791446 -282.012207 
L 782.327194 -282.012207 
L 776.862941 -282.012207 
L 771.398688 -282.012207 
L 765.934436 -282.012207 
L 760.470183 -282.012207 
L 755.00593 -282.012207 
L 749.541678 -282.012207 
L 744.077425 -282.012207 
L 738.613172 -282.012207 
L 733.148919 -282.012207 
L 727.684667 -282.012207 
L 722.220414 -282.012207 
L 716.756161 -282.012207 
L 711.291909 -282.012207 
L 705.827656 -282.012207 
L 700.363403 -282.012207 
L 694.899151 -282.012207 
L 689.434898 -282.012207 
L 683.970645 -282.012207 
L 678.506393 -282.012207 
L 673.04214 -282.012207 
L 667.577887 -282.012207 
L 662.113634 -282.012207 
L 656.649382 -282.012207 
L 651.185129 -282.012207 
L 645.720876 -282.012207 
L 640.256624 -282.012207 
L 634.792371 -282.012207 
L 629.328118 -282.012207 
L 623.863866 -282.012207 
L 618.399613 -282.012207 
L 612.93536 -282.012207 
L 607.471107 -282.012207 
L 602.006855 -282.012207 
L 596.542602 -282.012207 
L 591.078349 -282.012207 
L 585.614097 -282.012207 
L 580.149844 -282.012207 
L 574.685591 -282.012207 
L 569.221339 -282.012207 
L 563.757086 -282.012207 
L 558.292833 -282.012207 
L 552.828581 -282.012207 
L 547.364328 -282.012207 
L 541.900075 -282.012207 
L 536.435822 -282.012207 
L 530.97157 -282.012207 
L 525.507317 -282.012207 
L 520.043064 -282.012207 
L 514.578812 -282.012207 
L 509.114559 -282.012207 
L 503.650306 -282.012207 
L 498.186054 -282.012207 
L 492.721801 -282.012207 
L 487.257548 -282.012207 
L 481.793295 -282.012207 
z
" style="stroke: #d97706; stroke-opacity: 0.22; stroke-width: 0.8"/>
    </defs>
    <g clip-path="url(#pf24255c725)">
     <use xlink:href="#mffd654673d" x="0" y="632.74775" style="fill: #d97706; fill-opacity: 0.22; stroke: #d97706; stroke-opacity: 0.22; stroke-width: 0.8"/>
    </g>
   </g>
   <g id="line2d_54">
    <path d="M 481.793295 347.203548 
L 487.257548 344.377952 
L 492.721801 347.203548 
L 498.186054 344.377952 
L 503.650306 342.965154 
L 509.114559 344.377952 
L 514.578812 345.084351 
L 520.043064 346.497149 
L 525.507317 345.79075 
L 530.97157 342.258755 
L 536.435822 346.497149 
L 541.900075 349.322745 
L 547.364328 342.965154 
L 552.828581 342.965154 
L 558.292833 334.488366 
L 563.757086 335.194765 
L 569.221339 328.837174 
L 574.685591 316.121992 
L 580.149844 298.462016 
L 585.614097 274.44445 
L 591.078349 263.142065 
L 596.542602 266.67406 
L 602.006855 276.563647 
L 607.471107 277.270046 
L 612.93536 285.746834 
L 618.399613 310.470799 
L 623.863866 306.232405 
L 629.328118 326.011578 
L 634.792371 341.552356 
L 640.256624 342.258755 
L 645.720876 347.203548 
L 651.185129 350.029144 
L 656.649382 350.029144 
L 662.113634 350.735543 
L 667.577887 350.735543 
L 673.04214 350.735543 
L 678.506393 350.735543 
L 683.970645 350.735543 
L 689.434898 350.735543 
L 694.899151 350.735543 
L 700.363403 350.735543 
L 705.827656 350.735543 
L 711.291909 350.735543 
L 716.756161 350.735543 
L 722.220414 350.735543 
L 727.684667 350.735543 
L 733.148919 350.735543 
L 738.613172 350.735543 
L 744.077425 350.735543 
L 749.541678 350.735543 
L 755.00593 350.735543 
L 760.470183 350.735543 
L 765.934436 350.735543 
L 771.398688 350.735543 
L 776.862941 350.735543 
L 782.327194 350.735543 
L 787.791446 350.735543 
L 793.255699 350.735543 
L 798.719952 350.735543 
L 804.184205 350.735543 
" clip-path="url(#pf24255c725)" style="fill: none; stroke: #d97706; stroke-width: 1.8; stroke-linecap: round"/>
   </g>
   <g id="line2d_55">
    <path d="M 595.334234 355.115217 
L 595.334234 258.762391 
" clip-path="url(#pf24255c725)" style="fill: none; stroke-dasharray: 3.7,1.6; stroke-dashoffset: 0; stroke: #d97706"/>
   </g>
   <g id="patch_12">
    <path d="M 465.67375 355.115217 
L 465.67375 258.762391 
" style="fill: none; stroke: #cbd5e1; stroke-linejoin: miter; stroke-linecap: square"/>
   </g>
   <g id="patch_13">
    <path d="M 465.67375 355.115217 
L 820.30375 355.115217 
" style="fill: none; stroke: #cbd5e1; stroke-linejoin: miter; stroke-linecap: square"/>
   </g>
   <g id="text_27">
    <text style="fill: #0f172a; font: 700 9.3px 'DejaVu Sans'; text-anchor: start" x="465.67375" y="252.762391" transform="rotate(-0 465.67375 252.762391)">Concept · n=1,149 · median=0.513</text>
   </g>
  </g>
  <g id="axes_5">
   <g id="patch_14">
    <path d="M 53.98375 475.277609 
L 408.61375 475.277609 
L 408.61375 378.924783 
L 53.98375 378.924783 
z
" style="fill: #ffffff"/>
   </g>
   <g id="matplotlib.axis_9">
    <g id="xtick_29">
     <g id="line2d_56">
      <path d="M 67.371169 475.277609 
L 67.371169 378.924783 
" clip-path="url(#p50152a5e83)" style="fill: none; stroke: #e2e8f0; stroke-width: 0.8; stroke-linecap: round"/>
     </g>
    </g>
    <g id="xtick_30">
     <g id="line2d_57">
      <path d="M 122.013696 475.277609 
L 122.013696 378.924783 
" clip-path="url(#p50152a5e83)" style="fill: none; stroke: #e2e8f0; stroke-width: 0.8; stroke-linecap: round"/>
     </g>
    </g>
    <g id="xtick_31">
     <g id="line2d_58">
      <path d="M 176.656223 475.277609 
L 176.656223 378.924783 
" clip-path="url(#p50152a5e83)" style="fill: none; stroke: #e2e8f0; stroke-width: 0.8; stroke-linecap: round"/>
     </g>
    </g>
    <g id="xtick_32">
     <g id="line2d_59">
      <path d="M 231.29875 475.277609 
L 231.29875 378.924783 
" clip-path="url(#p50152a5e83)" style="fill: none; stroke: #e2e8f0; stroke-width: 0.8; stroke-linecap: round"/>
     </g>
    </g>
    <g id="xtick_33">
     <g id="line2d_60">
      <path d="M 285.941277 475.277609 
L 285.941277 378.924783 
" clip-path="url(#p50152a5e83)" style="fill: none; stroke: #e2e8f0; stroke-width: 0.8; stroke-linecap: round"/>
     </g>
    </g>
    <g id="xtick_34">
     <g id="line2d_61">
      <path d="M 340.583804 475.277609 
L 340.583804 378.924783 
" clip-path="url(#p50152a5e83)" style="fill: none; stroke: #e2e8f0; stroke-width: 0.8; stroke-linecap: round"/>
     </g>
    </g>
    <g id="xtick_35">
     <g id="line2d_62">
      <path d="M 395.226331 475.277609 
L 395.226331 378.924783 
" clip-path="url(#p50152a5e83)" style="fill: none; stroke: #e2e8f0; stroke-width: 0.8; stroke-linecap: round"/>
     </g>
    </g>
   </g>
   <g id="matplotlib.axis_10">
    <g id="ytick_20">
     <g id="line2d_63">
      <path d="M 53.98375 470.897935 
L 408.61375 470.897935 
" clip-path="url(#p50152a5e83)" style="fill: none; stroke: #e2e8f0; stroke-width: 0.8; stroke-linecap: round"/>
     </g>
     <g id="text_28">
      <text style="fill: #262626; font: 8.8px 'DejaVu Sans'; text-anchor: end" x="45.68375" y="474.241247" transform="rotate(-0 45.68375 474.241247)">0.00</text>
     </g>
    </g>
    <g id="ytick_21">
     <g id="line2d_64">
      <path d="M 53.98375 440.568693 
L 408.61375 440.568693 
" clip-path="url(#p50152a5e83)" style="fill: none; stroke: #e2e8f0; stroke-width: 0.8; stroke-linecap: round"/>
     </g>
     <g id="text_29">
      <text style="fill: #262626; font: 8.8px 'DejaVu Sans'; text-anchor: end" x="45.68375" y="443.912005" transform="rotate(-0 45.68375 443.912005)">0.05</text>
     </g>
    </g>
    <g id="ytick_22">
     <g id="line2d_65">
      <path d="M 53.98375 410.239451 
L 408.61375 410.239451 
" clip-path="url(#p50152a5e83)" style="fill: none; stroke: #e2e8f0; stroke-width: 0.8; stroke-linecap: round"/>
     </g>
     <g id="text_30">
      <text style="fill: #262626; font: 8.8px 'DejaVu Sans'; text-anchor: end" x="45.68375" y="413.582764" transform="rotate(-0 45.68375 413.582764)">0.10</text>
     </g>
    </g>
    <g id="ytick_23">
     <g id="line2d_66">
      <path d="M 53.98375 379.910209 
L 408.61375 379.910209 
" clip-path="url(#p50152a5e83)" style="fill: none; stroke: #e2e8f0; stroke-width: 0.8; stroke-linecap: round"/>
     </g>
     <g id="text_31">
      <text style="fill: #262626; font: 8.8px 'DejaVu Sans'; text-anchor: end" x="45.68375" y="383.253522" transform="rotate(-0 45.68375 383.253522)">0.15</text>
     </g>
    </g>
    <g id="text_32">
     <text style="fill: #262626; font: 9.6px 'DejaVu Sans'; text-anchor: middle" x="20.0935" y="427.101196" transform="rotate(-90 20.0935 427.101196)">Share</text>
    </g>
   </g>
   <g id="PolyCollection_5">
    <defs>
     <path id="m50f7e1ec47" d="M 70.103295 -161.849815 
L 70.103295 -164.039652 
L 75.567548 -164.769598 
L 81.031801 -162.579761 
L 86.496054 -162.579761 
L 91.960306 -161.849815 
L 97.424559 -164.769598 
L 102.888812 -163.309707 
L 108.353064 -162.579761 
L 113.817317 -164.039652 
L 119.28157 -162.579761 
L 124.745822 -165.499543 
L 130.210075 -165.499543 
L 135.674328 -162.579761 
L 141.138581 -168.419326 
L 146.602833 -164.769598 
L 152.067086 -174.258891 
L 157.531339 -213.675957 
L 162.995591 -249.443293 
L 168.459844 -239.224054 
L 173.924097 -234.114435 
L 179.388349 -212.946011 
L 184.852602 -203.456717 
L 190.316855 -197.617152 
L 195.781107 -193.967424 
L 201.24536 -183.018239 
L 206.709613 -183.018239 
L 212.173866 -177.178674 
L 217.638118 -172.799 
L 223.102371 -172.069054 
L 228.566624 -175.718783 
L 234.030876 -169.149272 
L 239.495129 -168.419326 
L 244.959382 -165.499543 
L 250.423634 -163.309707 
L 255.887887 -162.579761 
L 261.35214 -161.849815 
L 266.816393 -161.849815 
L 272.280645 -161.849815 
L 277.744898 -161.849815 
L 283.209151 -161.849815 
L 288.673403 -161.849815 
L 294.137656 -161.849815 
L 299.601909 -161.849815 
L 305.066161 -161.849815 
L 310.530414 -161.849815 
L 315.994667 -161.849815 
L 321.458919 -161.849815 
L 326.923172 -161.849815 
L 332.387425 -161.849815 
L 337.851678 -161.849815 
L 343.31593 -161.849815 
L 348.780183 -161.849815 
L 354.244436 -161.849815 
L 359.708688 -161.849815 
L 365.172941 -161.849815 
L 370.637194 -161.849815 
L 376.101446 -161.849815 
L 381.565699 -161.849815 
L 387.029952 -161.849815 
L 392.494205 -161.849815 
L 392.494205 -161.849815 
L 392.494205 -161.849815 
L 387.029952 -161.849815 
L 381.565699 -161.849815 
L 376.101446 -161.849815 
L 370.637194 -161.849815 
L 365.172941 -161.849815 
L 359.708688 -161.849815 
L 354.244436 -161.849815 
L 348.780183 -161.849815 
L 343.31593 -161.849815 
L 337.851678 -161.849815 
L 332.387425 -161.849815 
L 326.923172 -161.849815 
L 321.458919 -161.849815 
L 315.994667 -161.849815 
L 310.530414 -161.849815 
L 305.066161 -161.849815 
L 299.601909 -161.849815 
L 294.137656 -161.849815 
L 288.673403 -161.849815 
L 283.209151 -161.849815 
L 277.744898 -161.849815 
L 272.280645 -161.849815 
L 266.816393 -161.849815 
L 261.35214 -161.849815 
L 255.887887 -161.849815 
L 250.423634 -161.849815 
L 244.959382 -161.849815 
L 239.495129 -161.849815 
L 234.030876 -161.849815 
L 228.566624 -161.849815 
L 223.102371 -161.849815 
L 217.638118 -161.849815 
L 212.173866 -161.849815 
L 206.709613 -161.849815 
L 201.24536 -161.849815 
L 195.781107 -161.849815 
L 190.316855 -161.849815 
L 184.852602 -161.849815 
L 179.388349 -161.849815 
L 173.924097 -161.849815 
L 168.459844 -161.849815 
L 162.995591 -161.849815 
L 157.531339 -161.849815 
L 152.067086 -161.849815 
L 146.602833 -161.849815 
L 141.138581 -161.849815 
L 135.674328 -161.849815 
L 130.210075 -161.849815 
L 124.745822 -161.849815 
L 119.28157 -161.849815 
L 113.817317 -161.849815 
L 108.353064 -161.849815 
L 102.888812 -161.849815 
L 97.424559 -161.849815 
L 91.960306 -161.849815 
L 86.496054 -161.849815 
L 81.031801 -161.849815 
L 75.567548 -161.849815 
L 70.103295 -161.849815 
z
" style="stroke: #0891b2; stroke-opacity: 0.22; stroke-width: 0.8"/>
    </defs>
    <g clip-path="url(#p50152a5e83)">
     <use xlink:href="#m50f7e1ec47" x="0" y="632.74775" style="fill: #0891b2; fill-opacity: 0.22; stroke: #0891b2; stroke-opacity: 0.22; stroke-width: 0.8"/>
    </g>
   </g>
   <g id="line2d_67">
    <path d="M 70.103295 468.708098 
L 75.567548 467.978152 
L 81.031801 470.167989 
L 86.496054 470.167989 
L 91.960306 470.897935 
L 97.424559 467.978152 
L 102.888812 469.438043 
L 108.353064 470.167989 
L 113.817317 468.708098 
L 119.28157 470.167989 
L 124.745822 467.248207 
L 130.210075 467.248207 
L 135.674328 470.167989 
L 141.138581 464.328424 
L 146.602833 467.978152 
L 152.067086 458.488859 
L 157.531339 419.071793 
L 162.995591 383.304457 
L 168.459844 393.523696 
L 173.924097 398.633315 
L 179.388349 419.801739 
L 184.852602 429.291033 
L 190.316855 435.130598 
L 195.781107 438.780326 
L 201.24536 449.729511 
L 206.709613 449.729511 
L 212.173866 455.569076 
L 217.638118 459.94875 
L 223.102371 460.678696 
L 228.566624 457.028967 
L 234.030876 463.598478 
L 239.495129 464.328424 
L 244.959382 467.248207 
L 250.423634 469.438043 
L 255.887887 470.167989 
L 261.35214 470.897935 
L 266.816393 470.897935 
L 272.280645 470.897935 
L 277.744898 470.897935 
L 283.209151 470.897935 
L 288.673403 470.897935 
L 294.137656 470.897935 
L 299.601909 470.897935 
L 305.066161 470.897935 
L 310.530414 470.897935 
L 315.994667 470.897935 
L 321.458919 470.897935 
L 326.923172 470.897935 
L 332.387425 470.897935 
L 337.851678 470.897935 
L 343.31593 470.897935 
L 348.780183 470.897935 
L 354.244436 470.897935 
L 359.708688 470.897935 
L 365.172941 470.897935 
L 370.637194 470.897935 
L 376.101446 470.897935 
L 381.565699 470.897935 
L 387.029952 470.897935 
L 392.494205 470.897935 
" clip-path="url(#p50152a5e83)" style="fill: none; stroke: #0891b2; stroke-width: 1.8; stroke-linecap: round"/>
   </g>
   <g id="line2d_68">
    <path d="M 174.252416 475.277609 
L 174.252416 378.924783 
" clip-path="url(#p50152a5e83)" style="fill: none; stroke-dasharray: 3.7,1.6; stroke-dashoffset: 0; stroke: #0891b2"/>
   </g>
   <g id="patch_15">
    <path d="M 53.98375 475.277609 
L 53.98375 378.924783 
" style="fill: none; stroke: #cbd5e1; stroke-linejoin: miter; stroke-linecap: square"/>
   </g>
   <g id="patch_16">
    <path d="M 53.98375 475.277609 
L 408.61375 475.277609 
" style="fill: none; stroke: #cbd5e1; stroke-linejoin: miter; stroke-linecap: square"/>
   </g>
   <g id="text_33">
    <text style="fill: #0f172a; font: 700 9.3px 'DejaVu Sans'; text-anchor: start" x="53.98375" y="372.924783" transform="rotate(-0 53.98375 372.924783)">Institution · n=831 · median=0.496</text>
   </g>
  </g>
  <g id="axes_6">
   <g id="patch_17">
    <path d="M 465.67375 475.277609 
L 820.30375 475.277609 
L 820.30375 378.924783 
L 465.67375 378.924783 
z
" style="fill: #ffffff"/>
   </g>
   <g id="matplotlib.axis_11">
    <g id="xtick_36">
     <g id="line2d_69">
      <path d="M 479.061169 475.277609 
L 479.061169 378.924783 
" clip-path="url(#pa2b3544837)" style="fill: none; stroke: #e2e8f0; stroke-width: 0.8; stroke-linecap: round"/>
     </g>
    </g>
    <g id="xtick_37">
     <g id="line2d_70">
      <path d="M 533.703696 475.277609 
L 533.703696 378.924783 
" clip-path="url(#pa2b3544837)" style="fill: none; stroke: #e2e8f0; stroke-width: 0.8; stroke-linecap: round"/>
     </g>
    </g>
    <g id="xtick_38">
     <g id="line2d_71">
      <path d="M 588.346223 475.277609 
L 588.346223 378.924783 
" clip-path="url(#pa2b3544837)" style="fill: none; stroke: #e2e8f0; stroke-width: 0.8; stroke-linecap: round"/>
     </g>
    </g>
    <g id="xtick_39">
     <g id="line2d_72">
      <path d="M 642.98875 475.277609 
L 642.98875 378.924783 
" clip-path="url(#pa2b3544837)" style="fill: none; stroke: #e2e8f0; stroke-width: 0.8; stroke-linecap: round"/>
     </g>
    </g>
    <g id="xtick_40">
     <g id="line2d_73">
      <path d="M 697.631277 475.277609 
L 697.631277 378.924783 
" clip-path="url(#pa2b3544837)" style="fill: none; stroke: #e2e8f0; stroke-width: 0.8; stroke-linecap: round"/>
     </g>
    </g>
    <g id="xtick_41">
     <g id="line2d_74">
      <path d="M 752.273804 475.277609 
L 752.273804 378.924783 
" clip-path="url(#pa2b3544837)" style="fill: none; stroke: #e2e8f0; stroke-width: 0.8; stroke-linecap: round"/>
     </g>
    </g>
    <g id="xtick_42">
     <g id="line2d_75">
      <path d="M 806.916331 475.277609 
L 806.916331 378.924783 
" clip-path="url(#pa2b3544837)" style="fill: none; stroke: #e2e8f0; stroke-width: 0.8; stroke-linecap: round"/>
     </g>
    </g>
   </g>
   <g id="matplotlib.axis_12">
    <g id="ytick_24">
     <g id="line2d_76">
      <path d="M 465.67375 470.897935 
L 820.30375 470.897935 
" clip-path="url(#pa2b3544837)" style="fill: none; stroke: #e2e8f0; stroke-width: 0.8; stroke-linecap: round"/>
     </g>
     <g id="text_34">
      <text style="fill: #262626; font: 8.8px 'DejaVu Sans'; text-anchor: end" x="457.37375" y="474.241247" transform="rotate(-0 457.37375 474.241247)">0.000</text>
     </g>
    </g>
    <g id="ytick_25">
     <g id="line2d_77">
      <path d="M 465.67375 450.438601 
L 820.30375 450.438601 
" clip-path="url(#pa2b3544837)" style="fill: none; stroke: #e2e8f0; stroke-width: 0.8; stroke-linecap: round"/>
     </g>
     <g id="text_35">
      <text style="fill: #262626; font: 8.8px 'DejaVu Sans'; text-anchor: end" x="457.37375" y="453.781913" transform="rotate(-0 457.37375 453.781913)">0.025</text>
     </g>
    </g>
    <g id="ytick_26">
     <g id="line2d_78">
      <path d="M 465.67375 429.979267 
L 820.30375 429.979267 
" clip-path="url(#pa2b3544837)" style="fill: none; stroke: #e2e8f0; stroke-width: 0.8; stroke-linecap: round"/>
     </g>
     <g id="text_36">
      <text style="fill: #262626; font: 8.8px 'DejaVu Sans'; text-anchor: end" x="457.37375" y="433.32258" transform="rotate(-0 457.37375 433.32258)">0.050</text>
     </g>
    </g>
    <g id="ytick_27">
     <g id="line2d_79">
      <path d="M 465.67375 409.519933 
L 820.30375 409.519933 
" clip-path="url(#pa2b3544837)" style="fill: none; stroke: #e2e8f0; stroke-width: 0.8; stroke-linecap: round"/>
     </g>
     <g id="text_37">
      <text style="fill: #262626; font: 8.8px 'DejaVu Sans'; text-anchor: end" x="457.37375" y="412.863246" transform="rotate(-0 457.37375 412.863246)">0.075</text>
     </g>
    </g>
    <g id="ytick_28">
     <g id="line2d_80">
      <path d="M 465.67375 389.060599 
L 820.30375 389.060599 
" clip-path="url(#pa2b3544837)" style="fill: none; stroke: #e2e8f0; stroke-width: 0.8; stroke-linecap: round"/>
     </g>
     <g id="text_38">
      <text style="fill: #262626; font: 8.8px 'DejaVu Sans'; text-anchor: end" x="457.37375" y="392.403912" transform="rotate(-0 457.37375 392.403912)">0.100</text>
     </g>
    </g>
    <g id="text_39">
     <text style="fill: #262626; font: 9.6px 'DejaVu Sans'; text-anchor: middle" x="426.1845" y="427.101196" transform="rotate(-90 426.1845 427.101196)">Share</text>
    </g>
   </g>
   <g id="PolyCollection_6">
    <defs>
     <path id="mbc34002866" d="M 481.793295 -161.849815 
L 481.793295 -166.855157 
L 487.257548 -161.849815 
L 492.721801 -164.352486 
L 498.186054 -161.849815 
L 503.650306 -164.352486 
L 509.114559 -164.352486 
L 514.578812 -161.849815 
L 520.043064 -161.849815 
L 525.507317 -164.352486 
L 530.97157 -166.855157 
L 536.435822 -166.855157 
L 541.900075 -161.849815 
L 547.364328 -164.352486 
L 552.828581 -166.855157 
L 558.292833 -164.352486 
L 563.757086 -166.855157 
L 569.221339 -181.871182 
L 574.685591 -184.373852 
L 580.149844 -204.395219 
L 585.614097 -204.395219 
L 591.078349 -241.935281 
L 596.542602 -219.411244 
L 602.006855 -249.443293 
L 607.471107 -234.427269 
L 612.93536 -204.395219 
L 618.399613 -229.421927 
L 623.863866 -209.400561 
L 629.328118 -196.887207 
L 634.792371 -221.913915 
L 640.256624 -199.389877 
L 645.720876 -181.871182 
L 651.185129 -171.860498 
L 656.649382 -179.368511 
L 662.113634 -169.357828 
L 667.577887 -164.352486 
L 673.04214 -166.855157 
L 678.506393 -161.849815 
L 683.970645 -161.849815 
L 689.434898 -161.849815 
L 694.899151 -161.849815 
L 700.363403 -161.849815 
L 705.827656 -161.849815 
L 711.291909 -161.849815 
L 716.756161 -161.849815 
L 722.220414 -161.849815 
L 727.684667 -161.849815 
L 733.148919 -161.849815 
L 738.613172 -161.849815 
L 744.077425 -161.849815 
L 749.541678 -161.849815 
L 755.00593 -161.849815 
L 760.470183 -161.849815 
L 765.934436 -161.849815 
L 771.398688 -161.849815 
L 776.862941 -161.849815 
L 782.327194 -161.849815 
L 787.791446 -161.849815 
L 793.255699 -161.849815 
L 798.719952 -161.849815 
L 804.184205 -161.849815 
L 804.184205 -161.849815 
L 804.184205 -161.849815 
L 798.719952 -161.849815 
L 793.255699 -161.849815 
L 787.791446 -161.849815 
L 782.327194 -161.849815 
L 776.862941 -161.849815 
L 771.398688 -161.849815 
L 765.934436 -161.849815 
L 760.470183 -161.849815 
L 755.00593 -161.849815 
L 749.541678 -161.849815 
L 744.077425 -161.849815 
L 738.613172 -161.849815 
L 733.148919 -161.849815 
L 727.684667 -161.849815 
L 722.220414 -161.849815 
L 716.756161 -161.849815 
L 711.291909 -161.849815 
L 705.827656 -161.849815 
L 700.363403 -161.849815 
L 694.899151 -161.849815 
L 689.434898 -161.849815 
L 683.970645 -161.849815 
L 678.506393 -161.849815 
L 673.04214 -161.849815 
L 667.577887 -161.849815 
L 662.113634 -161.849815 
L 656.649382 -161.849815 
L 651.185129 -161.849815 
L 645.720876 -161.849815 
L 640.256624 -161.849815 
L 634.792371 -161.849815 
L 629.328118 -161.849815 
L 623.863866 -161.849815 
L 618.399613 -161.849815 
L 612.93536 -161.849815 
L 607.471107 -161.849815 
L 602.006855 -161.849815 
L 596.542602 -161.849815 
L 591.078349 -161.849815 
L 585.614097 -161.849815 
L 580.149844 -161.849815 
L 574.685591 -161.849815 
L 569.221339 -161.849815 
L 563.757086 -161.849815 
L 558.292833 -161.849815 
L 552.828581 -161.849815 
L 547.364328 -161.849815 
L 541.900075 -161.849815 
L 536.435822 -161.849815 
L 530.97157 -161.849815 
L 525.507317 -161.849815 
L 520.043064 -161.849815 
L 514.578812 -161.849815 
L 509.114559 -161.849815 
L 503.650306 -161.849815 
L 498.186054 -161.849815 
L 492.721801 -161.849815 
L 487.257548 -161.849815 
L 481.793295 -161.849815 
z
" style="stroke: #64748b; stroke-opacity: 0.22; stroke-width: 0.8"/>
    </defs>
    <g clip-path="url(#pa2b3544837)">
     <use xlink:href="#mbc34002866" x="0" y="632.74775" style="fill: #64748b; fill-opacity: 0.22; stroke: #64748b; stroke-opacity: 0.22; stroke-width: 0.8"/>
    </g>
   </g>
   <g id="line2d_81">
    <path d="M 481.793295 465.892593 
L 487.257548 470.897935 
L 492.721801 468.395264 
L 498.186054 470.897935 
L 503.650306 468.395264 
L 509.114559 468.395264 
L 514.578812 470.897935 
L 520.043064 470.897935 
L 525.507317 468.395264 
L 530.97157 465.892593 
L 536.435822 465.892593 
L 541.900075 470.897935 
L 547.364328 468.395264 
L 552.828581 465.892593 
L 558.292833 468.395264 
L 563.757086 465.892593 
L 569.221339 450.876568 
L 574.685591 448.373898 
L 580.149844 428.352531 
L 585.614097 428.352531 
L 591.078349 390.812469 
L 596.542602 413.336506 
L 602.006855 383.304457 
L 607.471107 398.320481 
L 612.93536 428.352531 
L 618.399613 403.325823 
L 623.863866 423.347189 
L 629.328118 435.860543 
L 634.792371 410.833835 
L 640.256624 433.357873 
L 645.720876 450.876568 
L 651.185129 460.887252 
L 656.649382 453.379239 
L 662.113634 463.389922 
L 667.577887 468.395264 
L 673.04214 465.892593 
L 678.506393 470.897935 
L 683.970645 470.897935 
L 689.434898 470.897935 
L 694.899151 470.897935 
L 700.363403 470.897935 
L 705.827656 470.897935 
L 711.291909 470.897935 
L 716.756161 470.897935 
L 722.220414 470.897935 
L 727.684667 470.897935 
L 733.148919 470.897935 
L 738.613172 470.897935 
L 744.077425 470.897935 
L 749.541678 470.897935 
L 755.00593 470.897935 
L 760.470183 470.897935 
L 765.934436 470.897935 
L 771.398688 470.897935 
L 776.862941 470.897935 
L 782.327194 470.897935 
L 787.791446 470.897935 
L 793.255699 470.897935 
L 798.719952 470.897935 
L 804.184205 470.897935 
" clip-path="url(#pa2b3544837)" style="fill: none; stroke: #64748b; stroke-width: 1.8; stroke-linecap: round"/>
   </g>
   <g id="line2d_82">
    <path d="M 606.343631 475.277609 
L 606.343631 378.924783 
" clip-path="url(#pa2b3544837)" style="fill: none; stroke-dasharray: 3.7,1.6; stroke-dashoffset: 0; stroke: #64748b"/>
   </g>
   <g id="patch_18">
    <path d="M 465.67375 475.277609 
L 465.67375 378.924783 
" style="fill: none; stroke: #cbd5e1; stroke-linejoin: miter; stroke-linecap: square"/>
   </g>
   <g id="patch_19">
    <path d="M 465.67375 475.277609 
L 820.30375 475.277609 
" style="fill: none; stroke: #cbd5e1; stroke-linejoin: miter; stroke-linecap: square"/>
   </g>
   <g id="text_40">
    <text style="fill: #0f172a; font: 700 9.3px 'DejaVu Sans'; text-anchor: start" x="465.67375" y="372.924783" transform="rotate(-0 465.67375 372.924783)">Keyword · n=327 · median=0.533</text>
   </g>
  </g>
  <g id="axes_7">
   <g id="patch_20">
    <path d="M 53.98375 595.44 
L 408.61375 595.44 
L 408.61375 499.087174 
L 53.98375 499.087174 
z
" style="fill: #ffffff"/>
   </g>
   <g id="matplotlib.axis_13">
    <g id="xtick_43">
     <g id="line2d_83">
      <path d="M 67.371169 595.44 
L 67.371169 499.087174 
" clip-path="url(#p2b07ed682b)" style="fill: none; stroke: #e2e8f0; stroke-width: 0.8; stroke-linecap: round"/>
     </g>
     <g id="text_41">
      <text style="fill: #262626; font: 8.8px 'DejaVu Sans'; text-anchor: middle" x="67.371169" y="610.426625" transform="rotate(-0 67.371169 610.426625)">0.3</text>
     </g>
    </g>
    <g id="xtick_44">
     <g id="line2d_84">
      <path d="M 122.013696 595.44 
L 122.013696 499.087174 
" clip-path="url(#p2b07ed682b)" style="fill: none; stroke: #e2e8f0; stroke-width: 0.8; stroke-linecap: round"/>
     </g>
     <g id="text_42">
      <text style="fill: #262626; font: 8.8px 'DejaVu Sans'; text-anchor: middle" x="122.013696" y="610.426625" transform="rotate(-0 122.013696 610.426625)">0.4</text>
     </g>
    </g>
    <g id="xtick_45">
     <g id="line2d_85">
      <path d="M 176.656223 595.44 
L 176.656223 499.087174 
" clip-path="url(#p2b07ed682b)" style="fill: none; stroke: #e2e8f0; stroke-width: 0.8; stroke-linecap: round"/>
     </g>
     <g id="text_43">
      <text style="fill: #262626; font: 8.8px 'DejaVu Sans'; text-anchor: middle" x="176.656223" y="610.426625" transform="rotate(-0 176.656223 610.426625)">0.5</text>
     </g>
    </g>
    <g id="xtick_46">
     <g id="line2d_86">
      <path d="M 231.29875 595.44 
L 231.29875 499.087174 
" clip-path="url(#p2b07ed682b)" style="fill: none; stroke: #e2e8f0; stroke-width: 0.8; stroke-linecap: round"/>
     </g>
     <g id="text_44">
      <text style="fill: #262626; font: 8.8px 'DejaVu Sans'; text-anchor: middle" x="231.29875" y="610.426625" transform="rotate(-0 231.29875 610.426625)">0.6</text>
     </g>
    </g>
    <g id="xtick_47">
     <g id="line2d_87">
      <path d="M 285.941277 595.44 
L 285.941277 499.087174 
" clip-path="url(#p2b07ed682b)" style="fill: none; stroke: #e2e8f0; stroke-width: 0.8; stroke-linecap: round"/>
     </g>
     <g id="text_45">
      <text style="fill: #262626; font: 8.8px 'DejaVu Sans'; text-anchor: middle" x="285.941277" y="610.426625" transform="rotate(-0 285.941277 610.426625)">0.7</text>
     </g>
    </g>
    <g id="xtick_48">
     <g id="line2d_88">
      <path d="M 340.583804 595.44 
L 340.583804 499.087174 
" clip-path="url(#p2b07ed682b)" style="fill: none; stroke: #e2e8f0; stroke-width: 0.8; stroke-linecap: round"/>
     </g>
     <g id="text_46">
      <text style="fill: #262626; font: 8.8px 'DejaVu Sans'; text-anchor: middle" x="340.583804" y="610.426625" transform="rotate(-0 340.583804 610.426625)">0.8</text>
     </g>
    </g>
    <g id="xtick_49">
     <g id="line2d_89">
      <path d="M 395.226331 595.44 
L 395.226331 499.087174 
" clip-path="url(#p2b07ed682b)" style="fill: none; stroke: #e2e8f0; stroke-width: 0.8; stroke-linecap: round"/>
     </g>
     <g id="text_47">
      <text style="fill: #262626; font: 8.8px 'DejaVu Sans'; text-anchor: middle" x="395.226331" y="610.426625" transform="rotate(-0 395.226331 610.426625)">0.9</text>
     </g>
    </g>
    <g id="text_48">
     <text style="fill: #262626; font: 9.6px 'DejaVu Sans'; text-anchor: middle" x="231.29875" y="623.55125" transform="rotate(-0 231.29875 623.55125)">ABC score</text>
    </g>
   </g>
   <g id="matplotlib.axis_14">
    <g id="ytick_29">
     <g id="line2d_90">
      <path d="M 53.98375 591.060326 
L 408.61375 591.060326 
" clip-path="url(#p2b07ed682b)" style="fill: none; stroke: #e2e8f0; stroke-width: 0.8; stroke-linecap: round"/>
     </g>
     <g id="text_49">
      <text style="fill: #262626; font: 8.8px 'DejaVu Sans'; text-anchor: end" x="45.68375" y="594.403639" transform="rotate(-0 45.68375 594.403639)">0.000</text>
     </g>
    </g>
    <g id="ytick_30">
     <g id="line2d_91">
      <path d="M 53.98375 570.804334 
L 408.61375 570.804334 
" clip-path="url(#p2b07ed682b)" style="fill: none; stroke: #e2e8f0; stroke-width: 0.8; stroke-linecap: round"/>
     </g>
     <g id="text_50">
      <text style="fill: #262626; font: 8.8px 'DejaVu Sans'; text-anchor: end" x="45.68375" y="574.147647" transform="rotate(-0 45.68375 574.147647)">0.025</text>
     </g>
    </g>
    <g id="ytick_31">
     <g id="line2d_92">
      <path d="M 53.98375 550.548342 
L 408.61375 550.548342 
" clip-path="url(#p2b07ed682b)" style="fill: none; stroke: #e2e8f0; stroke-width: 0.8; stroke-linecap: round"/>
     </g>
     <g id="text_51">
      <text style="fill: #262626; font: 8.8px 'DejaVu Sans'; text-anchor: end" x="45.68375" y="553.891655" transform="rotate(-0 45.68375 553.891655)">0.050</text>
     </g>
    </g>
    <g id="ytick_32">
     <g id="line2d_93">
      <path d="M 53.98375 530.292351 
L 408.61375 530.292351 
" clip-path="url(#p2b07ed682b)" style="fill: none; stroke: #e2e8f0; stroke-width: 0.8; stroke-linecap: round"/>
     </g>
     <g id="text_52">
      <text style="fill: #262626; font: 8.8px 'DejaVu Sans'; text-anchor: end" x="45.68375" y="533.635663" transform="rotate(-0 45.68375 533.635663)">0.075</text>
     </g>
    </g>
    <g id="ytick_33">
     <g id="line2d_94">
      <path d="M 53.98375 510.036359 
L 408.61375 510.036359 
" clip-path="url(#p2b07ed682b)" style="fill: none; stroke: #e2e8f0; stroke-width: 0.8; stroke-linecap: round"/>
     </g>
     <g id="text_53">
      <text style="fill: #262626; font: 8.8px 'DejaVu Sans'; text-anchor: end" x="45.68375" y="513.379671" transform="rotate(-0 45.68375 513.379671)">0.100</text>
     </g>
    </g>
    <g id="text_54">
     <text style="fill: #262626; font: 9.6px 'DejaVu Sans'; text-anchor: middle" x="14.4945" y="547.263587" transform="rotate(-90 14.4945 547.263587)">Share</text>
    </g>
   </g>
   <g id="PolyCollection_7">
    <defs>
     <path id="m48cf4ecc3e" d="M 70.103295 -41.687424 
L 70.103295 -47.944101 
L 75.567548 -41.687424 
L 81.031801 -41.687424 
L 86.496054 -41.687424 
L 91.960306 -44.815762 
L 97.424559 -44.815762 
L 102.888812 -41.687424 
L 108.353064 -41.687424 
L 113.817317 -41.687424 
L 119.28157 -54.200778 
L 124.745822 -51.072439 
L 130.210075 -47.944101 
L 135.674328 -47.944101 
L 141.138581 -47.944101 
L 146.602833 -54.200778 
L 152.067086 -54.200778 
L 157.531339 -69.84247 
L 162.995591 -94.869179 
L 168.459844 -110.510871 
L 173.924097 -129.280902 
L 179.388349 -113.63921 
L 184.852602 -129.280902 
L 190.316855 -94.869179 
L 195.781107 -94.869179 
L 201.24536 -85.484163 
L 206.709613 -72.970809 
L 212.173866 -85.484163 
L 217.638118 -66.714132 
L 223.102371 -69.84247 
L 228.566624 -51.072439 
L 234.030876 -51.072439 
L 239.495129 -51.072439 
L 244.959382 -47.944101 
L 250.423634 -57.329116 
L 255.887887 -44.815762 
L 261.35214 -41.687424 
L 266.816393 -41.687424 
L 272.280645 -41.687424 
L 277.744898 -44.815762 
L 283.209151 -41.687424 
L 288.673403 -41.687424 
L 294.137656 -41.687424 
L 299.601909 -41.687424 
L 305.066161 -41.687424 
L 310.530414 -41.687424 
L 315.994667 -41.687424 
L 321.458919 -41.687424 
L 326.923172 -41.687424 
L 332.387425 -41.687424 
L 337.851678 -41.687424 
L 343.31593 -41.687424 
L 348.780183 -41.687424 
L 354.244436 -41.687424 
L 359.708688 -41.687424 
L 365.172941 -41.687424 
L 370.637194 -41.687424 
L 376.101446 -41.687424 
L 381.565699 -41.687424 
L 387.029952 -41.687424 
L 392.494205 -41.687424 
L 392.494205 -41.687424 
L 392.494205 -41.687424 
L 387.029952 -41.687424 
L 381.565699 -41.687424 
L 376.101446 -41.687424 
L 370.637194 -41.687424 
L 365.172941 -41.687424 
L 359.708688 -41.687424 
L 354.244436 -41.687424 
L 348.780183 -41.687424 
L 343.31593 -41.687424 
L 337.851678 -41.687424 
L 332.387425 -41.687424 
L 326.923172 -41.687424 
L 321.458919 -41.687424 
L 315.994667 -41.687424 
L 310.530414 -41.687424 
L 305.066161 -41.687424 
L 299.601909 -41.687424 
L 294.137656 -41.687424 
L 288.673403 -41.687424 
L 283.209151 -41.687424 
L 277.744898 -41.687424 
L 272.280645 -41.687424 
L 266.816393 -41.687424 
L 261.35214 -41.687424 
L 255.887887 -41.687424 
L 250.423634 -41.687424 
L 244.959382 -41.687424 
L 239.495129 -41.687424 
L 234.030876 -41.687424 
L 228.566624 -41.687424 
L 223.102371 -41.687424 
L 217.638118 -41.687424 
L 212.173866 -41.687424 
L 206.709613 -41.687424 
L 201.24536 -41.687424 
L 195.781107 -41.687424 
L 190.316855 -41.687424 
L 184.852602 -41.687424 
L 179.388349 -41.687424 
L 173.924097 -41.687424 
L 168.459844 -41.687424 
L 162.995591 -41.687424 
L 157.531339 -41.687424 
L 152.067086 -41.687424 
L 146.602833 -41.687424 
L 141.138581 -41.687424 
L 135.674328 -41.687424 
L 130.210075 -41.687424 
L 124.745822 -41.687424 
L 119.28157 -41.687424 
L 113.817317 -41.687424 
L 108.353064 -41.687424 
L 102.888812 -41.687424 
L 97.424559 -41.687424 
L 91.960306 -41.687424 
L 86.496054 -41.687424 
L 81.031801 -41.687424 
L 75.567548 -41.687424 
L 70.103295 -41.687424 
z
" style="stroke: #db2777; stroke-opacity: 0.22; stroke-width: 0.8"/>
    </defs>
    <g clip-path="url(#p2b07ed682b)">
     <use xlink:href="#m48cf4ecc3e" x="0" y="632.74775" style="fill: #db2777; fill-opacity: 0.22; stroke: #db2777; stroke-opacity: 0.22; stroke-width: 0.8"/>
    </g>
   </g>
   <g id="line2d_95">
    <path d="M 70.103295 584.803649 
L 75.567548 591.060326 
L 81.031801 591.060326 
L 86.496054 591.060326 
L 91.960306 587.931988 
L 97.424559 587.931988 
L 102.888812 591.060326 
L 108.353064 591.060326 
L 113.817317 591.060326 
L 119.28157 578.546972 
L 124.745822 581.675311 
L 130.210075 584.803649 
L 135.674328 584.803649 
L 141.138581 584.803649 
L 146.602833 578.546972 
L 152.067086 578.546972 
L 157.531339 562.90528 
L 162.995591 537.878571 
L 168.459844 522.236879 
L 173.924097 503.466848 
L 179.388349 519.10854 
L 184.852602 503.466848 
L 190.316855 537.878571 
L 195.781107 537.878571 
L 201.24536 547.263587 
L 206.709613 559.776941 
L 212.173866 547.263587 
L 217.638118 566.033618 
L 223.102371 562.90528 
L 228.566624 581.675311 
L 234.030876 581.675311 
L 239.495129 581.675311 
L 244.959382 584.803649 
L 250.423634 575.418634 
L 255.887887 587.931988 
L 261.35214 591.060326 
L 266.816393 591.060326 
L 272.280645 591.060326 
L 277.744898 587.931988 
L 283.209151 591.060326 
L 288.673403 591.060326 
L 294.137656 591.060326 
L 299.601909 591.060326 
L 305.066161 591.060326 
L 310.530414 591.060326 
L 315.994667 591.060326 
L 321.458919 591.060326 
L 326.923172 591.060326 
L 332.387425 591.060326 
L 337.851678 591.060326 
L 343.31593 591.060326 
L 348.780183 591.060326 
L 354.244436 591.060326 
L 359.708688 591.060326 
L 365.172941 591.060326 
L 370.637194 591.060326 
L 376.101446 591.060326 
L 381.565699 591.060326 
L 387.029952 591.060326 
L 392.494205 591.060326 
" clip-path="url(#p2b07ed682b)" style="fill: none; stroke: #db2777; stroke-width: 1.8; stroke-linecap: round"/>
   </g>
   <g id="line2d_96">
    <path d="M 183.111723 595.44 
L 183.111723 499.087174 
" clip-path="url(#p2b07ed682b)" style="fill: none; stroke-dasharray: 3.7,1.6; stroke-dashoffset: 0; stroke: #db2777"/>
   </g>
   <g id="patch_21">
    <path d="M 53.98375 595.44 
L 53.98375 499.087174 
" style="fill: none; stroke: #cbd5e1; stroke-linejoin: miter; stroke-linecap: square"/>
   </g>
   <g id="patch_22">
    <path d="M 53.98375 595.44 
L 408.61375 595.44 
" style="fill: none; stroke: #cbd5e1; stroke-linejoin: miter; stroke-linecap: square"/>
   </g>
   <g id="text_55">
    <text style="fill: #0f172a; font: 700 9.3px 'DejaVu Sans'; text-anchor: start" x="53.98375" y="493.087174" transform="rotate(-0 53.98375 493.087174)">Publisher · n=259 · median=0.512</text>
   </g>
  </g>
  <g id="axes_8">
   <g id="patch_23">
    <path d="M 465.67375 595.44 
L 820.30375 595.44 
L 820.30375 499.087174 
L 465.67375 499.087174 
z
" style="fill: #ffffff"/>
   </g>
   <g id="matplotlib.axis_15">
    <g id="xtick_50">
     <g id="line2d_97">
      <path d="M 479.061169 595.44 
L 479.061169 499.087174 
" clip-path="url(#pf7f7d10204)" style="fill: none; stroke: #e2e8f0; stroke-width: 0.8; stroke-linecap: round"/>
     </g>
     <g id="text_56">
      <text style="fill: #262626; font: 8.8px 'DejaVu Sans'; text-anchor: middle" x="479.061169" y="610.426625" transform="rotate(-0 479.061169 610.426625)">0.3</text>
     </g>
    </g>
    <g id="xtick_51">
     <g id="line2d_98">
      <path d="M 533.703696 595.44 
L 533.703696 499.087174 
" clip-path="url(#pf7f7d10204)" style="fill: none; stroke: #e2e8f0; stroke-width: 0.8; stroke-linecap: round"/>
     </g>
     <g id="text_57">
      <text style="fill: #262626; font: 8.8px 'DejaVu Sans'; text-anchor: middle" x="533.703696" y="610.426625" transform="rotate(-0 533.703696 610.426625)">0.4</text>
     </g>
    </g>
    <g id="xtick_52">
     <g id="line2d_99">
      <path d="M 588.346223 595.44 
L 588.346223 499.087174 
" clip-path="url(#pf7f7d10204)" style="fill: none; stroke: #e2e8f0; stroke-width: 0.8; stroke-linecap: round"/>
     </g>
     <g id="text_58">
      <text style="fill: #262626; font: 8.8px 'DejaVu Sans'; text-anchor: middle" x="588.346223" y="610.426625" transform="rotate(-0 588.346223 610.426625)">0.5</text>
     </g>
    </g>
    <g id="xtick_53">
     <g id="line2d_100">
      <path d="M 642.98875 595.44 
L 642.98875 499.087174 
" clip-path="url(#pf7f7d10204)" style="fill: none; stroke: #e2e8f0; stroke-width: 0.8; stroke-linecap: round"/>
     </g>
     <g id="text_59">
      <text style="fill: #262626; font: 8.8px 'DejaVu Sans'; text-anchor: middle" x="642.98875" y="610.426625" transform="rotate(-0 642.98875 610.426625)">0.6</text>
     </g>
    </g>
    <g id="xtick_54">
     <g id="line2d_101">
      <path d="M 697.631277 595.44 
L 697.631277 499.087174 
" clip-path="url(#pf7f7d10204)" style="fill: none; stroke: #e2e8f0; stroke-width: 0.8; stroke-linecap: round"/>
     </g>
     <g id="text_60">
      <text style="fill: #262626; font: 8.8px 'DejaVu Sans'; text-anchor: middle" x="697.631277" y="610.426625" transform="rotate(-0 697.631277 610.426625)">0.7</text>
     </g>
    </g>
    <g id="xtick_55">
     <g id="line2d_102">
      <path d="M 752.273804 595.44 
L 752.273804 499.087174 
" clip-path="url(#pf7f7d10204)" style="fill: none; stroke: #e2e8f0; stroke-width: 0.8; stroke-linecap: round"/>
     </g>
     <g id="text_61">
      <text style="fill: #262626; font: 8.8px 'DejaVu Sans'; text-anchor: middle" x="752.273804" y="610.426625" transform="rotate(-0 752.273804 610.426625)">0.8</text>
     </g>
    </g>
    <g id="xtick_56">
     <g id="line2d_103">
      <path d="M 806.916331 595.44 
L 806.916331 499.087174 
" clip-path="url(#pf7f7d10204)" style="fill: none; stroke: #e2e8f0; stroke-width: 0.8; stroke-linecap: round"/>
     </g>
     <g id="text_62">
      <text style="fill: #262626; font: 8.8px 'DejaVu Sans'; text-anchor: middle" x="806.916331" y="610.426625" transform="rotate(-0 806.916331 610.426625)">0.9</text>
     </g>
    </g>
    <g id="text_63">
     <text style="fill: #262626; font: 9.6px 'DejaVu Sans'; text-anchor: middle" x="642.98875" y="623.55125" transform="rotate(-0 642.98875 623.55125)">ABC score</text>
    </g>
   </g>
   <g id="matplotlib.axis_16">
    <g id="ytick_34">
     <g id="line2d_104">
      <path d="M 465.67375 591.060326 
L 820.30375 591.060326 
" clip-path="url(#pf7f7d10204)" style="fill: none; stroke: #e2e8f0; stroke-width: 0.8; stroke-linecap: round"/>
     </g>
     <g id="text_64">
      <text style="fill: #262626; font: 8.8px 'DejaVu Sans'; text-anchor: end" x="457.37375" y="594.403639" transform="rotate(-0 457.37375 594.403639)">0.00</text>
     </g>
    </g>
    <g id="ytick_35">
     <g id="line2d_105">
      <path d="M 465.67375 552.68604 
L 820.30375 552.68604 
" clip-path="url(#pf7f7d10204)" style="fill: none; stroke: #e2e8f0; stroke-width: 0.8; stroke-linecap: round"/>
     </g>
     <g id="text_65">
      <text style="fill: #262626; font: 8.8px 'DejaVu Sans'; text-anchor: end" x="457.37375" y="556.029353" transform="rotate(-0 457.37375 556.029353)">0.05</text>
     </g>
    </g>
    <g id="ytick_36">
     <g id="line2d_106">
      <path d="M 465.67375 514.311755 
L 820.30375 514.311755 
" clip-path="url(#pf7f7d10204)" style="fill: none; stroke: #e2e8f0; stroke-width: 0.8; stroke-linecap: round"/>
     </g>
     <g id="text_66">
      <text style="fill: #262626; font: 8.8px 'DejaVu Sans'; text-anchor: end" x="457.37375" y="517.655067" transform="rotate(-0 457.37375 517.655067)">0.10</text>
     </g>
    </g>
    <g id="text_67">
     <text style="fill: #262626; font: 9.6px 'DejaVu Sans'; text-anchor: middle" x="431.7835" y="547.263587" transform="rotate(-90 431.7835 547.263587)">Share</text>
    </g>
   </g>
   <g id="PolyCollection_8">
    <defs>
     <path id="mb50a82373f" d="M 481.793295 -41.687424 
L 481.793295 -45.858542 
L 487.257548 -66.714132 
L 492.721801 -66.714132 
L 498.186054 -62.543014 
L 503.650306 -58.371896 
L 509.114559 -62.543014 
L 514.578812 -45.858542 
L 520.043064 -50.02966 
L 525.507317 -41.687424 
L 530.97157 -54.200778 
L 536.435822 -41.687424 
L 541.900075 -54.200778 
L 547.364328 -58.371896 
L 552.828581 -45.858542 
L 558.292833 -66.714132 
L 563.757086 -66.714132 
L 569.221339 -70.88525 
L 574.685591 -116.767548 
L 580.149844 -125.109784 
L 585.614097 -129.280902 
L 591.078349 -66.714132 
L 596.542602 -91.74084 
L 602.006855 -62.543014 
L 607.471107 -83.398604 
L 612.93536 -66.714132 
L 618.399613 -50.02966 
L 623.863866 -70.88525 
L 629.328118 -58.371896 
L 634.792371 -70.88525 
L 640.256624 -50.02966 
L 645.720876 -54.200778 
L 651.185129 -41.687424 
L 656.649382 -41.687424 
L 662.113634 -41.687424 
L 667.577887 -45.858542 
L 673.04214 -41.687424 
L 678.506393 -41.687424 
L 683.970645 -41.687424 
L 689.434898 -41.687424 
L 694.899151 -41.687424 
L 700.363403 -41.687424 
L 705.827656 -41.687424 
L 711.291909 -41.687424 
L 716.756161 -41.687424 
L 722.220414 -41.687424 
L 727.684667 -41.687424 
L 733.148919 -41.687424 
L 738.613172 -41.687424 
L 744.077425 -41.687424 
L 749.541678 -41.687424 
L 755.00593 -41.687424 
L 760.470183 -41.687424 
L 765.934436 -41.687424 
L 771.398688 -41.687424 
L 776.862941 -41.687424 
L 782.327194 -41.687424 
L 787.791446 -41.687424 
L 793.255699 -41.687424 
L 798.719952 -41.687424 
L 804.184205 -41.687424 
L 804.184205 -41.687424 
L 804.184205 -41.687424 
L 798.719952 -41.687424 
L 793.255699 -41.687424 
L 787.791446 -41.687424 
L 782.327194 -41.687424 
L 776.862941 -41.687424 
L 771.398688 -41.687424 
L 765.934436 -41.687424 
L 760.470183 -41.687424 
L 755.00593 -41.687424 
L 749.541678 -41.687424 
L 744.077425 -41.687424 
L 738.613172 -41.687424 
L 733.148919 -41.687424 
L 727.684667 -41.687424 
L 722.220414 -41.687424 
L 716.756161 -41.687424 
L 711.291909 -41.687424 
L 705.827656 -41.687424 
L 700.363403 -41.687424 
L 694.899151 -41.687424 
L 689.434898 -41.687424 
L 683.970645 -41.687424 
L 678.506393 -41.687424 
L 673.04214 -41.687424 
L 667.577887 -41.687424 
L 662.113634 -41.687424 
L 656.649382 -41.687424 
L 651.185129 -41.687424 
L 645.720876 -41.687424 
L 640.256624 -41.687424 
L 634.792371 -41.687424 
L 629.328118 -41.687424 
L 623.863866 -41.687424 
L 618.399613 -41.687424 
L 612.93536 -41.687424 
L 607.471107 -41.687424 
L 602.006855 -41.687424 
L 596.542602 -41.687424 
L 591.078349 -41.687424 
L 585.614097 -41.687424 
L 580.149844 -41.687424 
L 574.685591 -41.687424 
L 569.221339 -41.687424 
L 563.757086 -41.687424 
L 558.292833 -41.687424 
L 552.828581 -41.687424 
L 547.364328 -41.687424 
L 541.900075 -41.687424 
L 536.435822 -41.687424 
L 530.97157 -41.687424 
L 525.507317 -41.687424 
L 520.043064 -41.687424 
L 514.578812 -41.687424 
L 509.114559 -41.687424 
L 503.650306 -41.687424 
L 498.186054 -41.687424 
L 492.721801 -41.687424 
L 487.257548 -41.687424 
L 481.793295 -41.687424 
z
" style="stroke: #0f766e; stroke-opacity: 0.22; stroke-width: 0.8"/>
    </defs>
    <g clip-path="url(#pf7f7d10204)">
     <use xlink:href="#mb50a82373f" x="0" y="632.74775" style="fill: #0f766e; fill-opacity: 0.22; stroke: #0f766e; stroke-opacity: 0.22; stroke-width: 0.8"/>
    </g>
   </g>
   <g id="line2d_107">
    <path d="M 481.793295 586.889208 
L 487.257548 566.033618 
L 492.721801 566.033618 
L 498.186054 570.204736 
L 503.650306 574.375854 
L 509.114559 570.204736 
L 514.578812 586.889208 
L 520.043064 582.71809 
L 525.507317 591.060326 
L 530.97157 578.546972 
L 536.435822 591.060326 
L 541.900075 578.546972 
L 547.364328 574.375854 
L 552.828581 586.889208 
L 558.292833 566.033618 
L 563.757086 566.033618 
L 569.221339 561.8625 
L 574.685591 515.980202 
L 580.149844 507.637966 
L 585.614097 503.466848 
L 591.078349 566.033618 
L 596.542602 541.00691 
L 602.006855 570.204736 
L 607.471107 549.349146 
L 612.93536 566.033618 
L 618.399613 582.71809 
L 623.863866 561.8625 
L 629.328118 574.375854 
L 634.792371 561.8625 
L 640.256624 582.71809 
L 645.720876 578.546972 
L 651.185129 591.060326 
L 656.649382 591.060326 
L 662.113634 591.060326 
L 667.577887 586.889208 
L 673.04214 591.060326 
L 678.506393 591.060326 
L 683.970645 591.060326 
L 689.434898 591.060326 
L 694.899151 591.060326 
L 700.363403 591.060326 
L 705.827656 591.060326 
L 711.291909 591.060326 
L 716.756161 591.060326 
L 722.220414 591.060326 
L 727.684667 591.060326 
L 733.148919 591.060326 
L 738.613172 591.060326 
L 744.077425 591.060326 
L 749.541678 591.060326 
L 755.00593 591.060326 
L 760.470183 591.060326 
L 765.934436 591.060326 
L 771.398688 591.060326 
L 776.862941 591.060326 
L 782.327194 591.060326 
L 787.791446 591.060326 
L 793.255699 591.060326 
L 798.719952 591.060326 
L 804.184205 591.060326 
" clip-path="url(#pf7f7d10204)" style="fill: none; stroke: #0f766e; stroke-width: 1.8; stroke-linecap: round"/>
   </g>
   <g id="line2d_108">
    <path d="M 580.794695 595.44 
L 580.794695 499.087174 
" clip-path="url(#pf7f7d10204)" style="fill: none; stroke-dasharray: 3.7,1.6; stroke-dashoffset: 0; stroke: #0f766e"/>
   </g>
   <g id="patch_24">
    <path d="M 465.67375 595.44 
L 465.67375 499.087174 
" style="fill: none; stroke: #cbd5e1; stroke-linejoin: miter; stroke-linecap: square"/>
   </g>
   <g id="patch_25">
    <path d="M 465.67375 595.44 
L 820.30375 595.44 
" style="fill: none; stroke: #cbd5e1; stroke-linejoin: miter; stroke-linecap: square"/>
   </g>
   <g id="text_68">
    <text style="fill: #0f172a; font: 700 9.3px 'DejaVu Sans'; text-anchor: start" x="465.67375" y="493.087174" transform="rotate(-0 465.67375 493.087174)">Funder · n=184 · median=0.486</text>
   </g>
  </g>
  <g id="text_69">
   <text style="fill: #0f172a; font: 700 14px 'DejaVu Sans'; text-anchor: start" x="60.52375" y="17.837813" transform="rotate(-0 60.52375 17.837813)">Final ABC-score distributions differ by entity type</text>
  </g>
  <g id="text_70">
   <text style="fill: #475569; font: 8.4px 'DejaVu Sans'; text-anchor: start" x="60.52375" y="55.8" transform="rotate(-0 60.52375 55.8)">Ranked ambiguous alignments only; strict exact-label proxy rows are excluded because their synthetic high scores would obscure type difficulty.</text>
  </g>
 </g>
 <defs>
  <clipPath id="pa2b81436f2">
   <rect x="53.98375" y="138.6" width="354.63" height="96.352826"/>
  </clipPath>
  <clipPath id="p3429b5646a">
   <rect x="465.67375" y="138.6" width="354.63" height="96.352826"/>
  </clipPath>
  <clipPath id="p768b331889">
   <rect x="53.98375" y="258.762391" width="354.63" height="96.352826"/>
  </clipPath>
  <clipPath id="pf24255c725">
   <rect x="465.67375" y="258.762391" width="354.63" height="96.352826"/>
  </clipPath>
  <clipPath id="p50152a5e83">
   <rect x="53.98375" y="378.924783" width="354.63" height="96.352826"/>
  </clipPath>
  <clipPath id="pa2b3544837">
   <rect x="465.67375" y="378.924783" width="354.63" height="96.352826"/>
  </clipPath>
  <clipPath id="p2b07ed682b">
   <rect x="53.98375" y="499.087174" width="354.63" height="96.352826"/>
  </clipPath>
  <clipPath id="pf7f7d10204">
   <rect x="465.67375" y="499.087174" width="354.63" height="96.352826"/>
  </clipPath>
 </defs>
</svg>
