<?xml version="1.0" encoding="utf-8" standalone="no"?>
<!DOCTYPE svg PUBLIC "-//W3C//DTD SVG 1.1//EN"
  "http://www.w3.org/Graphics/SVG/1.1/DTD/svg11.dtd">
<svg xmlns:xlink="http://www.w3.org/1999/xlink" width="857.9125pt" height="386.092pt" viewBox="0 0 857.9125 386.092" xmlns="http://www.w3.org/2000/svg" version="1.1">
 <metadata>
  <rdf:RDF xmlns:dc="http://purl.org/dc/elements/1.1/" xmlns:cc="http://creativecommons.org/ns#" xmlns:rdf="http://www.w3.org/1999/02/22-rdf-syntax-ns#">
   <cc:Work>
    <dc:type rdf:resource="http://purl.org/dc/dcmitype/StillImage"/>
    <dc:date>2026-07-03T00:04:43.098958</dc:date>
    <dc:format>image/svg+xml</dc:format>
    <dc:creator>
     <cc:Agent>
      <dc:title>Matplotlib v3.9.4, https://matplotlib.org/</dc:title>
     </cc:Agent>
    </dc:creator>
   </cc:Work>
  </rdf:RDF>
 </metadata>
 <defs>
  <style type="text/css">*{stroke-linejoin: round; stroke-linecap: butt}</style>
 </defs>
 <g id="figure_1">
  <g id="patch_1">
   <path d="M 0 386.092 
L 857.9125 386.092 
L 857.9125 0 
L 0 0 
z
" style="fill: #ffffff"/>
  </g>
  <g id="axes_1">
   <g id="patch_2">
    <path d="M 77.5125 277.92 
L 503.853929 277.92 
L 503.853929 94.68 
L 77.5125 94.68 
z
" style="fill: #ffffff"/>
   </g>
   <g id="matplotlib.axis_1">
    <g id="xtick_1">
     <g id="line2d_1">
      <path d="M 77.5125 277.92 
L 77.5125 94.68 
" clip-path="url(#p07347352be)" style="fill: none; stroke: #e2e8f0; stroke-width: 0.7; stroke-linecap: round"/>
     </g>
     <g id="text_1">
      <text style="fill: #262626; font: 8.8px 'DejaVu Sans'; text-anchor: middle" x="77.5125" y="292.906625" transform="rotate(-0 77.5125 292.906625)">0.0</text>
     </g>
    </g>
    <g id="xtick_2">
     <g id="line2d_2">
      <path d="M 162.780786 277.92 
L 162.780786 94.68 
" clip-path="url(#p07347352be)" style="fill: none; stroke: #e2e8f0; stroke-width: 0.7; stroke-linecap: round"/>
     </g>
     <g id="text_2">
      <text style="fill: #262626; font: 8.8px 'DejaVu Sans'; text-anchor: middle" x="162.780786" y="292.906625" transform="rotate(-0 162.780786 292.906625)">0.2</text>
     </g>
    </g>
    <g id="xtick_3">
     <g id="line2d_3">
      <path d="M 248.049071 277.92 
L 248.049071 94.68 
" clip-path="url(#p07347352be)" style="fill: none; stroke: #e2e8f0; stroke-width: 0.7; stroke-linecap: round"/>
     </g>
     <g id="text_3">
      <text style="fill: #262626; font: 8.8px 'DejaVu Sans'; text-anchor: middle" x="248.049071" y="292.906625" transform="rotate(-0 248.049071 292.906625)">0.4</text>
     </g>
    </g>
    <g id="xtick_4">
     <g id="line2d_4">
      <path d="M 333.317357 277.92 
L 333.317357 94.68 
" clip-path="url(#p07347352be)" style="fill: none; stroke: #e2e8f0; stroke-width: 0.7; stroke-linecap: round"/>
     </g>
     <g id="text_4">
      <text style="fill: #262626; font: 8.8px 'DejaVu Sans'; text-anchor: middle" x="333.317357" y="292.906625" transform="rotate(-0 333.317357 292.906625)">0.6</text>
     </g>
    </g>
    <g id="xtick_5">
     <g id="line2d_5">
      <path d="M 418.585643 277.92 
L 418.585643 94.68 
" clip-path="url(#p07347352be)" style="fill: none; stroke: #e2e8f0; stroke-width: 0.7; stroke-linecap: round"/>
     </g>
     <g id="text_5">
      <text style="fill: #262626; font: 8.8px 'DejaVu Sans'; text-anchor: middle" x="418.585643" y="292.906625" transform="rotate(-0 418.585643 292.906625)">0.8</text>
     </g>
    </g>
    <g id="xtick_6">
     <g id="line2d_6">
      <path d="M 503.853929 277.92 
L 503.853929 94.68 
" clip-path="url(#p07347352be)" style="fill: none; stroke: #e2e8f0; stroke-width: 0.7; stroke-linecap: round"/>
     </g>
     <g id="text_6">
      <text style="fill: #262626; font: 8.8px 'DejaVu Sans'; text-anchor: middle" x="503.853929" y="292.906625" transform="rotate(-0 503.853929 292.906625)">1.0</text>
     </g>
    </g>
    <g id="text_7">
     <text style="fill: #262626; font: 9.6px 'DejaVu Sans'; text-anchor: middle" x="290.683214" y="306.03125" transform="rotate(-0 290.683214 306.03125)">Share of held-out triples</text>
    </g>
   </g>
   <g id="matplotlib.axis_2">
    <g id="ytick_1">
     <g id="text_8">
      <text style="fill: #262626; font: 8.8px 'DejaVu Sans'; text-anchor: end" x="69.2125" y="235.91604" transform="rotate(-0 69.2125 235.91604)">YAGO</text>
     </g>
    </g>
    <g id="ytick_2">
     <g id="text_9">
      <text style="fill: #262626; font: 8.8px 'DejaVu Sans'; text-anchor: end" x="69.2125" y="143.370585" transform="rotate(-0 69.2125 143.370585)">SemOpenAlex</text>
     </g>
    </g>
   </g>
   <g id="patch_3">
    <path d="M 77.5125 269.590909 
L 77.5125 269.590909 
L 77.5125 195.554545 
L 77.5125 195.554545 
z
" clip-path="url(#p07347352be)" style="fill: #2563eb; stroke: #ffffff; stroke-width: 0.8; stroke-linejoin: miter"/>
   </g>
   <g id="patch_4">
    <path d="M 77.5125 177.045455 
L 329.703623 177.045455 
L 329.703623 103.009091 
L 77.5125 103.009091 
z
" clip-path="url(#p07347352be)" style="fill: #2563eb; stroke: #ffffff; stroke-width: 0.8; stroke-linejoin: miter"/>
   </g>
   <g id="patch_5">
    <path d="M 77.5125 269.590909 
L 77.5125 269.590909 
L 77.5125 195.554545 
L 77.5125 195.554545 
z
" clip-path="url(#p07347352be)" style="fill: #16a34a; stroke: #ffffff; stroke-width: 0.8; stroke-linejoin: miter"/>
   </g>
   <g id="patch_6">
    <path d="M 329.703623 177.045455 
L 445.564849 177.045455 
L 445.564849 103.009091 
L 329.703623 103.009091 
z
" clip-path="url(#p07347352be)" style="fill: #16a34a; stroke: #ffffff; stroke-width: 0.8; stroke-linejoin: miter"/>
   </g>
   <g id="patch_7">
    <path d="M 77.5125 269.590909 
L 77.5125 269.590909 
L 77.5125 195.554545 
L 77.5125 195.554545 
z
" clip-path="url(#p07347352be)" style="fill: #7c3aed; stroke: #ffffff; stroke-width: 0.8; stroke-linejoin: miter"/>
   </g>
   <g id="patch_8">
    <path d="M 445.564849 177.045455 
L 476.574837 177.045455 
L 476.574837 103.009091 
L 445.564849 103.009091 
z
" clip-path="url(#p07347352be)" style="fill: #7c3aed; stroke: #ffffff; stroke-width: 0.8; stroke-linejoin: miter"/>
   </g>
   <g id="patch_9">
    <path d="M 77.5125 269.590909 
L 204.525902 269.590909 
L 204.525902 195.554545 
L 77.5125 195.554545 
z
" clip-path="url(#p07347352be)" style="fill: #d97706; stroke: #ffffff; stroke-width: 0.8; stroke-linejoin: miter"/>
   </g>
   <g id="patch_10">
    <path d="M 476.574837 177.045455 
L 492.878436 177.045455 
L 492.878436 103.009091 
L 476.574837 103.009091 
z
" clip-path="url(#p07347352be)" style="fill: #d97706; stroke: #ffffff; stroke-width: 0.8; stroke-linejoin: miter"/>
   </g>
   <g id="patch_11">
    <path d="M 204.525902 269.590909 
L 324.182263 269.590909 
L 324.182263 195.554545 
L 204.525902 195.554545 
z
" clip-path="url(#p07347352be)" style="fill: #0891b2; stroke: #ffffff; stroke-width: 0.8; stroke-linejoin: miter"/>
   </g>
   <g id="patch_12">
    <path d="M 492.878436 177.045455 
L 501.463768 177.045455 
L 501.463768 103.009091 
L 492.878436 103.009091 
z
" clip-path="url(#p07347352be)" style="fill: #0891b2; stroke: #ffffff; stroke-width: 0.8; stroke-linejoin: miter"/>
   </g>
   <g id="patch_13">
    <path d="M 324.182263 269.590909 
L 495.062662 269.590909 
L 495.062662 195.554545 
L 324.182263 195.554545 
z
" clip-path="url(#p07347352be)" style="fill: #64748b; stroke: #ffffff; stroke-width: 0.8; stroke-linejoin: miter"/>
   </g>
   <g id="patch_14">
    <path d="M 501.463768 177.045455 
L 501.463768 177.045455 
L 501.463768 103.009091 
L 501.463768 103.009091 
z
" clip-path="url(#p07347352be)" style="fill: #64748b; stroke: #ffffff; stroke-width: 0.8; stroke-linejoin: miter"/>
   </g>
   <g id="patch_15">
    <path d="M 495.062662 269.590909 
L 495.062662 269.590909 
L 495.062662 195.554545 
L 495.062662 195.554545 
z
" clip-path="url(#p07347352be)" style="fill: #db2777; stroke: #ffffff; stroke-width: 0.8; stroke-linejoin: miter"/>
   </g>
   <g id="patch_16">
    <path d="M 501.463768 177.045455 
L 503.763104 177.045455 
L 503.763104 103.009091 
L 501.463768 103.009091 
z
" clip-path="url(#p07347352be)" style="fill: #db2777; stroke: #ffffff; stroke-width: 0.8; stroke-linejoin: miter"/>
   </g>
   <g id="patch_17">
    <path d="M 495.062662 269.590909 
L 503.453118 269.590909 
L 503.453118 195.554545 
L 495.062662 195.554545 
z
" clip-path="url(#p07347352be)" style="fill: #2563eb; stroke: #ffffff; stroke-width: 0.8; stroke-linejoin: miter"/>
   </g>
   <g id="patch_18">
    <path d="M 503.763104 177.045455 
L 503.763104 177.045455 
L 503.763104 103.009091 
L 503.763104 103.009091 
z
" clip-path="url(#p07347352be)" style="fill: #2563eb; stroke: #ffffff; stroke-width: 0.8; stroke-linejoin: miter"/>
   </g>
   <g id="patch_19">
    <path d="M 503.453118 269.590909 
L 503.453118 269.590909 
L 503.453118 195.554545 
L 503.453118 195.554545 
z
" clip-path="url(#p07347352be)" style="fill: #16a34a; stroke: #ffffff; stroke-width: 0.8; stroke-linejoin: miter"/>
   </g>
   <g id="patch_20">
    <path d="M 503.763104 177.045455 
L 503.844132 177.045455 
L 503.844132 103.009091 
L 503.763104 103.009091 
z
" clip-path="url(#p07347352be)" style="fill: #16a34a; stroke: #ffffff; stroke-width: 0.8; stroke-linejoin: miter"/>
   </g>
   <g id="patch_21">
    <path d="M 503.453118 269.590909 
L 503.853929 269.590909 
L 503.853929 195.554545 
L 503.453118 195.554545 
z
" clip-path="url(#p07347352be)" style="fill: #7c3aed; stroke: #ffffff; stroke-width: 0.8; stroke-linejoin: miter"/>
   </g>
   <g id="patch_22">
    <path d="M 503.844132 177.045455 
L 503.84892 177.045455 
L 503.84892 103.009091 
L 503.844132 103.009091 
z
" clip-path="url(#p07347352be)" style="fill: #7c3aed; stroke: #ffffff; stroke-width: 0.8; stroke-linejoin: miter"/>
   </g>
   <g id="patch_23">
    <path d="M 503.853929 269.590909 
L 503.853929 269.590909 
L 503.853929 195.554545 
L 503.853929 195.554545 
z
" clip-path="url(#p07347352be)" style="fill: #d97706; stroke: #ffffff; stroke-width: 0.8; stroke-linejoin: miter"/>
   </g>
   <g id="patch_24">
    <path d="M 503.84892 177.045455 
L 503.853929 177.045455 
L 503.853929 103.009091 
L 503.84892 103.009091 
z
" clip-path="url(#p07347352be)" style="fill: #d97706; stroke: #ffffff; stroke-width: 0.8; stroke-linejoin: miter"/>
   </g>
   <g id="patch_25">
    <path d="M 77.5125 277.92 
L 77.5125 94.68 
" style="fill: none; stroke: #cbd5e1; stroke-linejoin: miter; stroke-linecap: square"/>
   </g>
   <g id="patch_26">
    <path d="M 77.5125 277.92 
L 503.853929 277.92 
" style="fill: none; stroke: #cbd5e1; stroke-linejoin: miter; stroke-linecap: square"/>
   </g>
   <g id="text_10">
    <text style="fill: #0f172a; font: 700 11px 'DejaVu Sans'; text-anchor: start" x="77.5125" y="88.68" transform="rotate(-0 77.5125 88.68)">Predicate namespace composition</text>
   </g>
  </g>
  <g id="axes_2">
   <g id="patch_27">
    <path d="M 556.683929 277.92 
L 850.7125 277.92 
L 850.7125 94.68 
L 556.683929 94.68 
z
" style="fill: #ffffff"/>
   </g>
   <g id="matplotlib.axis_3">
    <g id="xtick_7">
     <g id="text_11">
      <text style="fill: #262626; font: 8.8px 'DejaVu Sans'; text-anchor: middle" x="619.110018" y="292.906625" transform="rotate(-0 619.110018 292.906625)">YAGO</text>
     </g>
    </g>
    <g id="xtick_8">
     <g id="text_12">
      <text style="fill: #262626; font: 8.8px 'DejaVu Sans'; text-anchor: middle" x="788.286411" y="292.906625" transform="rotate(-0 788.286411 292.906625)">SemOpenAlex</text>
     </g>
    </g>
   </g>
   <g id="matplotlib.axis_4">
    <g id="ytick_3">
     <g id="line2d_7">
      <path d="M 556.683929 277.92 
L 850.7125 277.92 
" clip-path="url(#p11d3fbbd1d)" style="fill: none; stroke: #e2e8f0; stroke-width: 0.7; stroke-linecap: round"/>
     </g>
     <g id="text_13">
      <text style="fill: #262626; font: 8.8px 'DejaVu Sans'; text-anchor: end" x="548.383929" y="281.263312" transform="rotate(-0 548.383929 281.263312)">0.0</text>
     </g>
    </g>
    <g id="ytick_4">
     <g id="line2d_8">
      <path d="M 556.683929 245.198571 
L 850.7125 245.198571 
" clip-path="url(#p11d3fbbd1d)" style="fill: none; stroke: #e2e8f0; stroke-width: 0.7; stroke-linecap: round"/>
     </g>
     <g id="text_14">
      <text style="fill: #262626; font: 8.8px 'DejaVu Sans'; text-anchor: end" x="548.383929" y="248.541884" transform="rotate(-0 548.383929 248.541884)">0.2</text>
     </g>
    </g>
    <g id="ytick_5">
     <g id="line2d_9">
      <path d="M 556.683929 212.477143 
L 850.7125 212.477143 
" clip-path="url(#p11d3fbbd1d)" style="fill: none; stroke: #e2e8f0; stroke-width: 0.7; stroke-linecap: round"/>
     </g>
     <g id="text_15">
      <text style="fill: #262626; font: 8.8px 'DejaVu Sans'; text-anchor: end" x="548.383929" y="215.820455" transform="rotate(-0 548.383929 215.820455)">0.4</text>
     </g>
    </g>
    <g id="ytick_6">
     <g id="line2d_10">
      <path d="M 556.683929 179.755714 
L 850.7125 179.755714 
" clip-path="url(#p11d3fbbd1d)" style="fill: none; stroke: #e2e8f0; stroke-width: 0.7; stroke-linecap: round"/>
     </g>
     <g id="text_16">
      <text style="fill: #262626; font: 8.8px 'DejaVu Sans'; text-anchor: end" x="548.383929" y="183.099027" transform="rotate(-0 548.383929 183.099027)">0.6</text>
     </g>
    </g>
    <g id="ytick_7">
     <g id="line2d_11">
      <path d="M 556.683929 147.034286 
L 850.7125 147.034286 
" clip-path="url(#p11d3fbbd1d)" style="fill: none; stroke: #e2e8f0; stroke-width: 0.7; stroke-linecap: round"/>
     </g>
     <g id="text_17">
      <text style="fill: #262626; font: 8.8px 'DejaVu Sans'; text-anchor: end" x="548.383929" y="150.377598" transform="rotate(-0 548.383929 150.377598)">0.8</text>
     </g>
    </g>
    <g id="ytick_8">
     <g id="line2d_12">
      <path d="M 556.683929 114.312857 
L 850.7125 114.312857 
" clip-path="url(#p11d3fbbd1d)" style="fill: none; stroke: #e2e8f0; stroke-width: 0.7; stroke-linecap: round"/>
     </g>
     <g id="text_18">
      <text style="fill: #262626; font: 8.8px 'DejaVu Sans'; text-anchor: end" x="548.383929" y="117.65617" transform="rotate(-0 548.383929 117.65617)">1.0</text>
     </g>
    </g>
    <g id="text_19">
     <text style="fill: #262626; font: 9.6px 'DejaVu Sans'; text-anchor: middle" x="528.392679" y="186.3" transform="rotate(-90 528.392679 186.3)">Normalized predicate entropy</text>
    </g>
   </g>
   <g id="patch_28">
    <path d="M 570.048864 277.92 
L 668.171172 277.92 
L 668.171172 188.701058 
L 570.048864 188.701058 
z
" clip-path="url(#p11d3fbbd1d)" style="fill: #2563eb; stroke: #ffffff; stroke-width: 0.8; stroke-linejoin: miter"/>
   </g>
   <g id="patch_29">
    <path d="M 739.225257 277.92 
L 837.347565 277.92 
L 837.347565 162.955178 
L 739.225257 162.955178 
z
" clip-path="url(#p11d3fbbd1d)" style="fill: #16a34a; stroke: #ffffff; stroke-width: 0.8; stroke-linejoin: miter"/>
   </g>
   <g id="patch_30">
    <path d="M 556.683929 277.92 
L 556.683929 94.68 
" style="fill: none; stroke: #cbd5e1; stroke-linejoin: miter; stroke-linecap: square"/>
   </g>
   <g id="patch_31">
    <path d="M 556.683929 277.92 
L 850.7125 277.92 
" style="fill: none; stroke: #cbd5e1; stroke-linejoin: miter; stroke-linecap: square"/>
   </g>
   <g id="text_20">
    <text style="fill: #0f172a; font: 8px 'DejaVu Sans'" transform="translate(607.658768 174.079058)">0.545</text>
    <text style="fill: #0f172a; font: 8px 'DejaVu Sans'" transform="translate(595.270018 183.037308)">H=3.23 bits</text>
   </g>
   <g id="text_21">
    <text style="fill: #0f172a; font: 8px 'DejaVu Sans'" transform="translate(776.835161 148.333178)">0.703</text>
    <text style="fill: #0f172a; font: 8px 'DejaVu Sans'" transform="translate(764.446411 157.291428)">H=3.45 bits</text>
   </g>
   <g id="text_22">
    <text style="fill: #0f172a; font: 700 11px 'DejaVu Sans'; text-anchor: start" x="556.683929" y="88.68" transform="rotate(-0 556.683929 88.68)">Frequency diversity</text>
   </g>
  </g>
  <g id="text_23">
   <text style="fill: #0f172a; font: 700 14px 'DejaVu Sans'; text-anchor: start" x="57.4525" y="17.837812" transform="rotate(-0 57.4525 17.837812)">Predicate namespace composition and frequency entropy</text>
  </g>
  <g id="text_24">
   <text style="fill: #475569; font: 8.4px 'DejaVu Sans'; text-anchor: start" x="57.4525" y="28.584" transform="rotate(-0 57.4525 28.584)">Namespace shares preserve predicate occurrences; entropy summarizes frequency diversity and complements the Lorenz/Gini view in Figure 03.</text>
  </g>
  <g id="legend_1">
   <g id="patch_32">
    <path d="M 126.954453 378.892 
L 437.230547 378.892 
Q 438.630547 378.892 438.630547 377.492 
L 438.630547 347.367937 
Q 438.630547 345.967937 437.230547 345.967937 
L 126.954453 345.967937 
Q 125.554453 345.967937 125.554453 347.367937 
L 125.554453 377.492 
Q 125.554453 378.892 126.954453 378.892 
z
" style="fill: #ffffff; opacity: 0.8; stroke: #cccccc; stroke-width: 0.8; stroke-linejoin: miter"/>
   </g>
   <g id="patch_33">
    <path d="M 128.354453 354.086844 
L 142.354453 354.086844 
L 142.354453 349.186844 
L 128.354453 349.186844 
z
" style="fill: #2563eb; stroke: #ffffff; stroke-width: 0.8; stroke-linejoin: miter"/>
   </g>
   <g id="text_25">
    <text style="fill: #0f172a; font: 7px 'DejaVu Sans'; text-anchor: start" x="147.954453" y="354.086844" transform="rotate(-0 147.954453 354.086844)">SemOpenAlex ontology</text>
   </g>
   <g id="patch_34">
    <path d="M 128.354453 364.361531 
L 142.354453 364.361531 
L 142.354453 359.461531 
L 128.354453 359.461531 
z
" style="fill: #16a34a; stroke: #ffffff; stroke-width: 0.8; stroke-linejoin: miter"/>
   </g>
   <g id="text_26">
    <text style="fill: #0f172a; font: 7px 'DejaVu Sans'; text-anchor: start" x="147.954453" y="364.361531" transform="rotate(-0 147.954453 364.361531)">CiTO</text>
   </g>
   <g id="patch_35">
    <path d="M 128.354453 374.636219 
L 142.354453 374.636219 
L 142.354453 369.736219 
L 128.354453 369.736219 
z
" style="fill: #7c3aed; stroke: #ffffff; stroke-width: 0.8; stroke-linejoin: miter"/>
   </g>
   <g id="text_27">
    <text style="fill: #0f172a; font: 7px 'DejaVu Sans'; text-anchor: start" x="147.954453" y="374.636219" transform="rotate(-0 147.954453 374.636219)">Dublin Core</text>
   </g>
   <g id="patch_36">
    <path d="M 244.068828 354.086844 
L 258.068828 354.086844 
L 258.068828 349.186844 
L 244.068828 349.186844 
z
" style="fill: #d97706; stroke: #ffffff; stroke-width: 0.8; stroke-linejoin: miter"/>
   </g>
   <g id="text_28">
    <text style="fill: #0f172a; font: 7px 'DejaVu Sans'; text-anchor: start" x="263.668828" y="354.086844" transform="rotate(-0 263.668828 354.086844)">RDF</text>
   </g>
   <g id="patch_37">
    <path d="M 244.068828 364.361531 
L 258.068828 364.361531 
L 258.068828 359.461531 
L 244.068828 359.461531 
z
" style="fill: #0891b2; stroke: #ffffff; stroke-width: 0.8; stroke-linejoin: miter"/>
   </g>
   <g id="text_29">
    <text style="fill: #0f172a; font: 7px 'DejaVu Sans'; text-anchor: start" x="263.668828" y="364.361531" transform="rotate(-0 263.668828 364.361531)">OWL</text>
   </g>
   <g id="patch_38">
    <path d="M 244.068828 374.636219 
L 258.068828 374.636219 
L 258.068828 369.736219 
L 244.068828 369.736219 
z
" style="fill: #64748b; stroke: #ffffff; stroke-width: 0.8; stroke-linejoin: miter"/>
   </g>
   <g id="text_30">
    <text style="fill: #0f172a; font: 7px 'DejaVu Sans'; text-anchor: start" x="263.668828" y="374.636219" transform="rotate(-0 263.668828 374.636219)">schema.org</text>
   </g>
   <g id="patch_39">
    <path d="M 318.722734 354.086844 
L 332.722734 354.086844 
L 332.722734 349.186844 
L 318.722734 349.186844 
z
" style="fill: #db2777; stroke: #ffffff; stroke-width: 0.8; stroke-linejoin: miter"/>
   </g>
   <g id="text_31">
    <text style="fill: #0f172a; font: 7px 'DejaVu Sans'; text-anchor: start" x="338.322734" y="354.086844" transform="rotate(-0 338.322734 354.086844)">W3C ORG</text>
   </g>
   <g id="patch_40">
    <path d="M 318.722734 364.361531 
L 332.722734 364.361531 
L 332.722734 359.461531 
L 318.722734 359.461531 
z
" style="fill: #2563eb; stroke: #ffffff; stroke-width: 0.8; stroke-linejoin: miter"/>
   </g>
   <g id="text_32">
    <text style="fill: #0f172a; font: 7px 'DejaVu Sans'; text-anchor: start" x="338.322734" y="364.361531" transform="rotate(-0 338.322734 364.361531)">YAGO</text>
   </g>
   <g id="patch_41">
    <path d="M 318.722734 374.636219 
L 332.722734 374.636219 
L 332.722734 369.736219 
L 318.722734 369.736219 
z
" style="fill: #16a34a; stroke: #ffffff; stroke-width: 0.8; stroke-linejoin: miter"/>
   </g>
   <g id="text_33">
    <text style="fill: #0f172a; font: 7px 'DejaVu Sans'; text-anchor: start" x="338.322734" y="374.636219" transform="rotate(-0 338.322734 374.636219)">SKOS</text>
   </g>
   <g id="patch_42">
    <path d="M 386.608516 354.086844 
L 400.608516 354.086844 
L 400.608516 349.186844 
L 386.608516 349.186844 
z
" style="fill: #7c3aed; stroke: #ffffff; stroke-width: 0.8; stroke-linejoin: miter"/>
   </g>
   <g id="text_34">
    <text style="fill: #0f172a; font: 7px 'DejaVu Sans'; text-anchor: start" x="406.208516" y="354.086844" transform="rotate(-0 406.208516 354.086844)">RDFS</text>
   </g>
   <g id="patch_43">
    <path d="M 386.608516 364.361531 
L 400.608516 364.361531 
L 400.608516 359.461531 
L 386.608516 359.461531 
z
" style="fill: #d97706; stroke: #ffffff; stroke-width: 0.8; stroke-linejoin: miter"/>
   </g>
   <g id="text_35">
    <text style="fill: #0f172a; font: 7px 'DejaVu Sans'; text-anchor: start" x="406.208516" y="364.361531" transform="rotate(-0 406.208516 364.361531)">DBpedia</text>
   </g>
  </g>
 </g>
 <defs>
  <clipPath id="p07347352be">
   <rect x="77.5125" y="94.68" width="426.341429" height="183.24"/>
  </clipPath>
  <clipPath id="p11d3fbbd1d">
   <rect x="556.683929" y="94.68" width="294.028571" height="183.24"/>
  </clipPath>
 </defs>
</svg>
