<?xml version="1.0" encoding="utf-8" standalone="no"?>
<!DOCTYPE svg PUBLIC "-//W3C//DTD SVG 1.1//EN"
  "http://www.w3.org/Graphics/SVG/1.1/DTD/svg11.dtd">
<svg xmlns:xlink="http://www.w3.org/1999/xlink" width="821.96475pt" height="364.04375pt" viewBox="0 0 821.96475 364.04375" xmlns="http://www.w3.org/2000/svg" version="1.1">
 <metadata>
  <rdf:RDF xmlns:dc="http://purl.org/dc/elements/1.1/" xmlns:cc="http://creativecommons.org/ns#" xmlns:rdf="http://www.w3.org/1999/02/22-rdf-syntax-ns#">
   <cc:Work>
    <dc:type rdf:resource="http://purl.org/dc/dcmitype/StillImage"/>
    <dc:date>2026-07-02T23:59:26.182269</dc:date>
    <dc:format>image/svg+xml</dc:format>
    <dc:creator>
     <cc:Agent>
      <dc:title>Matplotlib v3.9.4, https://matplotlib.org/</dc:title>
     </cc:Agent>
    </dc:creator>
   </cc:Work>
  </rdf:RDF>
 </metadata>
 <defs>
  <style type="text/css">*{stroke-linejoin: round; stroke-linecap: butt}</style>
 </defs>
 <g id="figure_1">
  <g id="patch_1">
   <path d="M 0 364.04375 
L 821.96475 364.04375 
L 821.96475 0 
L 0 0 
z
" style="fill: #ffffff"/>
  </g>
  <g id="axes_1">
   <g id="patch_2">
    <path d="M 48.38475 326.736 
L 403.07475 326.736 
L 403.07475 92.52 
L 48.38475 92.52 
z
" style="fill: #ffffff"/>
   </g>
   <g id="matplotlib.axis_1">
    <g id="xtick_1">
     <g id="line2d_1">
      <path d="M 61.267342 326.736 
L 61.267342 92.52 
" clip-path="url(#pea481370dd)" style="fill: none; stroke: #e2e8f0; stroke-width: 0.7; stroke-linecap: round"/>
     </g>
     <g id="text_1">
      <text style="fill: #262626; font: 8.8px 'DejaVu Sans'; text-anchor: middle" x="61.267342" y="341.722625" transform="rotate(-0 61.267342 341.722625)">0.42</text>
     </g>
    </g>
    <g id="xtick_2">
     <g id="line2d_2">
      <path d="M 116.141757 326.736 
L 116.141757 92.52 
" clip-path="url(#pea481370dd)" style="fill: none; stroke: #e2e8f0; stroke-width: 0.7; stroke-linecap: round"/>
     </g>
     <g id="text_2">
      <text style="fill: #262626; font: 8.8px 'DejaVu Sans'; text-anchor: middle" x="116.141757" y="341.722625" transform="rotate(-0 116.141757 341.722625)">0.44</text>
     </g>
    </g>
    <g id="xtick_3">
     <g id="line2d_3">
      <path d="M 171.016172 326.736 
L 171.016172 92.52 
" clip-path="url(#pea481370dd)" style="fill: none; stroke: #e2e8f0; stroke-width: 0.7; stroke-linecap: round"/>
     </g>
     <g id="text_3">
      <text style="fill: #262626; font: 8.8px 'DejaVu Sans'; text-anchor: middle" x="171.016172" y="341.722625" transform="rotate(-0 171.016172 341.722625)">0.46</text>
     </g>
    </g>
    <g id="xtick_4">
     <g id="line2d_4">
      <path d="M 225.890587 326.736 
L 225.890587 92.52 
" clip-path="url(#pea481370dd)" style="fill: none; stroke: #e2e8f0; stroke-width: 0.7; stroke-linecap: round"/>
     </g>
     <g id="text_4">
      <text style="fill: #262626; font: 8.8px 'DejaVu Sans'; text-anchor: middle" x="225.890587" y="341.722625" transform="rotate(-0 225.890587 341.722625)">0.48</text>
     </g>
    </g>
    <g id="xtick_5">
     <g id="line2d_5">
      <path d="M 280.765002 326.736 
L 280.765002 92.52 
" clip-path="url(#pea481370dd)" style="fill: none; stroke: #e2e8f0; stroke-width: 0.7; stroke-linecap: round"/>
     </g>
     <g id="text_5">
      <text style="fill: #262626; font: 8.8px 'DejaVu Sans'; text-anchor: middle" x="280.765002" y="341.722625" transform="rotate(-0 280.765002 341.722625)">0.50</text>
     </g>
    </g>
    <g id="xtick_6">
     <g id="line2d_6">
      <path d="M 335.639417 326.736 
L 335.639417 92.52 
" clip-path="url(#pea481370dd)" style="fill: none; stroke: #e2e8f0; stroke-width: 0.7; stroke-linecap: round"/>
     </g>
     <g id="text_6">
      <text style="fill: #262626; font: 8.8px 'DejaVu Sans'; text-anchor: middle" x="335.639417" y="341.722625" transform="rotate(-0 335.639417 341.722625)">0.52</text>
     </g>
    </g>
    <g id="xtick_7">
     <g id="line2d_7">
      <path d="M 390.513832 326.736 
L 390.513832 92.52 
" clip-path="url(#pea481370dd)" style="fill: none; stroke: #e2e8f0; stroke-width: 0.7; stroke-linecap: round"/>
     </g>
     <g id="text_7">
      <text style="fill: #262626; font: 8.8px 'DejaVu Sans'; text-anchor: middle" x="390.513832" y="341.722625" transform="rotate(-0 390.513832 341.722625)">0.54</text>
     </g>
    </g>
    <g id="text_8">
     <text style="fill: #262626; font: 9.6px 'DejaVu Sans'; text-anchor: middle" x="225.72975" y="354.84725" transform="rotate(-0 225.72975 354.84725)">Mean reciprocal rank</text>
    </g>
   </g>
   <g id="matplotlib.axis_2">
    <g id="ytick_1">
     <g id="line2d_8">
      <path d="M 48.38475 321.718421 
L 403.07475 321.718421 
" clip-path="url(#pea481370dd)" style="fill: none; stroke: #e2e8f0; stroke-width: 0.7; stroke-linecap: round"/>
     </g>
     <g id="text_9">
      <text style="fill: #262626; font: 8.8px 'DejaVu Sans'; text-anchor: end" x="40.08475" y="325.061733" transform="rotate(-0 40.08475 325.061733)">0.59</text>
     </g>
    </g>
    <g id="ytick_2">
     <g id="line2d_9">
      <path d="M 48.38475 279.23257 
L 403.07475 279.23257 
" clip-path="url(#pea481370dd)" style="fill: none; stroke: #e2e8f0; stroke-width: 0.7; stroke-linecap: round"/>
     </g>
     <g id="text_10">
      <text style="fill: #262626; font: 8.8px 'DejaVu Sans'; text-anchor: end" x="40.08475" y="282.575882" transform="rotate(-0 40.08475 282.575882)">0.60</text>
     </g>
    </g>
    <g id="ytick_3">
     <g id="line2d_10">
      <path d="M 48.38475 236.746719 
L 403.07475 236.746719 
" clip-path="url(#pea481370dd)" style="fill: none; stroke: #e2e8f0; stroke-width: 0.7; stroke-linecap: round"/>
     </g>
     <g id="text_11">
      <text style="fill: #262626; font: 8.8px 'DejaVu Sans'; text-anchor: end" x="40.08475" y="240.090031" transform="rotate(-0 40.08475 240.090031)">0.61</text>
     </g>
    </g>
    <g id="ytick_4">
     <g id="line2d_11">
      <path d="M 48.38475 194.260868 
L 403.07475 194.260868 
" clip-path="url(#pea481370dd)" style="fill: none; stroke: #e2e8f0; stroke-width: 0.7; stroke-linecap: round"/>
     </g>
     <g id="text_12">
      <text style="fill: #262626; font: 8.8px 'DejaVu Sans'; text-anchor: end" x="40.08475" y="197.60418" transform="rotate(-0 40.08475 197.60418)">0.62</text>
     </g>
    </g>
    <g id="ytick_5">
     <g id="line2d_12">
      <path d="M 48.38475 151.775017 
L 403.07475 151.775017 
" clip-path="url(#pea481370dd)" style="fill: none; stroke: #e2e8f0; stroke-width: 0.7; stroke-linecap: round"/>
     </g>
     <g id="text_13">
      <text style="fill: #262626; font: 8.8px 'DejaVu Sans'; text-anchor: end" x="40.08475" y="155.118329" transform="rotate(-0 40.08475 155.118329)">0.63</text>
     </g>
    </g>
    <g id="ytick_6">
     <g id="line2d_13">
      <path d="M 48.38475 109.289165 
L 403.07475 109.289165 
" clip-path="url(#pea481370dd)" style="fill: none; stroke: #e2e8f0; stroke-width: 0.7; stroke-linecap: round"/>
     </g>
     <g id="text_14">
      <text style="fill: #262626; font: 8.8px 'DejaVu Sans'; text-anchor: end" x="40.08475" y="112.632478" transform="rotate(-0 40.08475 112.632478)">0.64</text>
     </g>
    </g>
    <g id="text_15">
     <text style="fill: #262626; font: 9.6px 'DejaVu Sans'; text-anchor: middle" x="14.4945" y="209.628" transform="rotate(-90 14.4945 209.628)">Hits@10</text>
    </g>
   </g>
   <g id="PathCollection_1">
    <defs>
     <path id="mee028121f0" d="M 0 11.514615 
C 3.053712 11.514615 5.982762 10.301363 8.142062 8.142062 
C 10.301363 5.982762 11.514615 3.053712 11.514615 0 
C 11.514615 -3.053712 10.301363 -5.982762 8.142062 -8.142062 
C 5.982762 -10.301363 3.053712 -11.514615 0 -11.514615 
C -3.053712 -11.514615 -5.982762 -10.301363 -8.142062 -8.142062 
C -10.301363 -5.982762 -11.514615 -3.053712 -11.514615 0 
C -11.514615 3.053712 -10.301363 5.982762 -8.142062 8.142062 
C -5.982762 10.301363 -3.053712 11.514615 0 11.514615 
z
" style="stroke: #ffffff; stroke-opacity: 0.78; stroke-width: 1.2"/>
    </defs>
    <g clip-path="url(#pea481370dd)">
     <use xlink:href="#mee028121f0" x="106.942061" y="206.348092" style="fill: #2563eb; fill-opacity: 0.78; stroke: #ffffff; stroke-opacity: 0.78; stroke-width: 1.2"/>
    </g>
   </g>
   <g id="PathCollection_2">
    <defs>
     <path id="m378db10e2b" d="M 0 11.156895 
C 2.958843 11.156895 5.796898 9.981334 7.889116 7.889116 
C 9.981334 5.796898 11.156895 2.958843 11.156895 0 
C 11.156895 -2.958843 9.981334 -5.796898 7.889116 -7.889116 
C 5.796898 -9.981334 2.958843 -11.156895 0 -11.156895 
C -2.958843 -11.156895 -5.796898 -9.981334 -7.889116 -7.889116 
C -9.981334 -5.796898 -11.156895 -2.958843 -11.156895 0 
C -11.156895 2.958843 -9.981334 5.796898 -7.889116 7.889116 
C -5.796898 9.981334 -2.958843 11.156895 0 11.156895 
z
" style="stroke: #ffffff; stroke-opacity: 0.78; stroke-width: 1.2"/>
    </defs>
    <g clip-path="url(#pea481370dd)">
     <use xlink:href="#m378db10e2b" x="274.248665" y="194.486043" style="fill: #16a34a; fill-opacity: 0.78; stroke: #ffffff; stroke-opacity: 0.78; stroke-width: 1.2"/>
    </g>
   </g>
   <g id="PathCollection_3">
    <defs>
     <path id="m966698e0d4" d="M 0 10.939635 
C 2.901225 10.939635 5.684014 9.786966 7.73549 7.73549 
C 9.786966 5.684014 10.939635 2.901225 10.939635 0 
C 10.939635 -2.901225 9.786966 -5.684014 7.73549 -7.73549 
C 5.684014 -9.786966 2.901225 -10.939635 0 -10.939635 
C -2.901225 -10.939635 -5.684014 -9.786966 -7.73549 -7.73549 
C -9.786966 -5.684014 -10.939635 -2.901225 -10.939635 0 
C -10.939635 2.901225 -9.786966 5.684014 -7.73549 7.73549 
C -5.684014 9.786966 -2.901225 10.939635 0 10.939635 
z
" style="stroke: #ffffff; stroke-opacity: 0.78; stroke-width: 1.2"/>
    </defs>
    <g clip-path="url(#pea481370dd)">
     <use xlink:href="#m966698e0d4" x="223.292283" y="275.752979" style="fill: #7c3aed; fill-opacity: 0.78; stroke: #ffffff; stroke-opacity: 0.78; stroke-width: 1.2"/>
    </g>
   </g>
   <g id="patch_3">
    <path d="M 48.38475 326.736 
L 48.38475 92.52 
" style="fill: none; stroke: #cbd5e1; stroke-linejoin: miter; stroke-linecap: square"/>
   </g>
   <g id="patch_4">
    <path d="M 48.38475 326.736 
L 403.07475 326.736 
" style="fill: none; stroke: #cbd5e1; stroke-linejoin: miter; stroke-linecap: square"/>
   </g>
   <g id="text_16">
    <text style="fill: #2563eb; font: 700 8px 'DejaVu Sans'" transform="translate(113.942061 190.389842)">TransE</text>
    <text style="fill: #2563eb; font: 700 8px 'DejaVu Sans'" transform="translate(113.942061 199.348092)">AUC 0.768</text>
   </g>
   <g id="text_17">
    <text style="fill: #16a34a; font: 700 8px 'DejaVu Sans'" transform="translate(281.248665 178.527793)">DistMult</text>
    <text style="fill: #16a34a; font: 700 8px 'DejaVu Sans'" transform="translate(281.248665 187.486043)">AUC 0.744</text>
   </g>
   <g id="text_18">
    <text style="fill: #7c3aed; font: 700 8px 'DejaVu Sans'" transform="translate(230.292283 259.794729)">ComplEx</text>
    <text style="fill: #7c3aed; font: 700 8px 'DejaVu Sans'" transform="translate(230.292283 268.752979)">AUC 0.729</text>
   </g>
   <g id="text_19">
    <text style="fill: #0f172a; font: 700 11px 'DejaVu Sans'; text-anchor: start" x="48.38475" y="86.52" transform="rotate(-0 48.38475 86.52)">YAGO · evaluated triples 176,574</text>
   </g>
  </g>
  <g id="axes_2">
   <g id="patch_5">
    <path d="M 460.07475 326.736 
L 814.76475 326.736 
L 814.76475 92.52 
L 460.07475 92.52 
z
" style="fill: #ffffff"/>
   </g>
   <g id="matplotlib.axis_3">
    <g id="xtick_8">
     <g id="line2d_14">
      <path d="M 495.629564 326.736 
L 495.629564 92.52 
" clip-path="url(#p0dc9377b56)" style="fill: none; stroke: #e2e8f0; stroke-width: 0.7; stroke-linecap: round"/>
     </g>
     <g id="text_20">
      <text style="fill: #262626; font: 8.8px 'DejaVu Sans'; text-anchor: middle" x="495.629564" y="341.722625" transform="rotate(-0 495.629564 341.722625)">0.78</text>
     </g>
    </g>
    <g id="xtick_9">
     <g id="line2d_15">
      <path d="M 562.11077 326.736 
L 562.11077 92.52 
" clip-path="url(#p0dc9377b56)" style="fill: none; stroke: #e2e8f0; stroke-width: 0.7; stroke-linecap: round"/>
     </g>
     <g id="text_21">
      <text style="fill: #262626; font: 8.8px 'DejaVu Sans'; text-anchor: middle" x="562.11077" y="341.722625" transform="rotate(-0 562.11077 341.722625)">0.80</text>
     </g>
    </g>
    <g id="xtick_10">
     <g id="line2d_16">
      <path d="M 628.591977 326.736 
L 628.591977 92.52 
" clip-path="url(#p0dc9377b56)" style="fill: none; stroke: #e2e8f0; stroke-width: 0.7; stroke-linecap: round"/>
     </g>
     <g id="text_22">
      <text style="fill: #262626; font: 8.8px 'DejaVu Sans'; text-anchor: middle" x="628.591977" y="341.722625" transform="rotate(-0 628.591977 341.722625)">0.82</text>
     </g>
    </g>
    <g id="xtick_11">
     <g id="line2d_17">
      <path d="M 695.073183 326.736 
L 695.073183 92.52 
" clip-path="url(#p0dc9377b56)" style="fill: none; stroke: #e2e8f0; stroke-width: 0.7; stroke-linecap: round"/>
     </g>
     <g id="text_23">
      <text style="fill: #262626; font: 8.8px 'DejaVu Sans'; text-anchor: middle" x="695.073183" y="341.722625" transform="rotate(-0 695.073183 341.722625)">0.84</text>
     </g>
    </g>
    <g id="xtick_12">
     <g id="line2d_18">
      <path d="M 761.554389 326.736 
L 761.554389 92.52 
" clip-path="url(#p0dc9377b56)" style="fill: none; stroke: #e2e8f0; stroke-width: 0.7; stroke-linecap: round"/>
     </g>
     <g id="text_24">
      <text style="fill: #262626; font: 8.8px 'DejaVu Sans'; text-anchor: middle" x="761.554389" y="341.722625" transform="rotate(-0 761.554389 341.722625)">0.86</text>
     </g>
    </g>
    <g id="text_25">
     <text style="fill: #262626; font: 9.6px 'DejaVu Sans'; text-anchor: middle" x="637.41975" y="354.84725" transform="rotate(-0 637.41975 354.84725)">Mean reciprocal rank</text>
    </g>
   </g>
   <g id="matplotlib.axis_4">
    <g id="ytick_7">
     <g id="line2d_19">
      <path d="M 460.07475 316.607741 
L 814.76475 316.607741 
" clip-path="url(#p0dc9377b56)" style="fill: none; stroke: #e2e8f0; stroke-width: 0.7; stroke-linecap: round"/>
     </g>
     <g id="text_26">
      <text style="fill: #262626; font: 8.8px 'DejaVu Sans'; text-anchor: end" x="451.77475" y="319.951053" transform="rotate(-0 451.77475 319.951053)">0.890</text>
     </g>
    </g>
    <g id="ytick_8">
     <g id="line2d_20">
      <path d="M 460.07475 289.085296 
L 814.76475 289.085296 
" clip-path="url(#p0dc9377b56)" style="fill: none; stroke: #e2e8f0; stroke-width: 0.7; stroke-linecap: round"/>
     </g>
     <g id="text_27">
      <text style="fill: #262626; font: 8.8px 'DejaVu Sans'; text-anchor: end" x="451.77475" y="292.428609" transform="rotate(-0 451.77475 292.428609)">0.895</text>
     </g>
    </g>
    <g id="ytick_9">
     <g id="line2d_21">
      <path d="M 460.07475 261.562852 
L 814.76475 261.562852 
" clip-path="url(#p0dc9377b56)" style="fill: none; stroke: #e2e8f0; stroke-width: 0.7; stroke-linecap: round"/>
     </g>
     <g id="text_28">
      <text style="fill: #262626; font: 8.8px 'DejaVu Sans'; text-anchor: end" x="451.77475" y="264.906165" transform="rotate(-0 451.77475 264.906165)">0.900</text>
     </g>
    </g>
    <g id="ytick_10">
     <g id="line2d_22">
      <path d="M 460.07475 234.040408 
L 814.76475 234.040408 
" clip-path="url(#p0dc9377b56)" style="fill: none; stroke: #e2e8f0; stroke-width: 0.7; stroke-linecap: round"/>
     </g>
     <g id="text_29">
      <text style="fill: #262626; font: 8.8px 'DejaVu Sans'; text-anchor: end" x="451.77475" y="237.38372" transform="rotate(-0 451.77475 237.38372)">0.905</text>
     </g>
    </g>
    <g id="ytick_11">
     <g id="line2d_23">
      <path d="M 460.07475 206.517964 
L 814.76475 206.517964 
" clip-path="url(#p0dc9377b56)" style="fill: none; stroke: #e2e8f0; stroke-width: 0.7; stroke-linecap: round"/>
     </g>
     <g id="text_30">
      <text style="fill: #262626; font: 8.8px 'DejaVu Sans'; text-anchor: end" x="451.77475" y="209.861276" transform="rotate(-0 451.77475 209.861276)">0.910</text>
     </g>
    </g>
    <g id="ytick_12">
     <g id="line2d_24">
      <path d="M 460.07475 178.99552 
L 814.76475 178.99552 
" clip-path="url(#p0dc9377b56)" style="fill: none; stroke: #e2e8f0; stroke-width: 0.7; stroke-linecap: round"/>
     </g>
     <g id="text_31">
      <text style="fill: #262626; font: 8.8px 'DejaVu Sans'; text-anchor: end" x="451.77475" y="182.338832" transform="rotate(-0 451.77475 182.338832)">0.915</text>
     </g>
    </g>
    <g id="ytick_13">
     <g id="line2d_25">
      <path d="M 460.07475 151.473075 
L 814.76475 151.473075 
" clip-path="url(#p0dc9377b56)" style="fill: none; stroke: #e2e8f0; stroke-width: 0.7; stroke-linecap: round"/>
     </g>
     <g id="text_32">
      <text style="fill: #262626; font: 8.8px 'DejaVu Sans'; text-anchor: end" x="451.77475" y="154.816388" transform="rotate(-0 451.77475 154.816388)">0.920</text>
     </g>
    </g>
    <g id="ytick_14">
     <g id="line2d_26">
      <path d="M 460.07475 123.950631 
L 814.76475 123.950631 
" clip-path="url(#p0dc9377b56)" style="fill: none; stroke: #e2e8f0; stroke-width: 0.7; stroke-linecap: round"/>
     </g>
     <g id="text_33">
      <text style="fill: #262626; font: 8.8px 'DejaVu Sans'; text-anchor: end" x="451.77475" y="127.293944" transform="rotate(-0 451.77475 127.293944)">0.925</text>
     </g>
    </g>
    <g id="ytick_15">
     <g id="line2d_27">
      <path d="M 460.07475 96.428187 
L 814.76475 96.428187 
" clip-path="url(#p0dc9377b56)" style="fill: none; stroke: #e2e8f0; stroke-width: 0.7; stroke-linecap: round"/>
     </g>
     <g id="text_34">
      <text style="fill: #262626; font: 8.8px 'DejaVu Sans'; text-anchor: end" x="451.77475" y="99.7715" transform="rotate(-0 451.77475 99.7715)">0.930</text>
     </g>
    </g>
    <g id="text_35">
     <text style="fill: #262626; font: 9.6px 'DejaVu Sans'; text-anchor: middle" x="420.5855" y="209.628" transform="rotate(-90 420.5855 209.628)">Hits@10</text>
    </g>
   </g>
   <g id="PathCollection_4">
    <defs>
     <path id="mb0267e280e" d="M 0 13.9722 
C 3.705471 13.9722 7.259674 12.500001 9.879837 9.879837 
C 12.500001 7.259674 13.9722 3.705471 13.9722 0 
C 13.9722 -3.705471 12.500001 -7.259674 9.879837 -9.879837 
C 7.259674 -12.500001 3.705471 -13.9722 0 -13.9722 
C -3.705471 -13.9722 -7.259674 -12.500001 -9.879837 -9.879837 
C -12.500001 -7.259674 -13.9722 -3.705471 -13.9722 0 
C -13.9722 3.705471 -12.500001 7.259674 -9.879837 9.879837 
C -7.259674 12.500001 -3.705471 13.9722 0 13.9722 
z
" style="stroke: #ffffff; stroke-opacity: 0.78; stroke-width: 1.2"/>
    </defs>
    <g clip-path="url(#p0dc9377b56)">
     <use xlink:href="#mb0267e280e" x="518.632061" y="260.682134" style="fill: #2563eb; fill-opacity: 0.78; stroke: #ffffff; stroke-opacity: 0.78; stroke-width: 1.2"/>
    </g>
   </g>
   <g id="PathCollection_5">
    <defs>
     <path id="m1b804c5580" d="M 0 14.2137 
C 3.769517 14.2137 7.385152 12.716055 10.050604 10.050604 
C 12.716055 7.385152 14.2137 3.769517 14.2137 0 
C 14.2137 -3.769517 12.716055 -7.385152 10.050604 -10.050604 
C 7.385152 -12.716055 3.769517 -14.2137 0 -14.2137 
C -3.769517 -14.2137 -7.385152 -12.716055 -10.050604 -10.050604 
C -12.716055 -7.385152 -14.2137 -3.769517 -14.2137 0 
C -14.2137 3.769517 -12.716055 7.385152 -10.050604 10.050604 
C -7.385152 12.716055 -3.769517 14.2137 0 14.2137 
z
" style="stroke: #ffffff; stroke-opacity: 0.78; stroke-width: 1.2"/>
    </defs>
    <g clip-path="url(#p0dc9377b56)">
     <use xlink:href="#m1b804c5580" x="685.938665" y="224.627732" style="fill: #16a34a; fill-opacity: 0.78; stroke: #ffffff; stroke-opacity: 0.78; stroke-width: 1.2"/>
    </g>
   </g>
   <g id="PathCollection_6">
    <defs>
     <path id="m3bd96a93e3" d="M 0 14.1834 
C 3.761482 14.1834 7.369409 12.688948 10.029178 10.029178 
C 12.688948 7.369409 14.1834 3.761482 14.1834 0 
C 14.1834 -3.761482 12.688948 -7.369409 10.029178 -10.029178 
C 7.369409 -12.688948 3.761482 -14.1834 0 -14.1834 
C -3.761482 -14.1834 -7.369409 -12.688948 -10.029178 -10.029178 
C -12.688948 -7.369409 -14.1834 -3.761482 -14.1834 0 
C -14.1834 3.761482 -12.688948 7.369409 -10.029178 10.029178 
C -7.369409 12.688948 -3.761482 14.1834 0 14.1834 
z
" style="stroke: #ffffff; stroke-opacity: 0.78; stroke-width: 1.2"/>
    </defs>
    <g clip-path="url(#p0dc9377b56)">
     <use xlink:href="#m3bd96a93e3" x="682.175829" y="239.269672" style="fill: #7c3aed; fill-opacity: 0.78; stroke: #ffffff; stroke-opacity: 0.78; stroke-width: 1.2"/>
    </g>
   </g>
   <g id="patch_6">
    <path d="M 460.07475 326.736 
L 460.07475 92.52 
" style="fill: none; stroke: #cbd5e1; stroke-linejoin: miter; stroke-linecap: square"/>
   </g>
   <g id="patch_7">
    <path d="M 460.07475 326.736 
L 814.76475 326.736 
" style="fill: none; stroke: #cbd5e1; stroke-linejoin: miter; stroke-linecap: square"/>
   </g>
   <g id="text_36">
    <text style="fill: #2563eb; font: 700 8px 'DejaVu Sans'" transform="translate(525.632061 244.723884)">TransE</text>
    <text style="fill: #2563eb; font: 700 8px 'DejaVu Sans'" transform="translate(525.632061 253.682134)">AUC 0.931</text>
   </g>
   <g id="text_37">
    <text style="fill: #16a34a; font: 700 8px 'DejaVu Sans'" transform="translate(692.938665 208.669482)">DistMult</text>
    <text style="fill: #16a34a; font: 700 8px 'DejaVu Sans'" transform="translate(692.938665 217.627732)">AUC 0.948</text>
   </g>
   <g id="text_38">
    <text style="fill: #7c3aed; font: 700 8px 'DejaVu Sans'" transform="translate(689.175829 257.311422)">ComplEx</text>
    <text style="fill: #7c3aed; font: 700 8px 'DejaVu Sans'" transform="translate(689.175829 266.269672)">AUC 0.946</text>
   </g>
   <g id="text_39">
    <text style="fill: #0f172a; font: 700 11px 'DejaVu Sans'; text-anchor: start" x="460.07475" y="86.52" transform="rotate(-0 460.07475 86.52)">SemOpenAlex · evaluated triples 50,000</text>
   </g>
  </g>
  <g id="text_40">
   <text style="fill: #0f172a; font: 700 14px 'DejaVu Sans'; text-anchor: start" x="54.98475" y="17.837812" transform="rotate(-0 54.98475 17.837812)">Final link-prediction model trade-offs</text>
  </g>
  <g id="text_41">
   <text style="fill: #475569; font: 8.4px 'DejaVu Sans'; text-anchor: start" x="54.98475" y="27.396" transform="rotate(-0 54.98475 27.396)">Higher and farther right is better; bubble area encodes AUC and labels report its exact value.</text>
  </g>
 </g>
 <defs>
  <clipPath id="pea481370dd">
   <rect x="48.38475" y="92.52" width="354.69" height="234.216"/>
  </clipPath>
  <clipPath id="p0dc9377b56">
   <rect x="460.07475" y="92.52" width="354.69" height="234.216"/>
  </clipPath>
 </defs>
</svg>
