<?xml version="1.0" encoding="utf-8" standalone="no"?>
<!DOCTYPE svg PUBLIC "-//W3C//DTD SVG 1.1//EN"
  "http://www.w3.org/Graphics/SVG/1.1/DTD/svg11.dtd">
<svg xmlns:xlink="http://www.w3.org/1999/xlink" width="821.94575pt" height="364.04375pt" viewBox="0 0 821.94575 364.04375" xmlns="http://www.w3.org/2000/svg" version="1.1">
 <metadata>
  <rdf:RDF xmlns:dc="http://purl.org/dc/elements/1.1/" xmlns:cc="http://creativecommons.org/ns#" xmlns:rdf="http://www.w3.org/1999/02/22-rdf-syntax-ns#">
   <cc:Work>
    <dc:type rdf:resource="http://purl.org/dc/dcmitype/StillImage"/>
    <dc:date>2026-07-02T23:59:26.590525</dc:date>
    <dc:format>image/svg+xml</dc:format>
    <dc:creator>
     <cc:Agent>
      <dc:title>Matplotlib v3.9.4, https://matplotlib.org/</dc:title>
     </cc:Agent>
    </dc:creator>
   </cc:Work>
  </rdf:RDF>
 </metadata>
 <defs>
  <style type="text/css">*{stroke-linejoin: round; stroke-linecap: butt}</style>
 </defs>
 <g id="figure_1">
  <g id="patch_1">
   <path d="M 0 364.04375 
L 821.94575 364.04375 
L 821.94575 0 
L 0 0 
z
" style="fill: #ffffff"/>
  </g>
  <g id="axes_1">
   <g id="patch_2">
    <path d="M 42.78575 326.736 
L 403.05575 326.736 
L 403.05575 92.52 
L 42.78575 92.52 
z
" style="fill: #ffffff"/>
   </g>
   <g id="matplotlib.axis_1">
    <g id="xtick_1">
     <g id="line2d_1">
      <path d="M 59.161659 326.736 
L 59.161659 92.52 
" clip-path="url(#pc337922634)" style="fill: none; stroke: #e2e8f0; stroke-width: 0.7; stroke-linecap: round"/>
     </g>
     <g id="text_1">
      <text style="fill: #262626; font: 8.8px 'DejaVu Sans'; text-anchor: middle" x="59.161659" y="341.722625" transform="rotate(-0 59.161659 341.722625)">1</text>
     </g>
    </g>
    <g id="xtick_2">
     <g id="line2d_2">
      <path d="M 251.936211 326.736 
L 251.936211 92.52 
" clip-path="url(#pc337922634)" style="fill: none; stroke: #e2e8f0; stroke-width: 0.7; stroke-linecap: round"/>
     </g>
     <g id="text_2">
      <text style="fill: #262626; font: 8.8px 'DejaVu Sans'; text-anchor: middle" x="251.936211" y="341.722625" transform="rotate(-0 251.936211 341.722625)">10</text>
     </g>
    </g>
    <g id="xtick_3">
     <g id="line2d_3">
      <path d="M 386.679841 326.736 
L 386.679841 92.52 
" clip-path="url(#pc337922634)" style="fill: none; stroke: #e2e8f0; stroke-width: 0.7; stroke-linecap: round"/>
     </g>
     <g id="text_3">
      <text style="fill: #262626; font: 8.8px 'DejaVu Sans'; text-anchor: middle" x="386.679841" y="341.722625" transform="rotate(-0 386.679841 341.722625)">50</text>
     </g>
    </g>
    <g id="xtick_4"/>
    <g id="xtick_5"/>
    <g id="xtick_6"/>
    <g id="xtick_7"/>
    <g id="xtick_8"/>
    <g id="xtick_9"/>
    <g id="xtick_10"/>
    <g id="xtick_11"/>
    <g id="xtick_12"/>
    <g id="xtick_13"/>
    <g id="xtick_14"/>
    <g id="xtick_15"/>
    <g id="xtick_16"/>
    <g id="text_4">
     <text style="fill: #262626; font: 9.6px 'DejaVu Sans'; text-anchor: middle" x="222.92075" y="354.84725" transform="rotate(-0 222.92075 354.84725)">K</text>
    </g>
   </g>
   <g id="matplotlib.axis_2">
    <g id="ytick_1">
     <g id="line2d_4">
      <path d="M 42.78575 312.92632 
L 403.05575 312.92632 
" clip-path="url(#pc337922634)" style="fill: none; stroke: #e2e8f0; stroke-width: 0.7; stroke-linecap: round"/>
     </g>
     <g id="text_5">
      <text style="fill: #262626; font: 8.8px 'DejaVu Sans'; text-anchor: end" x="34.48575" y="316.269632" transform="rotate(-0 34.48575 316.269632)">0.3</text>
     </g>
    </g>
    <g id="ytick_2">
     <g id="line2d_5">
      <path d="M 42.78575 282.314331 
L 403.05575 282.314331 
" clip-path="url(#pc337922634)" style="fill: none; stroke: #e2e8f0; stroke-width: 0.7; stroke-linecap: round"/>
     </g>
     <g id="text_6">
      <text style="fill: #262626; font: 8.8px 'DejaVu Sans'; text-anchor: end" x="34.48575" y="285.657643" transform="rotate(-0 34.48575 285.657643)">0.4</text>
     </g>
    </g>
    <g id="ytick_3">
     <g id="line2d_6">
      <path d="M 42.78575 251.702342 
L 403.05575 251.702342 
" clip-path="url(#pc337922634)" style="fill: none; stroke: #e2e8f0; stroke-width: 0.7; stroke-linecap: round"/>
     </g>
     <g id="text_7">
      <text style="fill: #262626; font: 8.8px 'DejaVu Sans'; text-anchor: end" x="34.48575" y="255.045654" transform="rotate(-0 34.48575 255.045654)">0.5</text>
     </g>
    </g>
    <g id="ytick_4">
     <g id="line2d_7">
      <path d="M 42.78575 221.090353 
L 403.05575 221.090353 
" clip-path="url(#pc337922634)" style="fill: none; stroke: #e2e8f0; stroke-width: 0.7; stroke-linecap: round"/>
     </g>
     <g id="text_8">
      <text style="fill: #262626; font: 8.8px 'DejaVu Sans'; text-anchor: end" x="34.48575" y="224.433666" transform="rotate(-0 34.48575 224.433666)">0.6</text>
     </g>
    </g>
    <g id="ytick_5">
     <g id="line2d_8">
      <path d="M 42.78575 190.478364 
L 403.05575 190.478364 
" clip-path="url(#pc337922634)" style="fill: none; stroke: #e2e8f0; stroke-width: 0.7; stroke-linecap: round"/>
     </g>
     <g id="text_9">
      <text style="fill: #262626; font: 8.8px 'DejaVu Sans'; text-anchor: end" x="34.48575" y="193.821677" transform="rotate(-0 34.48575 193.821677)">0.7</text>
     </g>
    </g>
    <g id="ytick_6">
     <g id="line2d_9">
      <path d="M 42.78575 159.866375 
L 403.05575 159.866375 
" clip-path="url(#pc337922634)" style="fill: none; stroke: #e2e8f0; stroke-width: 0.7; stroke-linecap: round"/>
     </g>
     <g id="text_10">
      <text style="fill: #262626; font: 8.8px 'DejaVu Sans'; text-anchor: end" x="34.48575" y="163.209688" transform="rotate(-0 34.48575 163.209688)">0.8</text>
     </g>
    </g>
    <g id="ytick_7">
     <g id="line2d_10">
      <path d="M 42.78575 129.254387 
L 403.05575 129.254387 
" clip-path="url(#pc337922634)" style="fill: none; stroke: #e2e8f0; stroke-width: 0.7; stroke-linecap: round"/>
     </g>
     <g id="text_11">
      <text style="fill: #262626; font: 8.8px 'DejaVu Sans'; text-anchor: end" x="34.48575" y="132.597699" transform="rotate(-0 34.48575 132.597699)">0.9</text>
     </g>
    </g>
    <g id="ytick_8">
     <g id="line2d_11">
      <path d="M 42.78575 98.642398 
L 403.05575 98.642398 
" clip-path="url(#pc337922634)" style="fill: none; stroke: #e2e8f0; stroke-width: 0.7; stroke-linecap: round"/>
     </g>
     <g id="text_12">
      <text style="fill: #262626; font: 8.8px 'DejaVu Sans'; text-anchor: end" x="34.48575" y="101.98571" transform="rotate(-0 34.48575 101.98571)">1.0</text>
     </g>
    </g>
    <g id="text_13">
     <text style="fill: #262626; font: 9.6px 'DejaVu Sans'; text-anchor: middle" x="14.4945" y="209.628" transform="rotate(-90 14.4945 209.628)">Hits@K</text>
    </g>
   </g>
   <g id="line2d_12">
    <path d="M 59.161659 302.246409 
L 251.936211 215.838866 
L 386.679841 103.041647 
" clip-path="url(#pc337922634)" style="fill: none; stroke: #2563eb; stroke-width: 2; stroke-linecap: round"/>
    <defs>
     <path id="me912be3063" d="M 0 2.5 
C 0.663008 2.5 1.29895 2.236584 1.767767 1.767767 
C 2.236584 1.29895 2.5 0.663008 2.5 0 
C 2.5 -0.663008 2.236584 -1.29895 1.767767 -1.767767 
C 1.29895 -2.236584 0.663008 -2.5 0 -2.5 
C -0.663008 -2.5 -1.29895 -2.236584 -1.767767 -1.767767 
C -2.236584 -1.29895 -2.5 -0.663008 -2.5 0 
C -2.5 0.663008 -2.236584 1.29895 -1.767767 1.767767 
C -1.29895 2.236584 -0.663008 2.5 0 2.5 
z
" style="stroke: #2563eb"/>
    </defs>
    <g clip-path="url(#pc337922634)">
     <use xlink:href="#me912be3063" x="59.161659" y="302.246409" style="fill: #2563eb; stroke: #2563eb"/>
     <use xlink:href="#me912be3063" x="251.936211" y="215.838866" style="fill: #2563eb; stroke: #2563eb"/>
     <use xlink:href="#me912be3063" x="386.679841" y="103.041647" style="fill: #2563eb; stroke: #2563eb"/>
    </g>
   </g>
   <g id="line2d_13">
    <path d="M 59.161659 276.764071 
L 251.936211 214.98418 
L 386.679841 107.720689 
" clip-path="url(#pc337922634)" style="fill: none; stroke: #16a34a; stroke-width: 2; stroke-linecap: round"/>
    <defs>
     <path id="mccdefef7e6" d="M 0 2.5 
C 0.663008 2.5 1.29895 2.236584 1.767767 1.767767 
C 2.236584 1.29895 2.5 0.663008 2.5 0 
C 2.5 -0.663008 2.236584 -1.29895 1.767767 -1.767767 
C 1.29895 -2.236584 0.663008 -2.5 0 -2.5 
C -0.663008 -2.5 -1.29895 -2.236584 -1.767767 -1.767767 
C -2.236584 -1.29895 -2.5 -0.663008 -2.5 0 
C -2.5 0.663008 -2.236584 1.29895 -1.767767 1.767767 
C -1.29895 2.236584 -0.663008 2.5 0 2.5 
z
" style="stroke: #16a34a"/>
    </defs>
    <g clip-path="url(#pc337922634)">
     <use xlink:href="#mccdefef7e6" x="59.161659" y="276.764071" style="fill: #16a34a; stroke: #16a34a"/>
     <use xlink:href="#mccdefef7e6" x="251.936211" y="214.98418" style="fill: #16a34a; stroke: #16a34a"/>
     <use xlink:href="#mccdefef7e6" x="386.679841" y="107.720689" style="fill: #16a34a; stroke: #16a34a"/>
    </g>
   </g>
   <g id="line2d_14">
    <path d="M 59.161659 282.114128 
L 251.936211 220.839641 
L 386.679841 110.42434 
" clip-path="url(#pc337922634)" style="fill: none; stroke: #7c3aed; stroke-width: 2; stroke-linecap: round"/>
    <defs>
     <path id="ma24ea78870" d="M 0 2.5 
C 0.663008 2.5 1.29895 2.236584 1.767767 1.767767 
C 2.236584 1.29895 2.5 0.663008 2.5 0 
C 2.5 -0.663008 2.236584 -1.29895 1.767767 -1.767767 
C 1.29895 -2.236584 0.663008 -2.5 0 -2.5 
C -0.663008 -2.5 -1.29895 -2.236584 -1.767767 -1.767767 
C -2.236584 -1.29895 -2.5 -0.663008 -2.5 0 
C -2.5 0.663008 -2.236584 1.29895 -1.767767 1.767767 
C -1.29895 2.236584 -0.663008 2.5 0 2.5 
z
" style="stroke: #7c3aed"/>
    </defs>
    <g clip-path="url(#pc337922634)">
     <use xlink:href="#ma24ea78870" x="59.161659" y="282.114128" style="fill: #7c3aed; stroke: #7c3aed"/>
     <use xlink:href="#ma24ea78870" x="251.936211" y="220.839641" style="fill: #7c3aed; stroke: #7c3aed"/>
     <use xlink:href="#ma24ea78870" x="386.679841" y="110.42434" style="fill: #7c3aed; stroke: #7c3aed"/>
    </g>
   </g>
   <g id="patch_3">
    <path d="M 42.78575 326.736 
L 42.78575 92.52 
" style="fill: none; stroke: #cbd5e1; stroke-linejoin: miter; stroke-linecap: square"/>
   </g>
   <g id="patch_4">
    <path d="M 42.78575 326.736 
L 403.05575 326.736 
" style="fill: none; stroke: #cbd5e1; stroke-linejoin: miter; stroke-linecap: square"/>
   </g>
   <g id="text_14">
    <text style="fill: #0f172a; font: 700 11px 'DejaVu Sans'; text-anchor: start" x="42.78575" y="86.52" transform="rotate(-0 42.78575 86.52)">YAGO</text>
   </g>
   <g id="legend_1">
    <g id="patch_5">
     <path d="M 48.94575 138.31025 
L 116.00725 138.31025 
Q 117.76725 138.31025 117.76725 136.55025 
L 117.76725 98.68 
Q 117.76725 96.92 116.00725 96.92 
L 48.94575 96.92 
Q 47.18575 96.92 47.18575 98.68 
L 47.18575 136.55025 
Q 47.18575 138.31025 48.94575 138.31025 
z
" style="fill: #ffffff; opacity: 0.8; stroke: #cccccc; stroke-width: 0.8; stroke-linejoin: miter"/>
    </g>
    <g id="line2d_15">
     <path d="M 50.70575 104.046625 
L 59.50575 104.046625 
L 68.30575 104.046625 
" style="fill: none; stroke: #2563eb; stroke-width: 2; stroke-linecap: round"/>
     <g>
      <use xlink:href="#me912be3063" x="59.50575" y="104.046625" style="fill: #2563eb; stroke: #2563eb"/>
     </g>
    </g>
    <g id="text_15">
     <text style="fill: #0f172a; font: 8.8px 'DejaVu Sans'; text-anchor: start" x="75.34575" y="107.126625" transform="rotate(-0 75.34575 107.126625)">TransE</text>
    </g>
    <g id="line2d_16">
     <path d="M 50.70575 116.963375 
L 59.50575 116.963375 
L 68.30575 116.963375 
" style="fill: none; stroke: #16a34a; stroke-width: 2; stroke-linecap: round"/>
     <g>
      <use xlink:href="#mccdefef7e6" x="59.50575" y="116.963375" style="fill: #16a34a; stroke: #16a34a"/>
     </g>
    </g>
    <g id="text_16">
     <text style="fill: #0f172a; font: 8.8px 'DejaVu Sans'; text-anchor: start" x="75.34575" y="120.043375" transform="rotate(-0 75.34575 120.043375)">DistMult</text>
    </g>
    <g id="line2d_17">
     <path d="M 50.70575 129.880125 
L 59.50575 129.880125 
L 68.30575 129.880125 
" style="fill: none; stroke: #7c3aed; stroke-width: 2; stroke-linecap: round"/>
     <g>
      <use xlink:href="#ma24ea78870" x="59.50575" y="129.880125" style="fill: #7c3aed; stroke: #7c3aed"/>
     </g>
    </g>
    <g id="text_17">
     <text style="fill: #0f172a; font: 8.8px 'DejaVu Sans'; text-anchor: start" x="75.34575" y="132.960125" transform="rotate(-0 75.34575 132.960125)">ComplEx</text>
    </g>
   </g>
  </g>
  <g id="axes_2">
   <g id="patch_6">
    <path d="M 454.47575 326.736 
L 814.74575 326.736 
L 814.74575 92.52 
L 454.47575 92.52 
z
" style="fill: #ffffff"/>
   </g>
   <g id="matplotlib.axis_3">
    <g id="xtick_17">
     <g id="line2d_18">
      <path d="M 470.851659 326.736 
L 470.851659 92.52 
" clip-path="url(#p71e8003aff)" style="fill: none; stroke: #e2e8f0; stroke-width: 0.7; stroke-linecap: round"/>
     </g>
     <g id="text_18">
      <text style="fill: #262626; font: 8.8px 'DejaVu Sans'; text-anchor: middle" x="470.851659" y="341.722625" transform="rotate(-0 470.851659 341.722625)">1</text>
     </g>
    </g>
    <g id="xtick_18">
     <g id="line2d_19">
      <path d="M 663.626211 326.736 
L 663.626211 92.52 
" clip-path="url(#p71e8003aff)" style="fill: none; stroke: #e2e8f0; stroke-width: 0.7; stroke-linecap: round"/>
     </g>
     <g id="text_19">
      <text style="fill: #262626; font: 8.8px 'DejaVu Sans'; text-anchor: middle" x="663.626211" y="341.722625" transform="rotate(-0 663.626211 341.722625)">10</text>
     </g>
    </g>
    <g id="xtick_19">
     <g id="line2d_20">
      <path d="M 798.369841 326.736 
L 798.369841 92.52 
" clip-path="url(#p71e8003aff)" style="fill: none; stroke: #e2e8f0; stroke-width: 0.7; stroke-linecap: round"/>
     </g>
     <g id="text_20">
      <text style="fill: #262626; font: 8.8px 'DejaVu Sans'; text-anchor: middle" x="798.369841" y="341.722625" transform="rotate(-0 798.369841 341.722625)">50</text>
     </g>
    </g>
    <g id="xtick_20"/>
    <g id="xtick_21"/>
    <g id="xtick_22"/>
    <g id="xtick_23"/>
    <g id="xtick_24"/>
    <g id="xtick_25"/>
    <g id="xtick_26"/>
    <g id="xtick_27"/>
    <g id="xtick_28"/>
    <g id="xtick_29"/>
    <g id="xtick_30"/>
    <g id="xtick_31"/>
    <g id="xtick_32"/>
    <g id="text_21">
     <text style="fill: #262626; font: 9.6px 'DejaVu Sans'; text-anchor: middle" x="634.61075" y="354.84725" transform="rotate(-0 634.61075 354.84725)">K</text>
    </g>
   </g>
   <g id="matplotlib.axis_4">
    <g id="ytick_9">
     <g id="line2d_21">
      <path d="M 454.47575 323.108899 
L 814.74575 323.108899 
" clip-path="url(#p71e8003aff)" style="fill: none; stroke: #e2e8f0; stroke-width: 0.7; stroke-linecap: round"/>
     </g>
     <g id="text_22">
      <text style="fill: #262626; font: 8.8px 'DejaVu Sans'; text-anchor: end" x="446.17575" y="326.452211" transform="rotate(-0 446.17575 326.452211)">0.65</text>
     </g>
    </g>
    <g id="ytick_10">
     <g id="line2d_22">
      <path d="M 454.47575 291.948237 
L 814.74575 291.948237 
" clip-path="url(#p71e8003aff)" style="fill: none; stroke: #e2e8f0; stroke-width: 0.7; stroke-linecap: round"/>
     </g>
     <g id="text_23">
      <text style="fill: #262626; font: 8.8px 'DejaVu Sans'; text-anchor: end" x="446.17575" y="295.291549" transform="rotate(-0 446.17575 295.291549)">0.70</text>
     </g>
    </g>
    <g id="ytick_11">
     <g id="line2d_23">
      <path d="M 454.47575 260.787575 
L 814.74575 260.787575 
" clip-path="url(#p71e8003aff)" style="fill: none; stroke: #e2e8f0; stroke-width: 0.7; stroke-linecap: round"/>
     </g>
     <g id="text_24">
      <text style="fill: #262626; font: 8.8px 'DejaVu Sans'; text-anchor: end" x="446.17575" y="264.130887" transform="rotate(-0 446.17575 264.130887)">0.75</text>
     </g>
    </g>
    <g id="ytick_12">
     <g id="line2d_24">
      <path d="M 454.47575 229.626913 
L 814.74575 229.626913 
" clip-path="url(#p71e8003aff)" style="fill: none; stroke: #e2e8f0; stroke-width: 0.7; stroke-linecap: round"/>
     </g>
     <g id="text_25">
      <text style="fill: #262626; font: 8.8px 'DejaVu Sans'; text-anchor: end" x="446.17575" y="232.970225" transform="rotate(-0 446.17575 232.970225)">0.80</text>
     </g>
    </g>
    <g id="ytick_13">
     <g id="line2d_25">
      <path d="M 454.47575 198.466251 
L 814.74575 198.466251 
" clip-path="url(#p71e8003aff)" style="fill: none; stroke: #e2e8f0; stroke-width: 0.7; stroke-linecap: round"/>
     </g>
     <g id="text_26">
      <text style="fill: #262626; font: 8.8px 'DejaVu Sans'; text-anchor: end" x="446.17575" y="201.809563" transform="rotate(-0 446.17575 201.809563)">0.85</text>
     </g>
    </g>
    <g id="ytick_14">
     <g id="line2d_26">
      <path d="M 454.47575 167.305589 
L 814.74575 167.305589 
" clip-path="url(#p71e8003aff)" style="fill: none; stroke: #e2e8f0; stroke-width: 0.7; stroke-linecap: round"/>
     </g>
     <g id="text_27">
      <text style="fill: #262626; font: 8.8px 'DejaVu Sans'; text-anchor: end" x="446.17575" y="170.648901" transform="rotate(-0 446.17575 170.648901)">0.90</text>
     </g>
    </g>
    <g id="ytick_15">
     <g id="line2d_27">
      <path d="M 454.47575 136.144927 
L 814.74575 136.144927 
" clip-path="url(#p71e8003aff)" style="fill: none; stroke: #e2e8f0; stroke-width: 0.7; stroke-linecap: round"/>
     </g>
     <g id="text_28">
      <text style="fill: #262626; font: 8.8px 'DejaVu Sans'; text-anchor: end" x="446.17575" y="139.488239" transform="rotate(-0 446.17575 139.488239)">0.95</text>
     </g>
    </g>
    <g id="ytick_16">
     <g id="line2d_28">
      <path d="M 454.47575 104.984265 
L 814.74575 104.984265 
" clip-path="url(#p71e8003aff)" style="fill: none; stroke: #e2e8f0; stroke-width: 0.7; stroke-linecap: round"/>
     </g>
     <g id="text_29">
      <text style="fill: #262626; font: 8.8px 'DejaVu Sans'; text-anchor: end" x="446.17575" y="108.327577" transform="rotate(-0 446.17575 108.327577)">1.00</text>
     </g>
    </g>
    <g id="text_30">
     <text style="fill: #262626; font: 9.6px 'DejaVu Sans'; text-anchor: middle" x="420.5855" y="209.628" transform="rotate(-90 420.5855 209.628)">Hits@K</text>
    </g>
   </g>
   <g id="line2d_29">
    <path d="M 470.851659 276.878941 
L 663.626211 167.205875 
L 798.369841 107.315082 
" clip-path="url(#p71e8003aff)" style="fill: none; stroke: #2563eb; stroke-width: 2; stroke-linecap: round"/>
    <g clip-path="url(#p71e8003aff)">
     <use xlink:href="#me912be3063" x="470.851659" y="276.878941" style="fill: #2563eb; stroke: #2563eb"/>
     <use xlink:href="#me912be3063" x="663.626211" y="167.205875" style="fill: #2563eb; stroke: #2563eb"/>
     <use xlink:href="#me912be3063" x="798.369841" y="107.315082" style="fill: #2563eb; stroke: #2563eb"/>
    </g>
   </g>
   <g id="line2d_30">
    <path d="M 470.851659 229.726627 
L 663.626211 163.123828 
L 798.369841 105.277175 
" clip-path="url(#p71e8003aff)" style="fill: none; stroke: #16a34a; stroke-width: 2; stroke-linecap: round"/>
    <g clip-path="url(#p71e8003aff)">
     <use xlink:href="#mccdefef7e6" x="470.851659" y="229.726627" style="fill: #16a34a; stroke: #16a34a"/>
     <use xlink:href="#mccdefef7e6" x="663.626211" y="163.123828" style="fill: #16a34a; stroke: #16a34a"/>
     <use xlink:href="#mccdefef7e6" x="798.369841" y="105.277175" style="fill: #16a34a; stroke: #16a34a"/>
    </g>
   </g>
   <g id="line2d_31">
    <path d="M 470.851659 230.007073 
L 663.626211 164.781575 
L 798.369841 105.183693 
" clip-path="url(#p71e8003aff)" style="fill: none; stroke: #7c3aed; stroke-width: 2; stroke-linecap: round"/>
    <g clip-path="url(#p71e8003aff)">
     <use xlink:href="#ma24ea78870" x="470.851659" y="230.007073" style="fill: #7c3aed; stroke: #7c3aed"/>
     <use xlink:href="#ma24ea78870" x="663.626211" y="164.781575" style="fill: #7c3aed; stroke: #7c3aed"/>
     <use xlink:href="#ma24ea78870" x="798.369841" y="105.183693" style="fill: #7c3aed; stroke: #7c3aed"/>
    </g>
   </g>
   <g id="patch_7">
    <path d="M 454.47575 326.736 
L 454.47575 92.52 
" style="fill: none; stroke: #cbd5e1; stroke-linejoin: miter; stroke-linecap: square"/>
   </g>
   <g id="patch_8">
    <path d="M 454.47575 326.736 
L 814.74575 326.736 
" style="fill: none; stroke: #cbd5e1; stroke-linejoin: miter; stroke-linecap: square"/>
   </g>
   <g id="text_31">
    <text style="fill: #0f172a; font: 700 11px 'DejaVu Sans'; text-anchor: start" x="454.47575" y="86.52" transform="rotate(-0 454.47575 86.52)">SemOpenAlex</text>
   </g>
   <g id="legend_2">
    <g id="patch_9">
     <path d="M 460.63575 138.31025 
L 527.69725 138.31025 
Q 529.45725 138.31025 529.45725 136.55025 
L 529.45725 98.68 
Q 529.45725 96.92 527.69725 96.92 
L 460.63575 96.92 
Q 458.87575 96.92 458.87575 98.68 
L 458.87575 136.55025 
Q 458.87575 138.31025 460.63575 138.31025 
z
" style="fill: #ffffff; opacity: 0.8; stroke: #cccccc; stroke-width: 0.8; stroke-linejoin: miter"/>
    </g>
    <g id="line2d_32">
     <path d="M 462.39575 104.046625 
L 471.19575 104.046625 
L 479.99575 104.046625 
" style="fill: none; stroke: #2563eb; stroke-width: 2; stroke-linecap: round"/>
     <g>
      <use xlink:href="#me912be3063" x="471.19575" y="104.046625" style="fill: #2563eb; stroke: #2563eb"/>
     </g>
    </g>
    <g id="text_32">
     <text style="fill: #0f172a; font: 8.8px 'DejaVu Sans'; text-anchor: start" x="487.03575" y="107.126625" transform="rotate(-0 487.03575 107.126625)">TransE</text>
    </g>
    <g id="line2d_33">
     <path d="M 462.39575 116.963375 
L 471.19575 116.963375 
L 479.99575 116.963375 
" style="fill: none; stroke: #16a34a; stroke-width: 2; stroke-linecap: round"/>
     <g>
      <use xlink:href="#mccdefef7e6" x="471.19575" y="116.963375" style="fill: #16a34a; stroke: #16a34a"/>
     </g>
    </g>
    <g id="text_33">
     <text style="fill: #0f172a; font: 8.8px 'DejaVu Sans'; text-anchor: start" x="487.03575" y="120.043375" transform="rotate(-0 487.03575 120.043375)">DistMult</text>
    </g>
    <g id="line2d_34">
     <path d="M 462.39575 129.880125 
L 471.19575 129.880125 
L 479.99575 129.880125 
" style="fill: none; stroke: #7c3aed; stroke-width: 2; stroke-linecap: round"/>
     <g>
      <use xlink:href="#ma24ea78870" x="471.19575" y="129.880125" style="fill: #7c3aed; stroke: #7c3aed"/>
     </g>
    </g>
    <g id="text_34">
     <text style="fill: #0f172a; font: 8.8px 'DejaVu Sans'; text-anchor: start" x="487.03575" y="132.960125" transform="rotate(-0 487.03575 132.960125)">ComplEx</text>
    </g>
   </g>
  </g>
  <g id="text_35">
   <text style="fill: #0f172a; font: 700 14px 'DejaVu Sans'; text-anchor: start" x="54.96575" y="17.837812" transform="rotate(-0 54.96575 17.837812)">Final Hits@K curves</text>
  </g>
  <g id="text_36">
   <text style="fill: #475569; font: 8.4px 'DejaVu Sans'; text-anchor: start" x="54.96575" y="27.396" transform="rotate(-0 54.96575 27.396)">Lines connect the three K values actually emitted by torchbiggraph_eval: 1, 10, and 50.</text>
  </g>
 </g>
 <defs>
  <clipPath id="pc337922634">
   <rect x="42.78575" y="92.52" width="360.27" height="234.216"/>
  </clipPath>
  <clipPath id="p71e8003aff">
   <rect x="454.47575" y="92.52" width="360.27" height="234.216"/>
  </clipPath>
 </defs>
</svg>
